%TF.GenerationSoftware,KiCad,Pcbnew,7.0.9*%
%TF.CreationDate,2024-01-23T11:42:20+00:00*%
%TF.ProjectId,mainboard,6d61696e-626f-4617-9264-2e6b69636164,rev?*%
%TF.SameCoordinates,Original*%
%TF.FileFunction,Soldermask,Bot*%
%TF.FilePolarity,Negative*%
%FSLAX46Y46*%
G04 Gerber Fmt 4.6, Leading zero omitted, Abs format (unit mm)*
G04 Created by KiCad (PCBNEW 7.0.9) date 2024-01-23 11:42:20*
%MOMM*%
%LPD*%
G01*
G04 APERTURE LIST*
G04 Aperture macros list*
%AMRoundRect*
0 Rectangle with rounded corners*
0 $1 Rounding radius*
0 $2 $3 $4 $5 $6 $7 $8 $9 X,Y pos of 4 corners*
0 Add a 4 corners polygon primitive as box body*
4,1,4,$2,$3,$4,$5,$6,$7,$8,$9,$2,$3,0*
0 Add four circle primitives for the rounded corners*
1,1,$1+$1,$2,$3*
1,1,$1+$1,$4,$5*
1,1,$1+$1,$6,$7*
1,1,$1+$1,$8,$9*
0 Add four rect primitives between the rounded corners*
20,1,$1+$1,$2,$3,$4,$5,0*
20,1,$1+$1,$4,$5,$6,$7,0*
20,1,$1+$1,$6,$7,$8,$9,0*
20,1,$1+$1,$8,$9,$2,$3,0*%
%AMFreePoly0*
4,1,39,0.785921,0.985921,0.800800,0.950000,0.800800,-0.950000,0.785921,-0.985921,0.750000,-1.000800,0.000000,-1.000800,-0.012322,-0.995696,-0.084376,-0.995696,-0.096533,-0.994220,-0.260380,-0.953835,-0.271831,-0.949492,-0.421253,-0.871070,-0.431332,-0.864113,-0.557645,-0.752210,-0.565766,-0.743043,-0.661627,-0.604163,-0.667318,-0.593320,-0.727158,-0.435535,-0.730089,-0.423644,-0.750615,-0.254600,
-0.750800,-0.251535,-0.750800,0.251535,-0.750615,0.254600,-0.730089,0.423644,-0.727158,0.435535,-0.667318,0.593320,-0.661627,0.604163,-0.565766,0.743043,-0.557645,0.752210,-0.431332,0.864113,-0.421253,0.871070,-0.271831,0.949492,-0.260380,0.953835,-0.096533,0.994220,-0.084376,0.995696,-0.012322,0.995696,0.000000,1.000800,0.750000,1.000800,0.785921,0.985921,0.785921,0.985921,
$1*%
%AMFreePoly1*
4,1,39,0.012322,0.995696,0.084376,0.995696,0.096533,0.994220,0.260380,0.953835,0.271831,0.949492,0.421253,0.871070,0.431332,0.864113,0.557645,0.752210,0.565766,0.743043,0.661627,0.604163,0.667318,0.593320,0.727158,0.435535,0.730089,0.423644,0.750615,0.254600,0.750800,0.251535,0.750800,-0.251535,0.750615,-0.254600,0.730089,-0.423644,0.727158,-0.435535,0.667318,-0.593320,
0.661627,-0.604163,0.565766,-0.743043,0.557645,-0.752210,0.431332,-0.864113,0.421253,-0.871070,0.271831,-0.949492,0.260380,-0.953835,0.096533,-0.994220,0.084376,-0.995696,0.012322,-0.995696,0.000000,-1.000800,-0.750000,-1.000800,-0.785921,-0.985921,-0.800800,-0.950000,-0.800800,0.950000,-0.785921,0.985921,-0.750000,1.000800,0.000000,1.000800,0.012322,0.995696,0.012322,0.995696,
$1*%
G04 Aperture macros list end*
%ADD10C,0.190500*%
%ADD11C,0.010000*%
%ADD12RoundRect,0.063500X0.812800X-0.406400X0.812800X0.406400X-0.812800X0.406400X-0.812800X-0.406400X0*%
%ADD13RoundRect,0.063500X0.381000X0.152400X-0.381000X0.152400X-0.381000X-0.152400X0.381000X-0.152400X0*%
%ADD14RoundRect,0.063500X0.152400X-0.381000X0.152400X0.381000X-0.152400X0.381000X-0.152400X-0.381000X0*%
%ADD15RoundRect,0.063500X-0.381000X-0.152400X0.381000X-0.152400X0.381000X0.152400X-0.381000X0.152400X0*%
%ADD16RoundRect,0.063500X-0.152400X0.381000X-0.152400X-0.381000X0.152400X-0.381000X0.152400X0.381000X0*%
%ADD17RoundRect,0.063500X1.397000X1.397000X-1.397000X1.397000X-1.397000X-1.397000X1.397000X-1.397000X0*%
%ADD18RoundRect,0.250800X-0.275000X0.200000X-0.275000X-0.200000X0.275000X-0.200000X0.275000X0.200000X0*%
%ADD19RoundRect,0.250800X-0.200000X-0.275000X0.200000X-0.275000X0.200000X0.275000X-0.200000X0.275000X0*%
%ADD20RoundRect,0.250800X0.200000X0.275000X-0.200000X0.275000X-0.200000X-0.275000X0.200000X-0.275000X0*%
%ADD21RoundRect,0.250800X0.275000X-0.200000X0.275000X0.200000X-0.275000X0.200000X-0.275000X-0.200000X0*%
%ADD22RoundRect,0.050800X-0.750000X-0.775000X0.750000X-0.775000X0.750000X0.775000X-0.750000X0.775000X0*%
%ADD23C,1.901600*%
%ADD24C,1.509600*%
%ADD25RoundRect,0.050800X0.225000X0.675000X-0.225000X0.675000X-0.225000X-0.675000X0.225000X-0.675000X0*%
%ADD26RoundRect,0.063500X-0.450000X-0.700000X0.450000X-0.700000X0.450000X0.700000X-0.450000X0.700000X0*%
%ADD27RoundRect,0.063500X-1.100000X-0.700000X1.100000X-0.700000X1.100000X0.700000X-1.100000X0.700000X0*%
%ADD28RoundRect,0.063500X-0.939800X0.939800X-0.939800X-0.939800X0.939800X-0.939800X0.939800X0.939800X0*%
%ADD29C,2.006600*%
%ADD30RoundRect,0.063500X0.939800X-0.939800X0.939800X0.939800X-0.939800X0.939800X-0.939800X-0.939800X0*%
%ADD31RoundRect,0.063500X-0.939800X-0.939800X0.939800X-0.939800X0.939800X0.939800X-0.939800X0.939800X0*%
%ADD32RoundRect,0.063500X0.939800X0.939800X-0.939800X0.939800X-0.939800X-0.939800X0.939800X-0.939800X0*%
%ADD33RoundRect,0.063500X1.016000X-1.016000X1.016000X1.016000X-1.016000X1.016000X-1.016000X-1.016000X0*%
%ADD34C,2.159000*%
%ADD35O,1.801600X1.801600*%
%ADD36C,5.701600*%
%ADD37C,0.751600*%
%ADD38O,1.101600X2.201600*%
%ADD39O,1.101600X1.701600*%
%ADD40C,2.133600*%
%ADD41C,2.151600*%
%ADD42C,2.351600*%
%ADD43RoundRect,0.269550X-0.218750X-0.256250X0.218750X-0.256250X0.218750X0.256250X-0.218750X0.256250X0*%
%ADD44RoundRect,0.269550X0.256250X-0.218750X0.256250X0.218750X-0.256250X0.218750X-0.256250X-0.218750X0*%
%ADD45RoundRect,0.050800X0.304800X1.104900X-0.304800X1.104900X-0.304800X-1.104900X0.304800X-1.104900X0*%
%ADD46RoundRect,0.063500X0.660400X-0.279400X0.660400X0.279400X-0.660400X0.279400X-0.660400X-0.279400X0*%
%ADD47RoundRect,0.063500X-1.143000X-0.990600X1.143000X-0.990600X1.143000X0.990600X-1.143000X0.990600X0*%
%ADD48RoundRect,0.063500X0.990600X-1.143000X0.990600X1.143000X-0.990600X1.143000X-0.990600X-1.143000X0*%
%ADD49RoundRect,0.063500X-0.620000X0.400000X-0.620000X-0.400000X0.620000X-0.400000X0.620000X0.400000X0*%
%ADD50RoundRect,0.063500X-0.600000X0.580000X-0.600000X-0.580000X0.600000X-0.580000X0.600000X0.580000X0*%
%ADD51RoundRect,0.063500X-1.250000X0.475000X-1.250000X-0.475000X1.250000X-0.475000X1.250000X0.475000X0*%
%ADD52RoundRect,0.063500X-1.100000X0.575000X-1.100000X-0.575000X1.100000X-0.575000X1.100000X0.575000X0*%
%ADD53RoundRect,0.063500X-0.575000X0.750000X-0.575000X-0.750000X0.575000X-0.750000X0.575000X0.750000X0*%
%ADD54RoundRect,0.063500X-0.625000X0.580000X-0.625000X-0.580000X0.625000X-0.580000X0.625000X0.580000X0*%
%ADD55RoundRect,0.269550X-0.256250X0.218750X-0.256250X-0.218750X0.256250X-0.218750X0.256250X0.218750X0*%
%ADD56RoundRect,0.269550X0.218750X0.256250X-0.218750X0.256250X-0.218750X-0.256250X0.218750X-0.256250X0*%
%ADD57RoundRect,0.200800X-0.725000X-0.150000X0.725000X-0.150000X0.725000X0.150000X-0.725000X0.150000X0*%
%ADD58C,2.000000*%
%ADD59RoundRect,0.063500X-0.650000X1.000000X-0.650000X-1.000000X0.650000X-1.000000X0.650000X1.000000X0*%
%ADD60RoundRect,0.063500X-2.400000X2.849999X-2.400000X-2.849999X2.400000X-2.849999X2.400000X2.849999X0*%
%ADD61RoundRect,0.050800X0.150000X0.400000X-0.150000X0.400000X-0.150000X-0.400000X0.150000X-0.400000X0*%
%ADD62RoundRect,0.050800X-0.400000X0.150000X-0.400000X-0.150000X0.400000X-0.150000X0.400000X0.150000X0*%
%ADD63RoundRect,0.050800X-1.400000X1.400000X-1.400000X-1.400000X1.400000X-1.400000X1.400000X1.400000X0*%
%ADD64RoundRect,0.228400X-0.222400X-0.822400X0.222400X-0.822400X0.222400X0.822400X-0.222400X0.822400X0*%
%ADD65RoundRect,0.050800X-0.300000X0.200000X-0.300000X-0.200000X0.300000X-0.200000X0.300000X0.200000X0*%
%ADD66RoundRect,0.050800X-0.325000X-0.200000X0.325000X-0.200000X0.325000X0.200000X-0.325000X0.200000X0*%
%ADD67RoundRect,0.294550X-0.243750X-0.456250X0.243750X-0.456250X0.243750X0.456250X-0.243750X0.456250X0*%
%ADD68RoundRect,0.063500X-1.016000X1.016000X-1.016000X-1.016000X1.016000X-1.016000X1.016000X1.016000X0*%
%ADD69C,1.501600*%
%ADD70RoundRect,0.050800X-0.500000X1.000000X-0.500000X-1.000000X0.500000X-1.000000X0.500000X1.000000X0*%
%ADD71FreePoly0,270.000000*%
%ADD72RoundRect,0.050800X-0.950000X0.700000X-0.950000X-0.700000X0.950000X-0.700000X0.950000X0.700000X0*%
%ADD73FreePoly1,270.000000*%
G04 APERTURE END LIST*
D10*
X42164290Y88901815D02*
X42926290Y88901815D01*
X42563433Y88901815D02*
X42563433Y89337244D01*
X42164290Y89337244D02*
X42926290Y89337244D01*
X42926290Y89845244D02*
X42926290Y89990387D01*
X42926290Y89990387D02*
X42890004Y90062958D01*
X42890004Y90062958D02*
X42817433Y90135530D01*
X42817433Y90135530D02*
X42672290Y90171815D01*
X42672290Y90171815D02*
X42418290Y90171815D01*
X42418290Y90171815D02*
X42273147Y90135530D01*
X42273147Y90135530D02*
X42200576Y90062958D01*
X42200576Y90062958D02*
X42164290Y89990387D01*
X42164290Y89990387D02*
X42164290Y89845244D01*
X42164290Y89845244D02*
X42200576Y89772672D01*
X42200576Y89772672D02*
X42273147Y89700101D01*
X42273147Y89700101D02*
X42418290Y89663815D01*
X42418290Y89663815D02*
X42672290Y89663815D01*
X42672290Y89663815D02*
X42817433Y89700101D01*
X42817433Y89700101D02*
X42890004Y89772672D01*
X42890004Y89772672D02*
X42926290Y89845244D01*
X42164290Y90861244D02*
X42164290Y90498387D01*
X42164290Y90498387D02*
X42926290Y90498387D01*
X42164290Y91478101D02*
X42164290Y91115244D01*
X42164290Y91115244D02*
X42926290Y91115244D01*
X42164290Y91732101D02*
X42926290Y91732101D01*
X42164290Y92094958D02*
X42926290Y92094958D01*
X42926290Y92094958D02*
X42926290Y92276387D01*
X42926290Y92276387D02*
X42890004Y92385244D01*
X42890004Y92385244D02*
X42817433Y92457815D01*
X42817433Y92457815D02*
X42744861Y92494101D01*
X42744861Y92494101D02*
X42599718Y92530387D01*
X42599718Y92530387D02*
X42490861Y92530387D01*
X42490861Y92530387D02*
X42345718Y92494101D01*
X42345718Y92494101D02*
X42273147Y92457815D01*
X42273147Y92457815D02*
X42200576Y92385244D01*
X42200576Y92385244D02*
X42164290Y92276387D01*
X42164290Y92276387D02*
X42164290Y92094958D01*
X42382004Y92820672D02*
X42382004Y93183529D01*
X42164290Y92748101D02*
X42926290Y93002101D01*
X42926290Y93002101D02*
X42164290Y93256101D01*
X42527147Y93655244D02*
X42164290Y93655244D01*
X42926290Y93401244D02*
X42527147Y93655244D01*
X42527147Y93655244D02*
X42926290Y93909244D01*
%TO.C,REF\u002A\u002A*%
D11*
X38693986Y3085924D02*
X38791125Y3084961D01*
X38869611Y3083212D01*
X38927760Y3080735D01*
X38963884Y3077590D01*
X38976300Y3073833D01*
X38972141Y3061160D01*
X38960043Y3026713D01*
X38940773Y2972619D01*
X38915099Y2900992D01*
X38883789Y2813948D01*
X38847611Y2713604D01*
X38807332Y2602074D01*
X38763719Y2481474D01*
X38717541Y2353920D01*
X38669565Y2221528D01*
X38620559Y2086413D01*
X38571291Y1950691D01*
X38522528Y1816478D01*
X38475037Y1685888D01*
X38429588Y1561039D01*
X38386946Y1444045D01*
X38347881Y1337022D01*
X38313159Y1242087D01*
X38283548Y1161353D01*
X38259816Y1096938D01*
X38242731Y1050957D01*
X38233061Y1025525D01*
X38228655Y1018755D01*
X38219437Y1013486D01*
X38202482Y1009570D01*
X38174846Y1006815D01*
X38133585Y1005025D01*
X38075755Y1004007D01*
X37998414Y1003568D01*
X37898617Y1003513D01*
X37572950Y1003726D01*
X37191950Y2027680D01*
X37148289Y2145063D01*
X37092751Y2294500D01*
X37040234Y2435946D01*
X36991387Y2567647D01*
X36946860Y2687844D01*
X36907302Y2794781D01*
X36873365Y2886701D01*
X36845696Y2961847D01*
X36824947Y3018463D01*
X36811766Y3054790D01*
X36806805Y3069073D01*
X36806786Y3071256D01*
X36812399Y3076013D01*
X36828193Y3079575D01*
X36856705Y3082048D01*
X36900469Y3083536D01*
X36962020Y3084143D01*
X37043895Y3083973D01*
X37148628Y3083131D01*
X37494596Y3079750D01*
X37637808Y2562812D01*
X37646128Y2532717D01*
X37678674Y2413824D01*
X37710361Y2296332D01*
X37740184Y2184081D01*
X37767136Y2080912D01*
X37790213Y1990667D01*
X37808407Y1917187D01*
X37820714Y1864312D01*
X37826514Y1837911D01*
X37840685Y1774526D01*
X37852981Y1721046D01*
X37862246Y1682445D01*
X37867323Y1663700D01*
X37868296Y1662605D01*
X37874600Y1673488D01*
X37884558Y1704235D01*
X37897010Y1750953D01*
X37910798Y1809750D01*
X37916637Y1834762D01*
X37931785Y1894904D01*
X37952616Y1973911D01*
X37978176Y2068313D01*
X38007513Y2174640D01*
X38039675Y2289423D01*
X38073708Y2409191D01*
X38108659Y2530475D01*
X38269962Y3086100D01*
X38623131Y3086100D01*
X38693986Y3085924D01*
G36*
X38693986Y3085924D02*
G01*
X38791125Y3084961D01*
X38869611Y3083212D01*
X38927760Y3080735D01*
X38963884Y3077590D01*
X38976300Y3073833D01*
X38972141Y3061160D01*
X38960043Y3026713D01*
X38940773Y2972619D01*
X38915099Y2900992D01*
X38883789Y2813948D01*
X38847611Y2713604D01*
X38807332Y2602074D01*
X38763719Y2481474D01*
X38717541Y2353920D01*
X38669565Y2221528D01*
X38620559Y2086413D01*
X38571291Y1950691D01*
X38522528Y1816478D01*
X38475037Y1685888D01*
X38429588Y1561039D01*
X38386946Y1444045D01*
X38347881Y1337022D01*
X38313159Y1242087D01*
X38283548Y1161353D01*
X38259816Y1096938D01*
X38242731Y1050957D01*
X38233061Y1025525D01*
X38228655Y1018755D01*
X38219437Y1013486D01*
X38202482Y1009570D01*
X38174846Y1006815D01*
X38133585Y1005025D01*
X38075755Y1004007D01*
X37998414Y1003568D01*
X37898617Y1003513D01*
X37572950Y1003726D01*
X37191950Y2027680D01*
X37148289Y2145063D01*
X37092751Y2294500D01*
X37040234Y2435946D01*
X36991387Y2567647D01*
X36946860Y2687844D01*
X36907302Y2794781D01*
X36873365Y2886701D01*
X36845696Y2961847D01*
X36824947Y3018463D01*
X36811766Y3054790D01*
X36806805Y3069073D01*
X36806786Y3071256D01*
X36812399Y3076013D01*
X36828193Y3079575D01*
X36856705Y3082048D01*
X36900469Y3083536D01*
X36962020Y3084143D01*
X37043895Y3083973D01*
X37148628Y3083131D01*
X37494596Y3079750D01*
X37637808Y2562812D01*
X37646128Y2532717D01*
X37678674Y2413824D01*
X37710361Y2296332D01*
X37740184Y2184081D01*
X37767136Y2080912D01*
X37790213Y1990667D01*
X37808407Y1917187D01*
X37820714Y1864312D01*
X37826514Y1837911D01*
X37840685Y1774526D01*
X37852981Y1721046D01*
X37862246Y1682445D01*
X37867323Y1663700D01*
X37868296Y1662605D01*
X37874600Y1673488D01*
X37884558Y1704235D01*
X37897010Y1750953D01*
X37910798Y1809750D01*
X37916637Y1834762D01*
X37931785Y1894904D01*
X37952616Y1973911D01*
X37978176Y2068313D01*
X38007513Y2174640D01*
X38039675Y2289423D01*
X38073708Y2409191D01*
X38108659Y2530475D01*
X38269962Y3086100D01*
X38623131Y3086100D01*
X38693986Y3085924D01*
G37*
X34949727Y5473679D02*
X35128963Y5473600D01*
X35285867Y5473436D01*
X35421926Y5473162D01*
X35538631Y5472750D01*
X35637469Y5472173D01*
X35719930Y5471405D01*
X35787502Y5470419D01*
X35841675Y5469189D01*
X35883937Y5467687D01*
X35915776Y5465886D01*
X35938682Y5463761D01*
X35954144Y5461284D01*
X35963650Y5458429D01*
X35968690Y5455168D01*
X35970751Y5451476D01*
X35971168Y5449591D01*
X35974765Y5426730D01*
X35981033Y5381724D01*
X35989705Y5316725D01*
X36000516Y5233884D01*
X36013198Y5135354D01*
X36027485Y5023287D01*
X36043112Y4899835D01*
X36059811Y4767149D01*
X36077316Y4627382D01*
X36095360Y4482686D01*
X36113679Y4335212D01*
X36132004Y4187113D01*
X36150069Y4040542D01*
X36167609Y3897648D01*
X36184357Y3760586D01*
X36200046Y3631507D01*
X36214410Y3512562D01*
X36227182Y3405904D01*
X36238097Y3313685D01*
X36246887Y3238057D01*
X36253287Y3181172D01*
X36257030Y3145182D01*
X36257849Y3132238D01*
X36249325Y3131002D01*
X36221532Y3132821D01*
X36182300Y3138176D01*
X36152258Y3142478D01*
X36074418Y3150413D01*
X35979931Y3156941D01*
X35874671Y3161872D01*
X35764513Y3165012D01*
X35655333Y3166169D01*
X35553004Y3165149D01*
X35463402Y3161761D01*
X35332365Y3152002D01*
X35160727Y3130485D01*
X35009837Y3099721D01*
X34877740Y3059069D01*
X34762479Y3007890D01*
X34662097Y2945546D01*
X34574637Y2871396D01*
X34515961Y2802466D01*
X34459904Y2704128D01*
X34422917Y2595548D01*
X34405565Y2480952D01*
X34408417Y2364565D01*
X34432038Y2250614D01*
X34476996Y2143325D01*
X34499581Y2107636D01*
X34553935Y2042711D01*
X34622088Y1978746D01*
X34697553Y1921560D01*
X34773848Y1876971D01*
X34800018Y1864445D01*
X34876636Y1831369D01*
X34949443Y1806857D01*
X35024246Y1789791D01*
X35106851Y1779053D01*
X35203067Y1773524D01*
X35318700Y1772088D01*
X35351401Y1772208D01*
X35440969Y1773481D01*
X35513920Y1776505D01*
X35576918Y1781789D01*
X35636623Y1789842D01*
X35699700Y1801173D01*
X35787743Y1819541D01*
X35996385Y1873239D01*
X36187358Y1938077D01*
X36216737Y1949254D01*
X36260409Y1965192D01*
X36291046Y1975473D01*
X36303351Y1978260D01*
X36304648Y1974459D01*
X36311068Y1950178D01*
X36321906Y1906648D01*
X36336303Y1847511D01*
X36353402Y1776408D01*
X36372344Y1696978D01*
X36392270Y1612864D01*
X36412322Y1527704D01*
X36431640Y1445140D01*
X36449368Y1368812D01*
X36464645Y1302361D01*
X36476615Y1249428D01*
X36484417Y1213653D01*
X36487194Y1198676D01*
X36487172Y1198280D01*
X36474716Y1184898D01*
X36442040Y1165939D01*
X36393078Y1143115D01*
X36331764Y1118134D01*
X36262033Y1092708D01*
X36187818Y1068547D01*
X36071550Y1035943D01*
X35876426Y992150D01*
X35674300Y959087D01*
X35620749Y953588D01*
X35538713Y948634D01*
X35442519Y945496D01*
X35337105Y944115D01*
X35227414Y944434D01*
X35118385Y946394D01*
X35014959Y949938D01*
X34922076Y955007D01*
X34844676Y961545D01*
X34787700Y969491D01*
X34701401Y987422D01*
X34481285Y1047256D01*
X34278064Y1123916D01*
X34092491Y1216989D01*
X33925322Y1326064D01*
X33777309Y1450731D01*
X33649208Y1590577D01*
X33555041Y1718766D01*
X33475472Y1853764D01*
X33411682Y1997004D01*
X33359578Y2156485D01*
X33352544Y2182944D01*
X33344901Y2218121D01*
X33339435Y2255604D01*
X33335803Y2300011D01*
X33333660Y2355958D01*
X33332664Y2428066D01*
X33332471Y2520950D01*
X33332504Y2546999D01*
X33332916Y2632231D01*
X33334107Y2698309D01*
X33336507Y2750182D01*
X33340551Y2792803D01*
X33346671Y2831121D01*
X33355298Y2870086D01*
X33366867Y2914650D01*
X33368120Y2919284D01*
X33424952Y3087582D01*
X33499653Y3238848D01*
X33593482Y3375238D01*
X33707693Y3498906D01*
X33753655Y3540794D01*
X33869811Y3632591D01*
X33994087Y3710258D01*
X34132118Y3777063D01*
X34289541Y3836274D01*
X34308802Y3842641D01*
X34420414Y3876168D01*
X34528128Y3901839D01*
X34637749Y3920479D01*
X34755081Y3932914D01*
X34885930Y3939971D01*
X35036098Y3942474D01*
X35058414Y3942562D01*
X35155548Y3943535D01*
X35228847Y3945444D01*
X35279605Y3948360D01*
X35309116Y3952350D01*
X35318673Y3957484D01*
X35317747Y3966820D01*
X35313662Y3998831D01*
X35306773Y4049753D01*
X35297577Y4115977D01*
X35286570Y4193895D01*
X35274250Y4279900D01*
X35265137Y4343341D01*
X35253738Y4423411D01*
X35244009Y4492587D01*
X35236446Y4547308D01*
X35231544Y4584012D01*
X35229800Y4599142D01*
X35225719Y4600210D01*
X35199771Y4602008D01*
X35151647Y4603692D01*
X35083399Y4605236D01*
X34997078Y4606614D01*
X34894737Y4607800D01*
X34778426Y4608767D01*
X34650199Y4609491D01*
X34512107Y4609944D01*
X34366200Y4610100D01*
X33502600Y4610100D01*
X33502600Y5473700D01*
X34746670Y5473700D01*
X34949727Y5473679D01*
G36*
X34949727Y5473679D02*
G01*
X35128963Y5473600D01*
X35285867Y5473436D01*
X35421926Y5473162D01*
X35538631Y5472750D01*
X35637469Y5472173D01*
X35719930Y5471405D01*
X35787502Y5470419D01*
X35841675Y5469189D01*
X35883937Y5467687D01*
X35915776Y5465886D01*
X35938682Y5463761D01*
X35954144Y5461284D01*
X35963650Y5458429D01*
X35968690Y5455168D01*
X35970751Y5451476D01*
X35971168Y5449591D01*
X35974765Y5426730D01*
X35981033Y5381724D01*
X35989705Y5316725D01*
X36000516Y5233884D01*
X36013198Y5135354D01*
X36027485Y5023287D01*
X36043112Y4899835D01*
X36059811Y4767149D01*
X36077316Y4627382D01*
X36095360Y4482686D01*
X36113679Y4335212D01*
X36132004Y4187113D01*
X36150069Y4040542D01*
X36167609Y3897648D01*
X36184357Y3760586D01*
X36200046Y3631507D01*
X36214410Y3512562D01*
X36227182Y3405904D01*
X36238097Y3313685D01*
X36246887Y3238057D01*
X36253287Y3181172D01*
X36257030Y3145182D01*
X36257849Y3132238D01*
X36249325Y3131002D01*
X36221532Y3132821D01*
X36182300Y3138176D01*
X36152258Y3142478D01*
X36074418Y3150413D01*
X35979931Y3156941D01*
X35874671Y3161872D01*
X35764513Y3165012D01*
X35655333Y3166169D01*
X35553004Y3165149D01*
X35463402Y3161761D01*
X35332365Y3152002D01*
X35160727Y3130485D01*
X35009837Y3099721D01*
X34877740Y3059069D01*
X34762479Y3007890D01*
X34662097Y2945546D01*
X34574637Y2871396D01*
X34515961Y2802466D01*
X34459904Y2704128D01*
X34422917Y2595548D01*
X34405565Y2480952D01*
X34408417Y2364565D01*
X34432038Y2250614D01*
X34476996Y2143325D01*
X34499581Y2107636D01*
X34553935Y2042711D01*
X34622088Y1978746D01*
X34697553Y1921560D01*
X34773848Y1876971D01*
X34800018Y1864445D01*
X34876636Y1831369D01*
X34949443Y1806857D01*
X35024246Y1789791D01*
X35106851Y1779053D01*
X35203067Y1773524D01*
X35318700Y1772088D01*
X35351401Y1772208D01*
X35440969Y1773481D01*
X35513920Y1776505D01*
X35576918Y1781789D01*
X35636623Y1789842D01*
X35699700Y1801173D01*
X35787743Y1819541D01*
X35996385Y1873239D01*
X36187358Y1938077D01*
X36216737Y1949254D01*
X36260409Y1965192D01*
X36291046Y1975473D01*
X36303351Y1978260D01*
X36304648Y1974459D01*
X36311068Y1950178D01*
X36321906Y1906648D01*
X36336303Y1847511D01*
X36353402Y1776408D01*
X36372344Y1696978D01*
X36392270Y1612864D01*
X36412322Y1527704D01*
X36431640Y1445140D01*
X36449368Y1368812D01*
X36464645Y1302361D01*
X36476615Y1249428D01*
X36484417Y1213653D01*
X36487194Y1198676D01*
X36487172Y1198280D01*
X36474716Y1184898D01*
X36442040Y1165939D01*
X36393078Y1143115D01*
X36331764Y1118134D01*
X36262033Y1092708D01*
X36187818Y1068547D01*
X36071550Y1035943D01*
X35876426Y992150D01*
X35674300Y959087D01*
X35620749Y953588D01*
X35538713Y948634D01*
X35442519Y945496D01*
X35337105Y944115D01*
X35227414Y944434D01*
X35118385Y946394D01*
X35014959Y949938D01*
X34922076Y955007D01*
X34844676Y961545D01*
X34787700Y969491D01*
X34701401Y987422D01*
X34481285Y1047256D01*
X34278064Y1123916D01*
X34092491Y1216989D01*
X33925322Y1326064D01*
X33777309Y1450731D01*
X33649208Y1590577D01*
X33555041Y1718766D01*
X33475472Y1853764D01*
X33411682Y1997004D01*
X33359578Y2156485D01*
X33352544Y2182944D01*
X33344901Y2218121D01*
X33339435Y2255604D01*
X33335803Y2300011D01*
X33333660Y2355958D01*
X33332664Y2428066D01*
X33332471Y2520950D01*
X33332504Y2546999D01*
X33332916Y2632231D01*
X33334107Y2698309D01*
X33336507Y2750182D01*
X33340551Y2792803D01*
X33346671Y2831121D01*
X33355298Y2870086D01*
X33366867Y2914650D01*
X33368120Y2919284D01*
X33424952Y3087582D01*
X33499653Y3238848D01*
X33593482Y3375238D01*
X33707693Y3498906D01*
X33753655Y3540794D01*
X33869811Y3632591D01*
X33994087Y3710258D01*
X34132118Y3777063D01*
X34289541Y3836274D01*
X34308802Y3842641D01*
X34420414Y3876168D01*
X34528128Y3901839D01*
X34637749Y3920479D01*
X34755081Y3932914D01*
X34885930Y3939971D01*
X35036098Y3942474D01*
X35058414Y3942562D01*
X35155548Y3943535D01*
X35228847Y3945444D01*
X35279605Y3948360D01*
X35309116Y3952350D01*
X35318673Y3957484D01*
X35317747Y3966820D01*
X35313662Y3998831D01*
X35306773Y4049753D01*
X35297577Y4115977D01*
X35286570Y4193895D01*
X35274250Y4279900D01*
X35265137Y4343341D01*
X35253738Y4423411D01*
X35244009Y4492587D01*
X35236446Y4547308D01*
X35231544Y4584012D01*
X35229800Y4599142D01*
X35225719Y4600210D01*
X35199771Y4602008D01*
X35151647Y4603692D01*
X35083399Y4605236D01*
X34997078Y4606614D01*
X34894737Y4607800D01*
X34778426Y4608767D01*
X34650199Y4609491D01*
X34512107Y4609944D01*
X34366200Y4610100D01*
X33502600Y4610100D01*
X33502600Y5473700D01*
X34746670Y5473700D01*
X34949727Y5473679D01*
G37*
%TD*%
D12*
%TO.C,U14*%
X19034462Y26701557D03*
X19034462Y30001557D03*
X19034462Y28901557D03*
X19034462Y27801557D03*
X19034462Y23701557D03*
X19034462Y18201557D03*
X19034462Y20401557D03*
X19034462Y21501557D03*
X19034462Y22601557D03*
X19034462Y31101557D03*
X19034462Y19301557D03*
X19034462Y17101557D03*
X31234462Y17101557D03*
X31234462Y21501557D03*
X31234462Y20401557D03*
X31234462Y19301557D03*
X31234462Y18201557D03*
X31234462Y23701557D03*
X31234462Y26701557D03*
X31234462Y31101557D03*
X31234462Y30001557D03*
X31234462Y28901557D03*
X31234462Y27801557D03*
X31234462Y22601557D03*
%TD*%
D13*
%TO.C,U13*%
X16325778Y31519950D03*
X16325778Y31019950D03*
X16325778Y30519950D03*
X16325778Y30019950D03*
X16325778Y29519950D03*
X16325778Y29019950D03*
X16325778Y28519950D03*
X16325778Y28019950D03*
D14*
X15575778Y27269950D03*
X15075778Y27269950D03*
X14575778Y27269950D03*
X14075778Y27269950D03*
X13575778Y27269950D03*
X13075778Y27269950D03*
X12575778Y27269950D03*
X12075778Y27269950D03*
D15*
X11325778Y28019950D03*
X11325778Y28519950D03*
X11325778Y29019950D03*
X11325778Y29519950D03*
X11325778Y30019950D03*
X11325778Y30519950D03*
X11325778Y31019950D03*
X11325778Y31519950D03*
D16*
X12075778Y32269950D03*
X12575778Y32269950D03*
X13075778Y32269950D03*
X13575778Y32269950D03*
X14075778Y32269950D03*
X14575778Y32269950D03*
X15075778Y32269950D03*
X15575778Y32269950D03*
D17*
X13825778Y29769950D03*
%TD*%
D18*
%TO.C,R2*%
X65874900Y47259904D03*
X65874900Y48909904D03*
%TD*%
D19*
%TO.C,R22*%
X25142000Y11420004D03*
X23492000Y11420004D03*
%TD*%
%TO.C,R21*%
X25142000Y13579004D03*
X23492000Y13579004D03*
%TD*%
D18*
%TO.C,R23*%
X31584900Y12421100D03*
X31584900Y14071100D03*
%TD*%
D19*
%TO.C,R7*%
X45490900Y54013100D03*
X43840900Y54013100D03*
%TD*%
%TO.C,R40*%
X50545500Y86575900D03*
X48895500Y86575900D03*
%TD*%
D20*
%TO.C,R36*%
X58318900Y83096100D03*
X59968900Y83096100D03*
%TD*%
%TO.C,R35*%
X62052700Y85432900D03*
X63702700Y85432900D03*
%TD*%
D19*
%TO.C,R34*%
X59968900Y85432900D03*
X58318900Y85432900D03*
%TD*%
D20*
%TO.C,R39*%
X48895500Y85280500D03*
X50545500Y85280500D03*
%TD*%
%TO.C,R41*%
X56159900Y43857100D03*
X57809900Y43857100D03*
%TD*%
%TO.C,R46*%
X62052700Y87160100D03*
X63702700Y87160100D03*
%TD*%
D19*
%TO.C,R29*%
X50824900Y59982100D03*
X49174900Y59982100D03*
%TD*%
D20*
%TO.C,R30*%
X49174900Y66840100D03*
X50824900Y66840100D03*
%TD*%
%TO.C,R49*%
X49174900Y73698100D03*
X50824900Y73698100D03*
%TD*%
D19*
%TO.C,R52*%
X50824900Y72174100D03*
X49174900Y72174100D03*
%TD*%
%TO.C,R72*%
X57682900Y56807100D03*
X56032900Y56807100D03*
%TD*%
D21*
%TO.C,R75*%
X60032900Y48869100D03*
X60032900Y47219100D03*
%TD*%
D19*
%TO.C,R82*%
X65810900Y61125100D03*
X64160900Y61125100D03*
%TD*%
%TO.C,R83*%
X69620900Y61125100D03*
X67970900Y61125100D03*
%TD*%
%TO.C,R86*%
X65810900Y59728100D03*
X64160900Y59728100D03*
%TD*%
%TO.C,R87*%
X69620900Y59728100D03*
X67970900Y59728100D03*
%TD*%
D21*
%TO.C,R96*%
X68033900Y52044100D03*
X68033900Y50394100D03*
%TD*%
D20*
%TO.C,R97*%
X59969900Y52743100D03*
X61619900Y52743100D03*
%TD*%
%TO.C,R108*%
X64160900Y55664100D03*
X65810900Y55664100D03*
%TD*%
%TO.C,R109*%
X67970900Y55816500D03*
X69620900Y55816500D03*
%TD*%
D21*
%TO.C,R76*%
X57619900Y48869100D03*
X57619900Y47219100D03*
%TD*%
D19*
%TO.C,R71*%
X61619900Y56807100D03*
X59969900Y56807100D03*
%TD*%
D21*
%TO.C,R95*%
X64096900Y52044100D03*
X64096900Y50394100D03*
%TD*%
D18*
%TO.C,R1*%
X68033900Y47257200D03*
X68033900Y48907200D03*
%TD*%
%TO.C,R19*%
X69557900Y47282600D03*
X69557900Y48932600D03*
%TD*%
D21*
%TO.C,R16*%
X71589900Y48996100D03*
X71589900Y47346100D03*
%TD*%
D20*
%TO.C,R110*%
X49174900Y68364100D03*
X50824900Y68364100D03*
%TD*%
D19*
%TO.C,R47*%
X50824900Y61506100D03*
X49174900Y61506100D03*
%TD*%
D20*
%TO.C,R98*%
X56032900Y52743100D03*
X57682900Y52743100D03*
%TD*%
D19*
%TO.C,R51*%
X37743900Y46647100D03*
X36093900Y46647100D03*
%TD*%
D18*
%TO.C,R24*%
X34632900Y21692100D03*
X34632900Y23342100D03*
%TD*%
D22*
%TO.C,J11*%
X52262500Y93865700D03*
X46162500Y93865700D03*
X50212500Y93865700D03*
X48212500Y93865700D03*
D23*
X52712500Y93865700D03*
X45712500Y93865700D03*
D24*
X51712500Y91165700D03*
X46712500Y91165700D03*
D25*
X50512500Y91190700D03*
X49862500Y91190700D03*
X49212500Y91190700D03*
X48562500Y91190700D03*
X47912500Y91190700D03*
%TD*%
D26*
%TO.C,D4*%
X64149900Y80873600D03*
D27*
X61599900Y80873600D03*
%TD*%
D28*
%TO.C,JP11*%
X4464000Y61140504D03*
D29*
X4210000Y58600504D03*
X4464000Y56060504D03*
%TD*%
D30*
%TO.C,JP12*%
X85933000Y45392504D03*
D29*
X86187000Y47932504D03*
X85933000Y50472504D03*
%TD*%
D31*
%TO.C,JP13*%
X14312900Y4229100D03*
D29*
X16852900Y3975100D03*
X19392900Y4229100D03*
%TD*%
D32*
%TO.C,JP9*%
X25269500Y91663004D03*
D29*
X22729500Y91917004D03*
X20189500Y91663004D03*
%TD*%
D33*
%TO.C,J3*%
X82372000Y70557804D03*
D34*
X82372000Y74413404D03*
%TD*%
D33*
%TO.C,J4*%
X82372000Y63202204D03*
D34*
X82372000Y67057804D03*
%TD*%
D35*
%TO.C,J2*%
X34048700Y42557700D03*
X34048700Y40017700D03*
X34048700Y37477700D03*
X34048700Y34937700D03*
X34048700Y32397700D03*
%TD*%
%TO.C,J8*%
X17360900Y56807100D03*
X19900900Y56807100D03*
X22440900Y56807100D03*
X24980900Y56807100D03*
X27520900Y56807100D03*
X30060900Y56807100D03*
X32600900Y56807100D03*
X35140900Y56807100D03*
X37680900Y56807100D03*
%TD*%
D36*
%TO.C,H1*%
X7630000Y90805000D03*
%TD*%
%TO.C,H2*%
X5090000Y5080000D03*
%TD*%
%TO.C,H3*%
X85090000Y5080000D03*
%TD*%
%TO.C,H4*%
X81290000Y90805000D03*
%TD*%
D30*
%TO.C,JP15*%
X85940900Y22390100D03*
D29*
X86194900Y24930100D03*
X85940900Y27470100D03*
%TD*%
D31*
%TO.C,JP14*%
X69811900Y4229100D03*
D29*
X72351900Y3975100D03*
X74891900Y4229100D03*
%TD*%
D37*
%TO.C,J13*%
X52110500Y89287300D03*
X46330500Y89287300D03*
D38*
X53540500Y88787300D03*
D39*
X53540500Y92937300D03*
D38*
X44900500Y88787300D03*
D39*
X44900500Y92937300D03*
%TD*%
D40*
%TO.C,U16*%
X58556200Y80889004D03*
X58556200Y88509004D03*
X68716200Y80889004D03*
X76336200Y88509004D03*
X76336200Y80889004D03*
%TD*%
D41*
%TO.C,J12*%
X84670900Y13690004D03*
D42*
X82130900Y16230004D03*
X82130900Y11150004D03*
X87210900Y16230004D03*
X87210900Y11150004D03*
%TD*%
D41*
%TO.C,J7*%
X5775000Y13690004D03*
D42*
X3235000Y16230004D03*
X3235000Y11150004D03*
X8315000Y16230004D03*
X8315000Y11150004D03*
%TD*%
D35*
%TO.C,J15*%
X50317400Y54267100D03*
X52857400Y54267100D03*
%TD*%
%TO.C,J9*%
X47777400Y56807100D03*
X50317400Y56807100D03*
X52857400Y56807100D03*
%TD*%
D31*
%TO.C,JP8*%
X42545000Y4229100D03*
D29*
X45085000Y3975100D03*
X47625000Y4229100D03*
%TD*%
D35*
%TO.C,J10*%
X49745900Y33769300D03*
X52285900Y33769300D03*
X54825900Y33769300D03*
X57365900Y33769300D03*
%TD*%
D31*
%TO.C,JP10*%
X64268000Y91663004D03*
D29*
X66808000Y91917004D03*
X69348000Y91663004D03*
%TD*%
D43*
%TO.C,C4*%
X36131400Y48298100D03*
X37706400Y48298100D03*
%TD*%
D44*
%TO.C,C11*%
X53555900Y42557600D03*
X53555900Y44132600D03*
%TD*%
%TO.C,C16*%
X50761900Y42557600D03*
X50761900Y44132600D03*
%TD*%
D45*
%TO.C,Q22*%
X37172900Y13677900D03*
X35902900Y13677900D03*
X34632900Y13677900D03*
X33362900Y13677900D03*
X33362900Y18910300D03*
X34632900Y18910300D03*
X35902900Y18910300D03*
X37172900Y18910300D03*
%TD*%
D46*
%TO.C,Q1*%
X27377700Y11483504D03*
X27377700Y13388504D03*
X29257300Y12436004D03*
%TD*%
D43*
%TO.C,C13*%
X44132400Y49949100D03*
X45707400Y49949100D03*
%TD*%
D47*
%TO.C,U11*%
X31203900Y60756800D03*
X31203900Y63296800D03*
X31203900Y65836800D03*
X31203900Y68376800D03*
X31203900Y70916800D03*
X31203900Y73456800D03*
X31203900Y75996800D03*
X31203900Y78536800D03*
X31203900Y81076800D03*
D48*
X33489900Y83616800D03*
X36029900Y83616800D03*
X38569900Y83616800D03*
X41109900Y83616800D03*
X43649900Y83616800D03*
D47*
X45935900Y81076800D03*
X45935900Y78536800D03*
X45935900Y75996800D03*
X45935900Y73456800D03*
X45935900Y70916800D03*
X45935900Y68376800D03*
X45935900Y65836800D03*
X45935900Y63296800D03*
X45935900Y60756800D03*
%TD*%
D49*
%TO.C,J1*%
X18371900Y49801100D03*
X18371900Y48701100D03*
X18371900Y47601100D03*
X18371900Y46501100D03*
X18371900Y45401100D03*
X18371900Y44301100D03*
X18371900Y43201100D03*
X18371900Y42101100D03*
D50*
X30001900Y40161100D03*
D51*
X19001900Y54146100D03*
D52*
X18851900Y39756100D03*
X30331900Y54046100D03*
D53*
X31126900Y49741100D03*
X31126900Y41961100D03*
D54*
X21001900Y40161100D03*
%TD*%
D55*
%TO.C,C10*%
X48094900Y40957600D03*
X48094900Y39382600D03*
%TD*%
D56*
%TO.C,C12*%
X42151400Y46520100D03*
X40576400Y46520100D03*
%TD*%
D57*
%TO.C,U1*%
X35994900Y50457100D03*
X35994900Y51727100D03*
X35994900Y52997100D03*
X35994900Y54267100D03*
X41144900Y54267100D03*
X41144900Y52997100D03*
X41144900Y51727100D03*
X41144900Y50457100D03*
%TD*%
D58*
%TO.C,REF1B*%
X88099900Y94018100D03*
%TD*%
D41*
%TO.C,J6*%
X5775000Y35225392D03*
D42*
X3235000Y37765392D03*
X3235000Y32685392D03*
X8315000Y37765392D03*
X8315000Y32685392D03*
%TD*%
D59*
%TO.C,U24*%
X77281420Y9108100D03*
X75281420Y9108100D03*
X73281420Y9108100D03*
X71281420Y9108100D03*
X69281420Y9108100D03*
X67281420Y9108100D03*
X65281420Y9108100D03*
X63281420Y9108100D03*
X63281420Y44108100D03*
X65281420Y44108100D03*
X67281420Y44108100D03*
X69281420Y44108100D03*
X71281420Y44108100D03*
X73281420Y44108100D03*
X75281420Y44108100D03*
X77281420Y44108100D03*
D60*
X72031420Y20675600D03*
%TD*%
D61*
%TO.C,U17*%
X52813900Y84080100D03*
X53313900Y84080100D03*
X53813900Y84080100D03*
X54313900Y84080100D03*
X54813900Y84080100D03*
X55313900Y84080100D03*
D62*
X56063900Y83330100D03*
X56063900Y82830100D03*
X56063900Y82330100D03*
X56063900Y81830100D03*
X56063900Y81330100D03*
X56063900Y80830100D03*
D61*
X55313900Y80080100D03*
X54813900Y80080100D03*
X54313900Y80080100D03*
X53813900Y80080100D03*
X53313900Y80080100D03*
X52813900Y80080100D03*
D62*
X52063900Y80830100D03*
X52063900Y81330100D03*
X52063900Y81830100D03*
X52063900Y82330100D03*
X52063900Y82830100D03*
X52063900Y83330100D03*
D63*
X54063900Y82080100D03*
%TD*%
D44*
%TO.C,C35*%
X50330100Y80556000D03*
X50330100Y82131000D03*
%TD*%
D56*
%TO.C,C33*%
X50482600Y83959700D03*
X48907600Y83959700D03*
%TD*%
D41*
%TO.C,J5*%
X5775000Y24315204D03*
D42*
X3235000Y26855204D03*
X3235000Y21775204D03*
X8315000Y26855204D03*
X8315000Y21775204D03*
%TD*%
D55*
%TO.C,C9*%
X64096900Y48872404D03*
X64096900Y47297404D03*
%TD*%
D43*
%TO.C,C15*%
X50609400Y49441100D03*
X52184400Y49441100D03*
%TD*%
D64*
%TO.C,L4*%
X48983900Y78143100D03*
X51383900Y78143100D03*
%TD*%
D43*
%TO.C,C6*%
X49212400Y65316100D03*
X50787400Y65316100D03*
%TD*%
D55*
%TO.C,C8*%
X61556900Y48831600D03*
X61556900Y47256600D03*
%TD*%
%TO.C,C41*%
X65874900Y52006600D03*
X65874900Y50431600D03*
%TD*%
%TO.C,C42*%
X69684900Y52006600D03*
X69684900Y50431600D03*
%TD*%
D65*
%TO.C,Q12*%
X59844900Y50315100D03*
X59844900Y50965100D03*
X59844900Y51615100D03*
X61744900Y51615100D03*
X61744900Y50965100D03*
X61744900Y50315100D03*
%TD*%
D66*
%TO.C,Q16*%
X67845900Y57173100D03*
X67845900Y57823100D03*
X67845900Y58473100D03*
X69745900Y58473100D03*
X69745900Y57823100D03*
X69745900Y57173100D03*
%TD*%
D65*
%TO.C,Q19*%
X67845900Y53236100D03*
X67845900Y53886100D03*
X67845900Y54536100D03*
X69745900Y54536100D03*
X69745900Y53886100D03*
X69745900Y53236100D03*
%TD*%
D67*
%TO.C,R57*%
X26520930Y83733640D03*
X28395930Y83733640D03*
%TD*%
%TO.C,R58*%
X28387040Y83733640D03*
X30262040Y83733640D03*
%TD*%
D66*
%TO.C,Q15*%
X64035900Y57173100D03*
X64035900Y57823100D03*
X64035900Y58473100D03*
X65935900Y58473100D03*
X65935900Y57823100D03*
X65935900Y57173100D03*
%TD*%
D65*
%TO.C,Q18*%
X64035900Y53236100D03*
X64035900Y53886100D03*
X64035900Y54536100D03*
X65935900Y54536100D03*
X65935900Y53886100D03*
X65935900Y53236100D03*
%TD*%
D66*
%TO.C,Q7*%
X59844900Y54252100D03*
X59844900Y54902100D03*
X59844900Y55552100D03*
X61744900Y55552100D03*
X61744900Y54902100D03*
X61744900Y54252100D03*
%TD*%
D65*
%TO.C,Q13*%
X55907900Y50315100D03*
X55907900Y50965100D03*
X55907900Y51615100D03*
X57807900Y51615100D03*
X57807900Y50965100D03*
X57807900Y50315100D03*
%TD*%
D55*
%TO.C,C40*%
X56095900Y48831600D03*
X56095900Y47256600D03*
%TD*%
D68*
%TO.C,J16*%
X73581000Y77080404D03*
D34*
X73581000Y73224804D03*
%TD*%
D68*
%TO.C,J17*%
X73581000Y69724804D03*
D34*
X73581000Y65869204D03*
%TD*%
D66*
%TO.C,Q3*%
X49049900Y69619100D03*
X49049900Y70269100D03*
X49049900Y70919100D03*
X50949900Y70919100D03*
X50949900Y70269100D03*
X50949900Y69619100D03*
%TD*%
%TO.C,Q2*%
X49049900Y62761100D03*
X49049900Y63411100D03*
X49049900Y64061100D03*
X50949900Y64061100D03*
X50949900Y63411100D03*
X50949900Y62761100D03*
%TD*%
D69*
%TO.C,J14*%
X53809900Y78143100D03*
X56349900Y78143100D03*
X58889900Y78143100D03*
X61429900Y78143100D03*
X63969900Y78143100D03*
X66509900Y78143100D03*
%TD*%
D68*
%TO.C,J18*%
X82372000Y81749900D03*
D34*
X82372000Y77894300D03*
%TD*%
D70*
%TO.C,U15*%
X63281420Y25691100D03*
X65281420Y25691100D03*
X67281420Y25691100D03*
X69281420Y25691100D03*
X71281420Y25691100D03*
X73281420Y25691100D03*
X75281420Y25691100D03*
X77281420Y25691100D03*
X77281420Y9691100D03*
X75281420Y9691100D03*
X73281420Y9691100D03*
X71281420Y9691100D03*
X69281420Y9691100D03*
X67281420Y9691100D03*
X65281420Y9691100D03*
X63281420Y9691100D03*
%TD*%
D66*
%TO.C,Q8*%
X55907900Y54252100D03*
X55907900Y54902100D03*
X55907900Y55552100D03*
X57807900Y55552100D03*
X57807900Y54902100D03*
X57807900Y54252100D03*
%TD*%
D71*
%TO.C,JP7*%
X64265420Y4786100D03*
D72*
X64265420Y3086100D03*
D73*
X64265420Y1386100D03*
%TD*%
D43*
%TO.C,C14*%
X40576400Y44742100D03*
X42151400Y44742100D03*
%TD*%
D47*
%TO.C,U9*%
X10881360Y60756800D03*
X10881360Y63296800D03*
X10881360Y65836800D03*
X10881360Y68376800D03*
X10881360Y70916800D03*
X10881360Y73456800D03*
X10881360Y75996800D03*
X10881360Y78536800D03*
X10881360Y81076800D03*
D48*
X13167360Y83616800D03*
X15707360Y83616800D03*
X18247360Y83616800D03*
X20787360Y83616800D03*
X23327360Y83616800D03*
D47*
X25613360Y81076800D03*
X25613360Y78536800D03*
X25613360Y75996800D03*
X25613360Y73456800D03*
X25613360Y70916800D03*
X25613360Y68376800D03*
X25613360Y65836800D03*
X25613360Y63296800D03*
X25613360Y60756800D03*
%TD*%
D44*
%TO.C,C46*%
X67144900Y1536600D03*
X67144900Y3111600D03*
%TD*%
D58*
%TO.C,REF2B*%
X2501900Y93510100D03*
%TD*%
%TO.C,REF3B*%
X1993900Y1816100D03*
%TD*%
M02*
