M48
; DRILL file {KiCad 7.0.9} date Tue Jan 23 11:42:20 2024
; FORMAT={-:-/ absolute / inch / decimal}
; #@! TF.CreationDate,2024-01-23T11:42:20+00:00
; #@! TF.GenerationSoftware,Kicad,Pcbnew,7.0.9
; #@! TF.FileFunction,Plated,1,4,PTH
FMAT,2
INCH
; #@! TA.AperFunction,Plated,PTH,ViaDrill
T1C0.0150
; #@! TA.AperFunction,Plated,PTH,ViaDrill
T2C0.0157
; #@! TA.AperFunction,Plated,PTH,ComponentDrill
T3C0.0236
; #@! TA.AperFunction,Plated,PTH,ComponentDrill
T4C0.0354
; #@! TA.AperFunction,Plated,PTH,ComponentDrill
T5C0.0394
; #@! TA.AperFunction,Plated,PTH,ComponentDrill
T6C0.0400
; #@! TA.AperFunction,Plated,PTH,ComponentDrill
T7C0.0472
; #@! TA.AperFunction,Plated,PTH,ComponentDrill
T8C0.0510
; #@! TA.AperFunction,Plated,PTH,ComponentDrill
T9C0.0591
; #@! TA.AperFunction,Plated,PTH,ComponentDrill
T10C0.0669
; #@! TA.AperFunction,Plated,PTH,ComponentDrill
T11C0.1260
%
G90
G05
T1
X0.1473Y1.7573
X0.1968Y1.8623
X0.3335Y1.6915
X0.3765Y0.9215
X0.3792Y0.9886
X0.3874Y1.3494
X0.3944Y1.4717
X0.3985Y1.4315
X0.4004Y1.2136
X0.4004Y1.1736
X0.4004Y1.1336
X0.408Y1.0174
X0.4162Y1.3206
X0.4185Y0.9215
X0.434Y1.0506
X0.4385Y1.4515
X0.4385Y1.4115
X0.4422Y1.2874
X0.4485Y0.9515
X0.4585Y0.9115
X0.4685Y1.3815
X0.4785Y1.4215
X0.4785Y0.9815
X0.4885Y0.9415
X0.4985Y3.2115
X0.4985Y3.1665
X0.4985Y1.3515
X0.5024Y1.2146
X0.5024Y1.1296
X0.5085Y1.3915
X0.5085Y1.0115
X0.5185Y0.9715
X0.5235Y1.3265
X0.5404Y1.0365
X0.5435Y1.3565
X0.5443Y1.172
X0.5485Y0.9965
X0.5585Y1.3116
X0.5635Y1.9865
X0.5874Y1.2146
X0.5874Y1.1296
X0.5984Y3.218
X0.6004Y1.3116
X0.6021Y1.9332
X0.6024Y1.6715
X0.6335Y1.8715
X0.6384Y3.218
X0.6424Y1.3116
X0.6425Y1.0316
X0.6435Y1.8315
X0.6435Y1.0725
X0.6635Y0.4915
X0.6635Y0.4506
X0.6735Y1.6765
X0.6807Y1.93
X0.6809Y1.7965
X0.6864Y1.1516
X0.6864Y1.1136
X0.6884Y1.3116
X0.6884Y1.2696
X0.6884Y1.2236
X0.7624Y1.9368
X0.7642Y1.6615
X0.7835Y1.8065
X0.7984Y3.218
X0.7985Y1.0665
X0.8034Y1.2796
X0.8034Y1.2216
X0.8034Y1.1636
X0.8035Y1.1115
X0.8384Y3.218
X0.8385Y1.6515
X0.8395Y0.5035
X0.8685Y2.0765
X0.8814Y1.9899
X0.9174Y1.9311
X0.9185Y3.2265
X0.926Y0.621
X0.9385Y2.5915
X0.9385Y2.5115
X0.9625Y1.8985
X0.9924Y0.5846
X0.9956Y0.1884
X0.9956Y0.0546
X1.0085Y3.2965
X1.036Y0.1884
X1.036Y0.0546
X1.0441Y3.2965
X1.0735Y1.9915
X1.0735Y3.0915
X1.0745Y1.8015
X1.0979Y3.3415
X1.0985Y3.1815
X1.1135Y2.8415
X1.1143Y2.742
X1.1179Y3.2115
X1.1185Y3.0065
X1.1185Y2.9425
X1.1185Y2.8915
X1.1185Y2.6715
X1.1185Y2.4615
X1.138Y3.3415
X1.1545Y1.1125
X1.16Y3.1663
X1.1685Y0.8515
X1.1685Y0.8015
X1.1918Y3.2966
X1.2274Y3.2966
X1.2324Y1.2756
X1.2335Y0.0546
X1.2442Y0.5908
X1.2735Y0.0546
X1.2785Y1.0015
X1.2983Y3.1628
X1.3025Y3.112
X1.3025Y3.072
X1.3085Y2.5915
X1.3135Y2.9915
X1.3335Y2.3915
X1.3602Y2.0365
X1.3635Y0.4765
X1.3735Y3.549
X1.3885Y1.8315
X1.3984Y3.218
X1.4135Y0.4765
X1.4285Y3.4715
X1.4335Y2.4665
X1.4384Y3.218
X1.4635Y0.4765
X1.4695Y1.3875
X1.4785Y1.8015
X1.4885Y2.0104
X1.5235Y1.3865
X1.5285Y1.2265
X1.5385Y1.6715
X1.5485Y1.9265
X1.5825Y1.7954
X1.5935Y1.6315
X1.5945Y1.9226
X1.5955Y1.6834
X1.5984Y3.218
X1.6185Y3.469
X1.6285Y3.5715
X1.6384Y3.218
X1.6405Y1.3467
X1.6435Y2.9965
X1.6435Y2.8515
X1.6535Y1.9226
X1.6585Y1.5215
X1.6794Y3.2114
X1.6985Y1.9815
X1.6985Y1.7765
X1.7035Y1.8315
X1.7073Y1.6577
X1.7185Y1.7015
X1.7232Y3.2264
X1.7335Y1.5765
X1.7368Y1.6214
X1.7485Y2.0215
X1.75Y1.9065
X1.7723Y1.7711
X1.7735Y2.2415
X1.7735Y2.1715
X1.778Y2.087
X1.7835Y1.5815
X1.7885Y2.0215
X1.8117Y3.4391
X1.8125Y1.5475
X1.8256Y1.457
X1.8365Y3.4115
X1.8408Y1.3467
X1.8415Y1.5515
X1.8416Y1.5974
X1.8685Y1.9065
X1.8705Y2.6115
X1.871Y3.529
X1.8718Y3.4315
X1.8735Y2.9615
X1.876Y1.414
X1.8835Y3.0715
X1.886Y2.5415
X1.8885Y2.0015
X1.8985Y2.0565
X1.9048Y1.4446
X1.9265Y3.5195
X1.9285Y1.7815
X1.9345Y2.0311
X1.9505Y1.4245
X1.9535Y1.8965
X1.9544Y2.3916
X1.9545Y1.5588
X1.9575Y3.4375
X1.9635Y1.8065
X1.9675Y3.5165
X1.9735Y2.9815
X1.9785Y3.1115
X1.9885Y2.044
X1.9889Y2.004
X1.9938Y1.9034
X1.9985Y1.3884
X1.9987Y1.637
X2.011Y3.5215
X2.0235Y1.5515
X2.031Y2.9015
X2.031Y2.6315
X2.0335Y2.8415
X2.0375Y1.8575
X2.0435Y1.9915
X2.0455Y3.3855
X2.0493Y1.7446
X2.0515Y1.6245
X2.0535Y1.6835
X2.0555Y1.5163
X2.056Y2.4415
X2.0585Y3.1515
X2.0645Y3.4385
X2.0665Y3.0135
X2.0675Y3.3475
X2.0745Y2.9565
X2.091Y2.494
X2.1135Y2.879
X2.1295Y1.9015
X2.1375Y3.4025
X2.1417Y3.3439
X2.151Y1.689
X2.1515Y1.6595
X2.1521Y1.8036
X2.1535Y1.5765
X2.1577Y1.7733
X2.1585Y3.555
X2.1635Y2.0565
X2.1635Y1.9865
X2.1695Y3.0165
X2.171Y1.7487
X2.1786Y3.3673
X2.1939Y3.6884
X2.1985Y2.7415
X2.2085Y3.5015
X2.2235Y2.9465
X2.2295Y3.1595
X2.2385Y3.3635
X2.2389Y3.2114
X2.2508Y2.1216
X2.2735Y1.5894
X2.2785Y3.584
X2.3035Y2.2365
X2.3067Y1.8403
X2.3185Y1.8865
X2.3285Y2.914
X2.3296Y2.0321
X2.3316Y1.6071
X2.3367Y2.1161
X2.3435Y1.7115
X2.3585Y3.5915
X2.361Y1.794
X2.3935Y1.7873
X2.4085Y1.6048
X2.4135Y2.8415
X2.4185Y1.6601
X2.423Y1.7944
X2.4235Y1.504
X2.4313Y2.1095
X2.4385Y2.4465
X2.449Y1.756
X2.4585Y2.2365
X2.4685Y1.914
X2.476Y1.884
X2.4783Y1.8561
X2.4885Y2.0065
X2.4885Y0.5715
X2.4929Y2.1533
X2.4985Y2.8115
X2.5035Y1.6265
X2.5097Y0.1884
X2.5097Y0.0546
X2.5216Y2.2267
X2.5235Y0.5715
X2.5256Y3.2355
X2.5275Y1.824
X2.5285Y1.364
X2.5335Y2.4415
X2.5385Y0.7665
X2.5385Y0.7233
X2.5385Y0.5097
X2.5385Y0.4665
X2.5474Y1.6224
X2.5501Y0.1884
X2.5501Y0.0546
X2.5548Y2.2397
X2.558Y2.0069
X2.5685Y1.3865
X2.5685Y2.8615
X2.5885Y0.7665
X2.5885Y0.7233
X2.5885Y0.5097
X2.5885Y0.4665
X2.5957Y2.2237
X2.606Y1.4715
X2.631Y2.004
X2.6333Y1.8565
X2.636Y2.4315
X2.6385Y1.9115
X2.6385Y0.8065
X2.641Y2.049
X2.6436Y1.9496
X2.6462Y2.147
X2.6485Y1.374
X2.6485Y0.4365
X2.6585Y1.8265
X2.6875Y2.2293
X2.6885Y1.6615
X2.6885Y1.4515
X2.7235Y1.5465
X2.7285Y0.7765
X2.747Y2.2301
X2.7535Y1.6615
X2.7685Y2.9455
X2.7685Y2.8875
X2.7735Y1.9365
X2.7797Y1.9034
X2.78Y1.8596
X2.7984Y1.8304
X2.8035Y1.464
X2.8385Y1.7965
X2.8385Y0.4715
X2.8452Y0.4078
X2.8485Y1.9809
X2.8516Y1.9027
X2.8724Y2.0095
X2.875Y1.8789
X2.8835Y1.5665
X2.9024Y1.9796
X2.9474Y1.9346
X2.9785Y1.6615
X3.0285Y2.0465
X3.0335Y2.2665
X3.0885Y2.0515
X3.1085Y1.7865
X3.126Y1.939
X3.1285Y1.8765
X3.1535Y2.2765
X3.2185Y2.3115
X3.2385Y2.2815
T2
X0.3885Y0.5009
X0.3887Y0.5745
X0.4385Y0.5009
X0.4385Y0.4509
X0.4385Y0.3915
X0.4385Y0.3465
X0.4385Y0.2965
X0.4387Y0.6725
X0.4387Y0.6225
X0.4387Y0.5745
X0.4885Y0.5009
X0.4885Y0.4509
X0.4885Y0.3915
X0.4885Y0.3465
X0.4885Y0.2965
X0.4887Y0.6725
X0.4887Y0.6225
X0.4887Y0.5745
X0.5385Y0.4509
X0.5385Y0.3915
X0.5385Y0.3465
X0.5385Y0.2965
X0.5387Y0.6725
X0.5387Y0.6225
X0.5387Y0.5745
X0.5735Y0.5365
X0.5885Y0.2965
X0.6085Y0.5745
X0.6085Y0.5015
X0.6335Y0.2965
X0.6435Y0.5365
X0.6785Y0.2965
X0.7185Y0.4915
X0.7185Y0.4509
X0.7185Y0.2965
X0.8088Y0.814
X0.8385Y0.8765
X0.8385Y0.7615
X0.8635Y0.814
X1.081Y0.579
X2.0925Y3.2165
X2.7735Y0.8165
X2.8204Y0.6165
X2.8359Y0.814
X2.8906Y0.814
X2.8935Y0.6815
X2.9335Y2.2215
X2.9485Y0.6965
X2.9685Y0.6165
X2.9835Y0.7165
X3.0335Y0.6565
X3.0335Y0.5715
X3.0485Y0.5015
X3.0566Y0.6165
X3.0785Y0.6565
X3.0785Y0.5715
X3.0985Y0.4515
X3.0985Y0.3915
X3.1235Y0.6165
X3.1485Y0.6565
X3.1485Y0.5765
X3.1485Y0.5065
X3.1485Y0.4515
X3.1735Y0.3615
X3.2035Y0.5765
X3.2035Y0.5079
T4
X1.8391Y3.5892
X2.0359Y3.5892
T5
X0.6835Y2.2365
X0.7835Y2.2365
X0.8835Y2.2365
X0.9835Y2.2365
X1.0835Y2.2365
X1.1835Y2.2365
X1.2835Y2.2365
X1.3405Y1.6755
X1.3405Y1.5755
X1.3405Y1.4755
X1.3405Y1.3755
X1.3405Y1.2755
X1.3835Y2.2365
X1.4835Y2.2365
X1.881Y2.2365
X1.9585Y1.3295
X1.981Y2.2365
X1.981Y2.1365
X2.0585Y1.3295
X2.081Y2.2365
X2.081Y2.1365
X2.1185Y3.0765
X2.1585Y1.3295
X2.2185Y3.0765
X2.2585Y1.3295
X2.3185Y3.0765
X2.4185Y3.0765
X2.5185Y3.0765
X2.6185Y3.0765
T6
X0.1657Y2.3071
X0.1757Y2.4071
X0.1757Y2.2071
X0.5635Y0.1665
X0.6635Y0.1565
X0.7635Y0.1665
X0.7949Y3.6088
X0.8949Y3.6188
X0.9949Y3.6088
X1.675Y0.1665
X1.775Y0.1565
X1.875Y0.1665
X2.5302Y3.6088
X2.6302Y3.6188
X2.7302Y3.6088
X2.7485Y0.1665
X2.8485Y0.1565
X2.9485Y0.1665
X3.3832Y1.9871
X3.3832Y1.7871
X3.3835Y1.0815
X3.3835Y0.8815
X3.3932Y1.8871
X3.3935Y0.9815
T7
X1.7997Y3.6955
X2.0753Y3.6955
X2.8969Y3.0347
X2.8969Y2.8829
X2.8969Y2.7451
X2.8969Y2.5933
X3.243Y3.2185
X3.243Y3.0667
X3.243Y2.9297
X3.243Y2.7779
X3.243Y2.6401
X3.243Y2.4883
T8
X2.3054Y3.4846
X2.3054Y3.1846
X2.7054Y3.1846
X3.0054Y3.4846
X3.0054Y3.1846
T9
X0.2274Y1.3868
X0.2274Y0.9573
X0.2274Y0.539
X3.3335Y0.539
T10
X0.1274Y1.4868
X0.1274Y1.2868
X0.1274Y1.0573
X0.1274Y0.8573
X0.1274Y0.639
X0.1274Y0.439
X0.3274Y1.4868
X0.3274Y1.2868
X0.3274Y1.0573
X0.3274Y0.8573
X0.3274Y0.639
X0.3274Y0.439
X3.2335Y0.639
X3.2335Y0.439
X3.4335Y0.639
X3.4335Y0.439
T11
X0.2004Y0.2
X0.3004Y3.575
X3.2004Y3.575
X3.35Y0.2
T3
G00X1.7677Y3.6471
M15
G01X1.7677Y3.6708
M16
G05
G00X1.7677Y3.4739
M15
G01X1.7677Y3.5172
M16
G05
G00X2.1079Y3.6471
M15
G01X2.1079Y3.6708
M16
G05
G00X2.1079Y3.4739
M15
G01X2.1079Y3.5172
M16
G05
T0
M30
