%TF.GenerationSoftware,KiCad,Pcbnew,7.0.9*%
%TF.CreationDate,2024-01-23T11:42:20+00:00*%
%TF.ProjectId,mainboard,6d61696e-626f-4617-9264-2e6b69636164,rev?*%
%TF.SameCoordinates,Original*%
%TF.FileFunction,Paste,Top*%
%TF.FilePolarity,Positive*%
%FSLAX46Y46*%
G04 Gerber Fmt 4.6, Leading zero omitted, Abs format (unit mm)*
G04 Created by KiCad (PCBNEW 7.0.9) date 2024-01-23 11:42:20*
%MOMM*%
%LPD*%
G01*
G04 APERTURE LIST*
G04 Aperture macros list*
%AMRoundRect*
0 Rectangle with rounded corners*
0 $1 Rounding radius*
0 $2 $3 $4 $5 $6 $7 $8 $9 X,Y pos of 4 corners*
0 Add a 4 corners polygon primitive as box body*
4,1,4,$2,$3,$4,$5,$6,$7,$8,$9,$2,$3,0*
0 Add four circle primitives for the rounded corners*
1,1,$1+$1,$2,$3*
1,1,$1+$1,$4,$5*
1,1,$1+$1,$6,$7*
1,1,$1+$1,$8,$9*
0 Add four rect primitives between the rounded corners*
20,1,$1+$1,$2,$3,$4,$5,0*
20,1,$1+$1,$4,$5,$6,$7,0*
20,1,$1+$1,$6,$7,$8,$9,0*
20,1,$1+$1,$8,$9,$2,$3,0*%
G04 Aperture macros list end*
%ADD10C,0.100000*%
%ADD11RoundRect,0.200000X0.200000X0.275000X-0.200000X0.275000X-0.200000X-0.275000X0.200000X-0.275000X0*%
%ADD12RoundRect,0.200000X-0.275000X0.200000X-0.275000X-0.200000X0.275000X-0.200000X0.275000X0.200000X0*%
%ADD13RoundRect,0.200000X-0.200000X-0.275000X0.200000X-0.275000X0.200000X0.275000X-0.200000X0.275000X0*%
%ADD14RoundRect,0.200000X0.275000X-0.200000X0.275000X0.200000X-0.275000X0.200000X-0.275000X-0.200000X0*%
%ADD15R,0.900000X1.400000*%
%ADD16R,2.200000X1.400000*%
%ADD17RoundRect,0.218750X-0.218750X-0.256250X0.218750X-0.256250X0.218750X0.256250X-0.218750X0.256250X0*%
%ADD18RoundRect,0.218750X-0.256250X0.218750X-0.256250X-0.218750X0.256250X-0.218750X0.256250X0.218750X0*%
%ADD19R,0.304800X1.600200*%
%ADD20R,2.460000X2.310000*%
%ADD21RoundRect,0.218750X0.256250X-0.218750X0.256250X0.218750X-0.256250X0.218750X-0.256250X-0.218750X0*%
%ADD22RoundRect,0.218750X0.218750X0.256250X-0.218750X0.256250X-0.218750X-0.256250X0.218750X-0.256250X0*%
%ADD23R,1.320800X0.558800*%
%ADD24R,0.300000X1.475000*%
%ADD25R,1.475000X0.300000*%
%ADD26R,2.209800X0.609600*%
%ADD27R,0.609600X2.209800*%
%ADD28RoundRect,0.250000X-0.312500X-1.450000X0.312500X-1.450000X0.312500X1.450000X-0.312500X1.450000X0*%
%ADD29R,1.200000X0.450000*%
%ADD30R,0.700000X0.250000*%
%ADD31R,0.250000X0.700000*%
%ADD32R,1.450000X1.450000*%
%ADD33R,0.600000X1.150000*%
%ADD34R,0.300000X1.150000*%
%ADD35R,1.500000X1.000000*%
%ADD36R,0.250000X0.675000*%
%ADD37R,0.675000X0.250000*%
%ADD38RoundRect,0.250000X-0.450000X0.325000X-0.450000X-0.325000X0.450000X-0.325000X0.450000X0.325000X0*%
%ADD39R,1.000000X1.800000*%
%ADD40RoundRect,0.250000X-1.425000X0.425000X-1.425000X-0.425000X1.425000X-0.425000X1.425000X0.425000X0*%
%ADD41RoundRect,0.333000X-1.767000X0.417000X-1.767000X-0.417000X1.767000X-0.417000X1.767000X0.417000X0*%
%ADD42R,0.558800X1.320800*%
%ADD43RoundRect,0.250000X1.075000X-0.375000X1.075000X0.375000X-1.075000X0.375000X-1.075000X-0.375000X0*%
%ADD44R,0.330200X1.350000*%
%ADD45R,1.300000X2.000000*%
%ADD46R,0.900000X0.900000*%
%ADD47R,0.400000X0.650000*%
%ADD48R,0.800000X0.900000*%
%ADD49R,0.650000X1.525000*%
G04 APERTURE END LIST*
%TO.C,U5*%
G36*
X59710000Y67161004D02*
G01*
X57250000Y67161004D01*
X57250000Y69471004D01*
X59710000Y69471004D01*
X59710000Y67161004D01*
G37*
%TO.C,U23*%
D10*
X22805700Y20921134D02*
X20710200Y20921134D01*
X20710200Y23397634D01*
X22805700Y23397634D01*
X22805700Y20921134D01*
G36*
X22805700Y20921134D02*
G01*
X20710200Y20921134D01*
X20710200Y23397634D01*
X22805700Y23397634D01*
X22805700Y20921134D01*
G37*
X20392700Y20921134D02*
X18297200Y20921134D01*
X18297200Y23397634D01*
X20392700Y23397634D01*
X20392700Y20921134D01*
G36*
X20392700Y20921134D02*
G01*
X18297200Y20921134D01*
X18297200Y23397634D01*
X20392700Y23397634D01*
X20392700Y20921134D01*
G37*
X22805700Y17957800D02*
X20710200Y17957800D01*
X20710200Y20434300D01*
X22805700Y20434300D01*
X22805700Y17957800D01*
G36*
X22805700Y17957800D02*
G01*
X20710200Y17957800D01*
X20710200Y20434300D01*
X22805700Y20434300D01*
X22805700Y17957800D01*
G37*
X20392700Y17957800D02*
X18297200Y17957800D01*
X18297200Y20434300D01*
X20392700Y20434300D01*
X20392700Y17957800D01*
G36*
X20392700Y17957800D02*
G01*
X18297200Y17957800D01*
X18297200Y20434300D01*
X20392700Y20434300D01*
X20392700Y17957800D01*
G37*
%TD*%
D11*
%TO.C,R12*%
X76860900Y52997100D03*
X78510900Y52997100D03*
%TD*%
D12*
%TO.C,R9*%
X75717400Y43028100D03*
X75717400Y44678100D03*
%TD*%
D13*
%TO.C,R10*%
X79752000Y42408004D03*
X78102000Y42408004D03*
%TD*%
D14*
%TO.C,R20*%
X70065900Y44678100D03*
X70065900Y43028100D03*
%TD*%
D13*
%TO.C,R38*%
X81304900Y56680100D03*
X79654900Y56680100D03*
%TD*%
D11*
%TO.C,R15*%
X53619900Y71856600D03*
X55269900Y71856600D03*
%TD*%
D12*
%TO.C,R6*%
X68414900Y43028100D03*
X68414900Y44678100D03*
%TD*%
D13*
%TO.C,R25*%
X65937900Y71412100D03*
X64287900Y71412100D03*
%TD*%
D12*
%TO.C,R27*%
X3779000Y45715004D03*
X3779000Y47365004D03*
%TD*%
D11*
%TO.C,R37*%
X8407900Y48044100D03*
X10057900Y48044100D03*
%TD*%
D13*
%TO.C,R3*%
X39267900Y48044100D03*
X37617900Y48044100D03*
%TD*%
%TO.C,R45*%
X57809900Y52997100D03*
X56159900Y52997100D03*
%TD*%
D11*
%TO.C,R4*%
X37617900Y38773100D03*
X39267900Y38773100D03*
%TD*%
D12*
%TO.C,R31*%
X59918600Y92050100D03*
X59918600Y93700100D03*
%TD*%
%TO.C,R13*%
X60858400Y73000100D03*
X60858400Y74650100D03*
%TD*%
D13*
%TO.C,R43*%
X71716400Y38227000D03*
X70066400Y38227000D03*
%TD*%
D11*
%TO.C,R50*%
X56159900Y45377100D03*
X57809900Y45377100D03*
%TD*%
D13*
%TO.C,R5*%
X39267900Y41440100D03*
X37617900Y41440100D03*
%TD*%
D11*
%TO.C,R42*%
X37617900Y49822100D03*
X39267900Y49822100D03*
%TD*%
D13*
%TO.C,R11*%
X78510900Y50838100D03*
X76860900Y50838100D03*
%TD*%
%TO.C,R66*%
X57809900Y48425100D03*
X56159900Y48425100D03*
%TD*%
%TO.C,R67*%
X57809900Y46901100D03*
X56159900Y46901100D03*
%TD*%
D11*
%TO.C,R73*%
X60096900Y51473100D03*
X61746900Y51473100D03*
%TD*%
%TO.C,R74*%
X56159900Y49949100D03*
X57809900Y49949100D03*
%TD*%
D14*
%TO.C,R84*%
X64096900Y52044100D03*
X64096900Y50394100D03*
%TD*%
%TO.C,R85*%
X65874900Y52044100D03*
X65874900Y50394100D03*
%TD*%
D13*
%TO.C,R93*%
X61746900Y54521100D03*
X60096900Y54521100D03*
%TD*%
D14*
%TO.C,R94*%
X68033900Y53822100D03*
X68033900Y52172100D03*
%TD*%
D11*
%TO.C,R44*%
X56159900Y51473100D03*
X57809900Y51473100D03*
%TD*%
D13*
%TO.C,R62*%
X57809900Y56045100D03*
X56159900Y56045100D03*
%TD*%
D14*
%TO.C,R14*%
X62572900Y74650100D03*
X62572900Y73000100D03*
%TD*%
D11*
%TO.C,R28*%
X75336900Y56426100D03*
X76986900Y56426100D03*
%TD*%
D12*
%TO.C,R33*%
X77050900Y58601004D03*
X77050900Y60251004D03*
%TD*%
D13*
%TO.C,R61*%
X61746900Y56045100D03*
X60096900Y56045100D03*
%TD*%
D12*
%TO.C,R26*%
X65620900Y60554100D03*
X65620900Y62204100D03*
%TD*%
%TO.C,R55*%
X69303900Y11024100D03*
X69303900Y12674100D03*
%TD*%
%TO.C,R17*%
X71716900Y43028100D03*
X71716900Y44678100D03*
%TD*%
%TO.C,R18*%
X73366940Y43028100D03*
X73366940Y44678100D03*
%TD*%
D14*
%TO.C,R63*%
X17293000Y48234100D03*
X17293000Y46584100D03*
%TD*%
%TO.C,R64*%
X15293000Y48234100D03*
X15293000Y46584100D03*
%TD*%
D12*
%TO.C,R68*%
X21293000Y46584100D03*
X21293000Y48234100D03*
%TD*%
D14*
%TO.C,R69*%
X23293000Y48234100D03*
X23293000Y46584100D03*
%TD*%
D11*
%TO.C,R107*%
X62827400Y38227000D03*
X64477400Y38227000D03*
%TD*%
D14*
%TO.C,R104*%
X15293000Y52145700D03*
X15293000Y50495700D03*
%TD*%
%TO.C,R92*%
X21293000Y52145700D03*
X21293000Y50495700D03*
%TD*%
D11*
%TO.C,R78*%
X66446900Y38227000D03*
X68096900Y38227000D03*
%TD*%
D13*
%TO.C,R60*%
X64477400Y33731200D03*
X62827400Y33731200D03*
%TD*%
%TO.C,R48*%
X64477400Y35979100D03*
X62827400Y35979100D03*
%TD*%
%TO.C,R77*%
X68096900Y35979100D03*
X66446900Y35979100D03*
%TD*%
D12*
%TO.C,R53*%
X17293000Y50495700D03*
X17293000Y52145700D03*
%TD*%
%TO.C,R99*%
X19293000Y46584100D03*
X19293000Y48234100D03*
%TD*%
%TO.C,R70*%
X25293000Y46584100D03*
X25293000Y48234100D03*
%TD*%
D14*
%TO.C,R101*%
X27520900Y48234100D03*
X27520900Y46584100D03*
%TD*%
D12*
%TO.C,R59*%
X70827900Y9881100D03*
X70827900Y11531100D03*
%TD*%
D14*
%TO.C,R32*%
X6217400Y47365004D03*
X6217400Y45715004D03*
%TD*%
D15*
%TO.C,D2*%
X85231900Y41900004D03*
D16*
X82681900Y41900004D03*
%TD*%
D17*
%TO.C,C22*%
X76869500Y49276204D03*
X78444500Y49276204D03*
%TD*%
%TO.C,C23*%
X76869500Y46139100D03*
X78444500Y46139100D03*
%TD*%
D18*
%TO.C,C28*%
X67955034Y48872404D03*
X67955034Y47297404D03*
%TD*%
D19*
%TO.C,U5*%
X60430034Y71084604D03*
X59780021Y71084604D03*
X59130012Y71084604D03*
X58480000Y71084604D03*
X57829988Y71084604D03*
X57179979Y71084604D03*
X56529966Y71084604D03*
X56529966Y65547404D03*
X57179979Y65547404D03*
X57829988Y65547404D03*
X58480000Y65547404D03*
X59130012Y65547404D03*
X59780021Y65547404D03*
X60430034Y65547404D03*
D20*
X58480000Y68316004D03*
%TD*%
D17*
%TO.C,C18*%
X50609400Y60744100D03*
X52184400Y60744100D03*
%TD*%
%TO.C,C17*%
X50517000Y63284100D03*
X52092000Y63284100D03*
%TD*%
D21*
%TO.C,C21*%
X59842400Y61671100D03*
X59842400Y63246100D03*
%TD*%
D22*
%TO.C,C26*%
X57962900Y73317100D03*
X56387900Y73317100D03*
%TD*%
D23*
%TO.C,Q5*%
X79447700Y60378504D03*
X79447700Y58473504D03*
X81327300Y59426004D03*
%TD*%
D24*
%TO.C,U2*%
X43963900Y38115100D03*
X44463900Y38115100D03*
X44963900Y38115100D03*
X45463900Y38115100D03*
X45963900Y38115100D03*
X46463900Y38115100D03*
X46963900Y38115100D03*
X47463900Y38115100D03*
X47963900Y38115100D03*
X48463900Y38115100D03*
X48963900Y38115100D03*
X49463900Y38115100D03*
X49963900Y38115100D03*
X50463900Y38115100D03*
X50963900Y38115100D03*
X51463900Y38115100D03*
D25*
X53451900Y40103100D03*
X53451900Y40603100D03*
X53451900Y41103100D03*
X53451900Y41603100D03*
X53451900Y42103100D03*
X53451900Y42603100D03*
X53451900Y43103100D03*
X53451900Y43603100D03*
X53451900Y44103100D03*
X53451900Y44603100D03*
X53451900Y45103100D03*
X53451900Y45603100D03*
X53451900Y46103100D03*
X53451900Y46603100D03*
X53451900Y47103100D03*
X53451900Y47603100D03*
D24*
X51463900Y49591100D03*
X50963900Y49591100D03*
X50463900Y49591100D03*
X49963900Y49591100D03*
X49463900Y49591100D03*
X48963900Y49591100D03*
X48463900Y49591100D03*
X47963900Y49591100D03*
X47463900Y49591100D03*
X46963900Y49591100D03*
X46463900Y49591100D03*
X45963900Y49591100D03*
X45463900Y49591100D03*
X44963900Y49591100D03*
X44463900Y49591100D03*
X43963900Y49591100D03*
D25*
X41975900Y47603100D03*
X41975900Y47103100D03*
X41975900Y46603100D03*
X41975900Y46103100D03*
X41975900Y45603100D03*
X41975900Y45103100D03*
X41975900Y44603100D03*
X41975900Y44103100D03*
X41975900Y43603100D03*
X41975900Y43103100D03*
X41975900Y42603100D03*
X41975900Y42103100D03*
X41975900Y41603100D03*
X41975900Y41103100D03*
X41975900Y40603100D03*
X41975900Y40103100D03*
%TD*%
D26*
%TO.C,Q20*%
X9182100Y49949100D03*
X9182100Y51219100D03*
X9182100Y52489100D03*
X9182100Y53759100D03*
X3949700Y53759100D03*
X3949700Y52489100D03*
X3949700Y51219100D03*
X3949700Y49949100D03*
%TD*%
D23*
%TO.C,Q4*%
X8503504Y45694600D03*
X8503504Y43789600D03*
X10383104Y44742100D03*
%TD*%
D27*
%TO.C,Q21*%
X87083900Y58661300D03*
X85813900Y58661300D03*
X84543900Y58661300D03*
X83273900Y58661300D03*
X83273900Y53428900D03*
X84543900Y53428900D03*
X85813900Y53428900D03*
X87083900Y53428900D03*
%TD*%
D28*
%TO.C,L3*%
X70722400Y52362100D03*
X74997400Y52362100D03*
%TD*%
D29*
%TO.C,U8*%
X56659900Y43853100D03*
X56659900Y42583100D03*
X56659900Y41313100D03*
X56659900Y40043100D03*
X62389900Y40043100D03*
X62389900Y41313100D03*
X62389900Y42583100D03*
X62389900Y43853100D03*
%TD*%
D30*
%TO.C,U6*%
X73980000Y47327604D03*
X73980000Y47827604D03*
X73980000Y48327604D03*
X73980000Y48827604D03*
D31*
X73430000Y49377604D03*
X72930000Y49377604D03*
X72430000Y49377604D03*
X71930000Y49377604D03*
D30*
X71380000Y48827604D03*
X71380000Y48327604D03*
X71380000Y47827604D03*
X71380000Y47327604D03*
D31*
X71930000Y46777604D03*
X72430000Y46777604D03*
X72930000Y46777604D03*
X73430000Y46777604D03*
D32*
X72680000Y48077604D03*
%TD*%
D33*
%TO.C,J13*%
X52420500Y88312300D03*
X51620500Y88312300D03*
D34*
X50470500Y88312300D03*
X49470500Y88312300D03*
X48970500Y88312300D03*
X47970500Y88312300D03*
D33*
X46820500Y88312300D03*
X46020500Y88312300D03*
D34*
X47470500Y88312300D03*
X48470500Y88312300D03*
X49970500Y88312300D03*
X50970500Y88312300D03*
%TD*%
D21*
%TO.C,C29*%
X55714900Y91218600D03*
X55714900Y92793600D03*
%TD*%
D22*
%TO.C,C34*%
X55613400Y81597500D03*
X54038400Y81597500D03*
%TD*%
D17*
%TO.C,C38*%
X50101400Y76555600D03*
X51676400Y76555600D03*
%TD*%
%TO.C,C39*%
X53530400Y75095100D03*
X55105400Y75095100D03*
%TD*%
D35*
%TO.C,D1*%
X39749900Y88100100D03*
X39749900Y91300100D03*
X34849900Y91300100D03*
X34849900Y88100100D03*
%TD*%
D18*
%TO.C,C7*%
X64096900Y48872404D03*
X64096900Y47297404D03*
%TD*%
D36*
%TO.C,U3*%
X60298900Y46401100D03*
X60798900Y46401100D03*
X61298900Y46401100D03*
X61798900Y46401100D03*
D37*
X62060900Y47163100D03*
X62060900Y47663100D03*
X62060900Y48163100D03*
D36*
X61798900Y48925100D03*
X61298900Y48925100D03*
X60798900Y48925100D03*
X60298900Y48925100D03*
D37*
X60036900Y48163100D03*
X60036900Y47663100D03*
X60036900Y47163100D03*
%TD*%
D21*
%TO.C,C3*%
X65874900Y47297404D03*
X65874900Y48872404D03*
%TD*%
D18*
%TO.C,C30*%
X64858900Y43703504D03*
X64858900Y42128504D03*
%TD*%
D38*
%TO.C,L1*%
X38950900Y46148100D03*
X38950900Y44098100D03*
%TD*%
D17*
%TO.C,C25*%
X76869500Y47673804D03*
X78444500Y47673804D03*
%TD*%
D21*
%TO.C,C5*%
X42252900Y89166600D03*
X42252900Y90741600D03*
%TD*%
D22*
%TO.C,C27*%
X59169400Y75095100D03*
X57594400Y75095100D03*
%TD*%
D17*
%TO.C,C37*%
X50063400Y78143100D03*
X51638400Y78143100D03*
%TD*%
%TO.C,C2*%
X45453200Y33190180D03*
X47028200Y33190180D03*
%TD*%
D39*
%TO.C,Y1*%
X42958700Y35095180D03*
X45458700Y35095180D03*
%TD*%
D22*
%TO.C,C1*%
X42964200Y33190180D03*
X41389200Y33190180D03*
%TD*%
D21*
%TO.C,D5*%
X57957400Y92087600D03*
X57957400Y93662600D03*
%TD*%
D40*
%TO.C,R8*%
X69176900Y63644100D03*
X69176900Y57844100D03*
%TD*%
D41*
%TO.C,L2*%
X56476900Y62544100D03*
X56476900Y58944100D03*
%TD*%
D42*
%TO.C,Q6*%
X64287400Y73139300D03*
X66192400Y73139300D03*
X65239900Y75018900D03*
%TD*%
D43*
%TO.C,C19*%
X63433000Y66662004D03*
X63433000Y69462004D03*
%TD*%
%TO.C,C20*%
X67144900Y66662004D03*
X67144900Y69462004D03*
%TD*%
D18*
%TO.C,C24*%
X69430900Y76390600D03*
X69430900Y74815600D03*
%TD*%
D44*
%TO.C,U4*%
X66239901Y58469100D03*
X65739899Y58469100D03*
X65239900Y58469100D03*
X64739901Y58469100D03*
X64239899Y58469100D03*
X64239899Y54119100D03*
X64739901Y54119100D03*
X65239900Y54119100D03*
X65739899Y54119100D03*
X66239901Y54119100D03*
%TD*%
D45*
%TO.C,U23*%
X15293000Y9108100D03*
X17293000Y9108100D03*
X19293000Y9108100D03*
X21293000Y9108100D03*
X23293000Y9108100D03*
X25293000Y9108100D03*
X27293000Y9108100D03*
X29293000Y9108100D03*
X29293000Y44108100D03*
X27293000Y44108100D03*
X25293000Y44108100D03*
X23293000Y44108100D03*
X21293000Y44108100D03*
X19293000Y44108100D03*
X17293000Y44108100D03*
X15293000Y44108100D03*
%TD*%
D46*
%TO.C,SW1*%
X37325400Y36124100D03*
X37325400Y32024100D03*
X38925400Y36124100D03*
X38925400Y32024100D03*
%TD*%
D21*
%TO.C,C31*%
X69430900Y71767600D03*
X69430900Y73342600D03*
%TD*%
D47*
%TO.C,Q11*%
X18643000Y50269100D03*
X19293000Y50269100D03*
X19943000Y50269100D03*
X19943000Y52169100D03*
X19293000Y52169100D03*
X18643000Y52169100D03*
%TD*%
D48*
%TO.C,Q17*%
X59273400Y36185600D03*
X61173400Y36185600D03*
X60223400Y38185600D03*
%TD*%
D17*
%TO.C,C44*%
X21780400Y4737100D03*
X23355400Y4737100D03*
%TD*%
D18*
%TO.C,C45*%
X69303900Y18910400D03*
X69303900Y17335400D03*
%TD*%
%TO.C,C43*%
X69303900Y15684600D03*
X69303900Y14109600D03*
%TD*%
D17*
%TO.C,C36*%
X54038400Y80175100D03*
X55613400Y80175100D03*
%TD*%
D18*
%TO.C,C32*%
X62826900Y62166600D03*
X62826900Y60591600D03*
%TD*%
D49*
%TO.C,U7*%
X63207900Y12947100D03*
X64477900Y12947100D03*
X65747900Y12947100D03*
X67017900Y12947100D03*
X67017900Y18371100D03*
X65747900Y18371100D03*
X64477900Y18371100D03*
X63207900Y18371100D03*
%TD*%
M02*
