%TF.GenerationSoftware,KiCad,Pcbnew,7.0.9*%
%TF.CreationDate,2024-01-23T11:42:20+00:00*%
%TF.ProjectId,mainboard,6d61696e-626f-4617-9264-2e6b69636164,rev?*%
%TF.SameCoordinates,Original*%
%TF.FileFunction,Soldermask,Top*%
%TF.FilePolarity,Negative*%
%FSLAX46Y46*%
G04 Gerber Fmt 4.6, Leading zero omitted, Abs format (unit mm)*
G04 Created by KiCad (PCBNEW 7.0.9) date 2024-01-23 11:42:20*
%MOMM*%
%LPD*%
G01*
G04 APERTURE LIST*
G04 Aperture macros list*
%AMRoundRect*
0 Rectangle with rounded corners*
0 $1 Rounding radius*
0 $2 $3 $4 $5 $6 $7 $8 $9 X,Y pos of 4 corners*
0 Add a 4 corners polygon primitive as box body*
4,1,4,$2,$3,$4,$5,$6,$7,$8,$9,$2,$3,0*
0 Add four circle primitives for the rounded corners*
1,1,$1+$1,$2,$3*
1,1,$1+$1,$4,$5*
1,1,$1+$1,$6,$7*
1,1,$1+$1,$8,$9*
0 Add four rect primitives between the rounded corners*
20,1,$1+$1,$2,$3,$4,$5,0*
20,1,$1+$1,$4,$5,$6,$7,0*
20,1,$1+$1,$6,$7,$8,$9,0*
20,1,$1+$1,$8,$9,$2,$3,0*%
%AMFreePoly0*
4,1,39,0.785921,0.985921,0.800800,0.950000,0.800800,-0.950000,0.785921,-0.985921,0.750000,-1.000800,0.000000,-1.000800,-0.012322,-0.995696,-0.084376,-0.995696,-0.096533,-0.994220,-0.260380,-0.953835,-0.271831,-0.949492,-0.421253,-0.871070,-0.431332,-0.864113,-0.557645,-0.752210,-0.565766,-0.743043,-0.661627,-0.604163,-0.667318,-0.593320,-0.727158,-0.435535,-0.730089,-0.423644,-0.750615,-0.254600,
-0.750800,-0.251535,-0.750800,0.251535,-0.750615,0.254600,-0.730089,0.423644,-0.727158,0.435535,-0.667318,0.593320,-0.661627,0.604163,-0.565766,0.743043,-0.557645,0.752210,-0.431332,0.864113,-0.421253,0.871070,-0.271831,0.949492,-0.260380,0.953835,-0.096533,0.994220,-0.084376,0.995696,-0.012322,0.995696,0.000000,1.000800,0.750000,1.000800,0.785921,0.985921,0.785921,0.985921,
$1*%
%AMFreePoly1*
4,1,39,0.012322,0.995696,0.084376,0.995696,0.096533,0.994220,0.260380,0.953835,0.271831,0.949492,0.421253,0.871070,0.431332,0.864113,0.557645,0.752210,0.565766,0.743043,0.661627,0.604163,0.667318,0.593320,0.727158,0.435535,0.730089,0.423644,0.750615,0.254600,0.750800,0.251535,0.750800,-0.251535,0.750615,-0.254600,0.730089,-0.423644,0.727158,-0.435535,0.667318,-0.593320,
0.661627,-0.604163,0.565766,-0.743043,0.557645,-0.752210,0.431332,-0.864113,0.421253,-0.871070,0.271831,-0.949492,0.260380,-0.953835,0.096533,-0.994220,0.084376,-0.995696,0.012322,-0.995696,0.000000,-1.000800,-0.750000,-1.000800,-0.785921,-0.985921,-0.800800,-0.950000,-0.800800,0.950000,-0.785921,0.985921,-0.750000,1.000800,0.000000,1.000800,0.012322,0.995696,0.012322,0.995696,
$1*%
G04 Aperture macros list end*
%ADD10C,0.190500*%
%ADD11C,0.010000*%
%ADD12RoundRect,0.250800X0.200000X0.275000X-0.200000X0.275000X-0.200000X-0.275000X0.200000X-0.275000X0*%
%ADD13RoundRect,0.250800X-0.275000X0.200000X-0.275000X-0.200000X0.275000X-0.200000X0.275000X0.200000X0*%
%ADD14RoundRect,0.250800X-0.200000X-0.275000X0.200000X-0.275000X0.200000X0.275000X-0.200000X0.275000X0*%
%ADD15RoundRect,0.250800X0.275000X-0.200000X0.275000X0.200000X-0.275000X0.200000X-0.275000X-0.200000X0*%
%ADD16C,1.901600*%
%ADD17C,1.509600*%
%ADD18RoundRect,0.063500X-0.450000X-0.700000X0.450000X-0.700000X0.450000X0.700000X-0.450000X0.700000X0*%
%ADD19RoundRect,0.063500X-1.100000X-0.700000X1.100000X-0.700000X1.100000X0.700000X-1.100000X0.700000X0*%
%ADD20RoundRect,0.063500X-0.939800X0.939800X-0.939800X-0.939800X0.939800X-0.939800X0.939800X0.939800X0*%
%ADD21C,2.006600*%
%ADD22RoundRect,0.063500X0.939800X-0.939800X0.939800X0.939800X-0.939800X0.939800X-0.939800X-0.939800X0*%
%ADD23RoundRect,0.063500X-0.939800X-0.939800X0.939800X-0.939800X0.939800X0.939800X-0.939800X0.939800X0*%
%ADD24RoundRect,0.063500X0.939800X0.939800X-0.939800X0.939800X-0.939800X-0.939800X0.939800X-0.939800X0*%
%ADD25RoundRect,0.063500X1.016000X-1.016000X1.016000X1.016000X-1.016000X1.016000X-1.016000X-1.016000X0*%
%ADD26C,2.159000*%
%ADD27RoundRect,0.269550X-0.218750X-0.256250X0.218750X-0.256250X0.218750X0.256250X-0.218750X0.256250X0*%
%ADD28RoundRect,0.269550X-0.256250X0.218750X-0.256250X-0.218750X0.256250X-0.218750X0.256250X0.218750X0*%
%ADD29RoundRect,0.063500X-0.152400X0.800100X-0.152400X-0.800100X0.152400X-0.800100X0.152400X0.800100X0*%
%ADD30RoundRect,0.063500X-1.230000X1.155000X-1.230000X-1.155000X1.230000X-1.155000X1.230000X1.155000X0*%
%ADD31RoundRect,0.269550X0.256250X-0.218750X0.256250X0.218750X-0.256250X0.218750X-0.256250X-0.218750X0*%
%ADD32RoundRect,0.269550X0.218750X0.256250X-0.218750X0.256250X-0.218750X-0.256250X0.218750X-0.256250X0*%
%ADD33RoundRect,0.063500X-0.660400X0.279400X-0.660400X-0.279400X0.660400X-0.279400X0.660400X0.279400X0*%
%ADD34RoundRect,0.050800X0.150000X0.737500X-0.150000X0.737500X-0.150000X-0.737500X0.150000X-0.737500X0*%
%ADD35RoundRect,0.050800X0.737500X-0.150000X0.737500X0.150000X-0.737500X0.150000X-0.737500X-0.150000X0*%
%ADD36RoundRect,0.050800X1.104900X-0.304800X1.104900X0.304800X-1.104900X0.304800X-1.104900X-0.304800X0*%
%ADD37RoundRect,0.050800X0.304800X1.104900X-0.304800X1.104900X-0.304800X-1.104900X0.304800X-1.104900X0*%
%ADD38RoundRect,0.300800X-0.312500X-1.450000X0.312500X-1.450000X0.312500X1.450000X-0.312500X1.450000X0*%
%ADD39RoundRect,0.063500X1.143000X0.990600X-1.143000X0.990600X-1.143000X-0.990600X1.143000X-0.990600X0*%
%ADD40RoundRect,0.063500X0.990600X-1.143000X0.990600X1.143000X-0.990600X1.143000X-0.990600X-1.143000X0*%
%ADD41O,1.801600X1.801600*%
%ADD42RoundRect,0.063500X-0.600000X-0.225000X0.600000X-0.225000X0.600000X0.225000X-0.600000X0.225000X0*%
%ADD43RoundRect,0.063500X1.050000X-1.050000X1.050000X1.050000X-1.050000X1.050000X-1.050000X-1.050000X0*%
%ADD44RoundRect,0.063500X-0.350000X0.125000X-0.350000X-0.125000X0.350000X-0.125000X0.350000X0.125000X0*%
%ADD45RoundRect,0.063500X0.125000X0.350000X-0.125000X0.350000X-0.125000X-0.350000X0.125000X-0.350000X0*%
%ADD46RoundRect,0.063500X0.350000X-0.125000X0.350000X0.125000X-0.350000X0.125000X-0.350000X-0.125000X0*%
%ADD47RoundRect,0.063500X-0.125000X-0.350000X0.125000X-0.350000X0.125000X0.350000X-0.125000X0.350000X0*%
%ADD48RoundRect,0.063500X0.725000X-0.725000X0.725000X0.725000X-0.725000X0.725000X-0.725000X-0.725000X0*%
%ADD49C,5.701600*%
%ADD50C,2.000000*%
%ADD51C,0.751600*%
%ADD52RoundRect,0.050800X0.300000X0.575000X-0.300000X0.575000X-0.300000X-0.575000X0.300000X-0.575000X0*%
%ADD53RoundRect,0.050800X0.150000X0.575000X-0.150000X0.575000X-0.150000X-0.575000X0.150000X-0.575000X0*%
%ADD54O,1.101600X2.201600*%
%ADD55O,1.101600X1.701600*%
%ADD56C,2.133600*%
%ADD57C,2.151600*%
%ADD58C,2.351600*%
%ADD59RoundRect,0.050800X0.750000X0.500000X-0.750000X0.500000X-0.750000X-0.500000X0.750000X-0.500000X0*%
%ADD60RoundRect,0.050800X-0.125000X-0.337500X0.125000X-0.337500X0.125000X0.337500X-0.125000X0.337500X0*%
%ADD61RoundRect,0.050800X-0.337500X0.125000X-0.337500X-0.125000X0.337500X-0.125000X0.337500X0.125000X0*%
%ADD62RoundRect,0.300800X-0.450000X0.325000X-0.450000X-0.325000X0.450000X-0.325000X0.450000X0.325000X0*%
%ADD63RoundRect,0.294550X-0.243750X-0.456250X0.243750X-0.456250X0.243750X0.456250X-0.243750X0.456250X0*%
%ADD64RoundRect,0.050800X0.500000X0.900000X-0.500000X0.900000X-0.500000X-0.900000X0.500000X-0.900000X0*%
%ADD65RoundRect,0.300800X-1.425000X0.425000X-1.425000X-0.425000X1.425000X-0.425000X1.425000X0.425000X0*%
%ADD66RoundRect,0.383800X-1.767000X0.417000X-1.767000X-0.417000X1.767000X-0.417000X1.767000X0.417000X0*%
%ADD67RoundRect,0.063500X-0.279400X-0.660400X0.279400X-0.660400X0.279400X0.660400X-0.279400X0.660400X0*%
%ADD68RoundRect,0.300800X1.075000X-0.375000X1.075000X0.375000X-1.075000X0.375000X-1.075000X-0.375000X0*%
%ADD69RoundRect,0.050800X-0.165100X0.675000X-0.165100X-0.675000X0.165100X-0.675000X0.165100X0.675000X0*%
%ADD70RoundRect,0.063500X-0.650000X1.000000X-0.650000X-1.000000X0.650000X-1.000000X0.650000X1.000000X0*%
%ADD71RoundRect,0.063500X-2.400000X2.849999X-2.400000X-2.849999X2.400000X-2.849999X2.400000X2.849999X0*%
%ADD72RoundRect,0.050800X0.450000X-0.450000X0.450000X0.450000X-0.450000X0.450000X-0.450000X-0.450000X0*%
%ADD73RoundRect,0.050800X0.200000X-0.325000X0.200000X0.325000X-0.200000X0.325000X-0.200000X-0.325000X0*%
%ADD74RoundRect,0.050800X0.400000X-0.450000X0.400000X0.450000X-0.400000X0.450000X-0.400000X-0.450000X0*%
%ADD75RoundRect,0.050800X1.000000X-0.325000X1.000000X0.325000X-1.000000X0.325000X-1.000000X-0.325000X0*%
%ADD76RoundRect,0.050800X-1.000000X-1.600000X1.000000X-1.600000X1.000000X1.600000X-1.000000X1.600000X0*%
%ADD77FreePoly0,270.000000*%
%ADD78RoundRect,0.050800X-0.950000X0.700000X-0.950000X-0.700000X0.950000X-0.700000X0.950000X0.700000X0*%
%ADD79FreePoly1,270.000000*%
%ADD80RoundRect,0.050800X0.325000X0.762500X-0.325000X0.762500X-0.325000X-0.762500X0.325000X-0.762500X0*%
%ADD81RoundRect,0.063500X-1.016000X1.016000X-1.016000X-1.016000X1.016000X-1.016000X1.016000X1.016000X0*%
%ADD82C,1.501600*%
G04 APERTURE END LIST*
D10*
X11684290Y43127386D02*
X12446290Y43127386D01*
X12083433Y43127386D02*
X12083433Y42691957D01*
X11684290Y42691957D02*
X12446290Y42691957D01*
X12446290Y42183957D02*
X12446290Y42038814D01*
X12446290Y42038814D02*
X12410004Y41966243D01*
X12410004Y41966243D02*
X12337433Y41893671D01*
X12337433Y41893671D02*
X12192290Y41857386D01*
X12192290Y41857386D02*
X11938290Y41857386D01*
X11938290Y41857386D02*
X11793147Y41893671D01*
X11793147Y41893671D02*
X11720576Y41966243D01*
X11720576Y41966243D02*
X11684290Y42038814D01*
X11684290Y42038814D02*
X11684290Y42183957D01*
X11684290Y42183957D02*
X11720576Y42256528D01*
X11720576Y42256528D02*
X11793147Y42329100D01*
X11793147Y42329100D02*
X11938290Y42365386D01*
X11938290Y42365386D02*
X12192290Y42365386D01*
X12192290Y42365386D02*
X12337433Y42329100D01*
X12337433Y42329100D02*
X12410004Y42256528D01*
X12410004Y42256528D02*
X12446290Y42183957D01*
X11684290Y41167957D02*
X11684290Y41530814D01*
X11684290Y41530814D02*
X12446290Y41530814D01*
X11684290Y40551100D02*
X11684290Y40913957D01*
X11684290Y40913957D02*
X12446290Y40913957D01*
X11684290Y40297100D02*
X12446290Y40297100D01*
X11684290Y39934243D02*
X12446290Y39934243D01*
X12446290Y39934243D02*
X12446290Y39752814D01*
X12446290Y39752814D02*
X12410004Y39643957D01*
X12410004Y39643957D02*
X12337433Y39571386D01*
X12337433Y39571386D02*
X12264861Y39535100D01*
X12264861Y39535100D02*
X12119718Y39498814D01*
X12119718Y39498814D02*
X12010861Y39498814D01*
X12010861Y39498814D02*
X11865718Y39535100D01*
X11865718Y39535100D02*
X11793147Y39571386D01*
X11793147Y39571386D02*
X11720576Y39643957D01*
X11720576Y39643957D02*
X11684290Y39752814D01*
X11684290Y39752814D02*
X11684290Y39934243D01*
X11902004Y39208529D02*
X11902004Y38845671D01*
X11684290Y39281100D02*
X12446290Y39027100D01*
X12446290Y39027100D02*
X11684290Y38773100D01*
X12047147Y38373957D02*
X11684290Y38373957D01*
X12446290Y38627957D02*
X12047147Y38373957D01*
X12047147Y38373957D02*
X12446290Y38119957D01*
%TO.C,REF\u002A\u002A*%
D11*
X34332141Y2530475D02*
X34367092Y2409191D01*
X34401125Y2289423D01*
X34433287Y2174640D01*
X34462624Y2068313D01*
X34488184Y1973911D01*
X34509015Y1894904D01*
X34524163Y1834762D01*
X34530002Y1809750D01*
X34543790Y1750953D01*
X34556242Y1704235D01*
X34566200Y1673488D01*
X34572504Y1662605D01*
X34573477Y1663700D01*
X34578554Y1682445D01*
X34587819Y1721046D01*
X34600115Y1774526D01*
X34614286Y1837911D01*
X34620086Y1864312D01*
X34632393Y1917187D01*
X34650587Y1990667D01*
X34673664Y2080912D01*
X34700616Y2184081D01*
X34730439Y2296332D01*
X34762126Y2413824D01*
X34794672Y2532717D01*
X34802992Y2562812D01*
X34946204Y3079750D01*
X35292172Y3083131D01*
X35396905Y3083973D01*
X35478780Y3084143D01*
X35540331Y3083536D01*
X35584095Y3082048D01*
X35612607Y3079575D01*
X35628401Y3076013D01*
X35634014Y3071256D01*
X35633995Y3069073D01*
X35629034Y3054790D01*
X35615853Y3018463D01*
X35595104Y2961847D01*
X35567435Y2886701D01*
X35533498Y2794781D01*
X35493940Y2687844D01*
X35449413Y2567647D01*
X35400566Y2435946D01*
X35348049Y2294500D01*
X35292511Y2145063D01*
X35248850Y2027680D01*
X34867850Y1003726D01*
X34542183Y1003513D01*
X34442386Y1003568D01*
X34365045Y1004007D01*
X34307215Y1005025D01*
X34265954Y1006815D01*
X34238318Y1009570D01*
X34221363Y1013486D01*
X34212145Y1018755D01*
X34207739Y1025525D01*
X34198069Y1050957D01*
X34180984Y1096938D01*
X34157252Y1161353D01*
X34127641Y1242087D01*
X34092919Y1337022D01*
X34053854Y1444045D01*
X34011212Y1561039D01*
X33965763Y1685888D01*
X33918272Y1816478D01*
X33869509Y1950691D01*
X33820241Y2086413D01*
X33771235Y2221528D01*
X33723259Y2353920D01*
X33677081Y2481474D01*
X33633468Y2602074D01*
X33593189Y2713604D01*
X33557011Y2813948D01*
X33525701Y2900992D01*
X33500027Y2972619D01*
X33480757Y3026713D01*
X33468659Y3061160D01*
X33464500Y3073833D01*
X33476916Y3077590D01*
X33513040Y3080735D01*
X33571189Y3083212D01*
X33649675Y3084961D01*
X33746814Y3085924D01*
X33817669Y3086100D01*
X34170838Y3086100D01*
X34332141Y2530475D01*
G36*
X34332141Y2530475D02*
G01*
X34367092Y2409191D01*
X34401125Y2289423D01*
X34433287Y2174640D01*
X34462624Y2068313D01*
X34488184Y1973911D01*
X34509015Y1894904D01*
X34524163Y1834762D01*
X34530002Y1809750D01*
X34543790Y1750953D01*
X34556242Y1704235D01*
X34566200Y1673488D01*
X34572504Y1662605D01*
X34573477Y1663700D01*
X34578554Y1682445D01*
X34587819Y1721046D01*
X34600115Y1774526D01*
X34614286Y1837911D01*
X34620086Y1864312D01*
X34632393Y1917187D01*
X34650587Y1990667D01*
X34673664Y2080912D01*
X34700616Y2184081D01*
X34730439Y2296332D01*
X34762126Y2413824D01*
X34794672Y2532717D01*
X34802992Y2562812D01*
X34946204Y3079750D01*
X35292172Y3083131D01*
X35396905Y3083973D01*
X35478780Y3084143D01*
X35540331Y3083536D01*
X35584095Y3082048D01*
X35612607Y3079575D01*
X35628401Y3076013D01*
X35634014Y3071256D01*
X35633995Y3069073D01*
X35629034Y3054790D01*
X35615853Y3018463D01*
X35595104Y2961847D01*
X35567435Y2886701D01*
X35533498Y2794781D01*
X35493940Y2687844D01*
X35449413Y2567647D01*
X35400566Y2435946D01*
X35348049Y2294500D01*
X35292511Y2145063D01*
X35248850Y2027680D01*
X34867850Y1003726D01*
X34542183Y1003513D01*
X34442386Y1003568D01*
X34365045Y1004007D01*
X34307215Y1005025D01*
X34265954Y1006815D01*
X34238318Y1009570D01*
X34221363Y1013486D01*
X34212145Y1018755D01*
X34207739Y1025525D01*
X34198069Y1050957D01*
X34180984Y1096938D01*
X34157252Y1161353D01*
X34127641Y1242087D01*
X34092919Y1337022D01*
X34053854Y1444045D01*
X34011212Y1561039D01*
X33965763Y1685888D01*
X33918272Y1816478D01*
X33869509Y1950691D01*
X33820241Y2086413D01*
X33771235Y2221528D01*
X33723259Y2353920D01*
X33677081Y2481474D01*
X33633468Y2602074D01*
X33593189Y2713604D01*
X33557011Y2813948D01*
X33525701Y2900992D01*
X33500027Y2972619D01*
X33480757Y3026713D01*
X33468659Y3061160D01*
X33464500Y3073833D01*
X33476916Y3077590D01*
X33513040Y3080735D01*
X33571189Y3083212D01*
X33649675Y3084961D01*
X33746814Y3085924D01*
X33817669Y3086100D01*
X34170838Y3086100D01*
X34332141Y2530475D01*
G37*
X38938200Y4610100D02*
X38074600Y4610100D01*
X37928693Y4609944D01*
X37790601Y4609491D01*
X37662374Y4608767D01*
X37546063Y4607800D01*
X37443722Y4606614D01*
X37357401Y4605236D01*
X37289153Y4603692D01*
X37241029Y4602008D01*
X37215081Y4600210D01*
X37211000Y4599142D01*
X37209256Y4584012D01*
X37204354Y4547308D01*
X37196791Y4492587D01*
X37187062Y4423411D01*
X37175663Y4343341D01*
X37166550Y4279900D01*
X37154230Y4193895D01*
X37143223Y4115977D01*
X37134027Y4049753D01*
X37127138Y3998831D01*
X37123053Y3966820D01*
X37122127Y3957484D01*
X37131684Y3952350D01*
X37161195Y3948360D01*
X37211953Y3945444D01*
X37285252Y3943535D01*
X37382386Y3942562D01*
X37404702Y3942474D01*
X37554870Y3939971D01*
X37685719Y3932914D01*
X37803051Y3920479D01*
X37912672Y3901839D01*
X38020386Y3876168D01*
X38131998Y3842641D01*
X38151259Y3836274D01*
X38308682Y3777063D01*
X38446713Y3710258D01*
X38570989Y3632591D01*
X38687145Y3540794D01*
X38733107Y3498906D01*
X38847318Y3375238D01*
X38941147Y3238848D01*
X39015848Y3087582D01*
X39072680Y2919284D01*
X39073933Y2914650D01*
X39085502Y2870086D01*
X39094129Y2831121D01*
X39100249Y2792803D01*
X39104293Y2750182D01*
X39106693Y2698309D01*
X39107884Y2632231D01*
X39108296Y2546999D01*
X39108329Y2520950D01*
X39108136Y2428066D01*
X39107140Y2355958D01*
X39104997Y2300011D01*
X39101365Y2255604D01*
X39095899Y2218121D01*
X39088256Y2182944D01*
X39081222Y2156485D01*
X39029118Y1997004D01*
X38965328Y1853764D01*
X38885759Y1718766D01*
X38791592Y1590577D01*
X38663491Y1450731D01*
X38515478Y1326064D01*
X38348309Y1216989D01*
X38162736Y1123916D01*
X37959515Y1047256D01*
X37739399Y987422D01*
X37653100Y969491D01*
X37596124Y961545D01*
X37518724Y955007D01*
X37425841Y949938D01*
X37322415Y946394D01*
X37213386Y944434D01*
X37103695Y944115D01*
X36998281Y945496D01*
X36902087Y948634D01*
X36820051Y953588D01*
X36766500Y959087D01*
X36564374Y992150D01*
X36369250Y1035943D01*
X36252982Y1068547D01*
X36178767Y1092708D01*
X36109036Y1118134D01*
X36047722Y1143115D01*
X35998760Y1165939D01*
X35966084Y1184898D01*
X35953628Y1198280D01*
X35953606Y1198676D01*
X35956383Y1213653D01*
X35964185Y1249428D01*
X35976155Y1302361D01*
X35991432Y1368812D01*
X36009160Y1445140D01*
X36028478Y1527704D01*
X36048530Y1612864D01*
X36068456Y1696978D01*
X36087398Y1776408D01*
X36104497Y1847511D01*
X36118894Y1906648D01*
X36129732Y1950178D01*
X36136152Y1974459D01*
X36137449Y1978260D01*
X36149754Y1975473D01*
X36180391Y1965192D01*
X36224063Y1949254D01*
X36253442Y1938077D01*
X36444415Y1873239D01*
X36653057Y1819541D01*
X36741100Y1801173D01*
X36804177Y1789842D01*
X36863882Y1781789D01*
X36926880Y1776505D01*
X36999831Y1773481D01*
X37089399Y1772208D01*
X37122100Y1772088D01*
X37237733Y1773524D01*
X37333949Y1779053D01*
X37416554Y1789791D01*
X37491357Y1806857D01*
X37564164Y1831369D01*
X37640782Y1864445D01*
X37666952Y1876971D01*
X37743247Y1921560D01*
X37818712Y1978746D01*
X37886865Y2042711D01*
X37941219Y2107636D01*
X37963804Y2143325D01*
X38008762Y2250614D01*
X38032383Y2364565D01*
X38035235Y2480952D01*
X38017883Y2595548D01*
X37980896Y2704128D01*
X37924839Y2802466D01*
X37866163Y2871396D01*
X37778703Y2945546D01*
X37678321Y3007890D01*
X37563060Y3059069D01*
X37430963Y3099721D01*
X37280073Y3130485D01*
X37108435Y3152002D01*
X36977398Y3161761D01*
X36887796Y3165149D01*
X36785467Y3166169D01*
X36676287Y3165012D01*
X36566129Y3161872D01*
X36460869Y3156941D01*
X36366382Y3150413D01*
X36288542Y3142478D01*
X36258500Y3138176D01*
X36219268Y3132821D01*
X36191475Y3131002D01*
X36182951Y3132238D01*
X36183770Y3145182D01*
X36187513Y3181172D01*
X36193913Y3238057D01*
X36202703Y3313685D01*
X36213618Y3405904D01*
X36226390Y3512562D01*
X36240754Y3631507D01*
X36256443Y3760586D01*
X36273191Y3897648D01*
X36290731Y4040542D01*
X36308796Y4187113D01*
X36327121Y4335212D01*
X36345440Y4482686D01*
X36363484Y4627382D01*
X36380989Y4767149D01*
X36397688Y4899835D01*
X36413315Y5023287D01*
X36427602Y5135354D01*
X36440284Y5233884D01*
X36451095Y5316725D01*
X36459767Y5381724D01*
X36466035Y5426730D01*
X36469632Y5449591D01*
X36470049Y5451476D01*
X36472110Y5455168D01*
X36477150Y5458429D01*
X36486656Y5461284D01*
X36502118Y5463761D01*
X36525024Y5465886D01*
X36556863Y5467687D01*
X36599125Y5469189D01*
X36653298Y5470419D01*
X36720870Y5471405D01*
X36803331Y5472173D01*
X36902169Y5472750D01*
X37018874Y5473162D01*
X37154933Y5473436D01*
X37311837Y5473600D01*
X37491073Y5473679D01*
X37694130Y5473700D01*
X38938200Y5473700D01*
X38938200Y4610100D01*
G36*
X38938200Y4610100D02*
G01*
X38074600Y4610100D01*
X37928693Y4609944D01*
X37790601Y4609491D01*
X37662374Y4608767D01*
X37546063Y4607800D01*
X37443722Y4606614D01*
X37357401Y4605236D01*
X37289153Y4603692D01*
X37241029Y4602008D01*
X37215081Y4600210D01*
X37211000Y4599142D01*
X37209256Y4584012D01*
X37204354Y4547308D01*
X37196791Y4492587D01*
X37187062Y4423411D01*
X37175663Y4343341D01*
X37166550Y4279900D01*
X37154230Y4193895D01*
X37143223Y4115977D01*
X37134027Y4049753D01*
X37127138Y3998831D01*
X37123053Y3966820D01*
X37122127Y3957484D01*
X37131684Y3952350D01*
X37161195Y3948360D01*
X37211953Y3945444D01*
X37285252Y3943535D01*
X37382386Y3942562D01*
X37404702Y3942474D01*
X37554870Y3939971D01*
X37685719Y3932914D01*
X37803051Y3920479D01*
X37912672Y3901839D01*
X38020386Y3876168D01*
X38131998Y3842641D01*
X38151259Y3836274D01*
X38308682Y3777063D01*
X38446713Y3710258D01*
X38570989Y3632591D01*
X38687145Y3540794D01*
X38733107Y3498906D01*
X38847318Y3375238D01*
X38941147Y3238848D01*
X39015848Y3087582D01*
X39072680Y2919284D01*
X39073933Y2914650D01*
X39085502Y2870086D01*
X39094129Y2831121D01*
X39100249Y2792803D01*
X39104293Y2750182D01*
X39106693Y2698309D01*
X39107884Y2632231D01*
X39108296Y2546999D01*
X39108329Y2520950D01*
X39108136Y2428066D01*
X39107140Y2355958D01*
X39104997Y2300011D01*
X39101365Y2255604D01*
X39095899Y2218121D01*
X39088256Y2182944D01*
X39081222Y2156485D01*
X39029118Y1997004D01*
X38965328Y1853764D01*
X38885759Y1718766D01*
X38791592Y1590577D01*
X38663491Y1450731D01*
X38515478Y1326064D01*
X38348309Y1216989D01*
X38162736Y1123916D01*
X37959515Y1047256D01*
X37739399Y987422D01*
X37653100Y969491D01*
X37596124Y961545D01*
X37518724Y955007D01*
X37425841Y949938D01*
X37322415Y946394D01*
X37213386Y944434D01*
X37103695Y944115D01*
X36998281Y945496D01*
X36902087Y948634D01*
X36820051Y953588D01*
X36766500Y959087D01*
X36564374Y992150D01*
X36369250Y1035943D01*
X36252982Y1068547D01*
X36178767Y1092708D01*
X36109036Y1118134D01*
X36047722Y1143115D01*
X35998760Y1165939D01*
X35966084Y1184898D01*
X35953628Y1198280D01*
X35953606Y1198676D01*
X35956383Y1213653D01*
X35964185Y1249428D01*
X35976155Y1302361D01*
X35991432Y1368812D01*
X36009160Y1445140D01*
X36028478Y1527704D01*
X36048530Y1612864D01*
X36068456Y1696978D01*
X36087398Y1776408D01*
X36104497Y1847511D01*
X36118894Y1906648D01*
X36129732Y1950178D01*
X36136152Y1974459D01*
X36137449Y1978260D01*
X36149754Y1975473D01*
X36180391Y1965192D01*
X36224063Y1949254D01*
X36253442Y1938077D01*
X36444415Y1873239D01*
X36653057Y1819541D01*
X36741100Y1801173D01*
X36804177Y1789842D01*
X36863882Y1781789D01*
X36926880Y1776505D01*
X36999831Y1773481D01*
X37089399Y1772208D01*
X37122100Y1772088D01*
X37237733Y1773524D01*
X37333949Y1779053D01*
X37416554Y1789791D01*
X37491357Y1806857D01*
X37564164Y1831369D01*
X37640782Y1864445D01*
X37666952Y1876971D01*
X37743247Y1921560D01*
X37818712Y1978746D01*
X37886865Y2042711D01*
X37941219Y2107636D01*
X37963804Y2143325D01*
X38008762Y2250614D01*
X38032383Y2364565D01*
X38035235Y2480952D01*
X38017883Y2595548D01*
X37980896Y2704128D01*
X37924839Y2802466D01*
X37866163Y2871396D01*
X37778703Y2945546D01*
X37678321Y3007890D01*
X37563060Y3059069D01*
X37430963Y3099721D01*
X37280073Y3130485D01*
X37108435Y3152002D01*
X36977398Y3161761D01*
X36887796Y3165149D01*
X36785467Y3166169D01*
X36676287Y3165012D01*
X36566129Y3161872D01*
X36460869Y3156941D01*
X36366382Y3150413D01*
X36288542Y3142478D01*
X36258500Y3138176D01*
X36219268Y3132821D01*
X36191475Y3131002D01*
X36182951Y3132238D01*
X36183770Y3145182D01*
X36187513Y3181172D01*
X36193913Y3238057D01*
X36202703Y3313685D01*
X36213618Y3405904D01*
X36226390Y3512562D01*
X36240754Y3631507D01*
X36256443Y3760586D01*
X36273191Y3897648D01*
X36290731Y4040542D01*
X36308796Y4187113D01*
X36327121Y4335212D01*
X36345440Y4482686D01*
X36363484Y4627382D01*
X36380989Y4767149D01*
X36397688Y4899835D01*
X36413315Y5023287D01*
X36427602Y5135354D01*
X36440284Y5233884D01*
X36451095Y5316725D01*
X36459767Y5381724D01*
X36466035Y5426730D01*
X36469632Y5449591D01*
X36470049Y5451476D01*
X36472110Y5455168D01*
X36477150Y5458429D01*
X36486656Y5461284D01*
X36502118Y5463761D01*
X36525024Y5465886D01*
X36556863Y5467687D01*
X36599125Y5469189D01*
X36653298Y5470419D01*
X36720870Y5471405D01*
X36803331Y5472173D01*
X36902169Y5472750D01*
X37018874Y5473162D01*
X37154933Y5473436D01*
X37311837Y5473600D01*
X37491073Y5473679D01*
X37694130Y5473700D01*
X38938200Y5473700D01*
X38938200Y4610100D01*
G37*
%TD*%
D12*
%TO.C,R12*%
X76860900Y52997100D03*
X78510900Y52997100D03*
%TD*%
D13*
%TO.C,R9*%
X75717400Y43028100D03*
X75717400Y44678100D03*
%TD*%
D14*
%TO.C,R10*%
X79752000Y42408004D03*
X78102000Y42408004D03*
%TD*%
D15*
%TO.C,R20*%
X70065900Y44678100D03*
X70065900Y43028100D03*
%TD*%
D14*
%TO.C,R38*%
X81304900Y56680100D03*
X79654900Y56680100D03*
%TD*%
D12*
%TO.C,R15*%
X53619900Y71856600D03*
X55269900Y71856600D03*
%TD*%
D13*
%TO.C,R6*%
X68414900Y43028100D03*
X68414900Y44678100D03*
%TD*%
D14*
%TO.C,R25*%
X65937900Y71412100D03*
X64287900Y71412100D03*
%TD*%
D13*
%TO.C,R27*%
X3779000Y45715004D03*
X3779000Y47365004D03*
%TD*%
D12*
%TO.C,R37*%
X8407900Y48044100D03*
X10057900Y48044100D03*
%TD*%
D14*
%TO.C,R3*%
X39267900Y48044100D03*
X37617900Y48044100D03*
%TD*%
%TO.C,R45*%
X57809900Y52997100D03*
X56159900Y52997100D03*
%TD*%
D12*
%TO.C,R4*%
X37617900Y38773100D03*
X39267900Y38773100D03*
%TD*%
D13*
%TO.C,R31*%
X59918600Y92050100D03*
X59918600Y93700100D03*
%TD*%
%TO.C,R13*%
X60858400Y73000100D03*
X60858400Y74650100D03*
%TD*%
D14*
%TO.C,R43*%
X71716400Y38227000D03*
X70066400Y38227000D03*
%TD*%
D12*
%TO.C,R50*%
X56159900Y45377100D03*
X57809900Y45377100D03*
%TD*%
D14*
%TO.C,R5*%
X39267900Y41440100D03*
X37617900Y41440100D03*
%TD*%
D12*
%TO.C,R42*%
X37617900Y49822100D03*
X39267900Y49822100D03*
%TD*%
D14*
%TO.C,R11*%
X78510900Y50838100D03*
X76860900Y50838100D03*
%TD*%
%TO.C,R66*%
X57809900Y48425100D03*
X56159900Y48425100D03*
%TD*%
%TO.C,R67*%
X57809900Y46901100D03*
X56159900Y46901100D03*
%TD*%
D12*
%TO.C,R73*%
X60096900Y51473100D03*
X61746900Y51473100D03*
%TD*%
%TO.C,R74*%
X56159900Y49949100D03*
X57809900Y49949100D03*
%TD*%
D15*
%TO.C,R84*%
X64096900Y52044100D03*
X64096900Y50394100D03*
%TD*%
%TO.C,R85*%
X65874900Y52044100D03*
X65874900Y50394100D03*
%TD*%
D14*
%TO.C,R93*%
X61746900Y54521100D03*
X60096900Y54521100D03*
%TD*%
D15*
%TO.C,R94*%
X68033900Y53822100D03*
X68033900Y52172100D03*
%TD*%
D12*
%TO.C,R44*%
X56159900Y51473100D03*
X57809900Y51473100D03*
%TD*%
D14*
%TO.C,R62*%
X57809900Y56045100D03*
X56159900Y56045100D03*
%TD*%
D15*
%TO.C,R14*%
X62572900Y74650100D03*
X62572900Y73000100D03*
%TD*%
D12*
%TO.C,R28*%
X75336900Y56426100D03*
X76986900Y56426100D03*
%TD*%
D13*
%TO.C,R33*%
X77050900Y58601004D03*
X77050900Y60251004D03*
%TD*%
D14*
%TO.C,R61*%
X61746900Y56045100D03*
X60096900Y56045100D03*
%TD*%
D13*
%TO.C,R26*%
X65620900Y60554100D03*
X65620900Y62204100D03*
%TD*%
%TO.C,R55*%
X69303900Y11024100D03*
X69303900Y12674100D03*
%TD*%
%TO.C,R17*%
X71716900Y43028100D03*
X71716900Y44678100D03*
%TD*%
%TO.C,R18*%
X73366940Y43028100D03*
X73366940Y44678100D03*
%TD*%
D15*
%TO.C,R63*%
X17293000Y48234100D03*
X17293000Y46584100D03*
%TD*%
%TO.C,R64*%
X15293000Y48234100D03*
X15293000Y46584100D03*
%TD*%
D13*
%TO.C,R68*%
X21293000Y46584100D03*
X21293000Y48234100D03*
%TD*%
D15*
%TO.C,R69*%
X23293000Y48234100D03*
X23293000Y46584100D03*
%TD*%
D12*
%TO.C,R107*%
X62827400Y38227000D03*
X64477400Y38227000D03*
%TD*%
D15*
%TO.C,R104*%
X15293000Y52145700D03*
X15293000Y50495700D03*
%TD*%
%TO.C,R92*%
X21293000Y52145700D03*
X21293000Y50495700D03*
%TD*%
D12*
%TO.C,R78*%
X66446900Y38227000D03*
X68096900Y38227000D03*
%TD*%
D14*
%TO.C,R60*%
X64477400Y33731200D03*
X62827400Y33731200D03*
%TD*%
%TO.C,R48*%
X64477400Y35979100D03*
X62827400Y35979100D03*
%TD*%
%TO.C,R77*%
X68096900Y35979100D03*
X66446900Y35979100D03*
%TD*%
D13*
%TO.C,R53*%
X17293000Y50495700D03*
X17293000Y52145700D03*
%TD*%
%TO.C,R99*%
X19293000Y46584100D03*
X19293000Y48234100D03*
%TD*%
%TO.C,R70*%
X25293000Y46584100D03*
X25293000Y48234100D03*
%TD*%
D15*
%TO.C,R101*%
X27520900Y48234100D03*
X27520900Y46584100D03*
%TD*%
D13*
%TO.C,R59*%
X70827900Y9881100D03*
X70827900Y11531100D03*
%TD*%
D15*
%TO.C,R32*%
X6217400Y47365004D03*
X6217400Y45715004D03*
%TD*%
D16*
%TO.C,J11*%
X52712500Y93865700D03*
X45712500Y93865700D03*
D17*
X51712500Y91165700D03*
X46712500Y91165700D03*
%TD*%
D18*
%TO.C,D2*%
X85231900Y41900004D03*
D19*
X82681900Y41900004D03*
%TD*%
D20*
%TO.C,JP11*%
X4464000Y61140504D03*
D21*
X4210000Y58600504D03*
X4464000Y56060504D03*
%TD*%
D22*
%TO.C,JP12*%
X85933000Y45392504D03*
D21*
X86187000Y47932504D03*
X85933000Y50472504D03*
%TD*%
D23*
%TO.C,JP13*%
X14312900Y4229100D03*
D21*
X16852900Y3975100D03*
X19392900Y4229100D03*
%TD*%
D24*
%TO.C,JP9*%
X25269500Y91663004D03*
D21*
X22729500Y91917004D03*
X20189500Y91663004D03*
%TD*%
D25*
%TO.C,J3*%
X82372000Y70557804D03*
D26*
X82372000Y74413404D03*
%TD*%
D25*
%TO.C,J4*%
X82372000Y63202204D03*
D26*
X82372000Y67057804D03*
%TD*%
D27*
%TO.C,C22*%
X76869500Y49276204D03*
X78444500Y49276204D03*
%TD*%
%TO.C,C23*%
X76869500Y46139100D03*
X78444500Y46139100D03*
%TD*%
D28*
%TO.C,C28*%
X67955034Y48872404D03*
X67955034Y47297404D03*
%TD*%
D29*
%TO.C,U5*%
X60430034Y71084604D03*
X59780021Y71084604D03*
X59130012Y71084604D03*
X58480000Y71084604D03*
X57829988Y71084604D03*
X57179979Y71084604D03*
X56529966Y71084604D03*
X56529966Y65547404D03*
X57179979Y65547404D03*
X57829988Y65547404D03*
X58480000Y65547404D03*
X59130012Y65547404D03*
X59780021Y65547404D03*
X60430034Y65547404D03*
D30*
X58480000Y68316004D03*
%TD*%
D27*
%TO.C,C18*%
X50609400Y60744100D03*
X52184400Y60744100D03*
%TD*%
%TO.C,C17*%
X50517000Y63284100D03*
X52092000Y63284100D03*
%TD*%
D31*
%TO.C,C21*%
X59842400Y61671100D03*
X59842400Y63246100D03*
%TD*%
D32*
%TO.C,C26*%
X57962900Y73317100D03*
X56387900Y73317100D03*
%TD*%
D33*
%TO.C,Q5*%
X79447700Y60378504D03*
X79447700Y58473504D03*
X81327300Y59426004D03*
%TD*%
D34*
%TO.C,U2*%
X43963900Y38115100D03*
X44463900Y38115100D03*
X44963900Y38115100D03*
X45463900Y38115100D03*
X45963900Y38115100D03*
X46463900Y38115100D03*
X46963900Y38115100D03*
X47463900Y38115100D03*
X47963900Y38115100D03*
X48463900Y38115100D03*
X48963900Y38115100D03*
X49463900Y38115100D03*
X49963900Y38115100D03*
X50463900Y38115100D03*
X50963900Y38115100D03*
X51463900Y38115100D03*
D35*
X53451900Y40103100D03*
X53451900Y40603100D03*
X53451900Y41103100D03*
X53451900Y41603100D03*
X53451900Y42103100D03*
X53451900Y42603100D03*
X53451900Y43103100D03*
X53451900Y43603100D03*
X53451900Y44103100D03*
X53451900Y44603100D03*
X53451900Y45103100D03*
X53451900Y45603100D03*
X53451900Y46103100D03*
X53451900Y46603100D03*
X53451900Y47103100D03*
X53451900Y47603100D03*
D34*
X51463900Y49591100D03*
X50963900Y49591100D03*
X50463900Y49591100D03*
X49963900Y49591100D03*
X49463900Y49591100D03*
X48963900Y49591100D03*
X48463900Y49591100D03*
X47963900Y49591100D03*
X47463900Y49591100D03*
X46963900Y49591100D03*
X46463900Y49591100D03*
X45963900Y49591100D03*
X45463900Y49591100D03*
X44963900Y49591100D03*
X44463900Y49591100D03*
X43963900Y49591100D03*
D35*
X41975900Y47603100D03*
X41975900Y47103100D03*
X41975900Y46603100D03*
X41975900Y46103100D03*
X41975900Y45603100D03*
X41975900Y45103100D03*
X41975900Y44603100D03*
X41975900Y44103100D03*
X41975900Y43603100D03*
X41975900Y43103100D03*
X41975900Y42603100D03*
X41975900Y42103100D03*
X41975900Y41603100D03*
X41975900Y41103100D03*
X41975900Y40603100D03*
X41975900Y40103100D03*
%TD*%
D36*
%TO.C,Q20*%
X9182100Y49949100D03*
X9182100Y51219100D03*
X9182100Y52489100D03*
X9182100Y53759100D03*
X3949700Y53759100D03*
X3949700Y52489100D03*
X3949700Y51219100D03*
X3949700Y49949100D03*
%TD*%
D33*
%TO.C,Q4*%
X8503504Y45694600D03*
X8503504Y43789600D03*
X10383104Y44742100D03*
%TD*%
D37*
%TO.C,Q21*%
X87083900Y58661300D03*
X85813900Y58661300D03*
X84543900Y58661300D03*
X83273900Y58661300D03*
X83273900Y53428900D03*
X84543900Y53428900D03*
X85813900Y53428900D03*
X87083900Y53428900D03*
%TD*%
D38*
%TO.C,L3*%
X70722400Y52362100D03*
X74997400Y52362100D03*
%TD*%
D39*
%TO.C,U10*%
X25613360Y60756800D03*
X25613360Y63296800D03*
X25613360Y65836800D03*
X25613360Y68376800D03*
X25613360Y70916800D03*
X25613360Y73456800D03*
X25613360Y75996800D03*
X25613360Y78536800D03*
X25613360Y81076800D03*
D40*
X23327360Y83616800D03*
X20787360Y83616800D03*
X18247360Y83616800D03*
X15707360Y83616800D03*
X13167360Y83616800D03*
D39*
X10881360Y81076800D03*
X10881360Y78536800D03*
X10881360Y75996800D03*
X10881360Y73456800D03*
X10881360Y70916800D03*
X10881360Y68376800D03*
X10881360Y65836800D03*
X10881360Y63296800D03*
X10881360Y60756800D03*
%TD*%
%TO.C,U12*%
X45933360Y60756800D03*
X45933360Y63296800D03*
X45933360Y65836800D03*
X45933360Y68376800D03*
X45933360Y70916800D03*
X45933360Y73456800D03*
X45933360Y75996800D03*
X45933360Y78536800D03*
X45933360Y81076800D03*
D40*
X43647360Y83616800D03*
X41107360Y83616800D03*
X38567360Y83616800D03*
X36027360Y83616800D03*
X33487360Y83616800D03*
D39*
X31201360Y81076800D03*
X31201360Y78536800D03*
X31201360Y75996800D03*
X31201360Y73456800D03*
X31201360Y70916800D03*
X31201360Y68376800D03*
X31201360Y65836800D03*
X31201360Y63296800D03*
X31201360Y60756800D03*
%TD*%
D41*
%TO.C,J2*%
X34048700Y42557700D03*
X34048700Y40017700D03*
X34048700Y37477700D03*
X34048700Y34937700D03*
X34048700Y32397700D03*
%TD*%
D42*
%TO.C,U8*%
X56659900Y43853100D03*
X56659900Y42583100D03*
X56659900Y41313100D03*
X56659900Y40043100D03*
X62389900Y40043100D03*
X62389900Y41313100D03*
X62389900Y42583100D03*
X62389900Y43853100D03*
D43*
X59524900Y41948100D03*
%TD*%
D44*
%TO.C,U6*%
X73980000Y47327604D03*
X73980000Y47827604D03*
X73980000Y48327604D03*
X73980000Y48827604D03*
D45*
X73430000Y49377604D03*
X72930000Y49377604D03*
X72430000Y49377604D03*
X71930000Y49377604D03*
D46*
X71380000Y48827604D03*
X71380000Y48327604D03*
X71380000Y47827604D03*
X71380000Y47327604D03*
D47*
X71930000Y46777604D03*
X72430000Y46777604D03*
X72930000Y46777604D03*
X73430000Y46777604D03*
D48*
X72680000Y48077604D03*
%TD*%
D41*
%TO.C,J8*%
X17360900Y56807100D03*
X19900900Y56807100D03*
X22440900Y56807100D03*
X24980900Y56807100D03*
X27520900Y56807100D03*
X30060900Y56807100D03*
X32600900Y56807100D03*
X35140900Y56807100D03*
X37680900Y56807100D03*
%TD*%
D49*
%TO.C,H1*%
X7630000Y90805000D03*
%TD*%
%TO.C,H2*%
X5090000Y5080000D03*
%TD*%
%TO.C,H3*%
X85090000Y5080000D03*
%TD*%
%TO.C,H4*%
X81290000Y90805000D03*
%TD*%
D50*
%TO.C,REF1T*%
X1993900Y1816100D03*
%TD*%
D22*
%TO.C,JP15*%
X85940900Y22390100D03*
D21*
X86194900Y24930100D03*
X85940900Y27470100D03*
%TD*%
D23*
%TO.C,JP14*%
X69811900Y4229100D03*
D21*
X72351900Y3975100D03*
X74891900Y4229100D03*
%TD*%
D51*
%TO.C,J13*%
X52110500Y89287300D03*
X46330500Y89287300D03*
D52*
X52420500Y88312300D03*
X51620500Y88312300D03*
D53*
X50470500Y88312300D03*
X49470500Y88312300D03*
X48970500Y88312300D03*
X47970500Y88312300D03*
D52*
X46820500Y88312300D03*
X46020500Y88312300D03*
D53*
X47470500Y88312300D03*
X48470500Y88312300D03*
X49970500Y88312300D03*
X50970500Y88312300D03*
D54*
X53540500Y88787300D03*
D55*
X53540500Y92937300D03*
D54*
X44900500Y88787300D03*
D55*
X44900500Y92937300D03*
%TD*%
D56*
%TO.C,U16*%
X58556200Y80889004D03*
X58556200Y88509004D03*
X68716200Y80889004D03*
X76336200Y88509004D03*
X76336200Y80889004D03*
%TD*%
D31*
%TO.C,C29*%
X55714900Y91218600D03*
X55714900Y92793600D03*
%TD*%
D57*
%TO.C,J12*%
X84670900Y13690004D03*
D58*
X82130900Y16230004D03*
X82130900Y11150004D03*
X87210900Y16230004D03*
X87210900Y11150004D03*
%TD*%
D32*
%TO.C,C34*%
X55613400Y81597500D03*
X54038400Y81597500D03*
%TD*%
D27*
%TO.C,C38*%
X50101400Y76555600D03*
X51676400Y76555600D03*
%TD*%
%TO.C,C39*%
X53530400Y75095100D03*
X55105400Y75095100D03*
%TD*%
D57*
%TO.C,J7*%
X5775000Y13690004D03*
D58*
X3235000Y16230004D03*
X3235000Y11150004D03*
X8315000Y16230004D03*
X8315000Y11150004D03*
%TD*%
D59*
%TO.C,D1*%
X39749900Y88100100D03*
X39749900Y91300100D03*
X34849900Y91300100D03*
X34849900Y88100100D03*
%TD*%
D28*
%TO.C,C7*%
X64096900Y48872404D03*
X64096900Y47297404D03*
%TD*%
D60*
%TO.C,U3*%
X60298900Y46401100D03*
X60798900Y46401100D03*
X61298900Y46401100D03*
X61798900Y46401100D03*
D61*
X62060900Y47163100D03*
X62060900Y47663100D03*
X62060900Y48163100D03*
D60*
X61798900Y48925100D03*
X61298900Y48925100D03*
X60798900Y48925100D03*
X60298900Y48925100D03*
D61*
X60036900Y48163100D03*
X60036900Y47663100D03*
X60036900Y47163100D03*
%TD*%
D31*
%TO.C,C3*%
X65874900Y47297404D03*
X65874900Y48872404D03*
%TD*%
D28*
%TO.C,C30*%
X64858900Y43703504D03*
X64858900Y42128504D03*
%TD*%
D62*
%TO.C,L1*%
X38950900Y46148100D03*
X38950900Y44098100D03*
%TD*%
D27*
%TO.C,C25*%
X76869500Y47673804D03*
X78444500Y47673804D03*
%TD*%
D31*
%TO.C,C5*%
X42252900Y89166600D03*
X42252900Y90741600D03*
%TD*%
D32*
%TO.C,C27*%
X59169400Y75095100D03*
X57594400Y75095100D03*
%TD*%
D27*
%TO.C,C37*%
X50063400Y78143100D03*
X51638400Y78143100D03*
%TD*%
D63*
%TO.C,R54*%
X26520930Y83731100D03*
X28395930Y83731100D03*
%TD*%
%TO.C,R56*%
X28395930Y83731100D03*
X30270930Y83731100D03*
%TD*%
D27*
%TO.C,C2*%
X45453200Y33190180D03*
X47028200Y33190180D03*
%TD*%
D64*
%TO.C,Y1*%
X42958700Y35095180D03*
X45458700Y35095180D03*
%TD*%
D32*
%TO.C,C1*%
X42964200Y33190180D03*
X41389200Y33190180D03*
%TD*%
D41*
%TO.C,J15*%
X50317400Y54267100D03*
X52857400Y54267100D03*
%TD*%
%TO.C,J9*%
X47777400Y56807100D03*
X50317400Y56807100D03*
X52857400Y56807100D03*
%TD*%
D31*
%TO.C,D5*%
X57957400Y92087600D03*
X57957400Y93662600D03*
%TD*%
D23*
%TO.C,JP8*%
X42545000Y4229100D03*
D21*
X45085000Y3975100D03*
X47625000Y4229100D03*
%TD*%
D65*
%TO.C,R8*%
X69176900Y63644100D03*
X69176900Y57844100D03*
%TD*%
D66*
%TO.C,L2*%
X56476900Y62544100D03*
X56476900Y58944100D03*
%TD*%
D67*
%TO.C,Q6*%
X64287400Y73139300D03*
X66192400Y73139300D03*
X65239900Y75018900D03*
%TD*%
D68*
%TO.C,C19*%
X63433000Y66662004D03*
X63433000Y69462004D03*
%TD*%
%TO.C,C20*%
X67144900Y66662004D03*
X67144900Y69462004D03*
%TD*%
D28*
%TO.C,C24*%
X69430900Y76390600D03*
X69430900Y74815600D03*
%TD*%
D69*
%TO.C,U4*%
X66239901Y58469100D03*
X65739899Y58469100D03*
X65239900Y58469100D03*
X64739901Y58469100D03*
X64239899Y58469100D03*
X64239899Y54119100D03*
X64739901Y54119100D03*
X65239900Y54119100D03*
X65739899Y54119100D03*
X66239901Y54119100D03*
%TD*%
D70*
%TO.C,U23*%
X15293000Y9108100D03*
X17293000Y9108100D03*
X19293000Y9108100D03*
X21293000Y9108100D03*
X23293000Y9108100D03*
X25293000Y9108100D03*
X27293000Y9108100D03*
X29293000Y9108100D03*
X29293000Y44108100D03*
X27293000Y44108100D03*
X25293000Y44108100D03*
X23293000Y44108100D03*
X21293000Y44108100D03*
X19293000Y44108100D03*
X17293000Y44108100D03*
X15293000Y44108100D03*
D71*
X20543000Y20675600D03*
%TD*%
D72*
%TO.C,SW1*%
X37325400Y36124100D03*
X37325400Y32024100D03*
X38925400Y36124100D03*
X38925400Y32024100D03*
%TD*%
D41*
%TO.C,J10*%
X49745900Y33769300D03*
X52285900Y33769300D03*
X54825900Y33769300D03*
X57365900Y33769300D03*
%TD*%
D31*
%TO.C,C31*%
X69430900Y71767600D03*
X69430900Y73342600D03*
%TD*%
D73*
%TO.C,Q11*%
X18643000Y50269100D03*
X19293000Y50269100D03*
X19943000Y50269100D03*
X19943000Y52169100D03*
X19293000Y52169100D03*
X18643000Y52169100D03*
%TD*%
D74*
%TO.C,Q17*%
X59273400Y36185600D03*
X61173400Y36185600D03*
X60223400Y38185600D03*
%TD*%
D75*
%TO.C,U21*%
X71637900Y18199100D03*
X71637900Y16929100D03*
X71637900Y15659100D03*
X71637900Y14389100D03*
X71637900Y13119100D03*
D76*
X77637900Y15659100D03*
%TD*%
D77*
%TO.C,JP6*%
X25806400Y4786100D03*
D78*
X25806400Y3086100D03*
D79*
X25806400Y1386100D03*
%TD*%
D27*
%TO.C,C44*%
X21780400Y4737100D03*
X23355400Y4737100D03*
%TD*%
D28*
%TO.C,C45*%
X69303900Y18910400D03*
X69303900Y17335400D03*
%TD*%
%TO.C,C43*%
X69303900Y15684600D03*
X69303900Y14109600D03*
%TD*%
D27*
%TO.C,C36*%
X54038400Y80175100D03*
X55613400Y80175100D03*
%TD*%
D28*
%TO.C,C32*%
X62826900Y62166600D03*
X62826900Y60591600D03*
%TD*%
D80*
%TO.C,U7*%
X63207900Y12947100D03*
X64477900Y12947100D03*
X65747900Y12947100D03*
X67017900Y12947100D03*
X67017900Y18371100D03*
X65747900Y18371100D03*
X64477900Y18371100D03*
X63207900Y18371100D03*
%TD*%
D50*
%TO.C,REF3T*%
X88099900Y94018100D03*
%TD*%
%TO.C,REF2T*%
X2501900Y93510100D03*
%TD*%
D23*
%TO.C,JP10*%
X64268000Y91663004D03*
D21*
X66808000Y91917004D03*
X69348000Y91663004D03*
%TD*%
D57*
%TO.C,J6*%
X5775000Y35225392D03*
D58*
X3235000Y37765392D03*
X3235000Y32685392D03*
X8315000Y37765392D03*
X8315000Y32685392D03*
%TD*%
D57*
%TO.C,J5*%
X5775000Y24315204D03*
D58*
X3235000Y26855204D03*
X3235000Y21775204D03*
X8315000Y26855204D03*
X8315000Y21775204D03*
%TD*%
D81*
%TO.C,J16*%
X73581000Y77080404D03*
D26*
X73581000Y73224804D03*
%TD*%
D81*
%TO.C,J17*%
X73581000Y69724804D03*
D26*
X73581000Y65869204D03*
%TD*%
D82*
%TO.C,J14*%
X53809900Y78143100D03*
X56349900Y78143100D03*
X58889900Y78143100D03*
X61429900Y78143100D03*
X63969900Y78143100D03*
X66509900Y78143100D03*
%TD*%
D81*
%TO.C,J18*%
X82372000Y81749900D03*
D26*
X82372000Y77894300D03*
%TD*%
M02*
