%TF.GenerationSoftware,KiCad,Pcbnew,7.0.9*%
%TF.CreationDate,2024-01-23T11:42:20+00:00*%
%TF.ProjectId,mainboard,6d61696e-626f-4617-9264-2e6b69636164,rev?*%
%TF.SameCoordinates,Original*%
%TF.FileFunction,Other,Comment*%
%FSLAX46Y46*%
G04 Gerber Fmt 4.6, Leading zero omitted, Abs format (unit mm)*
G04 Created by KiCad (PCBNEW 7.0.9) date 2024-01-23 11:42:20*
%MOMM*%
%LPD*%
G01*
G04 APERTURE LIST*
%ADD10C,0.002000*%
%ADD11C,0.150000*%
G04 APERTURE END LIST*
D10*
X65286453Y53653267D02*
X65292501Y53647219D01*
X65292501Y53647219D02*
X65298548Y53629077D01*
X65298548Y53629077D02*
X65298548Y53616981D01*
X65298548Y53616981D02*
X65292501Y53598838D01*
X65292501Y53598838D02*
X65280405Y53586743D01*
X65280405Y53586743D02*
X65268310Y53580696D01*
X65268310Y53580696D02*
X65244120Y53574648D01*
X65244120Y53574648D02*
X65225977Y53574648D01*
X65225977Y53574648D02*
X65201786Y53580696D01*
X65201786Y53580696D02*
X65189691Y53586743D01*
X65189691Y53586743D02*
X65177596Y53598838D01*
X65177596Y53598838D02*
X65171548Y53616981D01*
X65171548Y53616981D02*
X65171548Y53629077D01*
X65171548Y53629077D02*
X65177596Y53647219D01*
X65177596Y53647219D02*
X65183643Y53653267D01*
X65298548Y53725838D02*
X65292501Y53713743D01*
X65292501Y53713743D02*
X65286453Y53707696D01*
X65286453Y53707696D02*
X65274358Y53701648D01*
X65274358Y53701648D02*
X65238072Y53701648D01*
X65238072Y53701648D02*
X65225977Y53707696D01*
X65225977Y53707696D02*
X65219929Y53713743D01*
X65219929Y53713743D02*
X65213881Y53725838D01*
X65213881Y53725838D02*
X65213881Y53743981D01*
X65213881Y53743981D02*
X65219929Y53756077D01*
X65219929Y53756077D02*
X65225977Y53762124D01*
X65225977Y53762124D02*
X65238072Y53768172D01*
X65238072Y53768172D02*
X65274358Y53768172D01*
X65274358Y53768172D02*
X65286453Y53762124D01*
X65286453Y53762124D02*
X65292501Y53756077D01*
X65292501Y53756077D02*
X65298548Y53743981D01*
X65298548Y53743981D02*
X65298548Y53725838D01*
X65213881Y53822601D02*
X65340881Y53822601D01*
X65219929Y53822601D02*
X65213881Y53834696D01*
X65213881Y53834696D02*
X65213881Y53858886D01*
X65213881Y53858886D02*
X65219929Y53870982D01*
X65219929Y53870982D02*
X65225977Y53877029D01*
X65225977Y53877029D02*
X65238072Y53883077D01*
X65238072Y53883077D02*
X65274358Y53883077D01*
X65274358Y53883077D02*
X65286453Y53877029D01*
X65286453Y53877029D02*
X65292501Y53870982D01*
X65292501Y53870982D02*
X65298548Y53858886D01*
X65298548Y53858886D02*
X65298548Y53834696D01*
X65298548Y53834696D02*
X65292501Y53822601D01*
X65213881Y53925410D02*
X65298548Y53955648D01*
X65213881Y53985887D02*
X65298548Y53955648D01*
X65298548Y53955648D02*
X65328786Y53943553D01*
X65328786Y53943553D02*
X65334834Y53937506D01*
X65334834Y53937506D02*
X65340881Y53925410D01*
X65298548Y54034268D02*
X65213881Y54034268D01*
X65238072Y54034268D02*
X65225977Y54040315D01*
X65225977Y54040315D02*
X65219929Y54046363D01*
X65219929Y54046363D02*
X65213881Y54058458D01*
X65213881Y54058458D02*
X65213881Y54070553D01*
X65298548Y54112887D02*
X65213881Y54112887D01*
X65171548Y54112887D02*
X65177596Y54106839D01*
X65177596Y54106839D02*
X65183643Y54112887D01*
X65183643Y54112887D02*
X65177596Y54118934D01*
X65177596Y54118934D02*
X65171548Y54112887D01*
X65171548Y54112887D02*
X65183643Y54112887D01*
X65213881Y54227791D02*
X65316691Y54227791D01*
X65316691Y54227791D02*
X65328786Y54221744D01*
X65328786Y54221744D02*
X65334834Y54215696D01*
X65334834Y54215696D02*
X65340881Y54203601D01*
X65340881Y54203601D02*
X65340881Y54185458D01*
X65340881Y54185458D02*
X65334834Y54173363D01*
X65292501Y54227791D02*
X65298548Y54215696D01*
X65298548Y54215696D02*
X65298548Y54191505D01*
X65298548Y54191505D02*
X65292501Y54179410D01*
X65292501Y54179410D02*
X65286453Y54173363D01*
X65286453Y54173363D02*
X65274358Y54167315D01*
X65274358Y54167315D02*
X65238072Y54167315D01*
X65238072Y54167315D02*
X65225977Y54173363D01*
X65225977Y54173363D02*
X65219929Y54179410D01*
X65219929Y54179410D02*
X65213881Y54191505D01*
X65213881Y54191505D02*
X65213881Y54215696D01*
X65213881Y54215696D02*
X65219929Y54227791D01*
X65298548Y54288268D02*
X65171548Y54288268D01*
X65298548Y54342696D02*
X65232024Y54342696D01*
X65232024Y54342696D02*
X65219929Y54336649D01*
X65219929Y54336649D02*
X65213881Y54324553D01*
X65213881Y54324553D02*
X65213881Y54306410D01*
X65213881Y54306410D02*
X65219929Y54294315D01*
X65219929Y54294315D02*
X65225977Y54288268D01*
X65213881Y54385030D02*
X65213881Y54433411D01*
X65171548Y54403173D02*
X65280405Y54403173D01*
X65280405Y54403173D02*
X65292501Y54409220D01*
X65292501Y54409220D02*
X65298548Y54421315D01*
X65298548Y54421315D02*
X65298548Y54433411D01*
X65183643Y54566458D02*
X65177596Y54572506D01*
X65177596Y54572506D02*
X65171548Y54584601D01*
X65171548Y54584601D02*
X65171548Y54614839D01*
X65171548Y54614839D02*
X65177596Y54626934D01*
X65177596Y54626934D02*
X65183643Y54632982D01*
X65183643Y54632982D02*
X65195739Y54639029D01*
X65195739Y54639029D02*
X65207834Y54639029D01*
X65207834Y54639029D02*
X65225977Y54632982D01*
X65225977Y54632982D02*
X65298548Y54560410D01*
X65298548Y54560410D02*
X65298548Y54639029D01*
X65171548Y54717648D02*
X65171548Y54729743D01*
X65171548Y54729743D02*
X65177596Y54741839D01*
X65177596Y54741839D02*
X65183643Y54747886D01*
X65183643Y54747886D02*
X65195739Y54753934D01*
X65195739Y54753934D02*
X65219929Y54759981D01*
X65219929Y54759981D02*
X65250167Y54759981D01*
X65250167Y54759981D02*
X65274358Y54753934D01*
X65274358Y54753934D02*
X65286453Y54747886D01*
X65286453Y54747886D02*
X65292501Y54741839D01*
X65292501Y54741839D02*
X65298548Y54729743D01*
X65298548Y54729743D02*
X65298548Y54717648D01*
X65298548Y54717648D02*
X65292501Y54705553D01*
X65292501Y54705553D02*
X65286453Y54699505D01*
X65286453Y54699505D02*
X65274358Y54693458D01*
X65274358Y54693458D02*
X65250167Y54687410D01*
X65250167Y54687410D02*
X65219929Y54687410D01*
X65219929Y54687410D02*
X65195739Y54693458D01*
X65195739Y54693458D02*
X65183643Y54699505D01*
X65183643Y54699505D02*
X65177596Y54705553D01*
X65177596Y54705553D02*
X65171548Y54717648D01*
X65298548Y54880933D02*
X65298548Y54808362D01*
X65298548Y54844648D02*
X65171548Y54844648D01*
X65171548Y54844648D02*
X65189691Y54832552D01*
X65189691Y54832552D02*
X65201786Y54820457D01*
X65201786Y54820457D02*
X65207834Y54808362D01*
X65171548Y54989790D02*
X65171548Y54965600D01*
X65171548Y54965600D02*
X65177596Y54953504D01*
X65177596Y54953504D02*
X65183643Y54947457D01*
X65183643Y54947457D02*
X65201786Y54935362D01*
X65201786Y54935362D02*
X65225977Y54929314D01*
X65225977Y54929314D02*
X65274358Y54929314D01*
X65274358Y54929314D02*
X65286453Y54935362D01*
X65286453Y54935362D02*
X65292501Y54941409D01*
X65292501Y54941409D02*
X65298548Y54953504D01*
X65298548Y54953504D02*
X65298548Y54977695D01*
X65298548Y54977695D02*
X65292501Y54989790D01*
X65292501Y54989790D02*
X65286453Y54995838D01*
X65286453Y54995838D02*
X65274358Y55001885D01*
X65274358Y55001885D02*
X65244120Y55001885D01*
X65244120Y55001885D02*
X65232024Y54995838D01*
X65232024Y54995838D02*
X65225977Y54989790D01*
X65225977Y54989790D02*
X65219929Y54977695D01*
X65219929Y54977695D02*
X65219929Y54953504D01*
X65219929Y54953504D02*
X65225977Y54941409D01*
X65225977Y54941409D02*
X65232024Y54935362D01*
X65232024Y54935362D02*
X65244120Y54929314D01*
X65262262Y55147028D02*
X65262262Y55207504D01*
X65298548Y55134933D02*
X65171548Y55177266D01*
X65171548Y55177266D02*
X65298548Y55219599D01*
X65292501Y55316361D02*
X65298548Y55304266D01*
X65298548Y55304266D02*
X65298548Y55280075D01*
X65298548Y55280075D02*
X65292501Y55267980D01*
X65292501Y55267980D02*
X65286453Y55261933D01*
X65286453Y55261933D02*
X65274358Y55255885D01*
X65274358Y55255885D02*
X65238072Y55255885D01*
X65238072Y55255885D02*
X65225977Y55261933D01*
X65225977Y55261933D02*
X65219929Y55267980D01*
X65219929Y55267980D02*
X65213881Y55280075D01*
X65213881Y55280075D02*
X65213881Y55304266D01*
X65213881Y55304266D02*
X65219929Y55316361D01*
X65292501Y55425218D02*
X65298548Y55413123D01*
X65298548Y55413123D02*
X65298548Y55388932D01*
X65298548Y55388932D02*
X65292501Y55376837D01*
X65292501Y55376837D02*
X65286453Y55370790D01*
X65286453Y55370790D02*
X65274358Y55364742D01*
X65274358Y55364742D02*
X65238072Y55364742D01*
X65238072Y55364742D02*
X65225977Y55370790D01*
X65225977Y55370790D02*
X65219929Y55376837D01*
X65219929Y55376837D02*
X65213881Y55388932D01*
X65213881Y55388932D02*
X65213881Y55413123D01*
X65213881Y55413123D02*
X65219929Y55425218D01*
X65292501Y55528028D02*
X65298548Y55515932D01*
X65298548Y55515932D02*
X65298548Y55491742D01*
X65298548Y55491742D02*
X65292501Y55479647D01*
X65292501Y55479647D02*
X65280405Y55473599D01*
X65280405Y55473599D02*
X65232024Y55473599D01*
X65232024Y55473599D02*
X65219929Y55479647D01*
X65219929Y55479647D02*
X65213881Y55491742D01*
X65213881Y55491742D02*
X65213881Y55515932D01*
X65213881Y55515932D02*
X65219929Y55528028D01*
X65219929Y55528028D02*
X65232024Y55534075D01*
X65232024Y55534075D02*
X65244120Y55534075D01*
X65244120Y55534075D02*
X65256215Y55473599D01*
X65298548Y55606646D02*
X65292501Y55594551D01*
X65292501Y55594551D02*
X65280405Y55588504D01*
X65280405Y55588504D02*
X65171548Y55588504D01*
X65292501Y55703409D02*
X65298548Y55691313D01*
X65298548Y55691313D02*
X65298548Y55667123D01*
X65298548Y55667123D02*
X65292501Y55655028D01*
X65292501Y55655028D02*
X65280405Y55648980D01*
X65280405Y55648980D02*
X65232024Y55648980D01*
X65232024Y55648980D02*
X65219929Y55655028D01*
X65219929Y55655028D02*
X65213881Y55667123D01*
X65213881Y55667123D02*
X65213881Y55691313D01*
X65213881Y55691313D02*
X65219929Y55703409D01*
X65219929Y55703409D02*
X65232024Y55709456D01*
X65232024Y55709456D02*
X65244120Y55709456D01*
X65244120Y55709456D02*
X65256215Y55648980D01*
X65298548Y55763885D02*
X65213881Y55763885D01*
X65238072Y55763885D02*
X65225977Y55769932D01*
X65225977Y55769932D02*
X65219929Y55775980D01*
X65219929Y55775980D02*
X65213881Y55788075D01*
X65213881Y55788075D02*
X65213881Y55800170D01*
X65298548Y55896932D02*
X65232024Y55896932D01*
X65232024Y55896932D02*
X65219929Y55890885D01*
X65219929Y55890885D02*
X65213881Y55878789D01*
X65213881Y55878789D02*
X65213881Y55854599D01*
X65213881Y55854599D02*
X65219929Y55842504D01*
X65292501Y55896932D02*
X65298548Y55884837D01*
X65298548Y55884837D02*
X65298548Y55854599D01*
X65298548Y55854599D02*
X65292501Y55842504D01*
X65292501Y55842504D02*
X65280405Y55836456D01*
X65280405Y55836456D02*
X65268310Y55836456D01*
X65268310Y55836456D02*
X65256215Y55842504D01*
X65256215Y55842504D02*
X65250167Y55854599D01*
X65250167Y55854599D02*
X65250167Y55884837D01*
X65250167Y55884837D02*
X65244120Y55896932D01*
X65213881Y55939266D02*
X65213881Y55987647D01*
X65171548Y55957409D02*
X65280405Y55957409D01*
X65280405Y55957409D02*
X65292501Y55963456D01*
X65292501Y55963456D02*
X65298548Y55975551D01*
X65298548Y55975551D02*
X65298548Y55987647D01*
X65292501Y56078361D02*
X65298548Y56066265D01*
X65298548Y56066265D02*
X65298548Y56042075D01*
X65298548Y56042075D02*
X65292501Y56029980D01*
X65292501Y56029980D02*
X65280405Y56023932D01*
X65280405Y56023932D02*
X65232024Y56023932D01*
X65232024Y56023932D02*
X65219929Y56029980D01*
X65219929Y56029980D02*
X65213881Y56042075D01*
X65213881Y56042075D02*
X65213881Y56066265D01*
X65213881Y56066265D02*
X65219929Y56078361D01*
X65219929Y56078361D02*
X65232024Y56084408D01*
X65232024Y56084408D02*
X65244120Y56084408D01*
X65244120Y56084408D02*
X65256215Y56023932D01*
X65298548Y56193265D02*
X65171548Y56193265D01*
X65292501Y56193265D02*
X65298548Y56181170D01*
X65298548Y56181170D02*
X65298548Y56156979D01*
X65298548Y56156979D02*
X65292501Y56144884D01*
X65292501Y56144884D02*
X65286453Y56138837D01*
X65286453Y56138837D02*
X65274358Y56132789D01*
X65274358Y56132789D02*
X65238072Y56132789D01*
X65238072Y56132789D02*
X65225977Y56138837D01*
X65225977Y56138837D02*
X65219929Y56144884D01*
X65219929Y56144884D02*
X65213881Y56156979D01*
X65213881Y56156979D02*
X65213881Y56181170D01*
X65213881Y56181170D02*
X65219929Y56193265D01*
X65298548Y56350504D02*
X65171548Y56350504D01*
X65171548Y56350504D02*
X65171548Y56380742D01*
X65171548Y56380742D02*
X65177596Y56398885D01*
X65177596Y56398885D02*
X65189691Y56410980D01*
X65189691Y56410980D02*
X65201786Y56417027D01*
X65201786Y56417027D02*
X65225977Y56423075D01*
X65225977Y56423075D02*
X65244120Y56423075D01*
X65244120Y56423075D02*
X65268310Y56417027D01*
X65268310Y56417027D02*
X65280405Y56410980D01*
X65280405Y56410980D02*
X65292501Y56398885D01*
X65292501Y56398885D02*
X65298548Y56380742D01*
X65298548Y56380742D02*
X65298548Y56350504D01*
X65292501Y56525885D02*
X65298548Y56513789D01*
X65298548Y56513789D02*
X65298548Y56489599D01*
X65298548Y56489599D02*
X65292501Y56477504D01*
X65292501Y56477504D02*
X65280405Y56471456D01*
X65280405Y56471456D02*
X65232024Y56471456D01*
X65232024Y56471456D02*
X65219929Y56477504D01*
X65219929Y56477504D02*
X65213881Y56489599D01*
X65213881Y56489599D02*
X65213881Y56513789D01*
X65213881Y56513789D02*
X65219929Y56525885D01*
X65219929Y56525885D02*
X65232024Y56531932D01*
X65232024Y56531932D02*
X65244120Y56531932D01*
X65244120Y56531932D02*
X65256215Y56471456D01*
X65292501Y56580313D02*
X65298548Y56592408D01*
X65298548Y56592408D02*
X65298548Y56616599D01*
X65298548Y56616599D02*
X65292501Y56628694D01*
X65292501Y56628694D02*
X65280405Y56634742D01*
X65280405Y56634742D02*
X65274358Y56634742D01*
X65274358Y56634742D02*
X65262262Y56628694D01*
X65262262Y56628694D02*
X65256215Y56616599D01*
X65256215Y56616599D02*
X65256215Y56598456D01*
X65256215Y56598456D02*
X65250167Y56586361D01*
X65250167Y56586361D02*
X65238072Y56580313D01*
X65238072Y56580313D02*
X65232024Y56580313D01*
X65232024Y56580313D02*
X65219929Y56586361D01*
X65219929Y56586361D02*
X65213881Y56598456D01*
X65213881Y56598456D02*
X65213881Y56616599D01*
X65213881Y56616599D02*
X65219929Y56628694D01*
X65298548Y56689171D02*
X65213881Y56689171D01*
X65171548Y56689171D02*
X65177596Y56683123D01*
X65177596Y56683123D02*
X65183643Y56689171D01*
X65183643Y56689171D02*
X65177596Y56695218D01*
X65177596Y56695218D02*
X65171548Y56689171D01*
X65171548Y56689171D02*
X65183643Y56689171D01*
X65213881Y56804075D02*
X65316691Y56804075D01*
X65316691Y56804075D02*
X65328786Y56798028D01*
X65328786Y56798028D02*
X65334834Y56791980D01*
X65334834Y56791980D02*
X65340881Y56779885D01*
X65340881Y56779885D02*
X65340881Y56761742D01*
X65340881Y56761742D02*
X65334834Y56749647D01*
X65292501Y56804075D02*
X65298548Y56791980D01*
X65298548Y56791980D02*
X65298548Y56767789D01*
X65298548Y56767789D02*
X65292501Y56755694D01*
X65292501Y56755694D02*
X65286453Y56749647D01*
X65286453Y56749647D02*
X65274358Y56743599D01*
X65274358Y56743599D02*
X65238072Y56743599D01*
X65238072Y56743599D02*
X65225977Y56749647D01*
X65225977Y56749647D02*
X65219929Y56755694D01*
X65219929Y56755694D02*
X65213881Y56767789D01*
X65213881Y56767789D02*
X65213881Y56791980D01*
X65213881Y56791980D02*
X65219929Y56804075D01*
X65213881Y56864552D02*
X65298548Y56864552D01*
X65225977Y56864552D02*
X65219929Y56870599D01*
X65219929Y56870599D02*
X65213881Y56882694D01*
X65213881Y56882694D02*
X65213881Y56900837D01*
X65213881Y56900837D02*
X65219929Y56912933D01*
X65219929Y56912933D02*
X65232024Y56918980D01*
X65232024Y56918980D02*
X65298548Y56918980D01*
X65292501Y56973409D02*
X65298548Y56985504D01*
X65298548Y56985504D02*
X65298548Y57009695D01*
X65298548Y57009695D02*
X65292501Y57021790D01*
X65292501Y57021790D02*
X65280405Y57027838D01*
X65280405Y57027838D02*
X65274358Y57027838D01*
X65274358Y57027838D02*
X65262262Y57021790D01*
X65262262Y57021790D02*
X65256215Y57009695D01*
X65256215Y57009695D02*
X65256215Y56991552D01*
X65256215Y56991552D02*
X65250167Y56979457D01*
X65250167Y56979457D02*
X65238072Y56973409D01*
X65238072Y56973409D02*
X65232024Y56973409D01*
X65232024Y56973409D02*
X65219929Y56979457D01*
X65219929Y56979457D02*
X65213881Y56991552D01*
X65213881Y56991552D02*
X65213881Y57009695D01*
X65213881Y57009695D02*
X65219929Y57021790D01*
X65286453Y57082267D02*
X65292501Y57088314D01*
X65292501Y57088314D02*
X65298548Y57082267D01*
X65298548Y57082267D02*
X65292501Y57076219D01*
X65292501Y57076219D02*
X65286453Y57082267D01*
X65286453Y57082267D02*
X65298548Y57082267D01*
X65262262Y57233457D02*
X65262262Y57293933D01*
X65298548Y57221362D02*
X65171548Y57263695D01*
X65171548Y57263695D02*
X65298548Y57306028D01*
X65298548Y57366504D02*
X65292501Y57354409D01*
X65292501Y57354409D02*
X65280405Y57348362D01*
X65280405Y57348362D02*
X65171548Y57348362D01*
X65298548Y57433028D02*
X65292501Y57420933D01*
X65292501Y57420933D02*
X65280405Y57414886D01*
X65280405Y57414886D02*
X65171548Y57414886D01*
X65298548Y57578172D02*
X65213881Y57578172D01*
X65238072Y57578172D02*
X65225977Y57584219D01*
X65225977Y57584219D02*
X65219929Y57590267D01*
X65219929Y57590267D02*
X65213881Y57602362D01*
X65213881Y57602362D02*
X65213881Y57614457D01*
X65298548Y57656791D02*
X65213881Y57656791D01*
X65171548Y57656791D02*
X65177596Y57650743D01*
X65177596Y57650743D02*
X65183643Y57656791D01*
X65183643Y57656791D02*
X65177596Y57662838D01*
X65177596Y57662838D02*
X65171548Y57656791D01*
X65171548Y57656791D02*
X65183643Y57656791D01*
X65213881Y57771695D02*
X65316691Y57771695D01*
X65316691Y57771695D02*
X65328786Y57765648D01*
X65328786Y57765648D02*
X65334834Y57759600D01*
X65334834Y57759600D02*
X65340881Y57747505D01*
X65340881Y57747505D02*
X65340881Y57729362D01*
X65340881Y57729362D02*
X65334834Y57717267D01*
X65292501Y57771695D02*
X65298548Y57759600D01*
X65298548Y57759600D02*
X65298548Y57735409D01*
X65298548Y57735409D02*
X65292501Y57723314D01*
X65292501Y57723314D02*
X65286453Y57717267D01*
X65286453Y57717267D02*
X65274358Y57711219D01*
X65274358Y57711219D02*
X65238072Y57711219D01*
X65238072Y57711219D02*
X65225977Y57717267D01*
X65225977Y57717267D02*
X65219929Y57723314D01*
X65219929Y57723314D02*
X65213881Y57735409D01*
X65213881Y57735409D02*
X65213881Y57759600D01*
X65213881Y57759600D02*
X65219929Y57771695D01*
X65298548Y57832172D02*
X65171548Y57832172D01*
X65298548Y57886600D02*
X65232024Y57886600D01*
X65232024Y57886600D02*
X65219929Y57880553D01*
X65219929Y57880553D02*
X65213881Y57868457D01*
X65213881Y57868457D02*
X65213881Y57850314D01*
X65213881Y57850314D02*
X65219929Y57838219D01*
X65219929Y57838219D02*
X65225977Y57832172D01*
X65213881Y57928934D02*
X65213881Y57977315D01*
X65171548Y57947077D02*
X65280405Y57947077D01*
X65280405Y57947077D02*
X65292501Y57953124D01*
X65292501Y57953124D02*
X65298548Y57965219D01*
X65298548Y57965219D02*
X65298548Y57977315D01*
X65292501Y58013600D02*
X65298548Y58025695D01*
X65298548Y58025695D02*
X65298548Y58049886D01*
X65298548Y58049886D02*
X65292501Y58061981D01*
X65292501Y58061981D02*
X65280405Y58068029D01*
X65280405Y58068029D02*
X65274358Y58068029D01*
X65274358Y58068029D02*
X65262262Y58061981D01*
X65262262Y58061981D02*
X65256215Y58049886D01*
X65256215Y58049886D02*
X65256215Y58031743D01*
X65256215Y58031743D02*
X65250167Y58019648D01*
X65250167Y58019648D02*
X65238072Y58013600D01*
X65238072Y58013600D02*
X65232024Y58013600D01*
X65232024Y58013600D02*
X65219929Y58019648D01*
X65219929Y58019648D02*
X65213881Y58031743D01*
X65213881Y58031743D02*
X65213881Y58049886D01*
X65213881Y58049886D02*
X65219929Y58061981D01*
X65298548Y58219220D02*
X65213881Y58219220D01*
X65238072Y58219220D02*
X65225977Y58225267D01*
X65225977Y58225267D02*
X65219929Y58231315D01*
X65219929Y58231315D02*
X65213881Y58243410D01*
X65213881Y58243410D02*
X65213881Y58255505D01*
X65292501Y58346220D02*
X65298548Y58334124D01*
X65298548Y58334124D02*
X65298548Y58309934D01*
X65298548Y58309934D02*
X65292501Y58297839D01*
X65292501Y58297839D02*
X65280405Y58291791D01*
X65280405Y58291791D02*
X65232024Y58291791D01*
X65232024Y58291791D02*
X65219929Y58297839D01*
X65219929Y58297839D02*
X65213881Y58309934D01*
X65213881Y58309934D02*
X65213881Y58334124D01*
X65213881Y58334124D02*
X65219929Y58346220D01*
X65219929Y58346220D02*
X65232024Y58352267D01*
X65232024Y58352267D02*
X65244120Y58352267D01*
X65244120Y58352267D02*
X65256215Y58291791D01*
X65292501Y58400648D02*
X65298548Y58412743D01*
X65298548Y58412743D02*
X65298548Y58436934D01*
X65298548Y58436934D02*
X65292501Y58449029D01*
X65292501Y58449029D02*
X65280405Y58455077D01*
X65280405Y58455077D02*
X65274358Y58455077D01*
X65274358Y58455077D02*
X65262262Y58449029D01*
X65262262Y58449029D02*
X65256215Y58436934D01*
X65256215Y58436934D02*
X65256215Y58418791D01*
X65256215Y58418791D02*
X65250167Y58406696D01*
X65250167Y58406696D02*
X65238072Y58400648D01*
X65238072Y58400648D02*
X65232024Y58400648D01*
X65232024Y58400648D02*
X65219929Y58406696D01*
X65219929Y58406696D02*
X65213881Y58418791D01*
X65213881Y58418791D02*
X65213881Y58436934D01*
X65213881Y58436934D02*
X65219929Y58449029D01*
X65292501Y58557887D02*
X65298548Y58545791D01*
X65298548Y58545791D02*
X65298548Y58521601D01*
X65298548Y58521601D02*
X65292501Y58509506D01*
X65292501Y58509506D02*
X65280405Y58503458D01*
X65280405Y58503458D02*
X65232024Y58503458D01*
X65232024Y58503458D02*
X65219929Y58509506D01*
X65219929Y58509506D02*
X65213881Y58521601D01*
X65213881Y58521601D02*
X65213881Y58545791D01*
X65213881Y58545791D02*
X65219929Y58557887D01*
X65219929Y58557887D02*
X65232024Y58563934D01*
X65232024Y58563934D02*
X65244120Y58563934D01*
X65244120Y58563934D02*
X65256215Y58503458D01*
X65298548Y58618363D02*
X65213881Y58618363D01*
X65238072Y58618363D02*
X65225977Y58624410D01*
X65225977Y58624410D02*
X65219929Y58630458D01*
X65219929Y58630458D02*
X65213881Y58642553D01*
X65213881Y58642553D02*
X65213881Y58654648D01*
X65213881Y58684886D02*
X65298548Y58715124D01*
X65298548Y58715124D02*
X65213881Y58745363D01*
X65292501Y58842125D02*
X65298548Y58830029D01*
X65298548Y58830029D02*
X65298548Y58805839D01*
X65298548Y58805839D02*
X65292501Y58793744D01*
X65292501Y58793744D02*
X65280405Y58787696D01*
X65280405Y58787696D02*
X65232024Y58787696D01*
X65232024Y58787696D02*
X65219929Y58793744D01*
X65219929Y58793744D02*
X65213881Y58805839D01*
X65213881Y58805839D02*
X65213881Y58830029D01*
X65213881Y58830029D02*
X65219929Y58842125D01*
X65219929Y58842125D02*
X65232024Y58848172D01*
X65232024Y58848172D02*
X65244120Y58848172D01*
X65244120Y58848172D02*
X65256215Y58787696D01*
X65298548Y58957029D02*
X65171548Y58957029D01*
X65292501Y58957029D02*
X65298548Y58944934D01*
X65298548Y58944934D02*
X65298548Y58920743D01*
X65298548Y58920743D02*
X65292501Y58908648D01*
X65292501Y58908648D02*
X65286453Y58902601D01*
X65286453Y58902601D02*
X65274358Y58896553D01*
X65274358Y58896553D02*
X65238072Y58896553D01*
X65238072Y58896553D02*
X65225977Y58902601D01*
X65225977Y58902601D02*
X65219929Y58908648D01*
X65219929Y58908648D02*
X65213881Y58920743D01*
X65213881Y58920743D02*
X65213881Y58944934D01*
X65213881Y58944934D02*
X65219929Y58957029D01*
X65286453Y59017506D02*
X65292501Y59023553D01*
X65292501Y59023553D02*
X65298548Y59017506D01*
X65298548Y59017506D02*
X65292501Y59011458D01*
X65292501Y59011458D02*
X65286453Y59017506D01*
X65286453Y59017506D02*
X65298548Y59017506D01*
D11*
%TO.C,H1*%
X10430000Y90805000D02*
G75*
G03*
X10430000Y90805000I-2800000J0D01*
G01*
%TO.C,H2*%
X7890000Y5080000D02*
G75*
G03*
X7890000Y5080000I-2800000J0D01*
G01*
%TO.C,H3*%
X87890000Y5080000D02*
G75*
G03*
X87890000Y5080000I-2800000J0D01*
G01*
%TO.C,H4*%
X84090000Y90805000D02*
G75*
G03*
X84090000Y90805000I-2800000J0D01*
G01*
%TD*%
M02*
