%FSLAX45Y45*%
G04 Gerber Fmt 4.5, Leading zero omitted, Abs format (unit mm)*
G04 Created by KiCad (PCBNEW (5.1.5)-3) date 2021-06-25 12:35:52*
%MOMM*%
%LPD*%
G04 APERTURE LIST*
%TA.AperFunction,Profile*%
%ADD10C,0.150000*%
%TD*%
%ADD11C,0.200000*%
%ADD12C,0.300000*%
G04 APERTURE END LIST*
D10*
X9833610Y-5448910D02*
X9833610Y-14637410D01*
X10033610Y-14837410D02*
G75*
G02X9833610Y-14637410I0J200000D01*
G01*
X10033610Y-14837410D02*
X18650610Y-14837410D01*
X18850610Y-14637410D02*
G75*
G02X18650610Y-14837410I-200000J0D01*
G01*
X18850610Y-14637410D02*
X18850610Y-5448910D01*
X18650610Y-5248910D02*
G75*
G02X18850610Y-5448910I0J-200000D01*
G01*
X18650610Y-5248910D02*
X15427610Y-5249910D01*
X15427610Y-5249910D02*
X15300610Y-5338810D01*
X15300610Y-5338810D02*
X14221110Y-5338810D01*
X14221110Y-5338810D02*
X14093110Y-5248910D01*
X14093110Y-5248910D02*
X10033610Y-5248910D01*
X9833610Y-5448910D02*
G75*
G02X10033610Y-5248910I200000J0D01*
G01*
D11*
X14434160Y-5876180D02*
X14499160Y-5941180D01*
X14499160Y-5876180D02*
X14434160Y-5941180D01*
X15012160Y-5876180D02*
X15077160Y-5941180D01*
X15077160Y-5876180D02*
X15012160Y-5941180D01*
D12*
X10112538Y-15310624D02*
X10112538Y-15010624D01*
X10183967Y-15010624D01*
X10226824Y-15024910D01*
X10255396Y-15053481D01*
X10269681Y-15082053D01*
X10283967Y-15139196D01*
X10283967Y-15182053D01*
X10269681Y-15239196D01*
X10255396Y-15267767D01*
X10226824Y-15296339D01*
X10183967Y-15310624D01*
X10112538Y-15310624D01*
X10412538Y-15310624D02*
X10412538Y-15110624D01*
X10412538Y-15167767D02*
X10426824Y-15139196D01*
X10441110Y-15124910D01*
X10469681Y-15110624D01*
X10498253Y-15110624D01*
X10598253Y-15310624D02*
X10598253Y-15110624D01*
X10598253Y-15010624D02*
X10583967Y-15024910D01*
X10598253Y-15039196D01*
X10612538Y-15024910D01*
X10598253Y-15010624D01*
X10598253Y-15039196D01*
X10783967Y-15310624D02*
X10755396Y-15296339D01*
X10741110Y-15267767D01*
X10741110Y-15010624D01*
X10941110Y-15310624D02*
X10912538Y-15296339D01*
X10898253Y-15267767D01*
X10898253Y-15010624D01*
X11283967Y-15310624D02*
X11283967Y-15010624D01*
X11383967Y-15224910D01*
X11483967Y-15010624D01*
X11483967Y-15310624D01*
X11755396Y-15310624D02*
X11755396Y-15153481D01*
X11741110Y-15124910D01*
X11712538Y-15110624D01*
X11655396Y-15110624D01*
X11626824Y-15124910D01*
X11755396Y-15296339D02*
X11726824Y-15310624D01*
X11655396Y-15310624D01*
X11626824Y-15296339D01*
X11612538Y-15267767D01*
X11612538Y-15239196D01*
X11626824Y-15210624D01*
X11655396Y-15196339D01*
X11726824Y-15196339D01*
X11755396Y-15182053D01*
X11898253Y-15110624D02*
X11898253Y-15410624D01*
X11898253Y-15124910D02*
X11926824Y-15110624D01*
X11983967Y-15110624D01*
X12012538Y-15124910D01*
X12026824Y-15139196D01*
X12041110Y-15167767D01*
X12041110Y-15253481D01*
X12026824Y-15282053D01*
X12012538Y-15296339D01*
X11983967Y-15310624D01*
X11926824Y-15310624D01*
X11898253Y-15296339D01*
X12169681Y-15282053D02*
X12183967Y-15296339D01*
X12169681Y-15310624D01*
X12155396Y-15296339D01*
X12169681Y-15282053D01*
X12169681Y-15310624D01*
X12169681Y-15124910D02*
X12183967Y-15139196D01*
X12169681Y-15153481D01*
X12155396Y-15139196D01*
X12169681Y-15124910D01*
X12169681Y-15153481D01*
X9761110Y-15772410D02*
X9826110Y-15837410D01*
X9826110Y-15772410D02*
X9761110Y-15837410D01*
X10169681Y-15640624D02*
X10198253Y-15640624D01*
X10226824Y-15654910D01*
X10241110Y-15669196D01*
X10255396Y-15697767D01*
X10269681Y-15754910D01*
X10269681Y-15826339D01*
X10255396Y-15883481D01*
X10241110Y-15912053D01*
X10226824Y-15926339D01*
X10198253Y-15940624D01*
X10169681Y-15940624D01*
X10141110Y-15926339D01*
X10126824Y-15912053D01*
X10112538Y-15883481D01*
X10098253Y-15826339D01*
X10098253Y-15754910D01*
X10112538Y-15697767D01*
X10126824Y-15669196D01*
X10141110Y-15654910D01*
X10169681Y-15640624D01*
X10398253Y-15912053D02*
X10412538Y-15926339D01*
X10398253Y-15940624D01*
X10383967Y-15926339D01*
X10398253Y-15912053D01*
X10398253Y-15940624D01*
X10669681Y-15640624D02*
X10612538Y-15640624D01*
X10583967Y-15654910D01*
X10569681Y-15669196D01*
X10541110Y-15712053D01*
X10526824Y-15769196D01*
X10526824Y-15883481D01*
X10541110Y-15912053D01*
X10555396Y-15926339D01*
X10583967Y-15940624D01*
X10641110Y-15940624D01*
X10669681Y-15926339D01*
X10683967Y-15912053D01*
X10698253Y-15883481D01*
X10698253Y-15812053D01*
X10683967Y-15783481D01*
X10669681Y-15769196D01*
X10641110Y-15754910D01*
X10583967Y-15754910D01*
X10555396Y-15769196D01*
X10541110Y-15783481D01*
X10526824Y-15812053D01*
X10969681Y-15640624D02*
X10826824Y-15640624D01*
X10812538Y-15783481D01*
X10826824Y-15769196D01*
X10855396Y-15754910D01*
X10926824Y-15754910D01*
X10955396Y-15769196D01*
X10969681Y-15783481D01*
X10983967Y-15812053D01*
X10983967Y-15883481D01*
X10969681Y-15912053D01*
X10955396Y-15926339D01*
X10926824Y-15940624D01*
X10855396Y-15940624D01*
X10826824Y-15926339D01*
X10812538Y-15912053D01*
X11112538Y-15940624D02*
X11112538Y-15740624D01*
X11112538Y-15769196D02*
X11126824Y-15754910D01*
X11155396Y-15740624D01*
X11198253Y-15740624D01*
X11226824Y-15754910D01*
X11241110Y-15783481D01*
X11241110Y-15940624D01*
X11241110Y-15783481D02*
X11255396Y-15754910D01*
X11283967Y-15740624D01*
X11326824Y-15740624D01*
X11355396Y-15754910D01*
X11369681Y-15783481D01*
X11369681Y-15940624D01*
X11512538Y-15940624D02*
X11512538Y-15740624D01*
X11512538Y-15769196D02*
X11526824Y-15754910D01*
X11555396Y-15740624D01*
X11598253Y-15740624D01*
X11626824Y-15754910D01*
X11641110Y-15783481D01*
X11641110Y-15940624D01*
X11641110Y-15783481D02*
X11655396Y-15754910D01*
X11683967Y-15740624D01*
X11726824Y-15740624D01*
X11755396Y-15754910D01*
X11769681Y-15783481D01*
X11769681Y-15940624D01*
X12355396Y-15626339D02*
X12098253Y-16012053D01*
X12741110Y-15640624D02*
X12769681Y-15640624D01*
X12798253Y-15654910D01*
X12812538Y-15669196D01*
X12826824Y-15697767D01*
X12841110Y-15754910D01*
X12841110Y-15826339D01*
X12826824Y-15883481D01*
X12812538Y-15912053D01*
X12798253Y-15926339D01*
X12769681Y-15940624D01*
X12741110Y-15940624D01*
X12712538Y-15926339D01*
X12698253Y-15912053D01*
X12683967Y-15883481D01*
X12669681Y-15826339D01*
X12669681Y-15754910D01*
X12683967Y-15697767D01*
X12698253Y-15669196D01*
X12712538Y-15654910D01*
X12741110Y-15640624D01*
X12969681Y-15912053D02*
X12983967Y-15926339D01*
X12969681Y-15940624D01*
X12955396Y-15926339D01*
X12969681Y-15912053D01*
X12969681Y-15940624D01*
X13169681Y-15640624D02*
X13198253Y-15640624D01*
X13226824Y-15654910D01*
X13241110Y-15669196D01*
X13255396Y-15697767D01*
X13269681Y-15754910D01*
X13269681Y-15826339D01*
X13255396Y-15883481D01*
X13241110Y-15912053D01*
X13226824Y-15926339D01*
X13198253Y-15940624D01*
X13169681Y-15940624D01*
X13141110Y-15926339D01*
X13126824Y-15912053D01*
X13112538Y-15883481D01*
X13098253Y-15826339D01*
X13098253Y-15754910D01*
X13112538Y-15697767D01*
X13126824Y-15669196D01*
X13141110Y-15654910D01*
X13169681Y-15640624D01*
X13383967Y-15669196D02*
X13398253Y-15654910D01*
X13426824Y-15640624D01*
X13498253Y-15640624D01*
X13526824Y-15654910D01*
X13541110Y-15669196D01*
X13555396Y-15697767D01*
X13555396Y-15726339D01*
X13541110Y-15769196D01*
X13369681Y-15940624D01*
X13555396Y-15940624D01*
X13812538Y-15640624D02*
X13755396Y-15640624D01*
X13726824Y-15654910D01*
X13712538Y-15669196D01*
X13683967Y-15712053D01*
X13669681Y-15769196D01*
X13669681Y-15883481D01*
X13683967Y-15912053D01*
X13698253Y-15926339D01*
X13726824Y-15940624D01*
X13783967Y-15940624D01*
X13812538Y-15926339D01*
X13826824Y-15912053D01*
X13841110Y-15883481D01*
X13841110Y-15812053D01*
X13826824Y-15783481D01*
X13812538Y-15769196D01*
X13783967Y-15754910D01*
X13726824Y-15754910D01*
X13698253Y-15769196D01*
X13683967Y-15783481D01*
X13669681Y-15812053D01*
X13955396Y-15640624D02*
X13955396Y-15697767D01*
X14069681Y-15640624D02*
X14069681Y-15697767D01*
X14512538Y-16054910D02*
X14498253Y-16040624D01*
X14469681Y-15997767D01*
X14455396Y-15969196D01*
X14441110Y-15926339D01*
X14426824Y-15854910D01*
X14426824Y-15797767D01*
X14441110Y-15726339D01*
X14455396Y-15683481D01*
X14469681Y-15654910D01*
X14498253Y-15612053D01*
X14512538Y-15597767D01*
X14612538Y-15669196D02*
X14626824Y-15654910D01*
X14655396Y-15640624D01*
X14726824Y-15640624D01*
X14755396Y-15654910D01*
X14769681Y-15669196D01*
X14783967Y-15697767D01*
X14783967Y-15726339D01*
X14769681Y-15769196D01*
X14598253Y-15940624D01*
X14783967Y-15940624D01*
X15141110Y-15940624D02*
X15141110Y-15640624D01*
X15269681Y-15940624D02*
X15269681Y-15783481D01*
X15255396Y-15754910D01*
X15226824Y-15740624D01*
X15183967Y-15740624D01*
X15155396Y-15754910D01*
X15141110Y-15769196D01*
X15455396Y-15940624D02*
X15426824Y-15926339D01*
X15412538Y-15912053D01*
X15398253Y-15883481D01*
X15398253Y-15797767D01*
X15412538Y-15769196D01*
X15426824Y-15754910D01*
X15455396Y-15740624D01*
X15498253Y-15740624D01*
X15526824Y-15754910D01*
X15541110Y-15769196D01*
X15555396Y-15797767D01*
X15555396Y-15883481D01*
X15541110Y-15912053D01*
X15526824Y-15926339D01*
X15498253Y-15940624D01*
X15455396Y-15940624D01*
X15726824Y-15940624D02*
X15698253Y-15926339D01*
X15683967Y-15897767D01*
X15683967Y-15640624D01*
X15955396Y-15926339D02*
X15926824Y-15940624D01*
X15869681Y-15940624D01*
X15841110Y-15926339D01*
X15826824Y-15897767D01*
X15826824Y-15783481D01*
X15841110Y-15754910D01*
X15869681Y-15740624D01*
X15926824Y-15740624D01*
X15955396Y-15754910D01*
X15969681Y-15783481D01*
X15969681Y-15812053D01*
X15826824Y-15840624D01*
X16083967Y-15926339D02*
X16112538Y-15940624D01*
X16169681Y-15940624D01*
X16198253Y-15926339D01*
X16212538Y-15897767D01*
X16212538Y-15883481D01*
X16198253Y-15854910D01*
X16169681Y-15840624D01*
X16126824Y-15840624D01*
X16098253Y-15826339D01*
X16083967Y-15797767D01*
X16083967Y-15783481D01*
X16098253Y-15754910D01*
X16126824Y-15740624D01*
X16169681Y-15740624D01*
X16198253Y-15754910D01*
X16312538Y-16054910D02*
X16326824Y-16040624D01*
X16355396Y-15997767D01*
X16369681Y-15969196D01*
X16383967Y-15926339D01*
X16398253Y-15854910D01*
X16398253Y-15797767D01*
X16383967Y-15726339D01*
X16369681Y-15683481D01*
X16355396Y-15654910D01*
X16326824Y-15612053D01*
X16312538Y-15597767D01*
X16855396Y-16054910D02*
X16841110Y-16040624D01*
X16812538Y-15997767D01*
X16798253Y-15969196D01*
X16783967Y-15926339D01*
X16769681Y-15854910D01*
X16769681Y-15797767D01*
X16783967Y-15726339D01*
X16798253Y-15683481D01*
X16812538Y-15654910D01*
X16841110Y-15612053D01*
X16855396Y-15597767D01*
X16969681Y-15740624D02*
X16969681Y-15940624D01*
X16969681Y-15769196D02*
X16983967Y-15754910D01*
X17012538Y-15740624D01*
X17055396Y-15740624D01*
X17083967Y-15754910D01*
X17098253Y-15783481D01*
X17098253Y-15940624D01*
X17283967Y-15940624D02*
X17255396Y-15926339D01*
X17241110Y-15912053D01*
X17226824Y-15883481D01*
X17226824Y-15797767D01*
X17241110Y-15769196D01*
X17255396Y-15754910D01*
X17283967Y-15740624D01*
X17326824Y-15740624D01*
X17355396Y-15754910D01*
X17369681Y-15769196D01*
X17383967Y-15797767D01*
X17383967Y-15883481D01*
X17369681Y-15912053D01*
X17355396Y-15926339D01*
X17326824Y-15940624D01*
X17283967Y-15940624D01*
X17469681Y-15740624D02*
X17583967Y-15740624D01*
X17512538Y-15640624D02*
X17512538Y-15897767D01*
X17526824Y-15926339D01*
X17555396Y-15940624D01*
X17583967Y-15940624D01*
X17912538Y-15740624D02*
X17912538Y-16040624D01*
X17912538Y-15754910D02*
X17941110Y-15740624D01*
X17998253Y-15740624D01*
X18026824Y-15754910D01*
X18041110Y-15769196D01*
X18055396Y-15797767D01*
X18055396Y-15883481D01*
X18041110Y-15912053D01*
X18026824Y-15926339D01*
X17998253Y-15940624D01*
X17941110Y-15940624D01*
X17912538Y-15926339D01*
X18226824Y-15940624D02*
X18198253Y-15926339D01*
X18183967Y-15897767D01*
X18183967Y-15640624D01*
X18469681Y-15940624D02*
X18469681Y-15783481D01*
X18455396Y-15754910D01*
X18426824Y-15740624D01*
X18369681Y-15740624D01*
X18341110Y-15754910D01*
X18469681Y-15926339D02*
X18441110Y-15940624D01*
X18369681Y-15940624D01*
X18341110Y-15926339D01*
X18326824Y-15897767D01*
X18326824Y-15869196D01*
X18341110Y-15840624D01*
X18369681Y-15826339D01*
X18441110Y-15826339D01*
X18469681Y-15812053D01*
X18569681Y-15740624D02*
X18683967Y-15740624D01*
X18612538Y-15640624D02*
X18612538Y-15897767D01*
X18626824Y-15926339D01*
X18655396Y-15940624D01*
X18683967Y-15940624D01*
X18898253Y-15926339D02*
X18869681Y-15940624D01*
X18812538Y-15940624D01*
X18783967Y-15926339D01*
X18769681Y-15897767D01*
X18769681Y-15783481D01*
X18783967Y-15754910D01*
X18812538Y-15740624D01*
X18869681Y-15740624D01*
X18898253Y-15754910D01*
X18912538Y-15783481D01*
X18912538Y-15812053D01*
X18769681Y-15840624D01*
X19169681Y-15940624D02*
X19169681Y-15640624D01*
X19169681Y-15926339D02*
X19141110Y-15940624D01*
X19083967Y-15940624D01*
X19055396Y-15926339D01*
X19041110Y-15912053D01*
X19026824Y-15883481D01*
X19026824Y-15797767D01*
X19041110Y-15769196D01*
X19055396Y-15754910D01*
X19083967Y-15740624D01*
X19141110Y-15740624D01*
X19169681Y-15754910D01*
X19283967Y-16054910D02*
X19298253Y-16040624D01*
X19326824Y-15997767D01*
X19341110Y-15969196D01*
X19355396Y-15926339D01*
X19369681Y-15854910D01*
X19369681Y-15797767D01*
X19355396Y-15726339D01*
X19341110Y-15683481D01*
X19326824Y-15654910D01*
X19298253Y-15612053D01*
X19283967Y-15597767D01*
M02*
