G04 #@! TF.GenerationSoftware,KiCad,Pcbnew,(5.1.5)-3*
G04 #@! TF.CreationDate,2021-06-25T12:34:56-07:00*
G04 #@! TF.ProjectId,mainboard,6d61696e-626f-4617-9264-2e6b69636164,rev?*
G04 #@! TF.SameCoordinates,Original*
G04 #@! TF.FileFunction,Paste,Bot*
G04 #@! TF.FilePolarity,Positive*
%FSLAX46Y46*%
G04 Gerber Fmt 4.6, Leading zero omitted, Abs format (unit mm)*
G04 Created by KiCad (PCBNEW (5.1.5)-3) date 2021-06-25 12:34:56*
%MOMM*%
%LPD*%
G04 APERTURE LIST*
%ADD10R,1.320800X0.558800*%
%ADD11R,0.609600X2.209800*%
%ADD12R,0.650000X0.400000*%
%ADD13R,2.200000X1.400000*%
%ADD14R,0.900000X1.400000*%
%ADD15C,0.100000*%
%ADD16R,0.600000X0.400000*%
%ADD17R,2.800000X2.800000*%
%ADD18R,0.800000X0.300000*%
%ADD19R,0.300000X0.800000*%
%ADD20R,1.240000X0.800000*%
%ADD21R,2.500000X0.950000*%
%ADD22R,2.200000X1.150000*%
%ADD23R,1.250000X1.160000*%
%ADD24R,1.200000X1.160000*%
%ADD25R,1.150000X1.500000*%
G04 APERTURE END LIST*
D10*
X127593400Y-135938096D03*
X125713800Y-134985596D03*
X125713800Y-136890596D03*
D11*
X135509000Y-129463800D03*
X134239000Y-129463800D03*
X132969000Y-129463800D03*
X131699000Y-129463800D03*
X131699000Y-134696200D03*
X132969000Y-134696200D03*
X134239000Y-134696200D03*
X135509000Y-134696200D03*
D12*
X156144000Y-94122000D03*
X156144000Y-92822000D03*
X154244000Y-93472000D03*
X156144000Y-93472000D03*
X154244000Y-92822000D03*
X154244000Y-94122000D03*
D13*
X159936000Y-67500500D03*
D14*
X162486000Y-67500500D03*
D15*
G36*
X149959808Y-69231855D02*
G01*
X149977048Y-69234413D01*
X149993955Y-69238647D01*
X150010365Y-69244519D01*
X150026120Y-69251971D01*
X150041069Y-69260931D01*
X150055068Y-69271313D01*
X150067982Y-69283018D01*
X150079687Y-69295932D01*
X150090069Y-69309931D01*
X150099029Y-69324880D01*
X150106481Y-69340635D01*
X150112353Y-69357045D01*
X150116587Y-69373952D01*
X150119145Y-69391192D01*
X150120000Y-69408600D01*
X150120000Y-71053400D01*
X150119145Y-71070808D01*
X150116587Y-71088048D01*
X150112353Y-71104955D01*
X150106481Y-71121365D01*
X150099029Y-71137120D01*
X150090069Y-71152069D01*
X150079687Y-71166068D01*
X150067982Y-71178982D01*
X150055068Y-71190687D01*
X150041069Y-71201069D01*
X150026120Y-71210029D01*
X150010365Y-71217481D01*
X149993955Y-71223353D01*
X149977048Y-71227587D01*
X149959808Y-71230145D01*
X149942400Y-71231000D01*
X149497600Y-71231000D01*
X149480192Y-71230145D01*
X149462952Y-71227587D01*
X149446045Y-71223353D01*
X149429635Y-71217481D01*
X149413880Y-71210029D01*
X149398931Y-71201069D01*
X149384932Y-71190687D01*
X149372018Y-71178982D01*
X149360313Y-71166068D01*
X149349931Y-71152069D01*
X149340971Y-71137120D01*
X149333519Y-71121365D01*
X149327647Y-71104955D01*
X149323413Y-71088048D01*
X149320855Y-71070808D01*
X149320000Y-71053400D01*
X149320000Y-69408600D01*
X149320855Y-69391192D01*
X149323413Y-69373952D01*
X149327647Y-69357045D01*
X149333519Y-69340635D01*
X149340971Y-69324880D01*
X149349931Y-69309931D01*
X149360313Y-69295932D01*
X149372018Y-69283018D01*
X149384932Y-69271313D01*
X149398931Y-69260931D01*
X149413880Y-69251971D01*
X149429635Y-69244519D01*
X149446045Y-69238647D01*
X149462952Y-69234413D01*
X149480192Y-69231855D01*
X149497600Y-69231000D01*
X149942400Y-69231000D01*
X149959808Y-69231855D01*
G37*
G36*
X147559808Y-69231855D02*
G01*
X147577048Y-69234413D01*
X147593955Y-69238647D01*
X147610365Y-69244519D01*
X147626120Y-69251971D01*
X147641069Y-69260931D01*
X147655068Y-69271313D01*
X147667982Y-69283018D01*
X147679687Y-69295932D01*
X147690069Y-69309931D01*
X147699029Y-69324880D01*
X147706481Y-69340635D01*
X147712353Y-69357045D01*
X147716587Y-69373952D01*
X147719145Y-69391192D01*
X147720000Y-69408600D01*
X147720000Y-71053400D01*
X147719145Y-71070808D01*
X147716587Y-71088048D01*
X147712353Y-71104955D01*
X147706481Y-71121365D01*
X147699029Y-71137120D01*
X147690069Y-71152069D01*
X147679687Y-71166068D01*
X147667982Y-71178982D01*
X147655068Y-71190687D01*
X147641069Y-71201069D01*
X147626120Y-71210029D01*
X147610365Y-71217481D01*
X147593955Y-71223353D01*
X147577048Y-71227587D01*
X147559808Y-71230145D01*
X147542400Y-71231000D01*
X147097600Y-71231000D01*
X147080192Y-71230145D01*
X147062952Y-71227587D01*
X147046045Y-71223353D01*
X147029635Y-71217481D01*
X147013880Y-71210029D01*
X146998931Y-71201069D01*
X146984932Y-71190687D01*
X146972018Y-71178982D01*
X146960313Y-71166068D01*
X146949931Y-71152069D01*
X146940971Y-71137120D01*
X146933519Y-71121365D01*
X146927647Y-71104955D01*
X146923413Y-71088048D01*
X146920855Y-71070808D01*
X146920000Y-71053400D01*
X146920000Y-69408600D01*
X146920855Y-69391192D01*
X146923413Y-69373952D01*
X146927647Y-69357045D01*
X146933519Y-69340635D01*
X146940971Y-69324880D01*
X146949931Y-69309931D01*
X146960313Y-69295932D01*
X146972018Y-69283018D01*
X146984932Y-69271313D01*
X146998931Y-69260931D01*
X147013880Y-69251971D01*
X147029635Y-69244519D01*
X147046045Y-69238647D01*
X147062952Y-69234413D01*
X147080192Y-69231855D01*
X147097600Y-69231000D01*
X147542400Y-69231000D01*
X147559808Y-69231855D01*
G37*
G36*
X147788691Y-79536053D02*
G01*
X147809926Y-79539203D01*
X147830750Y-79544419D01*
X147850962Y-79551651D01*
X147870368Y-79560830D01*
X147888781Y-79571866D01*
X147906024Y-79584654D01*
X147921930Y-79599070D01*
X147936346Y-79614976D01*
X147949134Y-79632219D01*
X147960170Y-79650632D01*
X147969349Y-79670038D01*
X147976581Y-79690250D01*
X147981797Y-79711074D01*
X147984947Y-79732309D01*
X147986000Y-79753750D01*
X147986000Y-80266250D01*
X147984947Y-80287691D01*
X147981797Y-80308926D01*
X147976581Y-80329750D01*
X147969349Y-80349962D01*
X147960170Y-80369368D01*
X147949134Y-80387781D01*
X147936346Y-80405024D01*
X147921930Y-80420930D01*
X147906024Y-80435346D01*
X147888781Y-80448134D01*
X147870368Y-80459170D01*
X147850962Y-80468349D01*
X147830750Y-80475581D01*
X147809926Y-80480797D01*
X147788691Y-80483947D01*
X147767250Y-80485000D01*
X147329750Y-80485000D01*
X147308309Y-80483947D01*
X147287074Y-80480797D01*
X147266250Y-80475581D01*
X147246038Y-80468349D01*
X147226632Y-80459170D01*
X147208219Y-80448134D01*
X147190976Y-80435346D01*
X147175070Y-80420930D01*
X147160654Y-80405024D01*
X147147866Y-80387781D01*
X147136830Y-80369368D01*
X147127651Y-80349962D01*
X147120419Y-80329750D01*
X147115203Y-80308926D01*
X147112053Y-80287691D01*
X147111000Y-80266250D01*
X147111000Y-79753750D01*
X147112053Y-79732309D01*
X147115203Y-79711074D01*
X147120419Y-79690250D01*
X147127651Y-79670038D01*
X147136830Y-79650632D01*
X147147866Y-79632219D01*
X147160654Y-79614976D01*
X147175070Y-79599070D01*
X147190976Y-79584654D01*
X147208219Y-79571866D01*
X147226632Y-79560830D01*
X147246038Y-79551651D01*
X147266250Y-79544419D01*
X147287074Y-79539203D01*
X147308309Y-79536053D01*
X147329750Y-79535000D01*
X147767250Y-79535000D01*
X147788691Y-79536053D01*
G37*
G36*
X149363691Y-79536053D02*
G01*
X149384926Y-79539203D01*
X149405750Y-79544419D01*
X149425962Y-79551651D01*
X149445368Y-79560830D01*
X149463781Y-79571866D01*
X149481024Y-79584654D01*
X149496930Y-79599070D01*
X149511346Y-79614976D01*
X149524134Y-79632219D01*
X149535170Y-79650632D01*
X149544349Y-79670038D01*
X149551581Y-79690250D01*
X149556797Y-79711074D01*
X149559947Y-79732309D01*
X149561000Y-79753750D01*
X149561000Y-80266250D01*
X149559947Y-80287691D01*
X149556797Y-80308926D01*
X149551581Y-80329750D01*
X149544349Y-80349962D01*
X149535170Y-80369368D01*
X149524134Y-80387781D01*
X149511346Y-80405024D01*
X149496930Y-80420930D01*
X149481024Y-80435346D01*
X149463781Y-80448134D01*
X149445368Y-80459170D01*
X149425962Y-80468349D01*
X149405750Y-80475581D01*
X149384926Y-80480797D01*
X149363691Y-80483947D01*
X149342250Y-80485000D01*
X148904750Y-80485000D01*
X148883309Y-80483947D01*
X148862074Y-80480797D01*
X148841250Y-80475581D01*
X148821038Y-80468349D01*
X148801632Y-80459170D01*
X148783219Y-80448134D01*
X148765976Y-80435346D01*
X148750070Y-80420930D01*
X148735654Y-80405024D01*
X148722866Y-80387781D01*
X148711830Y-80369368D01*
X148702651Y-80349962D01*
X148695419Y-80329750D01*
X148690203Y-80308926D01*
X148687053Y-80287691D01*
X148686000Y-80266250D01*
X148686000Y-79753750D01*
X148687053Y-79732309D01*
X148690203Y-79711074D01*
X148695419Y-79690250D01*
X148702651Y-79670038D01*
X148711830Y-79650632D01*
X148722866Y-79632219D01*
X148735654Y-79614976D01*
X148750070Y-79599070D01*
X148765976Y-79584654D01*
X148783219Y-79571866D01*
X148801632Y-79560830D01*
X148821038Y-79551651D01*
X148841250Y-79544419D01*
X148862074Y-79539203D01*
X148883309Y-79536053D01*
X148904750Y-79535000D01*
X149342250Y-79535000D01*
X149363691Y-79536053D01*
G37*
D12*
X149286000Y-78755000D03*
X149286000Y-77455000D03*
X147386000Y-78105000D03*
X149286000Y-78105000D03*
X147386000Y-77455000D03*
X147386000Y-78755000D03*
X149286000Y-85613000D03*
X149286000Y-84313000D03*
X147386000Y-84963000D03*
X149286000Y-84963000D03*
X147386000Y-84313000D03*
X147386000Y-85613000D03*
D15*
G36*
X166647691Y-95931053D02*
G01*
X166668926Y-95934203D01*
X166689750Y-95939419D01*
X166709962Y-95946651D01*
X166729368Y-95955830D01*
X166747781Y-95966866D01*
X166765024Y-95979654D01*
X166780930Y-95994070D01*
X166795346Y-96009976D01*
X166808134Y-96027219D01*
X166819170Y-96045632D01*
X166828349Y-96065038D01*
X166835581Y-96085250D01*
X166840797Y-96106074D01*
X166843947Y-96127309D01*
X166845000Y-96148750D01*
X166845000Y-96586250D01*
X166843947Y-96607691D01*
X166840797Y-96628926D01*
X166835581Y-96649750D01*
X166828349Y-96669962D01*
X166819170Y-96689368D01*
X166808134Y-96707781D01*
X166795346Y-96725024D01*
X166780930Y-96740930D01*
X166765024Y-96755346D01*
X166747781Y-96768134D01*
X166729368Y-96779170D01*
X166709962Y-96788349D01*
X166689750Y-96795581D01*
X166668926Y-96800797D01*
X166647691Y-96803947D01*
X166626250Y-96805000D01*
X166113750Y-96805000D01*
X166092309Y-96803947D01*
X166071074Y-96800797D01*
X166050250Y-96795581D01*
X166030038Y-96788349D01*
X166010632Y-96779170D01*
X165992219Y-96768134D01*
X165974976Y-96755346D01*
X165959070Y-96740930D01*
X165944654Y-96725024D01*
X165931866Y-96707781D01*
X165920830Y-96689368D01*
X165911651Y-96669962D01*
X165904419Y-96649750D01*
X165899203Y-96628926D01*
X165896053Y-96607691D01*
X165895000Y-96586250D01*
X165895000Y-96148750D01*
X165896053Y-96127309D01*
X165899203Y-96106074D01*
X165904419Y-96085250D01*
X165911651Y-96065038D01*
X165920830Y-96045632D01*
X165931866Y-96027219D01*
X165944654Y-96009976D01*
X165959070Y-95994070D01*
X165974976Y-95979654D01*
X165992219Y-95966866D01*
X166010632Y-95955830D01*
X166030038Y-95946651D01*
X166050250Y-95939419D01*
X166071074Y-95934203D01*
X166092309Y-95931053D01*
X166113750Y-95930000D01*
X166626250Y-95930000D01*
X166647691Y-95931053D01*
G37*
G36*
X166647691Y-97506053D02*
G01*
X166668926Y-97509203D01*
X166689750Y-97514419D01*
X166709962Y-97521651D01*
X166729368Y-97530830D01*
X166747781Y-97541866D01*
X166765024Y-97554654D01*
X166780930Y-97569070D01*
X166795346Y-97584976D01*
X166808134Y-97602219D01*
X166819170Y-97620632D01*
X166828349Y-97640038D01*
X166835581Y-97660250D01*
X166840797Y-97681074D01*
X166843947Y-97702309D01*
X166845000Y-97723750D01*
X166845000Y-98161250D01*
X166843947Y-98182691D01*
X166840797Y-98203926D01*
X166835581Y-98224750D01*
X166828349Y-98244962D01*
X166819170Y-98264368D01*
X166808134Y-98282781D01*
X166795346Y-98300024D01*
X166780930Y-98315930D01*
X166765024Y-98330346D01*
X166747781Y-98343134D01*
X166729368Y-98354170D01*
X166709962Y-98363349D01*
X166689750Y-98370581D01*
X166668926Y-98375797D01*
X166647691Y-98378947D01*
X166626250Y-98380000D01*
X166113750Y-98380000D01*
X166092309Y-98378947D01*
X166071074Y-98375797D01*
X166050250Y-98370581D01*
X166030038Y-98363349D01*
X166010632Y-98354170D01*
X165992219Y-98343134D01*
X165974976Y-98330346D01*
X165959070Y-98315930D01*
X165944654Y-98300024D01*
X165931866Y-98282781D01*
X165920830Y-98264368D01*
X165911651Y-98244962D01*
X165904419Y-98224750D01*
X165899203Y-98203926D01*
X165896053Y-98182691D01*
X165895000Y-98161250D01*
X165895000Y-97723750D01*
X165896053Y-97702309D01*
X165899203Y-97681074D01*
X165904419Y-97660250D01*
X165911651Y-97640038D01*
X165920830Y-97620632D01*
X165931866Y-97602219D01*
X165944654Y-97584976D01*
X165959070Y-97569070D01*
X165974976Y-97554654D01*
X165992219Y-97541866D01*
X166010632Y-97530830D01*
X166030038Y-97521651D01*
X166050250Y-97514419D01*
X166071074Y-97509203D01*
X166092309Y-97506053D01*
X166113750Y-97505000D01*
X166626250Y-97505000D01*
X166647691Y-97506053D01*
G37*
G36*
X162710691Y-95931053D02*
G01*
X162731926Y-95934203D01*
X162752750Y-95939419D01*
X162772962Y-95946651D01*
X162792368Y-95955830D01*
X162810781Y-95966866D01*
X162828024Y-95979654D01*
X162843930Y-95994070D01*
X162858346Y-96009976D01*
X162871134Y-96027219D01*
X162882170Y-96045632D01*
X162891349Y-96065038D01*
X162898581Y-96085250D01*
X162903797Y-96106074D01*
X162906947Y-96127309D01*
X162908000Y-96148750D01*
X162908000Y-96586250D01*
X162906947Y-96607691D01*
X162903797Y-96628926D01*
X162898581Y-96649750D01*
X162891349Y-96669962D01*
X162882170Y-96689368D01*
X162871134Y-96707781D01*
X162858346Y-96725024D01*
X162843930Y-96740930D01*
X162828024Y-96755346D01*
X162810781Y-96768134D01*
X162792368Y-96779170D01*
X162772962Y-96788349D01*
X162752750Y-96795581D01*
X162731926Y-96800797D01*
X162710691Y-96803947D01*
X162689250Y-96805000D01*
X162176750Y-96805000D01*
X162155309Y-96803947D01*
X162134074Y-96800797D01*
X162113250Y-96795581D01*
X162093038Y-96788349D01*
X162073632Y-96779170D01*
X162055219Y-96768134D01*
X162037976Y-96755346D01*
X162022070Y-96740930D01*
X162007654Y-96725024D01*
X161994866Y-96707781D01*
X161983830Y-96689368D01*
X161974651Y-96669962D01*
X161967419Y-96649750D01*
X161962203Y-96628926D01*
X161959053Y-96607691D01*
X161958000Y-96586250D01*
X161958000Y-96148750D01*
X161959053Y-96127309D01*
X161962203Y-96106074D01*
X161967419Y-96085250D01*
X161974651Y-96065038D01*
X161983830Y-96045632D01*
X161994866Y-96027219D01*
X162007654Y-96009976D01*
X162022070Y-95994070D01*
X162037976Y-95979654D01*
X162055219Y-95966866D01*
X162073632Y-95955830D01*
X162093038Y-95946651D01*
X162113250Y-95939419D01*
X162134074Y-95934203D01*
X162155309Y-95931053D01*
X162176750Y-95930000D01*
X162689250Y-95930000D01*
X162710691Y-95931053D01*
G37*
G36*
X162710691Y-97506053D02*
G01*
X162731926Y-97509203D01*
X162752750Y-97514419D01*
X162772962Y-97521651D01*
X162792368Y-97530830D01*
X162810781Y-97541866D01*
X162828024Y-97554654D01*
X162843930Y-97569070D01*
X162858346Y-97584976D01*
X162871134Y-97602219D01*
X162882170Y-97620632D01*
X162891349Y-97640038D01*
X162898581Y-97660250D01*
X162903797Y-97681074D01*
X162906947Y-97702309D01*
X162908000Y-97723750D01*
X162908000Y-98161250D01*
X162906947Y-98182691D01*
X162903797Y-98203926D01*
X162898581Y-98224750D01*
X162891349Y-98244962D01*
X162882170Y-98264368D01*
X162871134Y-98282781D01*
X162858346Y-98300024D01*
X162843930Y-98315930D01*
X162828024Y-98330346D01*
X162810781Y-98343134D01*
X162792368Y-98354170D01*
X162772962Y-98363349D01*
X162752750Y-98370581D01*
X162731926Y-98375797D01*
X162710691Y-98378947D01*
X162689250Y-98380000D01*
X162176750Y-98380000D01*
X162155309Y-98378947D01*
X162134074Y-98375797D01*
X162113250Y-98370581D01*
X162093038Y-98363349D01*
X162073632Y-98354170D01*
X162055219Y-98343134D01*
X162037976Y-98330346D01*
X162022070Y-98315930D01*
X162007654Y-98300024D01*
X161994866Y-98282781D01*
X161983830Y-98264368D01*
X161974651Y-98244962D01*
X161967419Y-98224750D01*
X161962203Y-98203926D01*
X161959053Y-98182691D01*
X161958000Y-98161250D01*
X161958000Y-97723750D01*
X161959053Y-97702309D01*
X161962203Y-97681074D01*
X161967419Y-97660250D01*
X161974651Y-97640038D01*
X161983830Y-97620632D01*
X161994866Y-97602219D01*
X162007654Y-97584976D01*
X162022070Y-97569070D01*
X162037976Y-97554654D01*
X162055219Y-97541866D01*
X162073632Y-97530830D01*
X162093038Y-97521651D01*
X162113250Y-97514419D01*
X162134074Y-97509203D01*
X162155309Y-97506053D01*
X162176750Y-97505000D01*
X162689250Y-97505000D01*
X162710691Y-97506053D01*
G37*
G36*
X168159691Y-88172053D02*
G01*
X168180926Y-88175203D01*
X168201750Y-88180419D01*
X168221962Y-88187651D01*
X168241368Y-88196830D01*
X168259781Y-88207866D01*
X168277024Y-88220654D01*
X168292930Y-88235070D01*
X168307346Y-88250976D01*
X168320134Y-88268219D01*
X168331170Y-88286632D01*
X168340349Y-88306038D01*
X168347581Y-88326250D01*
X168352797Y-88347074D01*
X168355947Y-88368309D01*
X168357000Y-88389750D01*
X168357000Y-88902250D01*
X168355947Y-88923691D01*
X168352797Y-88944926D01*
X168347581Y-88965750D01*
X168340349Y-88985962D01*
X168331170Y-89005368D01*
X168320134Y-89023781D01*
X168307346Y-89041024D01*
X168292930Y-89056930D01*
X168277024Y-89071346D01*
X168259781Y-89084134D01*
X168241368Y-89095170D01*
X168221962Y-89104349D01*
X168201750Y-89111581D01*
X168180926Y-89116797D01*
X168159691Y-89119947D01*
X168138250Y-89121000D01*
X167700750Y-89121000D01*
X167679309Y-89119947D01*
X167658074Y-89116797D01*
X167637250Y-89111581D01*
X167617038Y-89104349D01*
X167597632Y-89095170D01*
X167579219Y-89084134D01*
X167561976Y-89071346D01*
X167546070Y-89056930D01*
X167531654Y-89041024D01*
X167518866Y-89023781D01*
X167507830Y-89005368D01*
X167498651Y-88985962D01*
X167491419Y-88965750D01*
X167486203Y-88944926D01*
X167483053Y-88923691D01*
X167482000Y-88902250D01*
X167482000Y-88389750D01*
X167483053Y-88368309D01*
X167486203Y-88347074D01*
X167491419Y-88326250D01*
X167498651Y-88306038D01*
X167507830Y-88286632D01*
X167518866Y-88268219D01*
X167531654Y-88250976D01*
X167546070Y-88235070D01*
X167561976Y-88220654D01*
X167579219Y-88207866D01*
X167597632Y-88196830D01*
X167617038Y-88187651D01*
X167637250Y-88180419D01*
X167658074Y-88175203D01*
X167679309Y-88172053D01*
X167700750Y-88171000D01*
X168138250Y-88171000D01*
X168159691Y-88172053D01*
G37*
G36*
X166584691Y-88172053D02*
G01*
X166605926Y-88175203D01*
X166626750Y-88180419D01*
X166646962Y-88187651D01*
X166666368Y-88196830D01*
X166684781Y-88207866D01*
X166702024Y-88220654D01*
X166717930Y-88235070D01*
X166732346Y-88250976D01*
X166745134Y-88268219D01*
X166756170Y-88286632D01*
X166765349Y-88306038D01*
X166772581Y-88326250D01*
X166777797Y-88347074D01*
X166780947Y-88368309D01*
X166782000Y-88389750D01*
X166782000Y-88902250D01*
X166780947Y-88923691D01*
X166777797Y-88944926D01*
X166772581Y-88965750D01*
X166765349Y-88985962D01*
X166756170Y-89005368D01*
X166745134Y-89023781D01*
X166732346Y-89041024D01*
X166717930Y-89056930D01*
X166702024Y-89071346D01*
X166684781Y-89084134D01*
X166666368Y-89095170D01*
X166646962Y-89104349D01*
X166626750Y-89111581D01*
X166605926Y-89116797D01*
X166584691Y-89119947D01*
X166563250Y-89121000D01*
X166125750Y-89121000D01*
X166104309Y-89119947D01*
X166083074Y-89116797D01*
X166062250Y-89111581D01*
X166042038Y-89104349D01*
X166022632Y-89095170D01*
X166004219Y-89084134D01*
X165986976Y-89071346D01*
X165971070Y-89056930D01*
X165956654Y-89041024D01*
X165943866Y-89023781D01*
X165932830Y-89005368D01*
X165923651Y-88985962D01*
X165916419Y-88965750D01*
X165911203Y-88944926D01*
X165908053Y-88923691D01*
X165907000Y-88902250D01*
X165907000Y-88389750D01*
X165908053Y-88368309D01*
X165911203Y-88347074D01*
X165916419Y-88326250D01*
X165923651Y-88306038D01*
X165932830Y-88286632D01*
X165943866Y-88268219D01*
X165956654Y-88250976D01*
X165971070Y-88235070D01*
X165986976Y-88220654D01*
X166004219Y-88207866D01*
X166022632Y-88196830D01*
X166042038Y-88187651D01*
X166062250Y-88180419D01*
X166083074Y-88175203D01*
X166104309Y-88172053D01*
X166125750Y-88171000D01*
X166563250Y-88171000D01*
X166584691Y-88172053D01*
G37*
G36*
X164349691Y-88172053D02*
G01*
X164370926Y-88175203D01*
X164391750Y-88180419D01*
X164411962Y-88187651D01*
X164431368Y-88196830D01*
X164449781Y-88207866D01*
X164467024Y-88220654D01*
X164482930Y-88235070D01*
X164497346Y-88250976D01*
X164510134Y-88268219D01*
X164521170Y-88286632D01*
X164530349Y-88306038D01*
X164537581Y-88326250D01*
X164542797Y-88347074D01*
X164545947Y-88368309D01*
X164547000Y-88389750D01*
X164547000Y-88902250D01*
X164545947Y-88923691D01*
X164542797Y-88944926D01*
X164537581Y-88965750D01*
X164530349Y-88985962D01*
X164521170Y-89005368D01*
X164510134Y-89023781D01*
X164497346Y-89041024D01*
X164482930Y-89056930D01*
X164467024Y-89071346D01*
X164449781Y-89084134D01*
X164431368Y-89095170D01*
X164411962Y-89104349D01*
X164391750Y-89111581D01*
X164370926Y-89116797D01*
X164349691Y-89119947D01*
X164328250Y-89121000D01*
X163890750Y-89121000D01*
X163869309Y-89119947D01*
X163848074Y-89116797D01*
X163827250Y-89111581D01*
X163807038Y-89104349D01*
X163787632Y-89095170D01*
X163769219Y-89084134D01*
X163751976Y-89071346D01*
X163736070Y-89056930D01*
X163721654Y-89041024D01*
X163708866Y-89023781D01*
X163697830Y-89005368D01*
X163688651Y-88985962D01*
X163681419Y-88965750D01*
X163676203Y-88944926D01*
X163673053Y-88923691D01*
X163672000Y-88902250D01*
X163672000Y-88389750D01*
X163673053Y-88368309D01*
X163676203Y-88347074D01*
X163681419Y-88326250D01*
X163688651Y-88306038D01*
X163697830Y-88286632D01*
X163708866Y-88268219D01*
X163721654Y-88250976D01*
X163736070Y-88235070D01*
X163751976Y-88220654D01*
X163769219Y-88207866D01*
X163787632Y-88196830D01*
X163807038Y-88187651D01*
X163827250Y-88180419D01*
X163848074Y-88175203D01*
X163869309Y-88172053D01*
X163890750Y-88171000D01*
X164328250Y-88171000D01*
X164349691Y-88172053D01*
G37*
G36*
X162774691Y-88172053D02*
G01*
X162795926Y-88175203D01*
X162816750Y-88180419D01*
X162836962Y-88187651D01*
X162856368Y-88196830D01*
X162874781Y-88207866D01*
X162892024Y-88220654D01*
X162907930Y-88235070D01*
X162922346Y-88250976D01*
X162935134Y-88268219D01*
X162946170Y-88286632D01*
X162955349Y-88306038D01*
X162962581Y-88326250D01*
X162967797Y-88347074D01*
X162970947Y-88368309D01*
X162972000Y-88389750D01*
X162972000Y-88902250D01*
X162970947Y-88923691D01*
X162967797Y-88944926D01*
X162962581Y-88965750D01*
X162955349Y-88985962D01*
X162946170Y-89005368D01*
X162935134Y-89023781D01*
X162922346Y-89041024D01*
X162907930Y-89056930D01*
X162892024Y-89071346D01*
X162874781Y-89084134D01*
X162856368Y-89095170D01*
X162836962Y-89104349D01*
X162816750Y-89111581D01*
X162795926Y-89116797D01*
X162774691Y-89119947D01*
X162753250Y-89121000D01*
X162315750Y-89121000D01*
X162294309Y-89119947D01*
X162273074Y-89116797D01*
X162252250Y-89111581D01*
X162232038Y-89104349D01*
X162212632Y-89095170D01*
X162194219Y-89084134D01*
X162176976Y-89071346D01*
X162161070Y-89056930D01*
X162146654Y-89041024D01*
X162133866Y-89023781D01*
X162122830Y-89005368D01*
X162113651Y-88985962D01*
X162106419Y-88965750D01*
X162101203Y-88944926D01*
X162098053Y-88923691D01*
X162097000Y-88902250D01*
X162097000Y-88389750D01*
X162098053Y-88368309D01*
X162101203Y-88347074D01*
X162106419Y-88326250D01*
X162113651Y-88306038D01*
X162122830Y-88286632D01*
X162133866Y-88268219D01*
X162146654Y-88250976D01*
X162161070Y-88235070D01*
X162176976Y-88220654D01*
X162194219Y-88207866D01*
X162212632Y-88196830D01*
X162232038Y-88187651D01*
X162252250Y-88180419D01*
X162273074Y-88175203D01*
X162294309Y-88172053D01*
X162315750Y-88171000D01*
X162753250Y-88171000D01*
X162774691Y-88172053D01*
G37*
G36*
X168159691Y-86775053D02*
G01*
X168180926Y-86778203D01*
X168201750Y-86783419D01*
X168221962Y-86790651D01*
X168241368Y-86799830D01*
X168259781Y-86810866D01*
X168277024Y-86823654D01*
X168292930Y-86838070D01*
X168307346Y-86853976D01*
X168320134Y-86871219D01*
X168331170Y-86889632D01*
X168340349Y-86909038D01*
X168347581Y-86929250D01*
X168352797Y-86950074D01*
X168355947Y-86971309D01*
X168357000Y-86992750D01*
X168357000Y-87505250D01*
X168355947Y-87526691D01*
X168352797Y-87547926D01*
X168347581Y-87568750D01*
X168340349Y-87588962D01*
X168331170Y-87608368D01*
X168320134Y-87626781D01*
X168307346Y-87644024D01*
X168292930Y-87659930D01*
X168277024Y-87674346D01*
X168259781Y-87687134D01*
X168241368Y-87698170D01*
X168221962Y-87707349D01*
X168201750Y-87714581D01*
X168180926Y-87719797D01*
X168159691Y-87722947D01*
X168138250Y-87724000D01*
X167700750Y-87724000D01*
X167679309Y-87722947D01*
X167658074Y-87719797D01*
X167637250Y-87714581D01*
X167617038Y-87707349D01*
X167597632Y-87698170D01*
X167579219Y-87687134D01*
X167561976Y-87674346D01*
X167546070Y-87659930D01*
X167531654Y-87644024D01*
X167518866Y-87626781D01*
X167507830Y-87608368D01*
X167498651Y-87588962D01*
X167491419Y-87568750D01*
X167486203Y-87547926D01*
X167483053Y-87526691D01*
X167482000Y-87505250D01*
X167482000Y-86992750D01*
X167483053Y-86971309D01*
X167486203Y-86950074D01*
X167491419Y-86929250D01*
X167498651Y-86909038D01*
X167507830Y-86889632D01*
X167518866Y-86871219D01*
X167531654Y-86853976D01*
X167546070Y-86838070D01*
X167561976Y-86823654D01*
X167579219Y-86810866D01*
X167597632Y-86799830D01*
X167617038Y-86790651D01*
X167637250Y-86783419D01*
X167658074Y-86778203D01*
X167679309Y-86775053D01*
X167700750Y-86774000D01*
X168138250Y-86774000D01*
X168159691Y-86775053D01*
G37*
G36*
X166584691Y-86775053D02*
G01*
X166605926Y-86778203D01*
X166626750Y-86783419D01*
X166646962Y-86790651D01*
X166666368Y-86799830D01*
X166684781Y-86810866D01*
X166702024Y-86823654D01*
X166717930Y-86838070D01*
X166732346Y-86853976D01*
X166745134Y-86871219D01*
X166756170Y-86889632D01*
X166765349Y-86909038D01*
X166772581Y-86929250D01*
X166777797Y-86950074D01*
X166780947Y-86971309D01*
X166782000Y-86992750D01*
X166782000Y-87505250D01*
X166780947Y-87526691D01*
X166777797Y-87547926D01*
X166772581Y-87568750D01*
X166765349Y-87588962D01*
X166756170Y-87608368D01*
X166745134Y-87626781D01*
X166732346Y-87644024D01*
X166717930Y-87659930D01*
X166702024Y-87674346D01*
X166684781Y-87687134D01*
X166666368Y-87698170D01*
X166646962Y-87707349D01*
X166626750Y-87714581D01*
X166605926Y-87719797D01*
X166584691Y-87722947D01*
X166563250Y-87724000D01*
X166125750Y-87724000D01*
X166104309Y-87722947D01*
X166083074Y-87719797D01*
X166062250Y-87714581D01*
X166042038Y-87707349D01*
X166022632Y-87698170D01*
X166004219Y-87687134D01*
X165986976Y-87674346D01*
X165971070Y-87659930D01*
X165956654Y-87644024D01*
X165943866Y-87626781D01*
X165932830Y-87608368D01*
X165923651Y-87588962D01*
X165916419Y-87568750D01*
X165911203Y-87547926D01*
X165908053Y-87526691D01*
X165907000Y-87505250D01*
X165907000Y-86992750D01*
X165908053Y-86971309D01*
X165911203Y-86950074D01*
X165916419Y-86929250D01*
X165923651Y-86909038D01*
X165932830Y-86889632D01*
X165943866Y-86871219D01*
X165956654Y-86853976D01*
X165971070Y-86838070D01*
X165986976Y-86823654D01*
X166004219Y-86810866D01*
X166022632Y-86799830D01*
X166042038Y-86790651D01*
X166062250Y-86783419D01*
X166083074Y-86778203D01*
X166104309Y-86775053D01*
X166125750Y-86774000D01*
X166563250Y-86774000D01*
X166584691Y-86775053D01*
G37*
G36*
X164349691Y-86775053D02*
G01*
X164370926Y-86778203D01*
X164391750Y-86783419D01*
X164411962Y-86790651D01*
X164431368Y-86799830D01*
X164449781Y-86810866D01*
X164467024Y-86823654D01*
X164482930Y-86838070D01*
X164497346Y-86853976D01*
X164510134Y-86871219D01*
X164521170Y-86889632D01*
X164530349Y-86909038D01*
X164537581Y-86929250D01*
X164542797Y-86950074D01*
X164545947Y-86971309D01*
X164547000Y-86992750D01*
X164547000Y-87505250D01*
X164545947Y-87526691D01*
X164542797Y-87547926D01*
X164537581Y-87568750D01*
X164530349Y-87588962D01*
X164521170Y-87608368D01*
X164510134Y-87626781D01*
X164497346Y-87644024D01*
X164482930Y-87659930D01*
X164467024Y-87674346D01*
X164449781Y-87687134D01*
X164431368Y-87698170D01*
X164411962Y-87707349D01*
X164391750Y-87714581D01*
X164370926Y-87719797D01*
X164349691Y-87722947D01*
X164328250Y-87724000D01*
X163890750Y-87724000D01*
X163869309Y-87722947D01*
X163848074Y-87719797D01*
X163827250Y-87714581D01*
X163807038Y-87707349D01*
X163787632Y-87698170D01*
X163769219Y-87687134D01*
X163751976Y-87674346D01*
X163736070Y-87659930D01*
X163721654Y-87644024D01*
X163708866Y-87626781D01*
X163697830Y-87608368D01*
X163688651Y-87588962D01*
X163681419Y-87568750D01*
X163676203Y-87547926D01*
X163673053Y-87526691D01*
X163672000Y-87505250D01*
X163672000Y-86992750D01*
X163673053Y-86971309D01*
X163676203Y-86950074D01*
X163681419Y-86929250D01*
X163688651Y-86909038D01*
X163697830Y-86889632D01*
X163708866Y-86871219D01*
X163721654Y-86853976D01*
X163736070Y-86838070D01*
X163751976Y-86823654D01*
X163769219Y-86810866D01*
X163787632Y-86799830D01*
X163807038Y-86790651D01*
X163827250Y-86783419D01*
X163848074Y-86778203D01*
X163869309Y-86775053D01*
X163890750Y-86774000D01*
X164328250Y-86774000D01*
X164349691Y-86775053D01*
G37*
G36*
X162774691Y-86775053D02*
G01*
X162795926Y-86778203D01*
X162816750Y-86783419D01*
X162836962Y-86790651D01*
X162856368Y-86799830D01*
X162874781Y-86810866D01*
X162892024Y-86823654D01*
X162907930Y-86838070D01*
X162922346Y-86853976D01*
X162935134Y-86871219D01*
X162946170Y-86889632D01*
X162955349Y-86909038D01*
X162962581Y-86929250D01*
X162967797Y-86950074D01*
X162970947Y-86971309D01*
X162972000Y-86992750D01*
X162972000Y-87505250D01*
X162970947Y-87526691D01*
X162967797Y-87547926D01*
X162962581Y-87568750D01*
X162955349Y-87588962D01*
X162946170Y-87608368D01*
X162935134Y-87626781D01*
X162922346Y-87644024D01*
X162907930Y-87659930D01*
X162892024Y-87674346D01*
X162874781Y-87687134D01*
X162856368Y-87698170D01*
X162836962Y-87707349D01*
X162816750Y-87714581D01*
X162795926Y-87719797D01*
X162774691Y-87722947D01*
X162753250Y-87724000D01*
X162315750Y-87724000D01*
X162294309Y-87722947D01*
X162273074Y-87719797D01*
X162252250Y-87714581D01*
X162232038Y-87707349D01*
X162212632Y-87698170D01*
X162194219Y-87687134D01*
X162176976Y-87674346D01*
X162161070Y-87659930D01*
X162146654Y-87644024D01*
X162133866Y-87626781D01*
X162122830Y-87608368D01*
X162113651Y-87588962D01*
X162106419Y-87568750D01*
X162101203Y-87547926D01*
X162098053Y-87526691D01*
X162097000Y-87505250D01*
X162097000Y-86992750D01*
X162098053Y-86971309D01*
X162101203Y-86950074D01*
X162106419Y-86929250D01*
X162113651Y-86909038D01*
X162122830Y-86889632D01*
X162133866Y-86871219D01*
X162146654Y-86853976D01*
X162161070Y-86838070D01*
X162176976Y-86823654D01*
X162194219Y-86810866D01*
X162212632Y-86799830D01*
X162232038Y-86790651D01*
X162252250Y-86783419D01*
X162273074Y-86778203D01*
X162294309Y-86775053D01*
X162315750Y-86774000D01*
X162753250Y-86774000D01*
X162774691Y-86775053D01*
G37*
G36*
X156233691Y-99106053D02*
G01*
X156254926Y-99109203D01*
X156275750Y-99114419D01*
X156295962Y-99121651D01*
X156315368Y-99130830D01*
X156333781Y-99141866D01*
X156351024Y-99154654D01*
X156366930Y-99169070D01*
X156381346Y-99184976D01*
X156394134Y-99202219D01*
X156405170Y-99220632D01*
X156414349Y-99240038D01*
X156421581Y-99260250D01*
X156426797Y-99281074D01*
X156429947Y-99302309D01*
X156431000Y-99323750D01*
X156431000Y-99761250D01*
X156429947Y-99782691D01*
X156426797Y-99803926D01*
X156421581Y-99824750D01*
X156414349Y-99844962D01*
X156405170Y-99864368D01*
X156394134Y-99882781D01*
X156381346Y-99900024D01*
X156366930Y-99915930D01*
X156351024Y-99930346D01*
X156333781Y-99943134D01*
X156315368Y-99954170D01*
X156295962Y-99963349D01*
X156275750Y-99970581D01*
X156254926Y-99975797D01*
X156233691Y-99978947D01*
X156212250Y-99980000D01*
X155699750Y-99980000D01*
X155678309Y-99978947D01*
X155657074Y-99975797D01*
X155636250Y-99970581D01*
X155616038Y-99963349D01*
X155596632Y-99954170D01*
X155578219Y-99943134D01*
X155560976Y-99930346D01*
X155545070Y-99915930D01*
X155530654Y-99900024D01*
X155517866Y-99882781D01*
X155506830Y-99864368D01*
X155497651Y-99844962D01*
X155490419Y-99824750D01*
X155485203Y-99803926D01*
X155482053Y-99782691D01*
X155481000Y-99761250D01*
X155481000Y-99323750D01*
X155482053Y-99302309D01*
X155485203Y-99281074D01*
X155490419Y-99260250D01*
X155497651Y-99240038D01*
X155506830Y-99220632D01*
X155517866Y-99202219D01*
X155530654Y-99184976D01*
X155545070Y-99169070D01*
X155560976Y-99154654D01*
X155578219Y-99141866D01*
X155596632Y-99130830D01*
X155616038Y-99121651D01*
X155636250Y-99114419D01*
X155657074Y-99109203D01*
X155678309Y-99106053D01*
X155699750Y-99105000D01*
X156212250Y-99105000D01*
X156233691Y-99106053D01*
G37*
G36*
X156233691Y-100681053D02*
G01*
X156254926Y-100684203D01*
X156275750Y-100689419D01*
X156295962Y-100696651D01*
X156315368Y-100705830D01*
X156333781Y-100716866D01*
X156351024Y-100729654D01*
X156366930Y-100744070D01*
X156381346Y-100759976D01*
X156394134Y-100777219D01*
X156405170Y-100795632D01*
X156414349Y-100815038D01*
X156421581Y-100835250D01*
X156426797Y-100856074D01*
X156429947Y-100877309D01*
X156431000Y-100898750D01*
X156431000Y-101336250D01*
X156429947Y-101357691D01*
X156426797Y-101378926D01*
X156421581Y-101399750D01*
X156414349Y-101419962D01*
X156405170Y-101439368D01*
X156394134Y-101457781D01*
X156381346Y-101475024D01*
X156366930Y-101490930D01*
X156351024Y-101505346D01*
X156333781Y-101518134D01*
X156315368Y-101529170D01*
X156295962Y-101538349D01*
X156275750Y-101545581D01*
X156254926Y-101550797D01*
X156233691Y-101553947D01*
X156212250Y-101555000D01*
X155699750Y-101555000D01*
X155678309Y-101553947D01*
X155657074Y-101550797D01*
X155636250Y-101545581D01*
X155616038Y-101538349D01*
X155596632Y-101529170D01*
X155578219Y-101518134D01*
X155560976Y-101505346D01*
X155545070Y-101490930D01*
X155530654Y-101475024D01*
X155517866Y-101457781D01*
X155506830Y-101439368D01*
X155497651Y-101419962D01*
X155490419Y-101399750D01*
X155485203Y-101378926D01*
X155482053Y-101357691D01*
X155481000Y-101336250D01*
X155481000Y-100898750D01*
X155482053Y-100877309D01*
X155485203Y-100856074D01*
X155490419Y-100835250D01*
X155497651Y-100815038D01*
X155506830Y-100795632D01*
X155517866Y-100777219D01*
X155530654Y-100759976D01*
X155545070Y-100744070D01*
X155560976Y-100729654D01*
X155578219Y-100716866D01*
X155596632Y-100705830D01*
X155616038Y-100696651D01*
X155636250Y-100689419D01*
X155657074Y-100684203D01*
X155678309Y-100681053D01*
X155699750Y-100680000D01*
X156212250Y-100680000D01*
X156233691Y-100681053D01*
G37*
G36*
X158646691Y-99106053D02*
G01*
X158667926Y-99109203D01*
X158688750Y-99114419D01*
X158708962Y-99121651D01*
X158728368Y-99130830D01*
X158746781Y-99141866D01*
X158764024Y-99154654D01*
X158779930Y-99169070D01*
X158794346Y-99184976D01*
X158807134Y-99202219D01*
X158818170Y-99220632D01*
X158827349Y-99240038D01*
X158834581Y-99260250D01*
X158839797Y-99281074D01*
X158842947Y-99302309D01*
X158844000Y-99323750D01*
X158844000Y-99761250D01*
X158842947Y-99782691D01*
X158839797Y-99803926D01*
X158834581Y-99824750D01*
X158827349Y-99844962D01*
X158818170Y-99864368D01*
X158807134Y-99882781D01*
X158794346Y-99900024D01*
X158779930Y-99915930D01*
X158764024Y-99930346D01*
X158746781Y-99943134D01*
X158728368Y-99954170D01*
X158708962Y-99963349D01*
X158688750Y-99970581D01*
X158667926Y-99975797D01*
X158646691Y-99978947D01*
X158625250Y-99980000D01*
X158112750Y-99980000D01*
X158091309Y-99978947D01*
X158070074Y-99975797D01*
X158049250Y-99970581D01*
X158029038Y-99963349D01*
X158009632Y-99954170D01*
X157991219Y-99943134D01*
X157973976Y-99930346D01*
X157958070Y-99915930D01*
X157943654Y-99900024D01*
X157930866Y-99882781D01*
X157919830Y-99864368D01*
X157910651Y-99844962D01*
X157903419Y-99824750D01*
X157898203Y-99803926D01*
X157895053Y-99782691D01*
X157894000Y-99761250D01*
X157894000Y-99323750D01*
X157895053Y-99302309D01*
X157898203Y-99281074D01*
X157903419Y-99260250D01*
X157910651Y-99240038D01*
X157919830Y-99220632D01*
X157930866Y-99202219D01*
X157943654Y-99184976D01*
X157958070Y-99169070D01*
X157973976Y-99154654D01*
X157991219Y-99141866D01*
X158009632Y-99130830D01*
X158029038Y-99121651D01*
X158049250Y-99114419D01*
X158070074Y-99109203D01*
X158091309Y-99106053D01*
X158112750Y-99105000D01*
X158625250Y-99105000D01*
X158646691Y-99106053D01*
G37*
G36*
X158646691Y-100681053D02*
G01*
X158667926Y-100684203D01*
X158688750Y-100689419D01*
X158708962Y-100696651D01*
X158728368Y-100705830D01*
X158746781Y-100716866D01*
X158764024Y-100729654D01*
X158779930Y-100744070D01*
X158794346Y-100759976D01*
X158807134Y-100777219D01*
X158818170Y-100795632D01*
X158827349Y-100815038D01*
X158834581Y-100835250D01*
X158839797Y-100856074D01*
X158842947Y-100877309D01*
X158844000Y-100898750D01*
X158844000Y-101336250D01*
X158842947Y-101357691D01*
X158839797Y-101378926D01*
X158834581Y-101399750D01*
X158827349Y-101419962D01*
X158818170Y-101439368D01*
X158807134Y-101457781D01*
X158794346Y-101475024D01*
X158779930Y-101490930D01*
X158764024Y-101505346D01*
X158746781Y-101518134D01*
X158728368Y-101529170D01*
X158708962Y-101538349D01*
X158688750Y-101545581D01*
X158667926Y-101550797D01*
X158646691Y-101553947D01*
X158625250Y-101555000D01*
X158112750Y-101555000D01*
X158091309Y-101553947D01*
X158070074Y-101550797D01*
X158049250Y-101545581D01*
X158029038Y-101538349D01*
X158009632Y-101529170D01*
X157991219Y-101518134D01*
X157973976Y-101505346D01*
X157958070Y-101490930D01*
X157943654Y-101475024D01*
X157930866Y-101457781D01*
X157919830Y-101439368D01*
X157910651Y-101419962D01*
X157903419Y-101399750D01*
X157898203Y-101378926D01*
X157895053Y-101357691D01*
X157894000Y-101336250D01*
X157894000Y-100898750D01*
X157895053Y-100877309D01*
X157898203Y-100856074D01*
X157903419Y-100835250D01*
X157910651Y-100815038D01*
X157919830Y-100795632D01*
X157930866Y-100777219D01*
X157943654Y-100759976D01*
X157958070Y-100744070D01*
X157973976Y-100729654D01*
X157991219Y-100716866D01*
X158009632Y-100705830D01*
X158029038Y-100696651D01*
X158049250Y-100689419D01*
X158070074Y-100684203D01*
X158091309Y-100681053D01*
X158112750Y-100680000D01*
X158625250Y-100680000D01*
X158646691Y-100681053D01*
G37*
G36*
X156221691Y-91093053D02*
G01*
X156242926Y-91096203D01*
X156263750Y-91101419D01*
X156283962Y-91108651D01*
X156303368Y-91117830D01*
X156321781Y-91128866D01*
X156339024Y-91141654D01*
X156354930Y-91156070D01*
X156369346Y-91171976D01*
X156382134Y-91189219D01*
X156393170Y-91207632D01*
X156402349Y-91227038D01*
X156409581Y-91247250D01*
X156414797Y-91268074D01*
X156417947Y-91289309D01*
X156419000Y-91310750D01*
X156419000Y-91823250D01*
X156417947Y-91844691D01*
X156414797Y-91865926D01*
X156409581Y-91886750D01*
X156402349Y-91906962D01*
X156393170Y-91926368D01*
X156382134Y-91944781D01*
X156369346Y-91962024D01*
X156354930Y-91977930D01*
X156339024Y-91992346D01*
X156321781Y-92005134D01*
X156303368Y-92016170D01*
X156283962Y-92025349D01*
X156263750Y-92032581D01*
X156242926Y-92037797D01*
X156221691Y-92040947D01*
X156200250Y-92042000D01*
X155762750Y-92042000D01*
X155741309Y-92040947D01*
X155720074Y-92037797D01*
X155699250Y-92032581D01*
X155679038Y-92025349D01*
X155659632Y-92016170D01*
X155641219Y-92005134D01*
X155623976Y-91992346D01*
X155608070Y-91977930D01*
X155593654Y-91962024D01*
X155580866Y-91944781D01*
X155569830Y-91926368D01*
X155560651Y-91906962D01*
X155553419Y-91886750D01*
X155548203Y-91865926D01*
X155545053Y-91844691D01*
X155544000Y-91823250D01*
X155544000Y-91310750D01*
X155545053Y-91289309D01*
X155548203Y-91268074D01*
X155553419Y-91247250D01*
X155560651Y-91227038D01*
X155569830Y-91207632D01*
X155580866Y-91189219D01*
X155593654Y-91171976D01*
X155608070Y-91156070D01*
X155623976Y-91141654D01*
X155641219Y-91128866D01*
X155659632Y-91117830D01*
X155679038Y-91108651D01*
X155699250Y-91101419D01*
X155720074Y-91096203D01*
X155741309Y-91093053D01*
X155762750Y-91092000D01*
X156200250Y-91092000D01*
X156221691Y-91093053D01*
G37*
G36*
X154646691Y-91093053D02*
G01*
X154667926Y-91096203D01*
X154688750Y-91101419D01*
X154708962Y-91108651D01*
X154728368Y-91117830D01*
X154746781Y-91128866D01*
X154764024Y-91141654D01*
X154779930Y-91156070D01*
X154794346Y-91171976D01*
X154807134Y-91189219D01*
X154818170Y-91207632D01*
X154827349Y-91227038D01*
X154834581Y-91247250D01*
X154839797Y-91268074D01*
X154842947Y-91289309D01*
X154844000Y-91310750D01*
X154844000Y-91823250D01*
X154842947Y-91844691D01*
X154839797Y-91865926D01*
X154834581Y-91886750D01*
X154827349Y-91906962D01*
X154818170Y-91926368D01*
X154807134Y-91944781D01*
X154794346Y-91962024D01*
X154779930Y-91977930D01*
X154764024Y-91992346D01*
X154746781Y-92005134D01*
X154728368Y-92016170D01*
X154708962Y-92025349D01*
X154688750Y-92032581D01*
X154667926Y-92037797D01*
X154646691Y-92040947D01*
X154625250Y-92042000D01*
X154187750Y-92042000D01*
X154166309Y-92040947D01*
X154145074Y-92037797D01*
X154124250Y-92032581D01*
X154104038Y-92025349D01*
X154084632Y-92016170D01*
X154066219Y-92005134D01*
X154048976Y-91992346D01*
X154033070Y-91977930D01*
X154018654Y-91962024D01*
X154005866Y-91944781D01*
X153994830Y-91926368D01*
X153985651Y-91906962D01*
X153978419Y-91886750D01*
X153973203Y-91865926D01*
X153970053Y-91844691D01*
X153969000Y-91823250D01*
X153969000Y-91310750D01*
X153970053Y-91289309D01*
X153973203Y-91268074D01*
X153978419Y-91247250D01*
X153985651Y-91227038D01*
X153994830Y-91207632D01*
X154005866Y-91189219D01*
X154018654Y-91171976D01*
X154033070Y-91156070D01*
X154048976Y-91141654D01*
X154066219Y-91128866D01*
X154084632Y-91117830D01*
X154104038Y-91108651D01*
X154124250Y-91101419D01*
X154145074Y-91096203D01*
X154166309Y-91093053D01*
X154187750Y-91092000D01*
X154625250Y-91092000D01*
X154646691Y-91093053D01*
G37*
G36*
X160158691Y-91093053D02*
G01*
X160179926Y-91096203D01*
X160200750Y-91101419D01*
X160220962Y-91108651D01*
X160240368Y-91117830D01*
X160258781Y-91128866D01*
X160276024Y-91141654D01*
X160291930Y-91156070D01*
X160306346Y-91171976D01*
X160319134Y-91189219D01*
X160330170Y-91207632D01*
X160339349Y-91227038D01*
X160346581Y-91247250D01*
X160351797Y-91268074D01*
X160354947Y-91289309D01*
X160356000Y-91310750D01*
X160356000Y-91823250D01*
X160354947Y-91844691D01*
X160351797Y-91865926D01*
X160346581Y-91886750D01*
X160339349Y-91906962D01*
X160330170Y-91926368D01*
X160319134Y-91944781D01*
X160306346Y-91962024D01*
X160291930Y-91977930D01*
X160276024Y-91992346D01*
X160258781Y-92005134D01*
X160240368Y-92016170D01*
X160220962Y-92025349D01*
X160200750Y-92032581D01*
X160179926Y-92037797D01*
X160158691Y-92040947D01*
X160137250Y-92042000D01*
X159699750Y-92042000D01*
X159678309Y-92040947D01*
X159657074Y-92037797D01*
X159636250Y-92032581D01*
X159616038Y-92025349D01*
X159596632Y-92016170D01*
X159578219Y-92005134D01*
X159560976Y-91992346D01*
X159545070Y-91977930D01*
X159530654Y-91962024D01*
X159517866Y-91944781D01*
X159506830Y-91926368D01*
X159497651Y-91906962D01*
X159490419Y-91886750D01*
X159485203Y-91865926D01*
X159482053Y-91844691D01*
X159481000Y-91823250D01*
X159481000Y-91310750D01*
X159482053Y-91289309D01*
X159485203Y-91268074D01*
X159490419Y-91247250D01*
X159497651Y-91227038D01*
X159506830Y-91207632D01*
X159517866Y-91189219D01*
X159530654Y-91171976D01*
X159545070Y-91156070D01*
X159560976Y-91141654D01*
X159578219Y-91128866D01*
X159596632Y-91117830D01*
X159616038Y-91108651D01*
X159636250Y-91101419D01*
X159657074Y-91096203D01*
X159678309Y-91093053D01*
X159699750Y-91092000D01*
X160137250Y-91092000D01*
X160158691Y-91093053D01*
G37*
G36*
X158583691Y-91093053D02*
G01*
X158604926Y-91096203D01*
X158625750Y-91101419D01*
X158645962Y-91108651D01*
X158665368Y-91117830D01*
X158683781Y-91128866D01*
X158701024Y-91141654D01*
X158716930Y-91156070D01*
X158731346Y-91171976D01*
X158744134Y-91189219D01*
X158755170Y-91207632D01*
X158764349Y-91227038D01*
X158771581Y-91247250D01*
X158776797Y-91268074D01*
X158779947Y-91289309D01*
X158781000Y-91310750D01*
X158781000Y-91823250D01*
X158779947Y-91844691D01*
X158776797Y-91865926D01*
X158771581Y-91886750D01*
X158764349Y-91906962D01*
X158755170Y-91926368D01*
X158744134Y-91944781D01*
X158731346Y-91962024D01*
X158716930Y-91977930D01*
X158701024Y-91992346D01*
X158683781Y-92005134D01*
X158665368Y-92016170D01*
X158645962Y-92025349D01*
X158625750Y-92032581D01*
X158604926Y-92037797D01*
X158583691Y-92040947D01*
X158562250Y-92042000D01*
X158124750Y-92042000D01*
X158103309Y-92040947D01*
X158082074Y-92037797D01*
X158061250Y-92032581D01*
X158041038Y-92025349D01*
X158021632Y-92016170D01*
X158003219Y-92005134D01*
X157985976Y-91992346D01*
X157970070Y-91977930D01*
X157955654Y-91962024D01*
X157942866Y-91944781D01*
X157931830Y-91926368D01*
X157922651Y-91906962D01*
X157915419Y-91886750D01*
X157910203Y-91865926D01*
X157907053Y-91844691D01*
X157906000Y-91823250D01*
X157906000Y-91310750D01*
X157907053Y-91289309D01*
X157910203Y-91268074D01*
X157915419Y-91247250D01*
X157922651Y-91227038D01*
X157931830Y-91207632D01*
X157942866Y-91189219D01*
X157955654Y-91171976D01*
X157970070Y-91156070D01*
X157985976Y-91141654D01*
X158003219Y-91128866D01*
X158021632Y-91117830D01*
X158041038Y-91108651D01*
X158061250Y-91101419D01*
X158082074Y-91096203D01*
X158103309Y-91093053D01*
X158124750Y-91092000D01*
X158562250Y-91092000D01*
X158583691Y-91093053D01*
G37*
G36*
X147788691Y-75726053D02*
G01*
X147809926Y-75729203D01*
X147830750Y-75734419D01*
X147850962Y-75741651D01*
X147870368Y-75750830D01*
X147888781Y-75761866D01*
X147906024Y-75774654D01*
X147921930Y-75789070D01*
X147936346Y-75804976D01*
X147949134Y-75822219D01*
X147960170Y-75840632D01*
X147969349Y-75860038D01*
X147976581Y-75880250D01*
X147981797Y-75901074D01*
X147984947Y-75922309D01*
X147986000Y-75943750D01*
X147986000Y-76456250D01*
X147984947Y-76477691D01*
X147981797Y-76498926D01*
X147976581Y-76519750D01*
X147969349Y-76539962D01*
X147960170Y-76559368D01*
X147949134Y-76577781D01*
X147936346Y-76595024D01*
X147921930Y-76610930D01*
X147906024Y-76625346D01*
X147888781Y-76638134D01*
X147870368Y-76649170D01*
X147850962Y-76658349D01*
X147830750Y-76665581D01*
X147809926Y-76670797D01*
X147788691Y-76673947D01*
X147767250Y-76675000D01*
X147329750Y-76675000D01*
X147308309Y-76673947D01*
X147287074Y-76670797D01*
X147266250Y-76665581D01*
X147246038Y-76658349D01*
X147226632Y-76649170D01*
X147208219Y-76638134D01*
X147190976Y-76625346D01*
X147175070Y-76610930D01*
X147160654Y-76595024D01*
X147147866Y-76577781D01*
X147136830Y-76559368D01*
X147127651Y-76539962D01*
X147120419Y-76519750D01*
X147115203Y-76498926D01*
X147112053Y-76477691D01*
X147111000Y-76456250D01*
X147111000Y-75943750D01*
X147112053Y-75922309D01*
X147115203Y-75901074D01*
X147120419Y-75880250D01*
X147127651Y-75860038D01*
X147136830Y-75840632D01*
X147147866Y-75822219D01*
X147160654Y-75804976D01*
X147175070Y-75789070D01*
X147190976Y-75774654D01*
X147208219Y-75761866D01*
X147226632Y-75750830D01*
X147246038Y-75741651D01*
X147266250Y-75734419D01*
X147287074Y-75729203D01*
X147308309Y-75726053D01*
X147329750Y-75725000D01*
X147767250Y-75725000D01*
X147788691Y-75726053D01*
G37*
G36*
X149363691Y-75726053D02*
G01*
X149384926Y-75729203D01*
X149405750Y-75734419D01*
X149425962Y-75741651D01*
X149445368Y-75750830D01*
X149463781Y-75761866D01*
X149481024Y-75774654D01*
X149496930Y-75789070D01*
X149511346Y-75804976D01*
X149524134Y-75822219D01*
X149535170Y-75840632D01*
X149544349Y-75860038D01*
X149551581Y-75880250D01*
X149556797Y-75901074D01*
X149559947Y-75922309D01*
X149561000Y-75943750D01*
X149561000Y-76456250D01*
X149559947Y-76477691D01*
X149556797Y-76498926D01*
X149551581Y-76519750D01*
X149544349Y-76539962D01*
X149535170Y-76559368D01*
X149524134Y-76577781D01*
X149511346Y-76595024D01*
X149496930Y-76610930D01*
X149481024Y-76625346D01*
X149463781Y-76638134D01*
X149445368Y-76649170D01*
X149425962Y-76658349D01*
X149405750Y-76665581D01*
X149384926Y-76670797D01*
X149363691Y-76673947D01*
X149342250Y-76675000D01*
X148904750Y-76675000D01*
X148883309Y-76673947D01*
X148862074Y-76670797D01*
X148841250Y-76665581D01*
X148821038Y-76658349D01*
X148801632Y-76649170D01*
X148783219Y-76638134D01*
X148765976Y-76625346D01*
X148750070Y-76610930D01*
X148735654Y-76595024D01*
X148722866Y-76577781D01*
X148711830Y-76559368D01*
X148702651Y-76539962D01*
X148695419Y-76519750D01*
X148690203Y-76498926D01*
X148687053Y-76477691D01*
X148686000Y-76456250D01*
X148686000Y-75943750D01*
X148687053Y-75922309D01*
X148690203Y-75901074D01*
X148695419Y-75880250D01*
X148702651Y-75860038D01*
X148711830Y-75840632D01*
X148722866Y-75822219D01*
X148735654Y-75804976D01*
X148750070Y-75789070D01*
X148765976Y-75774654D01*
X148783219Y-75761866D01*
X148801632Y-75750830D01*
X148821038Y-75741651D01*
X148841250Y-75734419D01*
X148862074Y-75729203D01*
X148883309Y-75726053D01*
X148904750Y-75725000D01*
X149342250Y-75725000D01*
X149363691Y-75726053D01*
G37*
G36*
X149363691Y-74202053D02*
G01*
X149384926Y-74205203D01*
X149405750Y-74210419D01*
X149425962Y-74217651D01*
X149445368Y-74226830D01*
X149463781Y-74237866D01*
X149481024Y-74250654D01*
X149496930Y-74265070D01*
X149511346Y-74280976D01*
X149524134Y-74298219D01*
X149535170Y-74316632D01*
X149544349Y-74336038D01*
X149551581Y-74356250D01*
X149556797Y-74377074D01*
X149559947Y-74398309D01*
X149561000Y-74419750D01*
X149561000Y-74932250D01*
X149559947Y-74953691D01*
X149556797Y-74974926D01*
X149551581Y-74995750D01*
X149544349Y-75015962D01*
X149535170Y-75035368D01*
X149524134Y-75053781D01*
X149511346Y-75071024D01*
X149496930Y-75086930D01*
X149481024Y-75101346D01*
X149463781Y-75114134D01*
X149445368Y-75125170D01*
X149425962Y-75134349D01*
X149405750Y-75141581D01*
X149384926Y-75146797D01*
X149363691Y-75149947D01*
X149342250Y-75151000D01*
X148904750Y-75151000D01*
X148883309Y-75149947D01*
X148862074Y-75146797D01*
X148841250Y-75141581D01*
X148821038Y-75134349D01*
X148801632Y-75125170D01*
X148783219Y-75114134D01*
X148765976Y-75101346D01*
X148750070Y-75086930D01*
X148735654Y-75071024D01*
X148722866Y-75053781D01*
X148711830Y-75035368D01*
X148702651Y-75015962D01*
X148695419Y-74995750D01*
X148690203Y-74974926D01*
X148687053Y-74953691D01*
X148686000Y-74932250D01*
X148686000Y-74419750D01*
X148687053Y-74398309D01*
X148690203Y-74377074D01*
X148695419Y-74356250D01*
X148702651Y-74336038D01*
X148711830Y-74316632D01*
X148722866Y-74298219D01*
X148735654Y-74280976D01*
X148750070Y-74265070D01*
X148765976Y-74250654D01*
X148783219Y-74237866D01*
X148801632Y-74226830D01*
X148821038Y-74217651D01*
X148841250Y-74210419D01*
X148862074Y-74205203D01*
X148883309Y-74202053D01*
X148904750Y-74201000D01*
X149342250Y-74201000D01*
X149363691Y-74202053D01*
G37*
G36*
X147788691Y-74202053D02*
G01*
X147809926Y-74205203D01*
X147830750Y-74210419D01*
X147850962Y-74217651D01*
X147870368Y-74226830D01*
X147888781Y-74237866D01*
X147906024Y-74250654D01*
X147921930Y-74265070D01*
X147936346Y-74280976D01*
X147949134Y-74298219D01*
X147960170Y-74316632D01*
X147969349Y-74336038D01*
X147976581Y-74356250D01*
X147981797Y-74377074D01*
X147984947Y-74398309D01*
X147986000Y-74419750D01*
X147986000Y-74932250D01*
X147984947Y-74953691D01*
X147981797Y-74974926D01*
X147976581Y-74995750D01*
X147969349Y-75015962D01*
X147960170Y-75035368D01*
X147949134Y-75053781D01*
X147936346Y-75071024D01*
X147921930Y-75086930D01*
X147906024Y-75101346D01*
X147888781Y-75114134D01*
X147870368Y-75125170D01*
X147850962Y-75134349D01*
X147830750Y-75141581D01*
X147809926Y-75146797D01*
X147788691Y-75149947D01*
X147767250Y-75151000D01*
X147329750Y-75151000D01*
X147308309Y-75149947D01*
X147287074Y-75146797D01*
X147266250Y-75141581D01*
X147246038Y-75134349D01*
X147226632Y-75125170D01*
X147208219Y-75114134D01*
X147190976Y-75101346D01*
X147175070Y-75086930D01*
X147160654Y-75071024D01*
X147147866Y-75053781D01*
X147136830Y-75035368D01*
X147127651Y-75015962D01*
X147120419Y-74995750D01*
X147115203Y-74974926D01*
X147112053Y-74953691D01*
X147111000Y-74932250D01*
X147111000Y-74419750D01*
X147112053Y-74398309D01*
X147115203Y-74377074D01*
X147120419Y-74356250D01*
X147127651Y-74336038D01*
X147136830Y-74316632D01*
X147147866Y-74298219D01*
X147160654Y-74280976D01*
X147175070Y-74265070D01*
X147190976Y-74250654D01*
X147208219Y-74237866D01*
X147226632Y-74226830D01*
X147246038Y-74217651D01*
X147266250Y-74210419D01*
X147287074Y-74205203D01*
X147308309Y-74202053D01*
X147329750Y-74201000D01*
X147767250Y-74201000D01*
X147788691Y-74202053D01*
G37*
G36*
X149363691Y-86394053D02*
G01*
X149384926Y-86397203D01*
X149405750Y-86402419D01*
X149425962Y-86409651D01*
X149445368Y-86418830D01*
X149463781Y-86429866D01*
X149481024Y-86442654D01*
X149496930Y-86457070D01*
X149511346Y-86472976D01*
X149524134Y-86490219D01*
X149535170Y-86508632D01*
X149544349Y-86528038D01*
X149551581Y-86548250D01*
X149556797Y-86569074D01*
X149559947Y-86590309D01*
X149561000Y-86611750D01*
X149561000Y-87124250D01*
X149559947Y-87145691D01*
X149556797Y-87166926D01*
X149551581Y-87187750D01*
X149544349Y-87207962D01*
X149535170Y-87227368D01*
X149524134Y-87245781D01*
X149511346Y-87263024D01*
X149496930Y-87278930D01*
X149481024Y-87293346D01*
X149463781Y-87306134D01*
X149445368Y-87317170D01*
X149425962Y-87326349D01*
X149405750Y-87333581D01*
X149384926Y-87338797D01*
X149363691Y-87341947D01*
X149342250Y-87343000D01*
X148904750Y-87343000D01*
X148883309Y-87341947D01*
X148862074Y-87338797D01*
X148841250Y-87333581D01*
X148821038Y-87326349D01*
X148801632Y-87317170D01*
X148783219Y-87306134D01*
X148765976Y-87293346D01*
X148750070Y-87278930D01*
X148735654Y-87263024D01*
X148722866Y-87245781D01*
X148711830Y-87227368D01*
X148702651Y-87207962D01*
X148695419Y-87187750D01*
X148690203Y-87166926D01*
X148687053Y-87145691D01*
X148686000Y-87124250D01*
X148686000Y-86611750D01*
X148687053Y-86590309D01*
X148690203Y-86569074D01*
X148695419Y-86548250D01*
X148702651Y-86528038D01*
X148711830Y-86508632D01*
X148722866Y-86490219D01*
X148735654Y-86472976D01*
X148750070Y-86457070D01*
X148765976Y-86442654D01*
X148783219Y-86429866D01*
X148801632Y-86418830D01*
X148821038Y-86409651D01*
X148841250Y-86402419D01*
X148862074Y-86397203D01*
X148883309Y-86394053D01*
X148904750Y-86393000D01*
X149342250Y-86393000D01*
X149363691Y-86394053D01*
G37*
G36*
X147788691Y-86394053D02*
G01*
X147809926Y-86397203D01*
X147830750Y-86402419D01*
X147850962Y-86409651D01*
X147870368Y-86418830D01*
X147888781Y-86429866D01*
X147906024Y-86442654D01*
X147921930Y-86457070D01*
X147936346Y-86472976D01*
X147949134Y-86490219D01*
X147960170Y-86508632D01*
X147969349Y-86528038D01*
X147976581Y-86548250D01*
X147981797Y-86569074D01*
X147984947Y-86590309D01*
X147986000Y-86611750D01*
X147986000Y-87124250D01*
X147984947Y-87145691D01*
X147981797Y-87166926D01*
X147976581Y-87187750D01*
X147969349Y-87207962D01*
X147960170Y-87227368D01*
X147949134Y-87245781D01*
X147936346Y-87263024D01*
X147921930Y-87278930D01*
X147906024Y-87293346D01*
X147888781Y-87306134D01*
X147870368Y-87317170D01*
X147850962Y-87326349D01*
X147830750Y-87333581D01*
X147809926Y-87338797D01*
X147788691Y-87341947D01*
X147767250Y-87343000D01*
X147329750Y-87343000D01*
X147308309Y-87341947D01*
X147287074Y-87338797D01*
X147266250Y-87333581D01*
X147246038Y-87326349D01*
X147226632Y-87317170D01*
X147208219Y-87306134D01*
X147190976Y-87293346D01*
X147175070Y-87278930D01*
X147160654Y-87263024D01*
X147147866Y-87245781D01*
X147136830Y-87227368D01*
X147127651Y-87207962D01*
X147120419Y-87187750D01*
X147115203Y-87166926D01*
X147112053Y-87145691D01*
X147111000Y-87124250D01*
X147111000Y-86611750D01*
X147112053Y-86590309D01*
X147115203Y-86569074D01*
X147120419Y-86548250D01*
X147127651Y-86528038D01*
X147136830Y-86508632D01*
X147147866Y-86490219D01*
X147160654Y-86472976D01*
X147175070Y-86457070D01*
X147190976Y-86442654D01*
X147208219Y-86429866D01*
X147226632Y-86418830D01*
X147246038Y-86409651D01*
X147266250Y-86402419D01*
X147287074Y-86397203D01*
X147308309Y-86394053D01*
X147329750Y-86393000D01*
X147767250Y-86393000D01*
X147788691Y-86394053D01*
G37*
G36*
X147788691Y-81060053D02*
G01*
X147809926Y-81063203D01*
X147830750Y-81068419D01*
X147850962Y-81075651D01*
X147870368Y-81084830D01*
X147888781Y-81095866D01*
X147906024Y-81108654D01*
X147921930Y-81123070D01*
X147936346Y-81138976D01*
X147949134Y-81156219D01*
X147960170Y-81174632D01*
X147969349Y-81194038D01*
X147976581Y-81214250D01*
X147981797Y-81235074D01*
X147984947Y-81256309D01*
X147986000Y-81277750D01*
X147986000Y-81790250D01*
X147984947Y-81811691D01*
X147981797Y-81832926D01*
X147976581Y-81853750D01*
X147969349Y-81873962D01*
X147960170Y-81893368D01*
X147949134Y-81911781D01*
X147936346Y-81929024D01*
X147921930Y-81944930D01*
X147906024Y-81959346D01*
X147888781Y-81972134D01*
X147870368Y-81983170D01*
X147850962Y-81992349D01*
X147830750Y-81999581D01*
X147809926Y-82004797D01*
X147788691Y-82007947D01*
X147767250Y-82009000D01*
X147329750Y-82009000D01*
X147308309Y-82007947D01*
X147287074Y-82004797D01*
X147266250Y-81999581D01*
X147246038Y-81992349D01*
X147226632Y-81983170D01*
X147208219Y-81972134D01*
X147190976Y-81959346D01*
X147175070Y-81944930D01*
X147160654Y-81929024D01*
X147147866Y-81911781D01*
X147136830Y-81893368D01*
X147127651Y-81873962D01*
X147120419Y-81853750D01*
X147115203Y-81832926D01*
X147112053Y-81811691D01*
X147111000Y-81790250D01*
X147111000Y-81277750D01*
X147112053Y-81256309D01*
X147115203Y-81235074D01*
X147120419Y-81214250D01*
X147127651Y-81194038D01*
X147136830Y-81174632D01*
X147147866Y-81156219D01*
X147160654Y-81138976D01*
X147175070Y-81123070D01*
X147190976Y-81108654D01*
X147208219Y-81095866D01*
X147226632Y-81084830D01*
X147246038Y-81075651D01*
X147266250Y-81068419D01*
X147287074Y-81063203D01*
X147308309Y-81060053D01*
X147329750Y-81059000D01*
X147767250Y-81059000D01*
X147788691Y-81060053D01*
G37*
G36*
X149363691Y-81060053D02*
G01*
X149384926Y-81063203D01*
X149405750Y-81068419D01*
X149425962Y-81075651D01*
X149445368Y-81084830D01*
X149463781Y-81095866D01*
X149481024Y-81108654D01*
X149496930Y-81123070D01*
X149511346Y-81138976D01*
X149524134Y-81156219D01*
X149535170Y-81174632D01*
X149544349Y-81194038D01*
X149551581Y-81214250D01*
X149556797Y-81235074D01*
X149559947Y-81256309D01*
X149561000Y-81277750D01*
X149561000Y-81790250D01*
X149559947Y-81811691D01*
X149556797Y-81832926D01*
X149551581Y-81853750D01*
X149544349Y-81873962D01*
X149535170Y-81893368D01*
X149524134Y-81911781D01*
X149511346Y-81929024D01*
X149496930Y-81944930D01*
X149481024Y-81959346D01*
X149463781Y-81972134D01*
X149445368Y-81983170D01*
X149425962Y-81992349D01*
X149405750Y-81999581D01*
X149384926Y-82004797D01*
X149363691Y-82007947D01*
X149342250Y-82009000D01*
X148904750Y-82009000D01*
X148883309Y-82007947D01*
X148862074Y-82004797D01*
X148841250Y-81999581D01*
X148821038Y-81992349D01*
X148801632Y-81983170D01*
X148783219Y-81972134D01*
X148765976Y-81959346D01*
X148750070Y-81944930D01*
X148735654Y-81929024D01*
X148722866Y-81911781D01*
X148711830Y-81893368D01*
X148702651Y-81873962D01*
X148695419Y-81853750D01*
X148690203Y-81832926D01*
X148687053Y-81811691D01*
X148686000Y-81790250D01*
X148686000Y-81277750D01*
X148687053Y-81256309D01*
X148690203Y-81235074D01*
X148695419Y-81214250D01*
X148702651Y-81194038D01*
X148711830Y-81174632D01*
X148722866Y-81156219D01*
X148735654Y-81138976D01*
X148750070Y-81123070D01*
X148765976Y-81108654D01*
X148783219Y-81095866D01*
X148801632Y-81084830D01*
X148821038Y-81075651D01*
X148841250Y-81068419D01*
X148862074Y-81063203D01*
X148883309Y-81060053D01*
X148904750Y-81059000D01*
X149342250Y-81059000D01*
X149363691Y-81060053D01*
G37*
G36*
X149363691Y-87918053D02*
G01*
X149384926Y-87921203D01*
X149405750Y-87926419D01*
X149425962Y-87933651D01*
X149445368Y-87942830D01*
X149463781Y-87953866D01*
X149481024Y-87966654D01*
X149496930Y-87981070D01*
X149511346Y-87996976D01*
X149524134Y-88014219D01*
X149535170Y-88032632D01*
X149544349Y-88052038D01*
X149551581Y-88072250D01*
X149556797Y-88093074D01*
X149559947Y-88114309D01*
X149561000Y-88135750D01*
X149561000Y-88648250D01*
X149559947Y-88669691D01*
X149556797Y-88690926D01*
X149551581Y-88711750D01*
X149544349Y-88731962D01*
X149535170Y-88751368D01*
X149524134Y-88769781D01*
X149511346Y-88787024D01*
X149496930Y-88802930D01*
X149481024Y-88817346D01*
X149463781Y-88830134D01*
X149445368Y-88841170D01*
X149425962Y-88850349D01*
X149405750Y-88857581D01*
X149384926Y-88862797D01*
X149363691Y-88865947D01*
X149342250Y-88867000D01*
X148904750Y-88867000D01*
X148883309Y-88865947D01*
X148862074Y-88862797D01*
X148841250Y-88857581D01*
X148821038Y-88850349D01*
X148801632Y-88841170D01*
X148783219Y-88830134D01*
X148765976Y-88817346D01*
X148750070Y-88802930D01*
X148735654Y-88787024D01*
X148722866Y-88769781D01*
X148711830Y-88751368D01*
X148702651Y-88731962D01*
X148695419Y-88711750D01*
X148690203Y-88690926D01*
X148687053Y-88669691D01*
X148686000Y-88648250D01*
X148686000Y-88135750D01*
X148687053Y-88114309D01*
X148690203Y-88093074D01*
X148695419Y-88072250D01*
X148702651Y-88052038D01*
X148711830Y-88032632D01*
X148722866Y-88014219D01*
X148735654Y-87996976D01*
X148750070Y-87981070D01*
X148765976Y-87966654D01*
X148783219Y-87953866D01*
X148801632Y-87942830D01*
X148821038Y-87933651D01*
X148841250Y-87926419D01*
X148862074Y-87921203D01*
X148883309Y-87918053D01*
X148904750Y-87917000D01*
X149342250Y-87917000D01*
X149363691Y-87918053D01*
G37*
G36*
X147788691Y-87918053D02*
G01*
X147809926Y-87921203D01*
X147830750Y-87926419D01*
X147850962Y-87933651D01*
X147870368Y-87942830D01*
X147888781Y-87953866D01*
X147906024Y-87966654D01*
X147921930Y-87981070D01*
X147936346Y-87996976D01*
X147949134Y-88014219D01*
X147960170Y-88032632D01*
X147969349Y-88052038D01*
X147976581Y-88072250D01*
X147981797Y-88093074D01*
X147984947Y-88114309D01*
X147986000Y-88135750D01*
X147986000Y-88648250D01*
X147984947Y-88669691D01*
X147981797Y-88690926D01*
X147976581Y-88711750D01*
X147969349Y-88731962D01*
X147960170Y-88751368D01*
X147949134Y-88769781D01*
X147936346Y-88787024D01*
X147921930Y-88802930D01*
X147906024Y-88817346D01*
X147888781Y-88830134D01*
X147870368Y-88841170D01*
X147850962Y-88850349D01*
X147830750Y-88857581D01*
X147809926Y-88862797D01*
X147788691Y-88865947D01*
X147767250Y-88867000D01*
X147329750Y-88867000D01*
X147308309Y-88865947D01*
X147287074Y-88862797D01*
X147266250Y-88857581D01*
X147246038Y-88850349D01*
X147226632Y-88841170D01*
X147208219Y-88830134D01*
X147190976Y-88817346D01*
X147175070Y-88802930D01*
X147160654Y-88787024D01*
X147147866Y-88769781D01*
X147136830Y-88751368D01*
X147127651Y-88731962D01*
X147120419Y-88711750D01*
X147115203Y-88690926D01*
X147112053Y-88669691D01*
X147111000Y-88648250D01*
X147111000Y-88135750D01*
X147112053Y-88114309D01*
X147115203Y-88093074D01*
X147120419Y-88072250D01*
X147127651Y-88052038D01*
X147136830Y-88032632D01*
X147147866Y-88014219D01*
X147160654Y-87996976D01*
X147175070Y-87981070D01*
X147190976Y-87966654D01*
X147208219Y-87953866D01*
X147226632Y-87942830D01*
X147246038Y-87933651D01*
X147266250Y-87926419D01*
X147287074Y-87921203D01*
X147308309Y-87918053D01*
X147329750Y-87917000D01*
X147767250Y-87917000D01*
X147788691Y-87918053D01*
G37*
D16*
X168082000Y-95138000D03*
X168082000Y-94488000D03*
X168082000Y-93838000D03*
X166182000Y-93838000D03*
X166182000Y-94488000D03*
X166182000Y-95138000D03*
X164272000Y-95138000D03*
X164272000Y-94488000D03*
X164272000Y-93838000D03*
X162372000Y-93838000D03*
X162372000Y-94488000D03*
X162372000Y-95138000D03*
D12*
X168082000Y-91201000D03*
X168082000Y-89901000D03*
X166182000Y-90551000D03*
X168082000Y-90551000D03*
X166182000Y-89901000D03*
X166182000Y-91201000D03*
X164272000Y-91201000D03*
X164272000Y-89901000D03*
X162372000Y-90551000D03*
X164272000Y-90551000D03*
X162372000Y-89901000D03*
X162372000Y-91201000D03*
D16*
X156144000Y-98059000D03*
X156144000Y-97409000D03*
X156144000Y-96759000D03*
X154244000Y-96759000D03*
X154244000Y-97409000D03*
X154244000Y-98059000D03*
X160081000Y-98059000D03*
X160081000Y-97409000D03*
X160081000Y-96759000D03*
X158181000Y-96759000D03*
X158181000Y-97409000D03*
X158181000Y-98059000D03*
D12*
X160081000Y-94122000D03*
X160081000Y-92822000D03*
X158181000Y-93472000D03*
X160081000Y-93472000D03*
X158181000Y-92822000D03*
X158181000Y-94122000D03*
D15*
G36*
X168298691Y-97506053D02*
G01*
X168319926Y-97509203D01*
X168340750Y-97514419D01*
X168360962Y-97521651D01*
X168380368Y-97530830D01*
X168398781Y-97541866D01*
X168416024Y-97554654D01*
X168431930Y-97569070D01*
X168446346Y-97584976D01*
X168459134Y-97602219D01*
X168470170Y-97620632D01*
X168479349Y-97640038D01*
X168486581Y-97660250D01*
X168491797Y-97681074D01*
X168494947Y-97702309D01*
X168496000Y-97723750D01*
X168496000Y-98161250D01*
X168494947Y-98182691D01*
X168491797Y-98203926D01*
X168486581Y-98224750D01*
X168479349Y-98244962D01*
X168470170Y-98264368D01*
X168459134Y-98282781D01*
X168446346Y-98300024D01*
X168431930Y-98315930D01*
X168416024Y-98330346D01*
X168398781Y-98343134D01*
X168380368Y-98354170D01*
X168360962Y-98363349D01*
X168340750Y-98370581D01*
X168319926Y-98375797D01*
X168298691Y-98378947D01*
X168277250Y-98380000D01*
X167764750Y-98380000D01*
X167743309Y-98378947D01*
X167722074Y-98375797D01*
X167701250Y-98370581D01*
X167681038Y-98363349D01*
X167661632Y-98354170D01*
X167643219Y-98343134D01*
X167625976Y-98330346D01*
X167610070Y-98315930D01*
X167595654Y-98300024D01*
X167582866Y-98282781D01*
X167571830Y-98264368D01*
X167562651Y-98244962D01*
X167555419Y-98224750D01*
X167550203Y-98203926D01*
X167547053Y-98182691D01*
X167546000Y-98161250D01*
X167546000Y-97723750D01*
X167547053Y-97702309D01*
X167550203Y-97681074D01*
X167555419Y-97660250D01*
X167562651Y-97640038D01*
X167571830Y-97620632D01*
X167582866Y-97602219D01*
X167595654Y-97584976D01*
X167610070Y-97569070D01*
X167625976Y-97554654D01*
X167643219Y-97541866D01*
X167661632Y-97530830D01*
X167681038Y-97521651D01*
X167701250Y-97514419D01*
X167722074Y-97509203D01*
X167743309Y-97506053D01*
X167764750Y-97505000D01*
X168277250Y-97505000D01*
X168298691Y-97506053D01*
G37*
G36*
X168298691Y-95931053D02*
G01*
X168319926Y-95934203D01*
X168340750Y-95939419D01*
X168360962Y-95946651D01*
X168380368Y-95955830D01*
X168398781Y-95966866D01*
X168416024Y-95979654D01*
X168431930Y-95994070D01*
X168446346Y-96009976D01*
X168459134Y-96027219D01*
X168470170Y-96045632D01*
X168479349Y-96065038D01*
X168486581Y-96085250D01*
X168491797Y-96106074D01*
X168494947Y-96127309D01*
X168496000Y-96148750D01*
X168496000Y-96586250D01*
X168494947Y-96607691D01*
X168491797Y-96628926D01*
X168486581Y-96649750D01*
X168479349Y-96669962D01*
X168470170Y-96689368D01*
X168459134Y-96707781D01*
X168446346Y-96725024D01*
X168431930Y-96740930D01*
X168416024Y-96755346D01*
X168398781Y-96768134D01*
X168380368Y-96779170D01*
X168360962Y-96788349D01*
X168340750Y-96795581D01*
X168319926Y-96800797D01*
X168298691Y-96803947D01*
X168277250Y-96805000D01*
X167764750Y-96805000D01*
X167743309Y-96803947D01*
X167722074Y-96800797D01*
X167701250Y-96795581D01*
X167681038Y-96788349D01*
X167661632Y-96779170D01*
X167643219Y-96768134D01*
X167625976Y-96755346D01*
X167610070Y-96740930D01*
X167595654Y-96725024D01*
X167582866Y-96707781D01*
X167571830Y-96689368D01*
X167562651Y-96669962D01*
X167555419Y-96649750D01*
X167550203Y-96628926D01*
X167547053Y-96607691D01*
X167546000Y-96586250D01*
X167546000Y-96148750D01*
X167547053Y-96127309D01*
X167550203Y-96106074D01*
X167555419Y-96085250D01*
X167562651Y-96065038D01*
X167571830Y-96045632D01*
X167582866Y-96027219D01*
X167595654Y-96009976D01*
X167610070Y-95994070D01*
X167625976Y-95979654D01*
X167643219Y-95966866D01*
X167661632Y-95955830D01*
X167681038Y-95946651D01*
X167701250Y-95939419D01*
X167722074Y-95934203D01*
X167743309Y-95931053D01*
X167764750Y-95930000D01*
X168277250Y-95930000D01*
X168298691Y-95931053D01*
G37*
G36*
X164488691Y-97506053D02*
G01*
X164509926Y-97509203D01*
X164530750Y-97514419D01*
X164550962Y-97521651D01*
X164570368Y-97530830D01*
X164588781Y-97541866D01*
X164606024Y-97554654D01*
X164621930Y-97569070D01*
X164636346Y-97584976D01*
X164649134Y-97602219D01*
X164660170Y-97620632D01*
X164669349Y-97640038D01*
X164676581Y-97660250D01*
X164681797Y-97681074D01*
X164684947Y-97702309D01*
X164686000Y-97723750D01*
X164686000Y-98161250D01*
X164684947Y-98182691D01*
X164681797Y-98203926D01*
X164676581Y-98224750D01*
X164669349Y-98244962D01*
X164660170Y-98264368D01*
X164649134Y-98282781D01*
X164636346Y-98300024D01*
X164621930Y-98315930D01*
X164606024Y-98330346D01*
X164588781Y-98343134D01*
X164570368Y-98354170D01*
X164550962Y-98363349D01*
X164530750Y-98370581D01*
X164509926Y-98375797D01*
X164488691Y-98378947D01*
X164467250Y-98380000D01*
X163954750Y-98380000D01*
X163933309Y-98378947D01*
X163912074Y-98375797D01*
X163891250Y-98370581D01*
X163871038Y-98363349D01*
X163851632Y-98354170D01*
X163833219Y-98343134D01*
X163815976Y-98330346D01*
X163800070Y-98315930D01*
X163785654Y-98300024D01*
X163772866Y-98282781D01*
X163761830Y-98264368D01*
X163752651Y-98244962D01*
X163745419Y-98224750D01*
X163740203Y-98203926D01*
X163737053Y-98182691D01*
X163736000Y-98161250D01*
X163736000Y-97723750D01*
X163737053Y-97702309D01*
X163740203Y-97681074D01*
X163745419Y-97660250D01*
X163752651Y-97640038D01*
X163761830Y-97620632D01*
X163772866Y-97602219D01*
X163785654Y-97584976D01*
X163800070Y-97569070D01*
X163815976Y-97554654D01*
X163833219Y-97541866D01*
X163851632Y-97530830D01*
X163871038Y-97521651D01*
X163891250Y-97514419D01*
X163912074Y-97509203D01*
X163933309Y-97506053D01*
X163954750Y-97505000D01*
X164467250Y-97505000D01*
X164488691Y-97506053D01*
G37*
G36*
X164488691Y-95931053D02*
G01*
X164509926Y-95934203D01*
X164530750Y-95939419D01*
X164550962Y-95946651D01*
X164570368Y-95955830D01*
X164588781Y-95966866D01*
X164606024Y-95979654D01*
X164621930Y-95994070D01*
X164636346Y-96009976D01*
X164649134Y-96027219D01*
X164660170Y-96045632D01*
X164669349Y-96065038D01*
X164676581Y-96085250D01*
X164681797Y-96106074D01*
X164684947Y-96127309D01*
X164686000Y-96148750D01*
X164686000Y-96586250D01*
X164684947Y-96607691D01*
X164681797Y-96628926D01*
X164676581Y-96649750D01*
X164669349Y-96669962D01*
X164660170Y-96689368D01*
X164649134Y-96707781D01*
X164636346Y-96725024D01*
X164621930Y-96740930D01*
X164606024Y-96755346D01*
X164588781Y-96768134D01*
X164570368Y-96779170D01*
X164550962Y-96788349D01*
X164530750Y-96795581D01*
X164509926Y-96800797D01*
X164488691Y-96803947D01*
X164467250Y-96805000D01*
X163954750Y-96805000D01*
X163933309Y-96803947D01*
X163912074Y-96800797D01*
X163891250Y-96795581D01*
X163871038Y-96788349D01*
X163851632Y-96779170D01*
X163833219Y-96768134D01*
X163815976Y-96755346D01*
X163800070Y-96740930D01*
X163785654Y-96725024D01*
X163772866Y-96707781D01*
X163761830Y-96689368D01*
X163752651Y-96669962D01*
X163745419Y-96649750D01*
X163740203Y-96628926D01*
X163737053Y-96607691D01*
X163736000Y-96586250D01*
X163736000Y-96148750D01*
X163737053Y-96127309D01*
X163740203Y-96106074D01*
X163745419Y-96085250D01*
X163752651Y-96065038D01*
X163761830Y-96045632D01*
X163772866Y-96027219D01*
X163785654Y-96009976D01*
X163800070Y-95994070D01*
X163815976Y-95979654D01*
X163833219Y-95966866D01*
X163851632Y-95955830D01*
X163871038Y-95946651D01*
X163891250Y-95939419D01*
X163912074Y-95934203D01*
X163933309Y-95931053D01*
X163954750Y-95930000D01*
X164467250Y-95930000D01*
X164488691Y-95931053D01*
G37*
G36*
X154709691Y-100681053D02*
G01*
X154730926Y-100684203D01*
X154751750Y-100689419D01*
X154771962Y-100696651D01*
X154791368Y-100705830D01*
X154809781Y-100716866D01*
X154827024Y-100729654D01*
X154842930Y-100744070D01*
X154857346Y-100759976D01*
X154870134Y-100777219D01*
X154881170Y-100795632D01*
X154890349Y-100815038D01*
X154897581Y-100835250D01*
X154902797Y-100856074D01*
X154905947Y-100877309D01*
X154907000Y-100898750D01*
X154907000Y-101336250D01*
X154905947Y-101357691D01*
X154902797Y-101378926D01*
X154897581Y-101399750D01*
X154890349Y-101419962D01*
X154881170Y-101439368D01*
X154870134Y-101457781D01*
X154857346Y-101475024D01*
X154842930Y-101490930D01*
X154827024Y-101505346D01*
X154809781Y-101518134D01*
X154791368Y-101529170D01*
X154771962Y-101538349D01*
X154751750Y-101545581D01*
X154730926Y-101550797D01*
X154709691Y-101553947D01*
X154688250Y-101555000D01*
X154175750Y-101555000D01*
X154154309Y-101553947D01*
X154133074Y-101550797D01*
X154112250Y-101545581D01*
X154092038Y-101538349D01*
X154072632Y-101529170D01*
X154054219Y-101518134D01*
X154036976Y-101505346D01*
X154021070Y-101490930D01*
X154006654Y-101475024D01*
X153993866Y-101457781D01*
X153982830Y-101439368D01*
X153973651Y-101419962D01*
X153966419Y-101399750D01*
X153961203Y-101378926D01*
X153958053Y-101357691D01*
X153957000Y-101336250D01*
X153957000Y-100898750D01*
X153958053Y-100877309D01*
X153961203Y-100856074D01*
X153966419Y-100835250D01*
X153973651Y-100815038D01*
X153982830Y-100795632D01*
X153993866Y-100777219D01*
X154006654Y-100759976D01*
X154021070Y-100744070D01*
X154036976Y-100729654D01*
X154054219Y-100716866D01*
X154072632Y-100705830D01*
X154092038Y-100696651D01*
X154112250Y-100689419D01*
X154133074Y-100684203D01*
X154154309Y-100681053D01*
X154175750Y-100680000D01*
X154688250Y-100680000D01*
X154709691Y-100681053D01*
G37*
G36*
X154709691Y-99106053D02*
G01*
X154730926Y-99109203D01*
X154751750Y-99114419D01*
X154771962Y-99121651D01*
X154791368Y-99130830D01*
X154809781Y-99141866D01*
X154827024Y-99154654D01*
X154842930Y-99169070D01*
X154857346Y-99184976D01*
X154870134Y-99202219D01*
X154881170Y-99220632D01*
X154890349Y-99240038D01*
X154897581Y-99260250D01*
X154902797Y-99281074D01*
X154905947Y-99302309D01*
X154907000Y-99323750D01*
X154907000Y-99761250D01*
X154905947Y-99782691D01*
X154902797Y-99803926D01*
X154897581Y-99824750D01*
X154890349Y-99844962D01*
X154881170Y-99864368D01*
X154870134Y-99882781D01*
X154857346Y-99900024D01*
X154842930Y-99915930D01*
X154827024Y-99930346D01*
X154809781Y-99943134D01*
X154791368Y-99954170D01*
X154771962Y-99963349D01*
X154751750Y-99970581D01*
X154730926Y-99975797D01*
X154709691Y-99978947D01*
X154688250Y-99980000D01*
X154175750Y-99980000D01*
X154154309Y-99978947D01*
X154133074Y-99975797D01*
X154112250Y-99970581D01*
X154092038Y-99963349D01*
X154072632Y-99954170D01*
X154054219Y-99943134D01*
X154036976Y-99930346D01*
X154021070Y-99915930D01*
X154006654Y-99900024D01*
X153993866Y-99882781D01*
X153982830Y-99864368D01*
X153973651Y-99844962D01*
X153966419Y-99824750D01*
X153961203Y-99803926D01*
X153958053Y-99782691D01*
X153957000Y-99761250D01*
X153957000Y-99323750D01*
X153958053Y-99302309D01*
X153961203Y-99281074D01*
X153966419Y-99260250D01*
X153973651Y-99240038D01*
X153982830Y-99220632D01*
X153993866Y-99202219D01*
X154006654Y-99184976D01*
X154021070Y-99169070D01*
X154036976Y-99154654D01*
X154054219Y-99141866D01*
X154072632Y-99130830D01*
X154092038Y-99121651D01*
X154112250Y-99114419D01*
X154133074Y-99109203D01*
X154154309Y-99106053D01*
X154175750Y-99105000D01*
X154688250Y-99105000D01*
X154709691Y-99106053D01*
G37*
G36*
X160170691Y-100681053D02*
G01*
X160191926Y-100684203D01*
X160212750Y-100689419D01*
X160232962Y-100696651D01*
X160252368Y-100705830D01*
X160270781Y-100716866D01*
X160288024Y-100729654D01*
X160303930Y-100744070D01*
X160318346Y-100759976D01*
X160331134Y-100777219D01*
X160342170Y-100795632D01*
X160351349Y-100815038D01*
X160358581Y-100835250D01*
X160363797Y-100856074D01*
X160366947Y-100877309D01*
X160368000Y-100898750D01*
X160368000Y-101336250D01*
X160366947Y-101357691D01*
X160363797Y-101378926D01*
X160358581Y-101399750D01*
X160351349Y-101419962D01*
X160342170Y-101439368D01*
X160331134Y-101457781D01*
X160318346Y-101475024D01*
X160303930Y-101490930D01*
X160288024Y-101505346D01*
X160270781Y-101518134D01*
X160252368Y-101529170D01*
X160232962Y-101538349D01*
X160212750Y-101545581D01*
X160191926Y-101550797D01*
X160170691Y-101553947D01*
X160149250Y-101555000D01*
X159636750Y-101555000D01*
X159615309Y-101553947D01*
X159594074Y-101550797D01*
X159573250Y-101545581D01*
X159553038Y-101538349D01*
X159533632Y-101529170D01*
X159515219Y-101518134D01*
X159497976Y-101505346D01*
X159482070Y-101490930D01*
X159467654Y-101475024D01*
X159454866Y-101457781D01*
X159443830Y-101439368D01*
X159434651Y-101419962D01*
X159427419Y-101399750D01*
X159422203Y-101378926D01*
X159419053Y-101357691D01*
X159418000Y-101336250D01*
X159418000Y-100898750D01*
X159419053Y-100877309D01*
X159422203Y-100856074D01*
X159427419Y-100835250D01*
X159434651Y-100815038D01*
X159443830Y-100795632D01*
X159454866Y-100777219D01*
X159467654Y-100759976D01*
X159482070Y-100744070D01*
X159497976Y-100729654D01*
X159515219Y-100716866D01*
X159533632Y-100705830D01*
X159553038Y-100696651D01*
X159573250Y-100689419D01*
X159594074Y-100684203D01*
X159615309Y-100681053D01*
X159636750Y-100680000D01*
X160149250Y-100680000D01*
X160170691Y-100681053D01*
G37*
G36*
X160170691Y-99106053D02*
G01*
X160191926Y-99109203D01*
X160212750Y-99114419D01*
X160232962Y-99121651D01*
X160252368Y-99130830D01*
X160270781Y-99141866D01*
X160288024Y-99154654D01*
X160303930Y-99169070D01*
X160318346Y-99184976D01*
X160331134Y-99202219D01*
X160342170Y-99220632D01*
X160351349Y-99240038D01*
X160358581Y-99260250D01*
X160363797Y-99281074D01*
X160366947Y-99302309D01*
X160368000Y-99323750D01*
X160368000Y-99761250D01*
X160366947Y-99782691D01*
X160363797Y-99803926D01*
X160358581Y-99824750D01*
X160351349Y-99844962D01*
X160342170Y-99864368D01*
X160331134Y-99882781D01*
X160318346Y-99900024D01*
X160303930Y-99915930D01*
X160288024Y-99930346D01*
X160270781Y-99943134D01*
X160252368Y-99954170D01*
X160232962Y-99963349D01*
X160212750Y-99970581D01*
X160191926Y-99975797D01*
X160170691Y-99978947D01*
X160149250Y-99980000D01*
X159636750Y-99980000D01*
X159615309Y-99978947D01*
X159594074Y-99975797D01*
X159573250Y-99970581D01*
X159553038Y-99963349D01*
X159533632Y-99954170D01*
X159515219Y-99943134D01*
X159497976Y-99930346D01*
X159482070Y-99915930D01*
X159467654Y-99900024D01*
X159454866Y-99882781D01*
X159443830Y-99864368D01*
X159434651Y-99844962D01*
X159427419Y-99824750D01*
X159422203Y-99803926D01*
X159419053Y-99782691D01*
X159418000Y-99761250D01*
X159418000Y-99323750D01*
X159419053Y-99302309D01*
X159422203Y-99281074D01*
X159427419Y-99260250D01*
X159434651Y-99240038D01*
X159443830Y-99220632D01*
X159454866Y-99202219D01*
X159467654Y-99184976D01*
X159482070Y-99169070D01*
X159497976Y-99154654D01*
X159515219Y-99141866D01*
X159533632Y-99130830D01*
X159553038Y-99121651D01*
X159573250Y-99114419D01*
X159594074Y-99109203D01*
X159615309Y-99106053D01*
X159636750Y-99105000D01*
X160149250Y-99105000D01*
X160170691Y-99106053D01*
G37*
G36*
X149363691Y-82584053D02*
G01*
X149384926Y-82587203D01*
X149405750Y-82592419D01*
X149425962Y-82599651D01*
X149445368Y-82608830D01*
X149463781Y-82619866D01*
X149481024Y-82632654D01*
X149496930Y-82647070D01*
X149511346Y-82662976D01*
X149524134Y-82680219D01*
X149535170Y-82698632D01*
X149544349Y-82718038D01*
X149551581Y-82738250D01*
X149556797Y-82759074D01*
X149559947Y-82780309D01*
X149561000Y-82801750D01*
X149561000Y-83314250D01*
X149559947Y-83335691D01*
X149556797Y-83356926D01*
X149551581Y-83377750D01*
X149544349Y-83397962D01*
X149535170Y-83417368D01*
X149524134Y-83435781D01*
X149511346Y-83453024D01*
X149496930Y-83468930D01*
X149481024Y-83483346D01*
X149463781Y-83496134D01*
X149445368Y-83507170D01*
X149425962Y-83516349D01*
X149405750Y-83523581D01*
X149384926Y-83528797D01*
X149363691Y-83531947D01*
X149342250Y-83533000D01*
X148904750Y-83533000D01*
X148883309Y-83531947D01*
X148862074Y-83528797D01*
X148841250Y-83523581D01*
X148821038Y-83516349D01*
X148801632Y-83507170D01*
X148783219Y-83496134D01*
X148765976Y-83483346D01*
X148750070Y-83468930D01*
X148735654Y-83453024D01*
X148722866Y-83435781D01*
X148711830Y-83417368D01*
X148702651Y-83397962D01*
X148695419Y-83377750D01*
X148690203Y-83356926D01*
X148687053Y-83335691D01*
X148686000Y-83314250D01*
X148686000Y-82801750D01*
X148687053Y-82780309D01*
X148690203Y-82759074D01*
X148695419Y-82738250D01*
X148702651Y-82718038D01*
X148711830Y-82698632D01*
X148722866Y-82680219D01*
X148735654Y-82662976D01*
X148750070Y-82647070D01*
X148765976Y-82632654D01*
X148783219Y-82619866D01*
X148801632Y-82608830D01*
X148821038Y-82599651D01*
X148841250Y-82592419D01*
X148862074Y-82587203D01*
X148883309Y-82584053D01*
X148904750Y-82583000D01*
X149342250Y-82583000D01*
X149363691Y-82584053D01*
G37*
G36*
X147788691Y-82584053D02*
G01*
X147809926Y-82587203D01*
X147830750Y-82592419D01*
X147850962Y-82599651D01*
X147870368Y-82608830D01*
X147888781Y-82619866D01*
X147906024Y-82632654D01*
X147921930Y-82647070D01*
X147936346Y-82662976D01*
X147949134Y-82680219D01*
X147960170Y-82698632D01*
X147969349Y-82718038D01*
X147976581Y-82738250D01*
X147981797Y-82759074D01*
X147984947Y-82780309D01*
X147986000Y-82801750D01*
X147986000Y-83314250D01*
X147984947Y-83335691D01*
X147981797Y-83356926D01*
X147976581Y-83377750D01*
X147969349Y-83397962D01*
X147960170Y-83417368D01*
X147949134Y-83435781D01*
X147936346Y-83453024D01*
X147921930Y-83468930D01*
X147906024Y-83483346D01*
X147888781Y-83496134D01*
X147870368Y-83507170D01*
X147850962Y-83516349D01*
X147830750Y-83523581D01*
X147809926Y-83528797D01*
X147788691Y-83531947D01*
X147767250Y-83533000D01*
X147329750Y-83533000D01*
X147308309Y-83531947D01*
X147287074Y-83528797D01*
X147266250Y-83523581D01*
X147246038Y-83516349D01*
X147226632Y-83507170D01*
X147208219Y-83496134D01*
X147190976Y-83483346D01*
X147175070Y-83468930D01*
X147160654Y-83453024D01*
X147147866Y-83435781D01*
X147136830Y-83417368D01*
X147127651Y-83397962D01*
X147120419Y-83377750D01*
X147115203Y-83356926D01*
X147112053Y-83335691D01*
X147111000Y-83314250D01*
X147111000Y-82801750D01*
X147112053Y-82780309D01*
X147115203Y-82759074D01*
X147120419Y-82738250D01*
X147127651Y-82718038D01*
X147136830Y-82698632D01*
X147147866Y-82680219D01*
X147160654Y-82662976D01*
X147175070Y-82647070D01*
X147190976Y-82632654D01*
X147208219Y-82619866D01*
X147226632Y-82608830D01*
X147246038Y-82599651D01*
X147266250Y-82592419D01*
X147287074Y-82587203D01*
X147308309Y-82584053D01*
X147329750Y-82583000D01*
X147767250Y-82583000D01*
X147788691Y-82584053D01*
G37*
G36*
X160666491Y-60740053D02*
G01*
X160687726Y-60743203D01*
X160708550Y-60748419D01*
X160728762Y-60755651D01*
X160748168Y-60764830D01*
X160766581Y-60775866D01*
X160783824Y-60788654D01*
X160799730Y-60803070D01*
X160814146Y-60818976D01*
X160826934Y-60836219D01*
X160837970Y-60854632D01*
X160847149Y-60874038D01*
X160854381Y-60894250D01*
X160859597Y-60915074D01*
X160862747Y-60936309D01*
X160863800Y-60957750D01*
X160863800Y-61470250D01*
X160862747Y-61491691D01*
X160859597Y-61512926D01*
X160854381Y-61533750D01*
X160847149Y-61553962D01*
X160837970Y-61573368D01*
X160826934Y-61591781D01*
X160814146Y-61609024D01*
X160799730Y-61624930D01*
X160783824Y-61639346D01*
X160766581Y-61652134D01*
X160748168Y-61663170D01*
X160728762Y-61672349D01*
X160708550Y-61679581D01*
X160687726Y-61684797D01*
X160666491Y-61687947D01*
X160645050Y-61689000D01*
X160207550Y-61689000D01*
X160186109Y-61687947D01*
X160164874Y-61684797D01*
X160144050Y-61679581D01*
X160123838Y-61672349D01*
X160104432Y-61663170D01*
X160086019Y-61652134D01*
X160068776Y-61639346D01*
X160052870Y-61624930D01*
X160038454Y-61609024D01*
X160025666Y-61591781D01*
X160014630Y-61573368D01*
X160005451Y-61553962D01*
X159998219Y-61533750D01*
X159993003Y-61512926D01*
X159989853Y-61491691D01*
X159988800Y-61470250D01*
X159988800Y-60957750D01*
X159989853Y-60936309D01*
X159993003Y-60915074D01*
X159998219Y-60894250D01*
X160005451Y-60874038D01*
X160014630Y-60854632D01*
X160025666Y-60836219D01*
X160038454Y-60818976D01*
X160052870Y-60803070D01*
X160068776Y-60788654D01*
X160086019Y-60775866D01*
X160104432Y-60764830D01*
X160123838Y-60755651D01*
X160144050Y-60748419D01*
X160164874Y-60743203D01*
X160186109Y-60740053D01*
X160207550Y-60739000D01*
X160645050Y-60739000D01*
X160666491Y-60740053D01*
G37*
G36*
X162241491Y-60740053D02*
G01*
X162262726Y-60743203D01*
X162283550Y-60748419D01*
X162303762Y-60755651D01*
X162323168Y-60764830D01*
X162341581Y-60775866D01*
X162358824Y-60788654D01*
X162374730Y-60803070D01*
X162389146Y-60818976D01*
X162401934Y-60836219D01*
X162412970Y-60854632D01*
X162422149Y-60874038D01*
X162429381Y-60894250D01*
X162434597Y-60915074D01*
X162437747Y-60936309D01*
X162438800Y-60957750D01*
X162438800Y-61470250D01*
X162437747Y-61491691D01*
X162434597Y-61512926D01*
X162429381Y-61533750D01*
X162422149Y-61553962D01*
X162412970Y-61573368D01*
X162401934Y-61591781D01*
X162389146Y-61609024D01*
X162374730Y-61624930D01*
X162358824Y-61639346D01*
X162341581Y-61652134D01*
X162323168Y-61663170D01*
X162303762Y-61672349D01*
X162283550Y-61679581D01*
X162262726Y-61684797D01*
X162241491Y-61687947D01*
X162220050Y-61689000D01*
X161782550Y-61689000D01*
X161761109Y-61687947D01*
X161739874Y-61684797D01*
X161719050Y-61679581D01*
X161698838Y-61672349D01*
X161679432Y-61663170D01*
X161661019Y-61652134D01*
X161643776Y-61639346D01*
X161627870Y-61624930D01*
X161613454Y-61609024D01*
X161600666Y-61591781D01*
X161589630Y-61573368D01*
X161580451Y-61553962D01*
X161573219Y-61533750D01*
X161568003Y-61512926D01*
X161564853Y-61491691D01*
X161563800Y-61470250D01*
X161563800Y-60957750D01*
X161564853Y-60936309D01*
X161568003Y-60915074D01*
X161573219Y-60894250D01*
X161580451Y-60874038D01*
X161589630Y-60854632D01*
X161600666Y-60836219D01*
X161613454Y-60818976D01*
X161627870Y-60803070D01*
X161643776Y-60788654D01*
X161661019Y-60775866D01*
X161679432Y-60764830D01*
X161698838Y-60755651D01*
X161719050Y-60748419D01*
X161739874Y-60743203D01*
X161761109Y-60740053D01*
X161782550Y-60739000D01*
X162220050Y-60739000D01*
X162241491Y-60740053D01*
G37*
G36*
X154773691Y-104043053D02*
G01*
X154794926Y-104046203D01*
X154815750Y-104051419D01*
X154835962Y-104058651D01*
X154855368Y-104067830D01*
X154873781Y-104078866D01*
X154891024Y-104091654D01*
X154906930Y-104106070D01*
X154921346Y-104121976D01*
X154934134Y-104139219D01*
X154945170Y-104157632D01*
X154954349Y-104177038D01*
X154961581Y-104197250D01*
X154966797Y-104218074D01*
X154969947Y-104239309D01*
X154971000Y-104260750D01*
X154971000Y-104773250D01*
X154969947Y-104794691D01*
X154966797Y-104815926D01*
X154961581Y-104836750D01*
X154954349Y-104856962D01*
X154945170Y-104876368D01*
X154934134Y-104894781D01*
X154921346Y-104912024D01*
X154906930Y-104927930D01*
X154891024Y-104942346D01*
X154873781Y-104955134D01*
X154855368Y-104966170D01*
X154835962Y-104975349D01*
X154815750Y-104982581D01*
X154794926Y-104987797D01*
X154773691Y-104990947D01*
X154752250Y-104992000D01*
X154314750Y-104992000D01*
X154293309Y-104990947D01*
X154272074Y-104987797D01*
X154251250Y-104982581D01*
X154231038Y-104975349D01*
X154211632Y-104966170D01*
X154193219Y-104955134D01*
X154175976Y-104942346D01*
X154160070Y-104927930D01*
X154145654Y-104912024D01*
X154132866Y-104894781D01*
X154121830Y-104876368D01*
X154112651Y-104856962D01*
X154105419Y-104836750D01*
X154100203Y-104815926D01*
X154097053Y-104794691D01*
X154096000Y-104773250D01*
X154096000Y-104260750D01*
X154097053Y-104239309D01*
X154100203Y-104218074D01*
X154105419Y-104197250D01*
X154112651Y-104177038D01*
X154121830Y-104157632D01*
X154132866Y-104139219D01*
X154145654Y-104121976D01*
X154160070Y-104106070D01*
X154175976Y-104091654D01*
X154193219Y-104078866D01*
X154211632Y-104067830D01*
X154231038Y-104058651D01*
X154251250Y-104051419D01*
X154272074Y-104046203D01*
X154293309Y-104043053D01*
X154314750Y-104042000D01*
X154752250Y-104042000D01*
X154773691Y-104043053D01*
G37*
G36*
X156348691Y-104043053D02*
G01*
X156369926Y-104046203D01*
X156390750Y-104051419D01*
X156410962Y-104058651D01*
X156430368Y-104067830D01*
X156448781Y-104078866D01*
X156466024Y-104091654D01*
X156481930Y-104106070D01*
X156496346Y-104121976D01*
X156509134Y-104139219D01*
X156520170Y-104157632D01*
X156529349Y-104177038D01*
X156536581Y-104197250D01*
X156541797Y-104218074D01*
X156544947Y-104239309D01*
X156546000Y-104260750D01*
X156546000Y-104773250D01*
X156544947Y-104794691D01*
X156541797Y-104815926D01*
X156536581Y-104836750D01*
X156529349Y-104856962D01*
X156520170Y-104876368D01*
X156509134Y-104894781D01*
X156496346Y-104912024D01*
X156481930Y-104927930D01*
X156466024Y-104942346D01*
X156448781Y-104955134D01*
X156430368Y-104966170D01*
X156410962Y-104975349D01*
X156390750Y-104982581D01*
X156369926Y-104987797D01*
X156348691Y-104990947D01*
X156327250Y-104992000D01*
X155889750Y-104992000D01*
X155868309Y-104990947D01*
X155847074Y-104987797D01*
X155826250Y-104982581D01*
X155806038Y-104975349D01*
X155786632Y-104966170D01*
X155768219Y-104955134D01*
X155750976Y-104942346D01*
X155735070Y-104927930D01*
X155720654Y-104912024D01*
X155707866Y-104894781D01*
X155696830Y-104876368D01*
X155687651Y-104856962D01*
X155680419Y-104836750D01*
X155675203Y-104815926D01*
X155672053Y-104794691D01*
X155671000Y-104773250D01*
X155671000Y-104260750D01*
X155672053Y-104239309D01*
X155675203Y-104218074D01*
X155680419Y-104197250D01*
X155687651Y-104177038D01*
X155696830Y-104157632D01*
X155707866Y-104139219D01*
X155720654Y-104121976D01*
X155735070Y-104106070D01*
X155750976Y-104091654D01*
X155768219Y-104078866D01*
X155786632Y-104067830D01*
X155806038Y-104058651D01*
X155826250Y-104051419D01*
X155847074Y-104046203D01*
X155868309Y-104043053D01*
X155889750Y-104042000D01*
X156327250Y-104042000D01*
X156348691Y-104043053D01*
G37*
D17*
X152400000Y-66294000D03*
D18*
X150400000Y-65044000D03*
X150400000Y-65544000D03*
X150400000Y-66044000D03*
X150400000Y-66544000D03*
X150400000Y-67044000D03*
X150400000Y-67544000D03*
D19*
X151150000Y-68294000D03*
X151650000Y-68294000D03*
X152150000Y-68294000D03*
X152650000Y-68294000D03*
X153150000Y-68294000D03*
X153650000Y-68294000D03*
D18*
X154400000Y-67544000D03*
X154400000Y-67044000D03*
X154400000Y-66544000D03*
X154400000Y-66044000D03*
X154400000Y-65544000D03*
X154400000Y-65044000D03*
D19*
X153650000Y-64294000D03*
X153150000Y-64294000D03*
X152650000Y-64294000D03*
X152150000Y-64294000D03*
X151650000Y-64294000D03*
X151150000Y-64294000D03*
D15*
G36*
X164488691Y-99065249D02*
G01*
X164509926Y-99068399D01*
X164530750Y-99073615D01*
X164550962Y-99080847D01*
X164570368Y-99090026D01*
X164588781Y-99101062D01*
X164606024Y-99113850D01*
X164621930Y-99128266D01*
X164636346Y-99144172D01*
X164649134Y-99161415D01*
X164660170Y-99179828D01*
X164669349Y-99199234D01*
X164676581Y-99219446D01*
X164681797Y-99240270D01*
X164684947Y-99261505D01*
X164686000Y-99282946D01*
X164686000Y-99720446D01*
X164684947Y-99741887D01*
X164681797Y-99763122D01*
X164676581Y-99783946D01*
X164669349Y-99804158D01*
X164660170Y-99823564D01*
X164649134Y-99841977D01*
X164636346Y-99859220D01*
X164621930Y-99875126D01*
X164606024Y-99889542D01*
X164588781Y-99902330D01*
X164570368Y-99913366D01*
X164550962Y-99922545D01*
X164530750Y-99929777D01*
X164509926Y-99934993D01*
X164488691Y-99938143D01*
X164467250Y-99939196D01*
X163954750Y-99939196D01*
X163933309Y-99938143D01*
X163912074Y-99934993D01*
X163891250Y-99929777D01*
X163871038Y-99922545D01*
X163851632Y-99913366D01*
X163833219Y-99902330D01*
X163815976Y-99889542D01*
X163800070Y-99875126D01*
X163785654Y-99859220D01*
X163772866Y-99841977D01*
X163761830Y-99823564D01*
X163752651Y-99804158D01*
X163745419Y-99783946D01*
X163740203Y-99763122D01*
X163737053Y-99741887D01*
X163736000Y-99720446D01*
X163736000Y-99282946D01*
X163737053Y-99261505D01*
X163740203Y-99240270D01*
X163745419Y-99219446D01*
X163752651Y-99199234D01*
X163761830Y-99179828D01*
X163772866Y-99161415D01*
X163785654Y-99144172D01*
X163800070Y-99128266D01*
X163815976Y-99113850D01*
X163833219Y-99101062D01*
X163851632Y-99090026D01*
X163871038Y-99080847D01*
X163891250Y-99073615D01*
X163912074Y-99068399D01*
X163933309Y-99065249D01*
X163954750Y-99064196D01*
X164467250Y-99064196D01*
X164488691Y-99065249D01*
G37*
G36*
X164488691Y-100640249D02*
G01*
X164509926Y-100643399D01*
X164530750Y-100648615D01*
X164550962Y-100655847D01*
X164570368Y-100665026D01*
X164588781Y-100676062D01*
X164606024Y-100688850D01*
X164621930Y-100703266D01*
X164636346Y-100719172D01*
X164649134Y-100736415D01*
X164660170Y-100754828D01*
X164669349Y-100774234D01*
X164676581Y-100794446D01*
X164681797Y-100815270D01*
X164684947Y-100836505D01*
X164686000Y-100857946D01*
X164686000Y-101295446D01*
X164684947Y-101316887D01*
X164681797Y-101338122D01*
X164676581Y-101358946D01*
X164669349Y-101379158D01*
X164660170Y-101398564D01*
X164649134Y-101416977D01*
X164636346Y-101434220D01*
X164621930Y-101450126D01*
X164606024Y-101464542D01*
X164588781Y-101477330D01*
X164570368Y-101488366D01*
X164550962Y-101497545D01*
X164530750Y-101504777D01*
X164509926Y-101509993D01*
X164488691Y-101513143D01*
X164467250Y-101514196D01*
X163954750Y-101514196D01*
X163933309Y-101513143D01*
X163912074Y-101509993D01*
X163891250Y-101504777D01*
X163871038Y-101497545D01*
X163851632Y-101488366D01*
X163833219Y-101477330D01*
X163815976Y-101464542D01*
X163800070Y-101450126D01*
X163785654Y-101434220D01*
X163772866Y-101416977D01*
X163761830Y-101398564D01*
X163752651Y-101379158D01*
X163745419Y-101358946D01*
X163740203Y-101338122D01*
X163737053Y-101316887D01*
X163736000Y-101295446D01*
X163736000Y-100857946D01*
X163737053Y-100836505D01*
X163740203Y-100815270D01*
X163745419Y-100794446D01*
X163752651Y-100774234D01*
X163761830Y-100754828D01*
X163772866Y-100736415D01*
X163785654Y-100719172D01*
X163800070Y-100703266D01*
X163815976Y-100688850D01*
X163833219Y-100676062D01*
X163851632Y-100665026D01*
X163871038Y-100655847D01*
X163891250Y-100648615D01*
X163912074Y-100643399D01*
X163933309Y-100640249D01*
X163954750Y-100639196D01*
X164467250Y-100639196D01*
X164488691Y-100640249D01*
G37*
G36*
X166647691Y-99067953D02*
G01*
X166668926Y-99071103D01*
X166689750Y-99076319D01*
X166709962Y-99083551D01*
X166729368Y-99092730D01*
X166747781Y-99103766D01*
X166765024Y-99116554D01*
X166780930Y-99130970D01*
X166795346Y-99146876D01*
X166808134Y-99164119D01*
X166819170Y-99182532D01*
X166828349Y-99201938D01*
X166835581Y-99222150D01*
X166840797Y-99242974D01*
X166843947Y-99264209D01*
X166845000Y-99285650D01*
X166845000Y-99723150D01*
X166843947Y-99744591D01*
X166840797Y-99765826D01*
X166835581Y-99786650D01*
X166828349Y-99806862D01*
X166819170Y-99826268D01*
X166808134Y-99844681D01*
X166795346Y-99861924D01*
X166780930Y-99877830D01*
X166765024Y-99892246D01*
X166747781Y-99905034D01*
X166729368Y-99916070D01*
X166709962Y-99925249D01*
X166689750Y-99932481D01*
X166668926Y-99937697D01*
X166647691Y-99940847D01*
X166626250Y-99941900D01*
X166113750Y-99941900D01*
X166092309Y-99940847D01*
X166071074Y-99937697D01*
X166050250Y-99932481D01*
X166030038Y-99925249D01*
X166010632Y-99916070D01*
X165992219Y-99905034D01*
X165974976Y-99892246D01*
X165959070Y-99877830D01*
X165944654Y-99861924D01*
X165931866Y-99844681D01*
X165920830Y-99826268D01*
X165911651Y-99806862D01*
X165904419Y-99786650D01*
X165899203Y-99765826D01*
X165896053Y-99744591D01*
X165895000Y-99723150D01*
X165895000Y-99285650D01*
X165896053Y-99264209D01*
X165899203Y-99242974D01*
X165904419Y-99222150D01*
X165911651Y-99201938D01*
X165920830Y-99182532D01*
X165931866Y-99164119D01*
X165944654Y-99146876D01*
X165959070Y-99130970D01*
X165974976Y-99116554D01*
X165992219Y-99103766D01*
X166010632Y-99092730D01*
X166030038Y-99083551D01*
X166050250Y-99076319D01*
X166071074Y-99071103D01*
X166092309Y-99067953D01*
X166113750Y-99066900D01*
X166626250Y-99066900D01*
X166647691Y-99067953D01*
G37*
G36*
X166647691Y-100642953D02*
G01*
X166668926Y-100646103D01*
X166689750Y-100651319D01*
X166709962Y-100658551D01*
X166729368Y-100667730D01*
X166747781Y-100678766D01*
X166765024Y-100691554D01*
X166780930Y-100705970D01*
X166795346Y-100721876D01*
X166808134Y-100739119D01*
X166819170Y-100757532D01*
X166828349Y-100776938D01*
X166835581Y-100797150D01*
X166840797Y-100817974D01*
X166843947Y-100839209D01*
X166845000Y-100860650D01*
X166845000Y-101298150D01*
X166843947Y-101319591D01*
X166840797Y-101340826D01*
X166835581Y-101361650D01*
X166828349Y-101381862D01*
X166819170Y-101401268D01*
X166808134Y-101419681D01*
X166795346Y-101436924D01*
X166780930Y-101452830D01*
X166765024Y-101467246D01*
X166747781Y-101480034D01*
X166729368Y-101491070D01*
X166709962Y-101500249D01*
X166689750Y-101507481D01*
X166668926Y-101512697D01*
X166647691Y-101515847D01*
X166626250Y-101516900D01*
X166113750Y-101516900D01*
X166092309Y-101515847D01*
X166071074Y-101512697D01*
X166050250Y-101507481D01*
X166030038Y-101500249D01*
X166010632Y-101491070D01*
X165992219Y-101480034D01*
X165974976Y-101467246D01*
X165959070Y-101452830D01*
X165944654Y-101436924D01*
X165931866Y-101419681D01*
X165920830Y-101401268D01*
X165911651Y-101381862D01*
X165904419Y-101361650D01*
X165899203Y-101340826D01*
X165896053Y-101319591D01*
X165895000Y-101298150D01*
X165895000Y-100860650D01*
X165896053Y-100839209D01*
X165899203Y-100817974D01*
X165904419Y-100797150D01*
X165911651Y-100776938D01*
X165920830Y-100757532D01*
X165931866Y-100739119D01*
X165944654Y-100721876D01*
X165959070Y-100705970D01*
X165974976Y-100691554D01*
X165992219Y-100678766D01*
X166010632Y-100667730D01*
X166030038Y-100658551D01*
X166050250Y-100651319D01*
X166071074Y-100646103D01*
X166092309Y-100642953D01*
X166113750Y-100641900D01*
X166626250Y-100641900D01*
X166647691Y-100642953D01*
G37*
G36*
X136282691Y-101253053D02*
G01*
X136303926Y-101256203D01*
X136324750Y-101261419D01*
X136344962Y-101268651D01*
X136364368Y-101277830D01*
X136382781Y-101288866D01*
X136400024Y-101301654D01*
X136415930Y-101316070D01*
X136430346Y-101331976D01*
X136443134Y-101349219D01*
X136454170Y-101367632D01*
X136463349Y-101387038D01*
X136470581Y-101407250D01*
X136475797Y-101428074D01*
X136478947Y-101449309D01*
X136480000Y-101470750D01*
X136480000Y-101983250D01*
X136478947Y-102004691D01*
X136475797Y-102025926D01*
X136470581Y-102046750D01*
X136463349Y-102066962D01*
X136454170Y-102086368D01*
X136443134Y-102104781D01*
X136430346Y-102122024D01*
X136415930Y-102137930D01*
X136400024Y-102152346D01*
X136382781Y-102165134D01*
X136364368Y-102176170D01*
X136344962Y-102185349D01*
X136324750Y-102192581D01*
X136303926Y-102197797D01*
X136282691Y-102200947D01*
X136261250Y-102202000D01*
X135823750Y-102202000D01*
X135802309Y-102200947D01*
X135781074Y-102197797D01*
X135760250Y-102192581D01*
X135740038Y-102185349D01*
X135720632Y-102176170D01*
X135702219Y-102165134D01*
X135684976Y-102152346D01*
X135669070Y-102137930D01*
X135654654Y-102122024D01*
X135641866Y-102104781D01*
X135630830Y-102086368D01*
X135621651Y-102066962D01*
X135614419Y-102046750D01*
X135609203Y-102025926D01*
X135606053Y-102004691D01*
X135605000Y-101983250D01*
X135605000Y-101470750D01*
X135606053Y-101449309D01*
X135609203Y-101428074D01*
X135614419Y-101407250D01*
X135621651Y-101387038D01*
X135630830Y-101367632D01*
X135641866Y-101349219D01*
X135654654Y-101331976D01*
X135669070Y-101316070D01*
X135684976Y-101301654D01*
X135702219Y-101288866D01*
X135720632Y-101277830D01*
X135740038Y-101268651D01*
X135760250Y-101261419D01*
X135781074Y-101256203D01*
X135802309Y-101253053D01*
X135823750Y-101252000D01*
X136261250Y-101252000D01*
X136282691Y-101253053D01*
G37*
G36*
X134707691Y-101253053D02*
G01*
X134728926Y-101256203D01*
X134749750Y-101261419D01*
X134769962Y-101268651D01*
X134789368Y-101277830D01*
X134807781Y-101288866D01*
X134825024Y-101301654D01*
X134840930Y-101316070D01*
X134855346Y-101331976D01*
X134868134Y-101349219D01*
X134879170Y-101367632D01*
X134888349Y-101387038D01*
X134895581Y-101407250D01*
X134900797Y-101428074D01*
X134903947Y-101449309D01*
X134905000Y-101470750D01*
X134905000Y-101983250D01*
X134903947Y-102004691D01*
X134900797Y-102025926D01*
X134895581Y-102046750D01*
X134888349Y-102066962D01*
X134879170Y-102086368D01*
X134868134Y-102104781D01*
X134855346Y-102122024D01*
X134840930Y-102137930D01*
X134825024Y-102152346D01*
X134807781Y-102165134D01*
X134789368Y-102176170D01*
X134769962Y-102185349D01*
X134749750Y-102192581D01*
X134728926Y-102197797D01*
X134707691Y-102200947D01*
X134686250Y-102202000D01*
X134248750Y-102202000D01*
X134227309Y-102200947D01*
X134206074Y-102197797D01*
X134185250Y-102192581D01*
X134165038Y-102185349D01*
X134145632Y-102176170D01*
X134127219Y-102165134D01*
X134109976Y-102152346D01*
X134094070Y-102137930D01*
X134079654Y-102122024D01*
X134066866Y-102104781D01*
X134055830Y-102086368D01*
X134046651Y-102066962D01*
X134039419Y-102046750D01*
X134034203Y-102025926D01*
X134031053Y-102004691D01*
X134030000Y-101983250D01*
X134030000Y-101470750D01*
X134031053Y-101449309D01*
X134034203Y-101428074D01*
X134039419Y-101407250D01*
X134046651Y-101387038D01*
X134055830Y-101367632D01*
X134066866Y-101349219D01*
X134079654Y-101331976D01*
X134094070Y-101316070D01*
X134109976Y-101301654D01*
X134127219Y-101288866D01*
X134145632Y-101277830D01*
X134165038Y-101268651D01*
X134185250Y-101261419D01*
X134206074Y-101256203D01*
X134227309Y-101253053D01*
X134248750Y-101252000D01*
X134686250Y-101252000D01*
X134707691Y-101253053D01*
G37*
G36*
X149084291Y-61324253D02*
G01*
X149105526Y-61327403D01*
X149126350Y-61332619D01*
X149146562Y-61339851D01*
X149165968Y-61349030D01*
X149184381Y-61360066D01*
X149201624Y-61372854D01*
X149217530Y-61387270D01*
X149231946Y-61403176D01*
X149244734Y-61420419D01*
X149255770Y-61438832D01*
X149264949Y-61458238D01*
X149272181Y-61478450D01*
X149277397Y-61499274D01*
X149280547Y-61520509D01*
X149281600Y-61541950D01*
X149281600Y-62054450D01*
X149280547Y-62075891D01*
X149277397Y-62097126D01*
X149272181Y-62117950D01*
X149264949Y-62138162D01*
X149255770Y-62157568D01*
X149244734Y-62175981D01*
X149231946Y-62193224D01*
X149217530Y-62209130D01*
X149201624Y-62223546D01*
X149184381Y-62236334D01*
X149165968Y-62247370D01*
X149146562Y-62256549D01*
X149126350Y-62263781D01*
X149105526Y-62268997D01*
X149084291Y-62272147D01*
X149062850Y-62273200D01*
X148625350Y-62273200D01*
X148603909Y-62272147D01*
X148582674Y-62268997D01*
X148561850Y-62263781D01*
X148541638Y-62256549D01*
X148522232Y-62247370D01*
X148503819Y-62236334D01*
X148486576Y-62223546D01*
X148470670Y-62209130D01*
X148456254Y-62193224D01*
X148443466Y-62175981D01*
X148432430Y-62157568D01*
X148423251Y-62138162D01*
X148416019Y-62117950D01*
X148410803Y-62097126D01*
X148407653Y-62075891D01*
X148406600Y-62054450D01*
X148406600Y-61541950D01*
X148407653Y-61520509D01*
X148410803Y-61499274D01*
X148416019Y-61478450D01*
X148423251Y-61458238D01*
X148432430Y-61438832D01*
X148443466Y-61420419D01*
X148456254Y-61403176D01*
X148470670Y-61387270D01*
X148486576Y-61372854D01*
X148503819Y-61360066D01*
X148522232Y-61349030D01*
X148541638Y-61339851D01*
X148561850Y-61332619D01*
X148582674Y-61327403D01*
X148603909Y-61324253D01*
X148625350Y-61323200D01*
X149062850Y-61323200D01*
X149084291Y-61324253D01*
G37*
G36*
X147509291Y-61324253D02*
G01*
X147530526Y-61327403D01*
X147551350Y-61332619D01*
X147571562Y-61339851D01*
X147590968Y-61349030D01*
X147609381Y-61360066D01*
X147626624Y-61372854D01*
X147642530Y-61387270D01*
X147656946Y-61403176D01*
X147669734Y-61420419D01*
X147680770Y-61438832D01*
X147689949Y-61458238D01*
X147697181Y-61478450D01*
X147702397Y-61499274D01*
X147705547Y-61520509D01*
X147706600Y-61541950D01*
X147706600Y-62054450D01*
X147705547Y-62075891D01*
X147702397Y-62097126D01*
X147697181Y-62117950D01*
X147689949Y-62138162D01*
X147680770Y-62157568D01*
X147669734Y-62175981D01*
X147656946Y-62193224D01*
X147642530Y-62209130D01*
X147626624Y-62223546D01*
X147609381Y-62236334D01*
X147590968Y-62247370D01*
X147571562Y-62256549D01*
X147551350Y-62263781D01*
X147530526Y-62268997D01*
X147509291Y-62272147D01*
X147487850Y-62273200D01*
X147050350Y-62273200D01*
X147028909Y-62272147D01*
X147007674Y-62268997D01*
X146986850Y-62263781D01*
X146966638Y-62256549D01*
X146947232Y-62247370D01*
X146928819Y-62236334D01*
X146911576Y-62223546D01*
X146895670Y-62209130D01*
X146881254Y-62193224D01*
X146868466Y-62175981D01*
X146857430Y-62157568D01*
X146848251Y-62138162D01*
X146841019Y-62117950D01*
X146835803Y-62097126D01*
X146832653Y-62075891D01*
X146831600Y-62054450D01*
X146831600Y-61541950D01*
X146832653Y-61520509D01*
X146835803Y-61499274D01*
X146841019Y-61478450D01*
X146848251Y-61458238D01*
X146857430Y-61438832D01*
X146868466Y-61420419D01*
X146881254Y-61403176D01*
X146895670Y-61387270D01*
X146911576Y-61372854D01*
X146928819Y-61360066D01*
X146947232Y-61349030D01*
X146966638Y-61339851D01*
X146986850Y-61332619D01*
X147007674Y-61327403D01*
X147028909Y-61324253D01*
X147050350Y-61323200D01*
X147487850Y-61323200D01*
X147509291Y-61324253D01*
G37*
G36*
X147509291Y-62619653D02*
G01*
X147530526Y-62622803D01*
X147551350Y-62628019D01*
X147571562Y-62635251D01*
X147590968Y-62644430D01*
X147609381Y-62655466D01*
X147626624Y-62668254D01*
X147642530Y-62682670D01*
X147656946Y-62698576D01*
X147669734Y-62715819D01*
X147680770Y-62734232D01*
X147689949Y-62753638D01*
X147697181Y-62773850D01*
X147702397Y-62794674D01*
X147705547Y-62815909D01*
X147706600Y-62837350D01*
X147706600Y-63349850D01*
X147705547Y-63371291D01*
X147702397Y-63392526D01*
X147697181Y-63413350D01*
X147689949Y-63433562D01*
X147680770Y-63452968D01*
X147669734Y-63471381D01*
X147656946Y-63488624D01*
X147642530Y-63504530D01*
X147626624Y-63518946D01*
X147609381Y-63531734D01*
X147590968Y-63542770D01*
X147571562Y-63551949D01*
X147551350Y-63559181D01*
X147530526Y-63564397D01*
X147509291Y-63567547D01*
X147487850Y-63568600D01*
X147050350Y-63568600D01*
X147028909Y-63567547D01*
X147007674Y-63564397D01*
X146986850Y-63559181D01*
X146966638Y-63551949D01*
X146947232Y-63542770D01*
X146928819Y-63531734D01*
X146911576Y-63518946D01*
X146895670Y-63504530D01*
X146881254Y-63488624D01*
X146868466Y-63471381D01*
X146857430Y-63452968D01*
X146848251Y-63433562D01*
X146841019Y-63413350D01*
X146835803Y-63392526D01*
X146832653Y-63371291D01*
X146831600Y-63349850D01*
X146831600Y-62837350D01*
X146832653Y-62815909D01*
X146835803Y-62794674D01*
X146841019Y-62773850D01*
X146848251Y-62753638D01*
X146857430Y-62734232D01*
X146868466Y-62715819D01*
X146881254Y-62698576D01*
X146895670Y-62682670D01*
X146911576Y-62668254D01*
X146928819Y-62655466D01*
X146947232Y-62644430D01*
X146966638Y-62635251D01*
X146986850Y-62628019D01*
X147007674Y-62622803D01*
X147028909Y-62619653D01*
X147050350Y-62618600D01*
X147487850Y-62618600D01*
X147509291Y-62619653D01*
G37*
G36*
X149084291Y-62619653D02*
G01*
X149105526Y-62622803D01*
X149126350Y-62628019D01*
X149146562Y-62635251D01*
X149165968Y-62644430D01*
X149184381Y-62655466D01*
X149201624Y-62668254D01*
X149217530Y-62682670D01*
X149231946Y-62698576D01*
X149244734Y-62715819D01*
X149255770Y-62734232D01*
X149264949Y-62753638D01*
X149272181Y-62773850D01*
X149277397Y-62794674D01*
X149280547Y-62815909D01*
X149281600Y-62837350D01*
X149281600Y-63349850D01*
X149280547Y-63371291D01*
X149277397Y-63392526D01*
X149272181Y-63413350D01*
X149264949Y-63433562D01*
X149255770Y-63452968D01*
X149244734Y-63471381D01*
X149231946Y-63488624D01*
X149217530Y-63504530D01*
X149201624Y-63518946D01*
X149184381Y-63531734D01*
X149165968Y-63542770D01*
X149146562Y-63551949D01*
X149126350Y-63559181D01*
X149105526Y-63564397D01*
X149084291Y-63567547D01*
X149062850Y-63568600D01*
X148625350Y-63568600D01*
X148603909Y-63567547D01*
X148582674Y-63564397D01*
X148561850Y-63559181D01*
X148541638Y-63551949D01*
X148522232Y-63542770D01*
X148503819Y-63531734D01*
X148486576Y-63518946D01*
X148470670Y-63504530D01*
X148456254Y-63488624D01*
X148443466Y-63471381D01*
X148432430Y-63452968D01*
X148423251Y-63433562D01*
X148416019Y-63413350D01*
X148410803Y-63392526D01*
X148407653Y-63371291D01*
X148406600Y-63349850D01*
X148406600Y-62837350D01*
X148407653Y-62815909D01*
X148410803Y-62794674D01*
X148416019Y-62773850D01*
X148423251Y-62753638D01*
X148432430Y-62734232D01*
X148443466Y-62715819D01*
X148456254Y-62698576D01*
X148470670Y-62682670D01*
X148486576Y-62668254D01*
X148503819Y-62655466D01*
X148522232Y-62644430D01*
X148541638Y-62635251D01*
X148561850Y-62628019D01*
X148582674Y-62622803D01*
X148603909Y-62619653D01*
X148625350Y-62618600D01*
X149062850Y-62618600D01*
X149084291Y-62619653D01*
G37*
G36*
X158507691Y-64804053D02*
G01*
X158528926Y-64807203D01*
X158549750Y-64812419D01*
X158569962Y-64819651D01*
X158589368Y-64828830D01*
X158607781Y-64839866D01*
X158625024Y-64852654D01*
X158640930Y-64867070D01*
X158655346Y-64882976D01*
X158668134Y-64900219D01*
X158679170Y-64918632D01*
X158688349Y-64938038D01*
X158695581Y-64958250D01*
X158700797Y-64979074D01*
X158703947Y-65000309D01*
X158705000Y-65021750D01*
X158705000Y-65534250D01*
X158703947Y-65555691D01*
X158700797Y-65576926D01*
X158695581Y-65597750D01*
X158688349Y-65617962D01*
X158679170Y-65637368D01*
X158668134Y-65655781D01*
X158655346Y-65673024D01*
X158640930Y-65688930D01*
X158625024Y-65703346D01*
X158607781Y-65716134D01*
X158589368Y-65727170D01*
X158569962Y-65736349D01*
X158549750Y-65743581D01*
X158528926Y-65748797D01*
X158507691Y-65751947D01*
X158486250Y-65753000D01*
X158048750Y-65753000D01*
X158027309Y-65751947D01*
X158006074Y-65748797D01*
X157985250Y-65743581D01*
X157965038Y-65736349D01*
X157945632Y-65727170D01*
X157927219Y-65716134D01*
X157909976Y-65703346D01*
X157894070Y-65688930D01*
X157879654Y-65673024D01*
X157866866Y-65655781D01*
X157855830Y-65637368D01*
X157846651Y-65617962D01*
X157839419Y-65597750D01*
X157834203Y-65576926D01*
X157831053Y-65555691D01*
X157830000Y-65534250D01*
X157830000Y-65021750D01*
X157831053Y-65000309D01*
X157834203Y-64979074D01*
X157839419Y-64958250D01*
X157846651Y-64938038D01*
X157855830Y-64918632D01*
X157866866Y-64900219D01*
X157879654Y-64882976D01*
X157894070Y-64867070D01*
X157909976Y-64852654D01*
X157927219Y-64839866D01*
X157945632Y-64828830D01*
X157965038Y-64819651D01*
X157985250Y-64812419D01*
X158006074Y-64807203D01*
X158027309Y-64804053D01*
X158048750Y-64803000D01*
X158486250Y-64803000D01*
X158507691Y-64804053D01*
G37*
G36*
X156932691Y-64804053D02*
G01*
X156953926Y-64807203D01*
X156974750Y-64812419D01*
X156994962Y-64819651D01*
X157014368Y-64828830D01*
X157032781Y-64839866D01*
X157050024Y-64852654D01*
X157065930Y-64867070D01*
X157080346Y-64882976D01*
X157093134Y-64900219D01*
X157104170Y-64918632D01*
X157113349Y-64938038D01*
X157120581Y-64958250D01*
X157125797Y-64979074D01*
X157128947Y-65000309D01*
X157130000Y-65021750D01*
X157130000Y-65534250D01*
X157128947Y-65555691D01*
X157125797Y-65576926D01*
X157120581Y-65597750D01*
X157113349Y-65617962D01*
X157104170Y-65637368D01*
X157093134Y-65655781D01*
X157080346Y-65673024D01*
X157065930Y-65688930D01*
X157050024Y-65703346D01*
X157032781Y-65716134D01*
X157014368Y-65727170D01*
X156994962Y-65736349D01*
X156974750Y-65743581D01*
X156953926Y-65748797D01*
X156932691Y-65751947D01*
X156911250Y-65753000D01*
X156473750Y-65753000D01*
X156452309Y-65751947D01*
X156431074Y-65748797D01*
X156410250Y-65743581D01*
X156390038Y-65736349D01*
X156370632Y-65727170D01*
X156352219Y-65716134D01*
X156334976Y-65703346D01*
X156319070Y-65688930D01*
X156304654Y-65673024D01*
X156291866Y-65655781D01*
X156280830Y-65637368D01*
X156271651Y-65617962D01*
X156264419Y-65597750D01*
X156259203Y-65576926D01*
X156256053Y-65555691D01*
X156255000Y-65534250D01*
X156255000Y-65021750D01*
X156256053Y-65000309D01*
X156259203Y-64979074D01*
X156264419Y-64958250D01*
X156271651Y-64938038D01*
X156280830Y-64918632D01*
X156291866Y-64900219D01*
X156304654Y-64882976D01*
X156319070Y-64867070D01*
X156334976Y-64852654D01*
X156352219Y-64839866D01*
X156370632Y-64828830D01*
X156390038Y-64819651D01*
X156410250Y-64812419D01*
X156431074Y-64807203D01*
X156452309Y-64804053D01*
X156473750Y-64803000D01*
X156911250Y-64803000D01*
X156932691Y-64804053D01*
G37*
G36*
X162241491Y-62467253D02*
G01*
X162262726Y-62470403D01*
X162283550Y-62475619D01*
X162303762Y-62482851D01*
X162323168Y-62492030D01*
X162341581Y-62503066D01*
X162358824Y-62515854D01*
X162374730Y-62530270D01*
X162389146Y-62546176D01*
X162401934Y-62563419D01*
X162412970Y-62581832D01*
X162422149Y-62601238D01*
X162429381Y-62621450D01*
X162434597Y-62642274D01*
X162437747Y-62663509D01*
X162438800Y-62684950D01*
X162438800Y-63197450D01*
X162437747Y-63218891D01*
X162434597Y-63240126D01*
X162429381Y-63260950D01*
X162422149Y-63281162D01*
X162412970Y-63300568D01*
X162401934Y-63318981D01*
X162389146Y-63336224D01*
X162374730Y-63352130D01*
X162358824Y-63366546D01*
X162341581Y-63379334D01*
X162323168Y-63390370D01*
X162303762Y-63399549D01*
X162283550Y-63406781D01*
X162262726Y-63411997D01*
X162241491Y-63415147D01*
X162220050Y-63416200D01*
X161782550Y-63416200D01*
X161761109Y-63415147D01*
X161739874Y-63411997D01*
X161719050Y-63406781D01*
X161698838Y-63399549D01*
X161679432Y-63390370D01*
X161661019Y-63379334D01*
X161643776Y-63366546D01*
X161627870Y-63352130D01*
X161613454Y-63336224D01*
X161600666Y-63318981D01*
X161589630Y-63300568D01*
X161580451Y-63281162D01*
X161573219Y-63260950D01*
X161568003Y-63240126D01*
X161564853Y-63218891D01*
X161563800Y-63197450D01*
X161563800Y-62684950D01*
X161564853Y-62663509D01*
X161568003Y-62642274D01*
X161573219Y-62621450D01*
X161580451Y-62601238D01*
X161589630Y-62581832D01*
X161600666Y-62563419D01*
X161613454Y-62546176D01*
X161627870Y-62530270D01*
X161643776Y-62515854D01*
X161661019Y-62503066D01*
X161679432Y-62492030D01*
X161698838Y-62482851D01*
X161719050Y-62475619D01*
X161739874Y-62470403D01*
X161761109Y-62467253D01*
X161782550Y-62466200D01*
X162220050Y-62466200D01*
X162241491Y-62467253D01*
G37*
G36*
X160666491Y-62467253D02*
G01*
X160687726Y-62470403D01*
X160708550Y-62475619D01*
X160728762Y-62482851D01*
X160748168Y-62492030D01*
X160766581Y-62503066D01*
X160783824Y-62515854D01*
X160799730Y-62530270D01*
X160814146Y-62546176D01*
X160826934Y-62563419D01*
X160837970Y-62581832D01*
X160847149Y-62601238D01*
X160854381Y-62621450D01*
X160859597Y-62642274D01*
X160862747Y-62663509D01*
X160863800Y-62684950D01*
X160863800Y-63197450D01*
X160862747Y-63218891D01*
X160859597Y-63240126D01*
X160854381Y-63260950D01*
X160847149Y-63281162D01*
X160837970Y-63300568D01*
X160826934Y-63318981D01*
X160814146Y-63336224D01*
X160799730Y-63352130D01*
X160783824Y-63366546D01*
X160766581Y-63379334D01*
X160748168Y-63390370D01*
X160728762Y-63399549D01*
X160708550Y-63406781D01*
X160687726Y-63411997D01*
X160666491Y-63415147D01*
X160645050Y-63416200D01*
X160207550Y-63416200D01*
X160186109Y-63415147D01*
X160164874Y-63411997D01*
X160144050Y-63406781D01*
X160123838Y-63399549D01*
X160104432Y-63390370D01*
X160086019Y-63379334D01*
X160068776Y-63366546D01*
X160052870Y-63352130D01*
X160038454Y-63336224D01*
X160025666Y-63318981D01*
X160014630Y-63300568D01*
X160005451Y-63281162D01*
X159998219Y-63260950D01*
X159993003Y-63240126D01*
X159989853Y-63218891D01*
X159988800Y-63197450D01*
X159988800Y-62684950D01*
X159989853Y-62663509D01*
X159993003Y-62642274D01*
X159998219Y-62621450D01*
X160005451Y-62601238D01*
X160014630Y-62581832D01*
X160025666Y-62563419D01*
X160038454Y-62546176D01*
X160052870Y-62530270D01*
X160068776Y-62515854D01*
X160086019Y-62503066D01*
X160104432Y-62492030D01*
X160123838Y-62482851D01*
X160144050Y-62475619D01*
X160164874Y-62470403D01*
X160186109Y-62467253D01*
X160207550Y-62466200D01*
X160645050Y-62466200D01*
X160666491Y-62467253D01*
G37*
G36*
X156932691Y-62467253D02*
G01*
X156953926Y-62470403D01*
X156974750Y-62475619D01*
X156994962Y-62482851D01*
X157014368Y-62492030D01*
X157032781Y-62503066D01*
X157050024Y-62515854D01*
X157065930Y-62530270D01*
X157080346Y-62546176D01*
X157093134Y-62563419D01*
X157104170Y-62581832D01*
X157113349Y-62601238D01*
X157120581Y-62621450D01*
X157125797Y-62642274D01*
X157128947Y-62663509D01*
X157130000Y-62684950D01*
X157130000Y-63197450D01*
X157128947Y-63218891D01*
X157125797Y-63240126D01*
X157120581Y-63260950D01*
X157113349Y-63281162D01*
X157104170Y-63300568D01*
X157093134Y-63318981D01*
X157080346Y-63336224D01*
X157065930Y-63352130D01*
X157050024Y-63366546D01*
X157032781Y-63379334D01*
X157014368Y-63390370D01*
X156994962Y-63399549D01*
X156974750Y-63406781D01*
X156953926Y-63411997D01*
X156932691Y-63415147D01*
X156911250Y-63416200D01*
X156473750Y-63416200D01*
X156452309Y-63415147D01*
X156431074Y-63411997D01*
X156410250Y-63406781D01*
X156390038Y-63399549D01*
X156370632Y-63390370D01*
X156352219Y-63379334D01*
X156334976Y-63366546D01*
X156319070Y-63352130D01*
X156304654Y-63336224D01*
X156291866Y-63318981D01*
X156280830Y-63300568D01*
X156271651Y-63281162D01*
X156264419Y-63260950D01*
X156259203Y-63240126D01*
X156256053Y-63218891D01*
X156255000Y-63197450D01*
X156255000Y-62684950D01*
X156256053Y-62663509D01*
X156259203Y-62642274D01*
X156264419Y-62621450D01*
X156271651Y-62601238D01*
X156280830Y-62581832D01*
X156291866Y-62563419D01*
X156304654Y-62546176D01*
X156319070Y-62530270D01*
X156334976Y-62515854D01*
X156352219Y-62503066D01*
X156370632Y-62492030D01*
X156390038Y-62482851D01*
X156410250Y-62475619D01*
X156431074Y-62470403D01*
X156452309Y-62467253D01*
X156473750Y-62466200D01*
X156911250Y-62466200D01*
X156932691Y-62467253D01*
G37*
G36*
X158507691Y-62467253D02*
G01*
X158528926Y-62470403D01*
X158549750Y-62475619D01*
X158569962Y-62482851D01*
X158589368Y-62492030D01*
X158607781Y-62503066D01*
X158625024Y-62515854D01*
X158640930Y-62530270D01*
X158655346Y-62546176D01*
X158668134Y-62563419D01*
X158679170Y-62581832D01*
X158688349Y-62601238D01*
X158695581Y-62621450D01*
X158700797Y-62642274D01*
X158703947Y-62663509D01*
X158705000Y-62684950D01*
X158705000Y-63197450D01*
X158703947Y-63218891D01*
X158700797Y-63240126D01*
X158695581Y-63260950D01*
X158688349Y-63281162D01*
X158679170Y-63300568D01*
X158668134Y-63318981D01*
X158655346Y-63336224D01*
X158640930Y-63352130D01*
X158625024Y-63366546D01*
X158607781Y-63379334D01*
X158589368Y-63390370D01*
X158569962Y-63399549D01*
X158549750Y-63406781D01*
X158528926Y-63411997D01*
X158507691Y-63415147D01*
X158486250Y-63416200D01*
X158048750Y-63416200D01*
X158027309Y-63415147D01*
X158006074Y-63411997D01*
X157985250Y-63406781D01*
X157965038Y-63399549D01*
X157945632Y-63390370D01*
X157927219Y-63379334D01*
X157909976Y-63366546D01*
X157894070Y-63352130D01*
X157879654Y-63336224D01*
X157866866Y-63318981D01*
X157855830Y-63300568D01*
X157846651Y-63281162D01*
X157839419Y-63260950D01*
X157834203Y-63240126D01*
X157831053Y-63218891D01*
X157830000Y-63197450D01*
X157830000Y-62684950D01*
X157831053Y-62663509D01*
X157834203Y-62642274D01*
X157839419Y-62621450D01*
X157846651Y-62601238D01*
X157855830Y-62581832D01*
X157866866Y-62563419D01*
X157879654Y-62546176D01*
X157894070Y-62530270D01*
X157909976Y-62515854D01*
X157927219Y-62503066D01*
X157945632Y-62492030D01*
X157965038Y-62482851D01*
X157985250Y-62475619D01*
X158006074Y-62470403D01*
X158027309Y-62467253D01*
X158048750Y-62466200D01*
X158486250Y-62466200D01*
X158507691Y-62467253D01*
G37*
G36*
X148943891Y-67381653D02*
G01*
X148965126Y-67384803D01*
X148985950Y-67390019D01*
X149006162Y-67397251D01*
X149025568Y-67406430D01*
X149043981Y-67417466D01*
X149061224Y-67430254D01*
X149077130Y-67444670D01*
X149091546Y-67460576D01*
X149104334Y-67477819D01*
X149115370Y-67496232D01*
X149124549Y-67515638D01*
X149131781Y-67535850D01*
X149136997Y-67556674D01*
X149140147Y-67577909D01*
X149141200Y-67599350D01*
X149141200Y-68036850D01*
X149140147Y-68058291D01*
X149136997Y-68079526D01*
X149131781Y-68100350D01*
X149124549Y-68120562D01*
X149115370Y-68139968D01*
X149104334Y-68158381D01*
X149091546Y-68175624D01*
X149077130Y-68191530D01*
X149061224Y-68205946D01*
X149043981Y-68218734D01*
X149025568Y-68229770D01*
X149006162Y-68238949D01*
X148985950Y-68246181D01*
X148965126Y-68251397D01*
X148943891Y-68254547D01*
X148922450Y-68255600D01*
X148409950Y-68255600D01*
X148388509Y-68254547D01*
X148367274Y-68251397D01*
X148346450Y-68246181D01*
X148326238Y-68238949D01*
X148306832Y-68229770D01*
X148288419Y-68218734D01*
X148271176Y-68205946D01*
X148255270Y-68191530D01*
X148240854Y-68175624D01*
X148228066Y-68158381D01*
X148217030Y-68139968D01*
X148207851Y-68120562D01*
X148200619Y-68100350D01*
X148195403Y-68079526D01*
X148192253Y-68058291D01*
X148191200Y-68036850D01*
X148191200Y-67599350D01*
X148192253Y-67577909D01*
X148195403Y-67556674D01*
X148200619Y-67535850D01*
X148207851Y-67515638D01*
X148217030Y-67496232D01*
X148228066Y-67477819D01*
X148240854Y-67460576D01*
X148255270Y-67444670D01*
X148271176Y-67430254D01*
X148288419Y-67417466D01*
X148306832Y-67406430D01*
X148326238Y-67397251D01*
X148346450Y-67390019D01*
X148367274Y-67384803D01*
X148388509Y-67381653D01*
X148409950Y-67380600D01*
X148922450Y-67380600D01*
X148943891Y-67381653D01*
G37*
G36*
X148943891Y-65806653D02*
G01*
X148965126Y-65809803D01*
X148985950Y-65815019D01*
X149006162Y-65822251D01*
X149025568Y-65831430D01*
X149043981Y-65842466D01*
X149061224Y-65855254D01*
X149077130Y-65869670D01*
X149091546Y-65885576D01*
X149104334Y-65902819D01*
X149115370Y-65921232D01*
X149124549Y-65940638D01*
X149131781Y-65960850D01*
X149136997Y-65981674D01*
X149140147Y-66002909D01*
X149141200Y-66024350D01*
X149141200Y-66461850D01*
X149140147Y-66483291D01*
X149136997Y-66504526D01*
X149131781Y-66525350D01*
X149124549Y-66545562D01*
X149115370Y-66564968D01*
X149104334Y-66583381D01*
X149091546Y-66600624D01*
X149077130Y-66616530D01*
X149061224Y-66630946D01*
X149043981Y-66643734D01*
X149025568Y-66654770D01*
X149006162Y-66663949D01*
X148985950Y-66671181D01*
X148965126Y-66676397D01*
X148943891Y-66679547D01*
X148922450Y-66680600D01*
X148409950Y-66680600D01*
X148388509Y-66679547D01*
X148367274Y-66676397D01*
X148346450Y-66671181D01*
X148326238Y-66663949D01*
X148306832Y-66654770D01*
X148288419Y-66643734D01*
X148271176Y-66630946D01*
X148255270Y-66616530D01*
X148240854Y-66600624D01*
X148228066Y-66583381D01*
X148217030Y-66564968D01*
X148207851Y-66545562D01*
X148200619Y-66525350D01*
X148195403Y-66504526D01*
X148192253Y-66483291D01*
X148191200Y-66461850D01*
X148191200Y-66024350D01*
X148192253Y-66002909D01*
X148195403Y-65981674D01*
X148200619Y-65960850D01*
X148207851Y-65940638D01*
X148217030Y-65921232D01*
X148228066Y-65902819D01*
X148240854Y-65885576D01*
X148255270Y-65869670D01*
X148271176Y-65855254D01*
X148288419Y-65842466D01*
X148306832Y-65831430D01*
X148326238Y-65822251D01*
X148346450Y-65815019D01*
X148367274Y-65809803D01*
X148388509Y-65806653D01*
X148409950Y-65805600D01*
X148922450Y-65805600D01*
X148943891Y-65806653D01*
G37*
G36*
X149058891Y-63940453D02*
G01*
X149080126Y-63943603D01*
X149100950Y-63948819D01*
X149121162Y-63956051D01*
X149140568Y-63965230D01*
X149158981Y-63976266D01*
X149176224Y-63989054D01*
X149192130Y-64003470D01*
X149206546Y-64019376D01*
X149219334Y-64036619D01*
X149230370Y-64055032D01*
X149239549Y-64074438D01*
X149246781Y-64094650D01*
X149251997Y-64115474D01*
X149255147Y-64136709D01*
X149256200Y-64158150D01*
X149256200Y-64670650D01*
X149255147Y-64692091D01*
X149251997Y-64713326D01*
X149246781Y-64734150D01*
X149239549Y-64754362D01*
X149230370Y-64773768D01*
X149219334Y-64792181D01*
X149206546Y-64809424D01*
X149192130Y-64825330D01*
X149176224Y-64839746D01*
X149158981Y-64852534D01*
X149140568Y-64863570D01*
X149121162Y-64872749D01*
X149100950Y-64879981D01*
X149080126Y-64885197D01*
X149058891Y-64888347D01*
X149037450Y-64889400D01*
X148599950Y-64889400D01*
X148578509Y-64888347D01*
X148557274Y-64885197D01*
X148536450Y-64879981D01*
X148516238Y-64872749D01*
X148496832Y-64863570D01*
X148478419Y-64852534D01*
X148461176Y-64839746D01*
X148445270Y-64825330D01*
X148430854Y-64809424D01*
X148418066Y-64792181D01*
X148407030Y-64773768D01*
X148397851Y-64754362D01*
X148390619Y-64734150D01*
X148385403Y-64713326D01*
X148382253Y-64692091D01*
X148381200Y-64670650D01*
X148381200Y-64158150D01*
X148382253Y-64136709D01*
X148385403Y-64115474D01*
X148390619Y-64094650D01*
X148397851Y-64074438D01*
X148407030Y-64055032D01*
X148418066Y-64036619D01*
X148430854Y-64019376D01*
X148445270Y-64003470D01*
X148461176Y-63989054D01*
X148478419Y-63976266D01*
X148496832Y-63965230D01*
X148516238Y-63956051D01*
X148536450Y-63948819D01*
X148557274Y-63943603D01*
X148578509Y-63940453D01*
X148599950Y-63939400D01*
X149037450Y-63939400D01*
X149058891Y-63940453D01*
G37*
G36*
X147483891Y-63940453D02*
G01*
X147505126Y-63943603D01*
X147525950Y-63948819D01*
X147546162Y-63956051D01*
X147565568Y-63965230D01*
X147583981Y-63976266D01*
X147601224Y-63989054D01*
X147617130Y-64003470D01*
X147631546Y-64019376D01*
X147644334Y-64036619D01*
X147655370Y-64055032D01*
X147664549Y-64074438D01*
X147671781Y-64094650D01*
X147676997Y-64115474D01*
X147680147Y-64136709D01*
X147681200Y-64158150D01*
X147681200Y-64670650D01*
X147680147Y-64692091D01*
X147676997Y-64713326D01*
X147671781Y-64734150D01*
X147664549Y-64754362D01*
X147655370Y-64773768D01*
X147644334Y-64792181D01*
X147631546Y-64809424D01*
X147617130Y-64825330D01*
X147601224Y-64839746D01*
X147583981Y-64852534D01*
X147565568Y-64863570D01*
X147546162Y-64872749D01*
X147525950Y-64879981D01*
X147505126Y-64885197D01*
X147483891Y-64888347D01*
X147462450Y-64889400D01*
X147024950Y-64889400D01*
X147003509Y-64888347D01*
X146982274Y-64885197D01*
X146961450Y-64879981D01*
X146941238Y-64872749D01*
X146921832Y-64863570D01*
X146903419Y-64852534D01*
X146886176Y-64839746D01*
X146870270Y-64825330D01*
X146855854Y-64809424D01*
X146843066Y-64792181D01*
X146832030Y-64773768D01*
X146822851Y-64754362D01*
X146815619Y-64734150D01*
X146810403Y-64713326D01*
X146807253Y-64692091D01*
X146806200Y-64670650D01*
X146806200Y-64158150D01*
X146807253Y-64136709D01*
X146810403Y-64115474D01*
X146815619Y-64094650D01*
X146822851Y-64074438D01*
X146832030Y-64055032D01*
X146843066Y-64036619D01*
X146855854Y-64019376D01*
X146870270Y-64003470D01*
X146886176Y-63989054D01*
X146903419Y-63976266D01*
X146921832Y-63965230D01*
X146941238Y-63956051D01*
X146961450Y-63948819D01*
X146982274Y-63943603D01*
X147003509Y-63940453D01*
X147024950Y-63939400D01*
X147462450Y-63939400D01*
X147483891Y-63940453D01*
G37*
G36*
X140220703Y-97617722D02*
G01*
X140235264Y-97619882D01*
X140249543Y-97623459D01*
X140263403Y-97628418D01*
X140276710Y-97634712D01*
X140289336Y-97642280D01*
X140301159Y-97651048D01*
X140312066Y-97660934D01*
X140321952Y-97671841D01*
X140330720Y-97683664D01*
X140338288Y-97696290D01*
X140344582Y-97709597D01*
X140349541Y-97723457D01*
X140353118Y-97737736D01*
X140355278Y-97752297D01*
X140356000Y-97767000D01*
X140356000Y-98067000D01*
X140355278Y-98081703D01*
X140353118Y-98096264D01*
X140349541Y-98110543D01*
X140344582Y-98124403D01*
X140338288Y-98137710D01*
X140330720Y-98150336D01*
X140321952Y-98162159D01*
X140312066Y-98173066D01*
X140301159Y-98182952D01*
X140289336Y-98191720D01*
X140276710Y-98199288D01*
X140263403Y-98205582D01*
X140249543Y-98210541D01*
X140235264Y-98214118D01*
X140220703Y-98216278D01*
X140206000Y-98217000D01*
X138756000Y-98217000D01*
X138741297Y-98216278D01*
X138726736Y-98214118D01*
X138712457Y-98210541D01*
X138698597Y-98205582D01*
X138685290Y-98199288D01*
X138672664Y-98191720D01*
X138660841Y-98182952D01*
X138649934Y-98173066D01*
X138640048Y-98162159D01*
X138631280Y-98150336D01*
X138623712Y-98137710D01*
X138617418Y-98124403D01*
X138612459Y-98110543D01*
X138608882Y-98096264D01*
X138606722Y-98081703D01*
X138606000Y-98067000D01*
X138606000Y-97767000D01*
X138606722Y-97752297D01*
X138608882Y-97737736D01*
X138612459Y-97723457D01*
X138617418Y-97709597D01*
X138623712Y-97696290D01*
X138631280Y-97683664D01*
X138640048Y-97671841D01*
X138649934Y-97660934D01*
X138660841Y-97651048D01*
X138672664Y-97642280D01*
X138685290Y-97634712D01*
X138698597Y-97628418D01*
X138712457Y-97623459D01*
X138726736Y-97619882D01*
X138741297Y-97617722D01*
X138756000Y-97617000D01*
X140206000Y-97617000D01*
X140220703Y-97617722D01*
G37*
G36*
X140220703Y-96347722D02*
G01*
X140235264Y-96349882D01*
X140249543Y-96353459D01*
X140263403Y-96358418D01*
X140276710Y-96364712D01*
X140289336Y-96372280D01*
X140301159Y-96381048D01*
X140312066Y-96390934D01*
X140321952Y-96401841D01*
X140330720Y-96413664D01*
X140338288Y-96426290D01*
X140344582Y-96439597D01*
X140349541Y-96453457D01*
X140353118Y-96467736D01*
X140355278Y-96482297D01*
X140356000Y-96497000D01*
X140356000Y-96797000D01*
X140355278Y-96811703D01*
X140353118Y-96826264D01*
X140349541Y-96840543D01*
X140344582Y-96854403D01*
X140338288Y-96867710D01*
X140330720Y-96880336D01*
X140321952Y-96892159D01*
X140312066Y-96903066D01*
X140301159Y-96912952D01*
X140289336Y-96921720D01*
X140276710Y-96929288D01*
X140263403Y-96935582D01*
X140249543Y-96940541D01*
X140235264Y-96944118D01*
X140220703Y-96946278D01*
X140206000Y-96947000D01*
X138756000Y-96947000D01*
X138741297Y-96946278D01*
X138726736Y-96944118D01*
X138712457Y-96940541D01*
X138698597Y-96935582D01*
X138685290Y-96929288D01*
X138672664Y-96921720D01*
X138660841Y-96912952D01*
X138649934Y-96903066D01*
X138640048Y-96892159D01*
X138631280Y-96880336D01*
X138623712Y-96867710D01*
X138617418Y-96854403D01*
X138612459Y-96840543D01*
X138608882Y-96826264D01*
X138606722Y-96811703D01*
X138606000Y-96797000D01*
X138606000Y-96497000D01*
X138606722Y-96482297D01*
X138608882Y-96467736D01*
X138612459Y-96453457D01*
X138617418Y-96439597D01*
X138623712Y-96426290D01*
X138631280Y-96413664D01*
X138640048Y-96401841D01*
X138649934Y-96390934D01*
X138660841Y-96381048D01*
X138672664Y-96372280D01*
X138685290Y-96364712D01*
X138698597Y-96358418D01*
X138712457Y-96353459D01*
X138726736Y-96349882D01*
X138741297Y-96347722D01*
X138756000Y-96347000D01*
X140206000Y-96347000D01*
X140220703Y-96347722D01*
G37*
G36*
X140220703Y-95077722D02*
G01*
X140235264Y-95079882D01*
X140249543Y-95083459D01*
X140263403Y-95088418D01*
X140276710Y-95094712D01*
X140289336Y-95102280D01*
X140301159Y-95111048D01*
X140312066Y-95120934D01*
X140321952Y-95131841D01*
X140330720Y-95143664D01*
X140338288Y-95156290D01*
X140344582Y-95169597D01*
X140349541Y-95183457D01*
X140353118Y-95197736D01*
X140355278Y-95212297D01*
X140356000Y-95227000D01*
X140356000Y-95527000D01*
X140355278Y-95541703D01*
X140353118Y-95556264D01*
X140349541Y-95570543D01*
X140344582Y-95584403D01*
X140338288Y-95597710D01*
X140330720Y-95610336D01*
X140321952Y-95622159D01*
X140312066Y-95633066D01*
X140301159Y-95642952D01*
X140289336Y-95651720D01*
X140276710Y-95659288D01*
X140263403Y-95665582D01*
X140249543Y-95670541D01*
X140235264Y-95674118D01*
X140220703Y-95676278D01*
X140206000Y-95677000D01*
X138756000Y-95677000D01*
X138741297Y-95676278D01*
X138726736Y-95674118D01*
X138712457Y-95670541D01*
X138698597Y-95665582D01*
X138685290Y-95659288D01*
X138672664Y-95651720D01*
X138660841Y-95642952D01*
X138649934Y-95633066D01*
X138640048Y-95622159D01*
X138631280Y-95610336D01*
X138623712Y-95597710D01*
X138617418Y-95584403D01*
X138612459Y-95570543D01*
X138608882Y-95556264D01*
X138606722Y-95541703D01*
X138606000Y-95527000D01*
X138606000Y-95227000D01*
X138606722Y-95212297D01*
X138608882Y-95197736D01*
X138612459Y-95183457D01*
X138617418Y-95169597D01*
X138623712Y-95156290D01*
X138631280Y-95143664D01*
X138640048Y-95131841D01*
X138649934Y-95120934D01*
X138660841Y-95111048D01*
X138672664Y-95102280D01*
X138685290Y-95094712D01*
X138698597Y-95088418D01*
X138712457Y-95083459D01*
X138726736Y-95079882D01*
X138741297Y-95077722D01*
X138756000Y-95077000D01*
X140206000Y-95077000D01*
X140220703Y-95077722D01*
G37*
G36*
X140220703Y-93807722D02*
G01*
X140235264Y-93809882D01*
X140249543Y-93813459D01*
X140263403Y-93818418D01*
X140276710Y-93824712D01*
X140289336Y-93832280D01*
X140301159Y-93841048D01*
X140312066Y-93850934D01*
X140321952Y-93861841D01*
X140330720Y-93873664D01*
X140338288Y-93886290D01*
X140344582Y-93899597D01*
X140349541Y-93913457D01*
X140353118Y-93927736D01*
X140355278Y-93942297D01*
X140356000Y-93957000D01*
X140356000Y-94257000D01*
X140355278Y-94271703D01*
X140353118Y-94286264D01*
X140349541Y-94300543D01*
X140344582Y-94314403D01*
X140338288Y-94327710D01*
X140330720Y-94340336D01*
X140321952Y-94352159D01*
X140312066Y-94363066D01*
X140301159Y-94372952D01*
X140289336Y-94381720D01*
X140276710Y-94389288D01*
X140263403Y-94395582D01*
X140249543Y-94400541D01*
X140235264Y-94404118D01*
X140220703Y-94406278D01*
X140206000Y-94407000D01*
X138756000Y-94407000D01*
X138741297Y-94406278D01*
X138726736Y-94404118D01*
X138712457Y-94400541D01*
X138698597Y-94395582D01*
X138685290Y-94389288D01*
X138672664Y-94381720D01*
X138660841Y-94372952D01*
X138649934Y-94363066D01*
X138640048Y-94352159D01*
X138631280Y-94340336D01*
X138623712Y-94327710D01*
X138617418Y-94314403D01*
X138612459Y-94300543D01*
X138608882Y-94286264D01*
X138606722Y-94271703D01*
X138606000Y-94257000D01*
X138606000Y-93957000D01*
X138606722Y-93942297D01*
X138608882Y-93927736D01*
X138612459Y-93913457D01*
X138617418Y-93899597D01*
X138623712Y-93886290D01*
X138631280Y-93873664D01*
X138640048Y-93861841D01*
X138649934Y-93850934D01*
X138660841Y-93841048D01*
X138672664Y-93832280D01*
X138685290Y-93824712D01*
X138698597Y-93818418D01*
X138712457Y-93813459D01*
X138726736Y-93809882D01*
X138741297Y-93807722D01*
X138756000Y-93807000D01*
X140206000Y-93807000D01*
X140220703Y-93807722D01*
G37*
G36*
X135070703Y-93807722D02*
G01*
X135085264Y-93809882D01*
X135099543Y-93813459D01*
X135113403Y-93818418D01*
X135126710Y-93824712D01*
X135139336Y-93832280D01*
X135151159Y-93841048D01*
X135162066Y-93850934D01*
X135171952Y-93861841D01*
X135180720Y-93873664D01*
X135188288Y-93886290D01*
X135194582Y-93899597D01*
X135199541Y-93913457D01*
X135203118Y-93927736D01*
X135205278Y-93942297D01*
X135206000Y-93957000D01*
X135206000Y-94257000D01*
X135205278Y-94271703D01*
X135203118Y-94286264D01*
X135199541Y-94300543D01*
X135194582Y-94314403D01*
X135188288Y-94327710D01*
X135180720Y-94340336D01*
X135171952Y-94352159D01*
X135162066Y-94363066D01*
X135151159Y-94372952D01*
X135139336Y-94381720D01*
X135126710Y-94389288D01*
X135113403Y-94395582D01*
X135099543Y-94400541D01*
X135085264Y-94404118D01*
X135070703Y-94406278D01*
X135056000Y-94407000D01*
X133606000Y-94407000D01*
X133591297Y-94406278D01*
X133576736Y-94404118D01*
X133562457Y-94400541D01*
X133548597Y-94395582D01*
X133535290Y-94389288D01*
X133522664Y-94381720D01*
X133510841Y-94372952D01*
X133499934Y-94363066D01*
X133490048Y-94352159D01*
X133481280Y-94340336D01*
X133473712Y-94327710D01*
X133467418Y-94314403D01*
X133462459Y-94300543D01*
X133458882Y-94286264D01*
X133456722Y-94271703D01*
X133456000Y-94257000D01*
X133456000Y-93957000D01*
X133456722Y-93942297D01*
X133458882Y-93927736D01*
X133462459Y-93913457D01*
X133467418Y-93899597D01*
X133473712Y-93886290D01*
X133481280Y-93873664D01*
X133490048Y-93861841D01*
X133499934Y-93850934D01*
X133510841Y-93841048D01*
X133522664Y-93832280D01*
X133535290Y-93824712D01*
X133548597Y-93818418D01*
X133562457Y-93813459D01*
X133576736Y-93809882D01*
X133591297Y-93807722D01*
X133606000Y-93807000D01*
X135056000Y-93807000D01*
X135070703Y-93807722D01*
G37*
G36*
X135070703Y-95077722D02*
G01*
X135085264Y-95079882D01*
X135099543Y-95083459D01*
X135113403Y-95088418D01*
X135126710Y-95094712D01*
X135139336Y-95102280D01*
X135151159Y-95111048D01*
X135162066Y-95120934D01*
X135171952Y-95131841D01*
X135180720Y-95143664D01*
X135188288Y-95156290D01*
X135194582Y-95169597D01*
X135199541Y-95183457D01*
X135203118Y-95197736D01*
X135205278Y-95212297D01*
X135206000Y-95227000D01*
X135206000Y-95527000D01*
X135205278Y-95541703D01*
X135203118Y-95556264D01*
X135199541Y-95570543D01*
X135194582Y-95584403D01*
X135188288Y-95597710D01*
X135180720Y-95610336D01*
X135171952Y-95622159D01*
X135162066Y-95633066D01*
X135151159Y-95642952D01*
X135139336Y-95651720D01*
X135126710Y-95659288D01*
X135113403Y-95665582D01*
X135099543Y-95670541D01*
X135085264Y-95674118D01*
X135070703Y-95676278D01*
X135056000Y-95677000D01*
X133606000Y-95677000D01*
X133591297Y-95676278D01*
X133576736Y-95674118D01*
X133562457Y-95670541D01*
X133548597Y-95665582D01*
X133535290Y-95659288D01*
X133522664Y-95651720D01*
X133510841Y-95642952D01*
X133499934Y-95633066D01*
X133490048Y-95622159D01*
X133481280Y-95610336D01*
X133473712Y-95597710D01*
X133467418Y-95584403D01*
X133462459Y-95570543D01*
X133458882Y-95556264D01*
X133456722Y-95541703D01*
X133456000Y-95527000D01*
X133456000Y-95227000D01*
X133456722Y-95212297D01*
X133458882Y-95197736D01*
X133462459Y-95183457D01*
X133467418Y-95169597D01*
X133473712Y-95156290D01*
X133481280Y-95143664D01*
X133490048Y-95131841D01*
X133499934Y-95120934D01*
X133510841Y-95111048D01*
X133522664Y-95102280D01*
X133535290Y-95094712D01*
X133548597Y-95088418D01*
X133562457Y-95083459D01*
X133576736Y-95079882D01*
X133591297Y-95077722D01*
X133606000Y-95077000D01*
X135056000Y-95077000D01*
X135070703Y-95077722D01*
G37*
G36*
X135070703Y-96347722D02*
G01*
X135085264Y-96349882D01*
X135099543Y-96353459D01*
X135113403Y-96358418D01*
X135126710Y-96364712D01*
X135139336Y-96372280D01*
X135151159Y-96381048D01*
X135162066Y-96390934D01*
X135171952Y-96401841D01*
X135180720Y-96413664D01*
X135188288Y-96426290D01*
X135194582Y-96439597D01*
X135199541Y-96453457D01*
X135203118Y-96467736D01*
X135205278Y-96482297D01*
X135206000Y-96497000D01*
X135206000Y-96797000D01*
X135205278Y-96811703D01*
X135203118Y-96826264D01*
X135199541Y-96840543D01*
X135194582Y-96854403D01*
X135188288Y-96867710D01*
X135180720Y-96880336D01*
X135171952Y-96892159D01*
X135162066Y-96903066D01*
X135151159Y-96912952D01*
X135139336Y-96921720D01*
X135126710Y-96929288D01*
X135113403Y-96935582D01*
X135099543Y-96940541D01*
X135085264Y-96944118D01*
X135070703Y-96946278D01*
X135056000Y-96947000D01*
X133606000Y-96947000D01*
X133591297Y-96946278D01*
X133576736Y-96944118D01*
X133562457Y-96940541D01*
X133548597Y-96935582D01*
X133535290Y-96929288D01*
X133522664Y-96921720D01*
X133510841Y-96912952D01*
X133499934Y-96903066D01*
X133490048Y-96892159D01*
X133481280Y-96880336D01*
X133473712Y-96867710D01*
X133467418Y-96854403D01*
X133462459Y-96840543D01*
X133458882Y-96826264D01*
X133456722Y-96811703D01*
X133456000Y-96797000D01*
X133456000Y-96497000D01*
X133456722Y-96482297D01*
X133458882Y-96467736D01*
X133462459Y-96453457D01*
X133467418Y-96439597D01*
X133473712Y-96426290D01*
X133481280Y-96413664D01*
X133490048Y-96401841D01*
X133499934Y-96390934D01*
X133510841Y-96381048D01*
X133522664Y-96372280D01*
X133535290Y-96364712D01*
X133548597Y-96358418D01*
X133562457Y-96353459D01*
X133576736Y-96349882D01*
X133591297Y-96347722D01*
X133606000Y-96347000D01*
X135056000Y-96347000D01*
X135070703Y-96347722D01*
G37*
G36*
X135070703Y-97617722D02*
G01*
X135085264Y-97619882D01*
X135099543Y-97623459D01*
X135113403Y-97628418D01*
X135126710Y-97634712D01*
X135139336Y-97642280D01*
X135151159Y-97651048D01*
X135162066Y-97660934D01*
X135171952Y-97671841D01*
X135180720Y-97683664D01*
X135188288Y-97696290D01*
X135194582Y-97709597D01*
X135199541Y-97723457D01*
X135203118Y-97737736D01*
X135205278Y-97752297D01*
X135206000Y-97767000D01*
X135206000Y-98067000D01*
X135205278Y-98081703D01*
X135203118Y-98096264D01*
X135199541Y-98110543D01*
X135194582Y-98124403D01*
X135188288Y-98137710D01*
X135180720Y-98150336D01*
X135171952Y-98162159D01*
X135162066Y-98173066D01*
X135151159Y-98182952D01*
X135139336Y-98191720D01*
X135126710Y-98199288D01*
X135113403Y-98205582D01*
X135099543Y-98210541D01*
X135085264Y-98214118D01*
X135070703Y-98216278D01*
X135056000Y-98217000D01*
X133606000Y-98217000D01*
X133591297Y-98216278D01*
X133576736Y-98214118D01*
X133562457Y-98210541D01*
X133548597Y-98205582D01*
X133535290Y-98199288D01*
X133522664Y-98191720D01*
X133510841Y-98182952D01*
X133499934Y-98173066D01*
X133490048Y-98162159D01*
X133481280Y-98150336D01*
X133473712Y-98137710D01*
X133467418Y-98124403D01*
X133462459Y-98110543D01*
X133458882Y-98096264D01*
X133456722Y-98081703D01*
X133456000Y-98067000D01*
X133456000Y-97767000D01*
X133456722Y-97752297D01*
X133458882Y-97737736D01*
X133462459Y-97723457D01*
X133467418Y-97709597D01*
X133473712Y-97696290D01*
X133481280Y-97683664D01*
X133490048Y-97671841D01*
X133499934Y-97660934D01*
X133510841Y-97651048D01*
X133522664Y-97642280D01*
X133535290Y-97634712D01*
X133548597Y-97628418D01*
X133562457Y-97623459D01*
X133576736Y-97619882D01*
X133591297Y-97617722D01*
X133606000Y-97617000D01*
X135056000Y-97617000D01*
X135070703Y-97617722D01*
G37*
G36*
X133246691Y-124633053D02*
G01*
X133267926Y-124636203D01*
X133288750Y-124641419D01*
X133308962Y-124648651D01*
X133328368Y-124657830D01*
X133346781Y-124668866D01*
X133364024Y-124681654D01*
X133379930Y-124696070D01*
X133394346Y-124711976D01*
X133407134Y-124729219D01*
X133418170Y-124747632D01*
X133427349Y-124767038D01*
X133434581Y-124787250D01*
X133439797Y-124808074D01*
X133442947Y-124829309D01*
X133444000Y-124850750D01*
X133444000Y-125288250D01*
X133442947Y-125309691D01*
X133439797Y-125330926D01*
X133434581Y-125351750D01*
X133427349Y-125371962D01*
X133418170Y-125391368D01*
X133407134Y-125409781D01*
X133394346Y-125427024D01*
X133379930Y-125442930D01*
X133364024Y-125457346D01*
X133346781Y-125470134D01*
X133328368Y-125481170D01*
X133308962Y-125490349D01*
X133288750Y-125497581D01*
X133267926Y-125502797D01*
X133246691Y-125505947D01*
X133225250Y-125507000D01*
X132712750Y-125507000D01*
X132691309Y-125505947D01*
X132670074Y-125502797D01*
X132649250Y-125497581D01*
X132629038Y-125490349D01*
X132609632Y-125481170D01*
X132591219Y-125470134D01*
X132573976Y-125457346D01*
X132558070Y-125442930D01*
X132543654Y-125427024D01*
X132530866Y-125409781D01*
X132519830Y-125391368D01*
X132510651Y-125371962D01*
X132503419Y-125351750D01*
X132498203Y-125330926D01*
X132495053Y-125309691D01*
X132494000Y-125288250D01*
X132494000Y-124850750D01*
X132495053Y-124829309D01*
X132498203Y-124808074D01*
X132503419Y-124787250D01*
X132510651Y-124767038D01*
X132519830Y-124747632D01*
X132530866Y-124729219D01*
X132543654Y-124711976D01*
X132558070Y-124696070D01*
X132573976Y-124681654D01*
X132591219Y-124668866D01*
X132609632Y-124657830D01*
X132629038Y-124648651D01*
X132649250Y-124641419D01*
X132670074Y-124636203D01*
X132691309Y-124633053D01*
X132712750Y-124632000D01*
X133225250Y-124632000D01*
X133246691Y-124633053D01*
G37*
G36*
X133246691Y-126208053D02*
G01*
X133267926Y-126211203D01*
X133288750Y-126216419D01*
X133308962Y-126223651D01*
X133328368Y-126232830D01*
X133346781Y-126243866D01*
X133364024Y-126256654D01*
X133379930Y-126271070D01*
X133394346Y-126286976D01*
X133407134Y-126304219D01*
X133418170Y-126322632D01*
X133427349Y-126342038D01*
X133434581Y-126362250D01*
X133439797Y-126383074D01*
X133442947Y-126404309D01*
X133444000Y-126425750D01*
X133444000Y-126863250D01*
X133442947Y-126884691D01*
X133439797Y-126905926D01*
X133434581Y-126926750D01*
X133427349Y-126946962D01*
X133418170Y-126966368D01*
X133407134Y-126984781D01*
X133394346Y-127002024D01*
X133379930Y-127017930D01*
X133364024Y-127032346D01*
X133346781Y-127045134D01*
X133328368Y-127056170D01*
X133308962Y-127065349D01*
X133288750Y-127072581D01*
X133267926Y-127077797D01*
X133246691Y-127080947D01*
X133225250Y-127082000D01*
X132712750Y-127082000D01*
X132691309Y-127080947D01*
X132670074Y-127077797D01*
X132649250Y-127072581D01*
X132629038Y-127065349D01*
X132609632Y-127056170D01*
X132591219Y-127045134D01*
X132573976Y-127032346D01*
X132558070Y-127017930D01*
X132543654Y-127002024D01*
X132530866Y-126984781D01*
X132519830Y-126966368D01*
X132510651Y-126946962D01*
X132503419Y-126926750D01*
X132498203Y-126905926D01*
X132495053Y-126884691D01*
X132494000Y-126863250D01*
X132494000Y-126425750D01*
X132495053Y-126404309D01*
X132498203Y-126383074D01*
X132503419Y-126362250D01*
X132510651Y-126342038D01*
X132519830Y-126322632D01*
X132530866Y-126304219D01*
X132543654Y-126286976D01*
X132558070Y-126271070D01*
X132573976Y-126256654D01*
X132591219Y-126243866D01*
X132609632Y-126232830D01*
X132629038Y-126223651D01*
X132649250Y-126216419D01*
X132670074Y-126211203D01*
X132691309Y-126208053D01*
X132712750Y-126207000D01*
X133225250Y-126207000D01*
X133246691Y-126208053D01*
G37*
G36*
X146708691Y-108555053D02*
G01*
X146729926Y-108558203D01*
X146750750Y-108563419D01*
X146770962Y-108570651D01*
X146790368Y-108579830D01*
X146808781Y-108590866D01*
X146826024Y-108603654D01*
X146841930Y-108618070D01*
X146856346Y-108633976D01*
X146869134Y-108651219D01*
X146880170Y-108669632D01*
X146889349Y-108689038D01*
X146896581Y-108709250D01*
X146901797Y-108730074D01*
X146904947Y-108751309D01*
X146906000Y-108772750D01*
X146906000Y-109210250D01*
X146904947Y-109231691D01*
X146901797Y-109252926D01*
X146896581Y-109273750D01*
X146889349Y-109293962D01*
X146880170Y-109313368D01*
X146869134Y-109331781D01*
X146856346Y-109349024D01*
X146841930Y-109364930D01*
X146826024Y-109379346D01*
X146808781Y-109392134D01*
X146790368Y-109403170D01*
X146770962Y-109412349D01*
X146750750Y-109419581D01*
X146729926Y-109424797D01*
X146708691Y-109427947D01*
X146687250Y-109429000D01*
X146174750Y-109429000D01*
X146153309Y-109427947D01*
X146132074Y-109424797D01*
X146111250Y-109419581D01*
X146091038Y-109412349D01*
X146071632Y-109403170D01*
X146053219Y-109392134D01*
X146035976Y-109379346D01*
X146020070Y-109364930D01*
X146005654Y-109349024D01*
X145992866Y-109331781D01*
X145981830Y-109313368D01*
X145972651Y-109293962D01*
X145965419Y-109273750D01*
X145960203Y-109252926D01*
X145957053Y-109231691D01*
X145956000Y-109210250D01*
X145956000Y-108772750D01*
X145957053Y-108751309D01*
X145960203Y-108730074D01*
X145965419Y-108709250D01*
X145972651Y-108689038D01*
X145981830Y-108669632D01*
X145992866Y-108651219D01*
X146005654Y-108633976D01*
X146020070Y-108618070D01*
X146035976Y-108603654D01*
X146053219Y-108590866D01*
X146071632Y-108579830D01*
X146091038Y-108570651D01*
X146111250Y-108563419D01*
X146132074Y-108558203D01*
X146153309Y-108555053D01*
X146174750Y-108554000D01*
X146687250Y-108554000D01*
X146708691Y-108555053D01*
G37*
G36*
X146708691Y-106980053D02*
G01*
X146729926Y-106983203D01*
X146750750Y-106988419D01*
X146770962Y-106995651D01*
X146790368Y-107004830D01*
X146808781Y-107015866D01*
X146826024Y-107028654D01*
X146841930Y-107043070D01*
X146856346Y-107058976D01*
X146869134Y-107076219D01*
X146880170Y-107094632D01*
X146889349Y-107114038D01*
X146896581Y-107134250D01*
X146901797Y-107155074D01*
X146904947Y-107176309D01*
X146906000Y-107197750D01*
X146906000Y-107635250D01*
X146904947Y-107656691D01*
X146901797Y-107677926D01*
X146896581Y-107698750D01*
X146889349Y-107718962D01*
X146880170Y-107738368D01*
X146869134Y-107756781D01*
X146856346Y-107774024D01*
X146841930Y-107789930D01*
X146826024Y-107804346D01*
X146808781Y-107817134D01*
X146790368Y-107828170D01*
X146770962Y-107837349D01*
X146750750Y-107844581D01*
X146729926Y-107849797D01*
X146708691Y-107852947D01*
X146687250Y-107854000D01*
X146174750Y-107854000D01*
X146153309Y-107852947D01*
X146132074Y-107849797D01*
X146111250Y-107844581D01*
X146091038Y-107837349D01*
X146071632Y-107828170D01*
X146053219Y-107817134D01*
X146035976Y-107804346D01*
X146020070Y-107789930D01*
X146005654Y-107774024D01*
X145992866Y-107756781D01*
X145981830Y-107738368D01*
X145972651Y-107718962D01*
X145965419Y-107698750D01*
X145960203Y-107677926D01*
X145957053Y-107656691D01*
X145956000Y-107635250D01*
X145956000Y-107197750D01*
X145957053Y-107176309D01*
X145960203Y-107155074D01*
X145965419Y-107134250D01*
X145972651Y-107114038D01*
X145981830Y-107094632D01*
X145992866Y-107076219D01*
X146005654Y-107058976D01*
X146020070Y-107043070D01*
X146035976Y-107028654D01*
X146053219Y-107015866D01*
X146071632Y-107004830D01*
X146091038Y-106995651D01*
X146111250Y-106988419D01*
X146132074Y-106983203D01*
X146153309Y-106980053D01*
X146174750Y-106979000D01*
X146687250Y-106979000D01*
X146708691Y-106980053D01*
G37*
G36*
X149375691Y-105380053D02*
G01*
X149396926Y-105383203D01*
X149417750Y-105388419D01*
X149437962Y-105395651D01*
X149457368Y-105404830D01*
X149475781Y-105415866D01*
X149493024Y-105428654D01*
X149508930Y-105443070D01*
X149523346Y-105458976D01*
X149536134Y-105476219D01*
X149547170Y-105494632D01*
X149556349Y-105514038D01*
X149563581Y-105534250D01*
X149568797Y-105555074D01*
X149571947Y-105576309D01*
X149573000Y-105597750D01*
X149573000Y-106035250D01*
X149571947Y-106056691D01*
X149568797Y-106077926D01*
X149563581Y-106098750D01*
X149556349Y-106118962D01*
X149547170Y-106138368D01*
X149536134Y-106156781D01*
X149523346Y-106174024D01*
X149508930Y-106189930D01*
X149493024Y-106204346D01*
X149475781Y-106217134D01*
X149457368Y-106228170D01*
X149437962Y-106237349D01*
X149417750Y-106244581D01*
X149396926Y-106249797D01*
X149375691Y-106252947D01*
X149354250Y-106254000D01*
X148841750Y-106254000D01*
X148820309Y-106252947D01*
X148799074Y-106249797D01*
X148778250Y-106244581D01*
X148758038Y-106237349D01*
X148738632Y-106228170D01*
X148720219Y-106217134D01*
X148702976Y-106204346D01*
X148687070Y-106189930D01*
X148672654Y-106174024D01*
X148659866Y-106156781D01*
X148648830Y-106138368D01*
X148639651Y-106118962D01*
X148632419Y-106098750D01*
X148627203Y-106077926D01*
X148624053Y-106056691D01*
X148623000Y-106035250D01*
X148623000Y-105597750D01*
X148624053Y-105576309D01*
X148627203Y-105555074D01*
X148632419Y-105534250D01*
X148639651Y-105514038D01*
X148648830Y-105494632D01*
X148659866Y-105476219D01*
X148672654Y-105458976D01*
X148687070Y-105443070D01*
X148702976Y-105428654D01*
X148720219Y-105415866D01*
X148738632Y-105404830D01*
X148758038Y-105395651D01*
X148778250Y-105388419D01*
X148799074Y-105383203D01*
X148820309Y-105380053D01*
X148841750Y-105379000D01*
X149354250Y-105379000D01*
X149375691Y-105380053D01*
G37*
G36*
X149375691Y-103805053D02*
G01*
X149396926Y-103808203D01*
X149417750Y-103813419D01*
X149437962Y-103820651D01*
X149457368Y-103829830D01*
X149475781Y-103840866D01*
X149493024Y-103853654D01*
X149508930Y-103868070D01*
X149523346Y-103883976D01*
X149536134Y-103901219D01*
X149547170Y-103919632D01*
X149556349Y-103939038D01*
X149563581Y-103959250D01*
X149568797Y-103980074D01*
X149571947Y-104001309D01*
X149573000Y-104022750D01*
X149573000Y-104460250D01*
X149571947Y-104481691D01*
X149568797Y-104502926D01*
X149563581Y-104523750D01*
X149556349Y-104543962D01*
X149547170Y-104563368D01*
X149536134Y-104581781D01*
X149523346Y-104599024D01*
X149508930Y-104614930D01*
X149493024Y-104629346D01*
X149475781Y-104642134D01*
X149457368Y-104653170D01*
X149437962Y-104662349D01*
X149417750Y-104669581D01*
X149396926Y-104674797D01*
X149375691Y-104677947D01*
X149354250Y-104679000D01*
X148841750Y-104679000D01*
X148820309Y-104677947D01*
X148799074Y-104674797D01*
X148778250Y-104669581D01*
X148758038Y-104662349D01*
X148738632Y-104653170D01*
X148720219Y-104642134D01*
X148702976Y-104629346D01*
X148687070Y-104614930D01*
X148672654Y-104599024D01*
X148659866Y-104581781D01*
X148648830Y-104563368D01*
X148639651Y-104543962D01*
X148632419Y-104523750D01*
X148627203Y-104502926D01*
X148624053Y-104481691D01*
X148623000Y-104460250D01*
X148623000Y-104022750D01*
X148624053Y-104001309D01*
X148627203Y-103980074D01*
X148632419Y-103959250D01*
X148639651Y-103939038D01*
X148648830Y-103919632D01*
X148659866Y-103901219D01*
X148672654Y-103883976D01*
X148687070Y-103868070D01*
X148702976Y-103853654D01*
X148720219Y-103840866D01*
X148738632Y-103829830D01*
X148758038Y-103820651D01*
X148778250Y-103813419D01*
X148799074Y-103808203D01*
X148820309Y-103805053D01*
X148841750Y-103804000D01*
X149354250Y-103804000D01*
X149375691Y-103805053D01*
G37*
G36*
X140727691Y-103158053D02*
G01*
X140748926Y-103161203D01*
X140769750Y-103166419D01*
X140789962Y-103173651D01*
X140809368Y-103182830D01*
X140827781Y-103193866D01*
X140845024Y-103206654D01*
X140860930Y-103221070D01*
X140875346Y-103236976D01*
X140888134Y-103254219D01*
X140899170Y-103272632D01*
X140908349Y-103292038D01*
X140915581Y-103312250D01*
X140920797Y-103333074D01*
X140923947Y-103354309D01*
X140925000Y-103375750D01*
X140925000Y-103888250D01*
X140923947Y-103909691D01*
X140920797Y-103930926D01*
X140915581Y-103951750D01*
X140908349Y-103971962D01*
X140899170Y-103991368D01*
X140888134Y-104009781D01*
X140875346Y-104027024D01*
X140860930Y-104042930D01*
X140845024Y-104057346D01*
X140827781Y-104070134D01*
X140809368Y-104081170D01*
X140789962Y-104090349D01*
X140769750Y-104097581D01*
X140748926Y-104102797D01*
X140727691Y-104105947D01*
X140706250Y-104107000D01*
X140268750Y-104107000D01*
X140247309Y-104105947D01*
X140226074Y-104102797D01*
X140205250Y-104097581D01*
X140185038Y-104090349D01*
X140165632Y-104081170D01*
X140147219Y-104070134D01*
X140129976Y-104057346D01*
X140114070Y-104042930D01*
X140099654Y-104027024D01*
X140086866Y-104009781D01*
X140075830Y-103991368D01*
X140066651Y-103971962D01*
X140059419Y-103951750D01*
X140054203Y-103930926D01*
X140051053Y-103909691D01*
X140050000Y-103888250D01*
X140050000Y-103375750D01*
X140051053Y-103354309D01*
X140054203Y-103333074D01*
X140059419Y-103312250D01*
X140066651Y-103292038D01*
X140075830Y-103272632D01*
X140086866Y-103254219D01*
X140099654Y-103236976D01*
X140114070Y-103221070D01*
X140129976Y-103206654D01*
X140147219Y-103193866D01*
X140165632Y-103182830D01*
X140185038Y-103173651D01*
X140205250Y-103166419D01*
X140226074Y-103161203D01*
X140247309Y-103158053D01*
X140268750Y-103157000D01*
X140706250Y-103157000D01*
X140727691Y-103158053D01*
G37*
G36*
X139152691Y-103158053D02*
G01*
X139173926Y-103161203D01*
X139194750Y-103166419D01*
X139214962Y-103173651D01*
X139234368Y-103182830D01*
X139252781Y-103193866D01*
X139270024Y-103206654D01*
X139285930Y-103221070D01*
X139300346Y-103236976D01*
X139313134Y-103254219D01*
X139324170Y-103272632D01*
X139333349Y-103292038D01*
X139340581Y-103312250D01*
X139345797Y-103333074D01*
X139348947Y-103354309D01*
X139350000Y-103375750D01*
X139350000Y-103888250D01*
X139348947Y-103909691D01*
X139345797Y-103930926D01*
X139340581Y-103951750D01*
X139333349Y-103971962D01*
X139324170Y-103991368D01*
X139313134Y-104009781D01*
X139300346Y-104027024D01*
X139285930Y-104042930D01*
X139270024Y-104057346D01*
X139252781Y-104070134D01*
X139234368Y-104081170D01*
X139214962Y-104090349D01*
X139194750Y-104097581D01*
X139173926Y-104102797D01*
X139152691Y-104105947D01*
X139131250Y-104107000D01*
X138693750Y-104107000D01*
X138672309Y-104105947D01*
X138651074Y-104102797D01*
X138630250Y-104097581D01*
X138610038Y-104090349D01*
X138590632Y-104081170D01*
X138572219Y-104070134D01*
X138554976Y-104057346D01*
X138539070Y-104042930D01*
X138524654Y-104027024D01*
X138511866Y-104009781D01*
X138500830Y-103991368D01*
X138491651Y-103971962D01*
X138484419Y-103951750D01*
X138479203Y-103930926D01*
X138476053Y-103909691D01*
X138475000Y-103888250D01*
X138475000Y-103375750D01*
X138476053Y-103354309D01*
X138479203Y-103333074D01*
X138484419Y-103312250D01*
X138491651Y-103292038D01*
X138500830Y-103272632D01*
X138511866Y-103254219D01*
X138524654Y-103236976D01*
X138539070Y-103221070D01*
X138554976Y-103206654D01*
X138572219Y-103193866D01*
X138590632Y-103182830D01*
X138610038Y-103173651D01*
X138630250Y-103166419D01*
X138651074Y-103161203D01*
X138672309Y-103158053D01*
X138693750Y-103157000D01*
X139131250Y-103157000D01*
X139152691Y-103158053D01*
G37*
G36*
X149185691Y-98459053D02*
G01*
X149206926Y-98462203D01*
X149227750Y-98467419D01*
X149247962Y-98474651D01*
X149267368Y-98483830D01*
X149285781Y-98494866D01*
X149303024Y-98507654D01*
X149318930Y-98522070D01*
X149333346Y-98537976D01*
X149346134Y-98555219D01*
X149357170Y-98573632D01*
X149366349Y-98593038D01*
X149373581Y-98613250D01*
X149378797Y-98634074D01*
X149381947Y-98655309D01*
X149383000Y-98676750D01*
X149383000Y-99189250D01*
X149381947Y-99210691D01*
X149378797Y-99231926D01*
X149373581Y-99252750D01*
X149366349Y-99272962D01*
X149357170Y-99292368D01*
X149346134Y-99310781D01*
X149333346Y-99328024D01*
X149318930Y-99343930D01*
X149303024Y-99358346D01*
X149285781Y-99371134D01*
X149267368Y-99382170D01*
X149247962Y-99391349D01*
X149227750Y-99398581D01*
X149206926Y-99403797D01*
X149185691Y-99406947D01*
X149164250Y-99408000D01*
X148726750Y-99408000D01*
X148705309Y-99406947D01*
X148684074Y-99403797D01*
X148663250Y-99398581D01*
X148643038Y-99391349D01*
X148623632Y-99382170D01*
X148605219Y-99371134D01*
X148587976Y-99358346D01*
X148572070Y-99343930D01*
X148557654Y-99328024D01*
X148544866Y-99310781D01*
X148533830Y-99292368D01*
X148524651Y-99272962D01*
X148517419Y-99252750D01*
X148512203Y-99231926D01*
X148509053Y-99210691D01*
X148508000Y-99189250D01*
X148508000Y-98676750D01*
X148509053Y-98655309D01*
X148512203Y-98634074D01*
X148517419Y-98613250D01*
X148524651Y-98593038D01*
X148533830Y-98573632D01*
X148544866Y-98555219D01*
X148557654Y-98537976D01*
X148572070Y-98522070D01*
X148587976Y-98507654D01*
X148605219Y-98494866D01*
X148623632Y-98483830D01*
X148643038Y-98474651D01*
X148663250Y-98467419D01*
X148684074Y-98462203D01*
X148705309Y-98459053D01*
X148726750Y-98458000D01*
X149164250Y-98458000D01*
X149185691Y-98459053D01*
G37*
G36*
X150760691Y-98459053D02*
G01*
X150781926Y-98462203D01*
X150802750Y-98467419D01*
X150822962Y-98474651D01*
X150842368Y-98483830D01*
X150860781Y-98494866D01*
X150878024Y-98507654D01*
X150893930Y-98522070D01*
X150908346Y-98537976D01*
X150921134Y-98555219D01*
X150932170Y-98573632D01*
X150941349Y-98593038D01*
X150948581Y-98613250D01*
X150953797Y-98634074D01*
X150956947Y-98655309D01*
X150958000Y-98676750D01*
X150958000Y-99189250D01*
X150956947Y-99210691D01*
X150953797Y-99231926D01*
X150948581Y-99252750D01*
X150941349Y-99272962D01*
X150932170Y-99292368D01*
X150921134Y-99310781D01*
X150908346Y-99328024D01*
X150893930Y-99343930D01*
X150878024Y-99358346D01*
X150860781Y-99371134D01*
X150842368Y-99382170D01*
X150822962Y-99391349D01*
X150802750Y-99398581D01*
X150781926Y-99403797D01*
X150760691Y-99406947D01*
X150739250Y-99408000D01*
X150301750Y-99408000D01*
X150280309Y-99406947D01*
X150259074Y-99403797D01*
X150238250Y-99398581D01*
X150218038Y-99391349D01*
X150198632Y-99382170D01*
X150180219Y-99371134D01*
X150162976Y-99358346D01*
X150147070Y-99343930D01*
X150132654Y-99328024D01*
X150119866Y-99310781D01*
X150108830Y-99292368D01*
X150099651Y-99272962D01*
X150092419Y-99252750D01*
X150087203Y-99231926D01*
X150084053Y-99210691D01*
X150083000Y-99189250D01*
X150083000Y-98676750D01*
X150084053Y-98655309D01*
X150087203Y-98634074D01*
X150092419Y-98613250D01*
X150099651Y-98593038D01*
X150108830Y-98573632D01*
X150119866Y-98555219D01*
X150132654Y-98537976D01*
X150147070Y-98522070D01*
X150162976Y-98507654D01*
X150180219Y-98494866D01*
X150198632Y-98483830D01*
X150218038Y-98474651D01*
X150238250Y-98467419D01*
X150259074Y-98462203D01*
X150280309Y-98459053D01*
X150301750Y-98458000D01*
X150739250Y-98458000D01*
X150760691Y-98459053D01*
G37*
G36*
X139152691Y-101380053D02*
G01*
X139173926Y-101383203D01*
X139194750Y-101388419D01*
X139214962Y-101395651D01*
X139234368Y-101404830D01*
X139252781Y-101415866D01*
X139270024Y-101428654D01*
X139285930Y-101443070D01*
X139300346Y-101458976D01*
X139313134Y-101476219D01*
X139324170Y-101494632D01*
X139333349Y-101514038D01*
X139340581Y-101534250D01*
X139345797Y-101555074D01*
X139348947Y-101576309D01*
X139350000Y-101597750D01*
X139350000Y-102110250D01*
X139348947Y-102131691D01*
X139345797Y-102152926D01*
X139340581Y-102173750D01*
X139333349Y-102193962D01*
X139324170Y-102213368D01*
X139313134Y-102231781D01*
X139300346Y-102249024D01*
X139285930Y-102264930D01*
X139270024Y-102279346D01*
X139252781Y-102292134D01*
X139234368Y-102303170D01*
X139214962Y-102312349D01*
X139194750Y-102319581D01*
X139173926Y-102324797D01*
X139152691Y-102327947D01*
X139131250Y-102329000D01*
X138693750Y-102329000D01*
X138672309Y-102327947D01*
X138651074Y-102324797D01*
X138630250Y-102319581D01*
X138610038Y-102312349D01*
X138590632Y-102303170D01*
X138572219Y-102292134D01*
X138554976Y-102279346D01*
X138539070Y-102264930D01*
X138524654Y-102249024D01*
X138511866Y-102231781D01*
X138500830Y-102213368D01*
X138491651Y-102193962D01*
X138484419Y-102173750D01*
X138479203Y-102152926D01*
X138476053Y-102131691D01*
X138475000Y-102110250D01*
X138475000Y-101597750D01*
X138476053Y-101576309D01*
X138479203Y-101555074D01*
X138484419Y-101534250D01*
X138491651Y-101514038D01*
X138500830Y-101494632D01*
X138511866Y-101476219D01*
X138524654Y-101458976D01*
X138539070Y-101443070D01*
X138554976Y-101428654D01*
X138572219Y-101415866D01*
X138590632Y-101404830D01*
X138610038Y-101395651D01*
X138630250Y-101388419D01*
X138651074Y-101383203D01*
X138672309Y-101380053D01*
X138693750Y-101379000D01*
X139131250Y-101379000D01*
X139152691Y-101380053D01*
G37*
G36*
X140727691Y-101380053D02*
G01*
X140748926Y-101383203D01*
X140769750Y-101388419D01*
X140789962Y-101395651D01*
X140809368Y-101404830D01*
X140827781Y-101415866D01*
X140845024Y-101428654D01*
X140860930Y-101443070D01*
X140875346Y-101458976D01*
X140888134Y-101476219D01*
X140899170Y-101494632D01*
X140908349Y-101514038D01*
X140915581Y-101534250D01*
X140920797Y-101555074D01*
X140923947Y-101576309D01*
X140925000Y-101597750D01*
X140925000Y-102110250D01*
X140923947Y-102131691D01*
X140920797Y-102152926D01*
X140915581Y-102173750D01*
X140908349Y-102193962D01*
X140899170Y-102213368D01*
X140888134Y-102231781D01*
X140875346Y-102249024D01*
X140860930Y-102264930D01*
X140845024Y-102279346D01*
X140827781Y-102292134D01*
X140809368Y-102303170D01*
X140789962Y-102312349D01*
X140769750Y-102319581D01*
X140748926Y-102324797D01*
X140727691Y-102327947D01*
X140706250Y-102329000D01*
X140268750Y-102329000D01*
X140247309Y-102327947D01*
X140226074Y-102324797D01*
X140205250Y-102319581D01*
X140185038Y-102312349D01*
X140165632Y-102303170D01*
X140147219Y-102292134D01*
X140129976Y-102279346D01*
X140114070Y-102264930D01*
X140099654Y-102249024D01*
X140086866Y-102231781D01*
X140075830Y-102213368D01*
X140066651Y-102193962D01*
X140059419Y-102173750D01*
X140054203Y-102152926D01*
X140051053Y-102131691D01*
X140050000Y-102110250D01*
X140050000Y-101597750D01*
X140051053Y-101576309D01*
X140054203Y-101555074D01*
X140059419Y-101534250D01*
X140066651Y-101514038D01*
X140075830Y-101494632D01*
X140086866Y-101476219D01*
X140099654Y-101458976D01*
X140114070Y-101443070D01*
X140129976Y-101428654D01*
X140147219Y-101415866D01*
X140165632Y-101404830D01*
X140185038Y-101395651D01*
X140205250Y-101388419D01*
X140226074Y-101383203D01*
X140247309Y-101380053D01*
X140268750Y-101379000D01*
X140706250Y-101379000D01*
X140727691Y-101380053D01*
G37*
G36*
X144283691Y-97951053D02*
G01*
X144304926Y-97954203D01*
X144325750Y-97959419D01*
X144345962Y-97966651D01*
X144365368Y-97975830D01*
X144383781Y-97986866D01*
X144401024Y-97999654D01*
X144416930Y-98014070D01*
X144431346Y-98029976D01*
X144444134Y-98047219D01*
X144455170Y-98065632D01*
X144464349Y-98085038D01*
X144471581Y-98105250D01*
X144476797Y-98126074D01*
X144479947Y-98147309D01*
X144481000Y-98168750D01*
X144481000Y-98681250D01*
X144479947Y-98702691D01*
X144476797Y-98723926D01*
X144471581Y-98744750D01*
X144464349Y-98764962D01*
X144455170Y-98784368D01*
X144444134Y-98802781D01*
X144431346Y-98820024D01*
X144416930Y-98835930D01*
X144401024Y-98850346D01*
X144383781Y-98863134D01*
X144365368Y-98874170D01*
X144345962Y-98883349D01*
X144325750Y-98890581D01*
X144304926Y-98895797D01*
X144283691Y-98898947D01*
X144262250Y-98900000D01*
X143824750Y-98900000D01*
X143803309Y-98898947D01*
X143782074Y-98895797D01*
X143761250Y-98890581D01*
X143741038Y-98883349D01*
X143721632Y-98874170D01*
X143703219Y-98863134D01*
X143685976Y-98850346D01*
X143670070Y-98835930D01*
X143655654Y-98820024D01*
X143642866Y-98802781D01*
X143631830Y-98784368D01*
X143622651Y-98764962D01*
X143615419Y-98744750D01*
X143610203Y-98723926D01*
X143607053Y-98702691D01*
X143606000Y-98681250D01*
X143606000Y-98168750D01*
X143607053Y-98147309D01*
X143610203Y-98126074D01*
X143615419Y-98105250D01*
X143622651Y-98085038D01*
X143631830Y-98065632D01*
X143642866Y-98047219D01*
X143655654Y-98029976D01*
X143670070Y-98014070D01*
X143685976Y-97999654D01*
X143703219Y-97986866D01*
X143721632Y-97975830D01*
X143741038Y-97966651D01*
X143761250Y-97959419D01*
X143782074Y-97954203D01*
X143803309Y-97951053D01*
X143824750Y-97950000D01*
X144262250Y-97950000D01*
X144283691Y-97951053D01*
G37*
G36*
X142708691Y-97951053D02*
G01*
X142729926Y-97954203D01*
X142750750Y-97959419D01*
X142770962Y-97966651D01*
X142790368Y-97975830D01*
X142808781Y-97986866D01*
X142826024Y-97999654D01*
X142841930Y-98014070D01*
X142856346Y-98029976D01*
X142869134Y-98047219D01*
X142880170Y-98065632D01*
X142889349Y-98085038D01*
X142896581Y-98105250D01*
X142901797Y-98126074D01*
X142904947Y-98147309D01*
X142906000Y-98168750D01*
X142906000Y-98681250D01*
X142904947Y-98702691D01*
X142901797Y-98723926D01*
X142896581Y-98744750D01*
X142889349Y-98764962D01*
X142880170Y-98784368D01*
X142869134Y-98802781D01*
X142856346Y-98820024D01*
X142841930Y-98835930D01*
X142826024Y-98850346D01*
X142808781Y-98863134D01*
X142790368Y-98874170D01*
X142770962Y-98883349D01*
X142750750Y-98890581D01*
X142729926Y-98895797D01*
X142708691Y-98898947D01*
X142687250Y-98900000D01*
X142249750Y-98900000D01*
X142228309Y-98898947D01*
X142207074Y-98895797D01*
X142186250Y-98890581D01*
X142166038Y-98883349D01*
X142146632Y-98874170D01*
X142128219Y-98863134D01*
X142110976Y-98850346D01*
X142095070Y-98835930D01*
X142080654Y-98820024D01*
X142067866Y-98802781D01*
X142056830Y-98784368D01*
X142047651Y-98764962D01*
X142040419Y-98744750D01*
X142035203Y-98723926D01*
X142032053Y-98702691D01*
X142031000Y-98681250D01*
X142031000Y-98168750D01*
X142032053Y-98147309D01*
X142035203Y-98126074D01*
X142040419Y-98105250D01*
X142047651Y-98085038D01*
X142056830Y-98065632D01*
X142067866Y-98047219D01*
X142080654Y-98029976D01*
X142095070Y-98014070D01*
X142110976Y-97999654D01*
X142128219Y-97986866D01*
X142146632Y-97975830D01*
X142166038Y-97966651D01*
X142186250Y-97959419D01*
X142207074Y-97954203D01*
X142228309Y-97951053D01*
X142249750Y-97950000D01*
X142687250Y-97950000D01*
X142708691Y-97951053D01*
G37*
G36*
X152169691Y-105380053D02*
G01*
X152190926Y-105383203D01*
X152211750Y-105388419D01*
X152231962Y-105395651D01*
X152251368Y-105404830D01*
X152269781Y-105415866D01*
X152287024Y-105428654D01*
X152302930Y-105443070D01*
X152317346Y-105458976D01*
X152330134Y-105476219D01*
X152341170Y-105494632D01*
X152350349Y-105514038D01*
X152357581Y-105534250D01*
X152362797Y-105555074D01*
X152365947Y-105576309D01*
X152367000Y-105597750D01*
X152367000Y-106035250D01*
X152365947Y-106056691D01*
X152362797Y-106077926D01*
X152357581Y-106098750D01*
X152350349Y-106118962D01*
X152341170Y-106138368D01*
X152330134Y-106156781D01*
X152317346Y-106174024D01*
X152302930Y-106189930D01*
X152287024Y-106204346D01*
X152269781Y-106217134D01*
X152251368Y-106228170D01*
X152231962Y-106237349D01*
X152211750Y-106244581D01*
X152190926Y-106249797D01*
X152169691Y-106252947D01*
X152148250Y-106254000D01*
X151635750Y-106254000D01*
X151614309Y-106252947D01*
X151593074Y-106249797D01*
X151572250Y-106244581D01*
X151552038Y-106237349D01*
X151532632Y-106228170D01*
X151514219Y-106217134D01*
X151496976Y-106204346D01*
X151481070Y-106189930D01*
X151466654Y-106174024D01*
X151453866Y-106156781D01*
X151442830Y-106138368D01*
X151433651Y-106118962D01*
X151426419Y-106098750D01*
X151421203Y-106077926D01*
X151418053Y-106056691D01*
X151417000Y-106035250D01*
X151417000Y-105597750D01*
X151418053Y-105576309D01*
X151421203Y-105555074D01*
X151426419Y-105534250D01*
X151433651Y-105514038D01*
X151442830Y-105494632D01*
X151453866Y-105476219D01*
X151466654Y-105458976D01*
X151481070Y-105443070D01*
X151496976Y-105428654D01*
X151514219Y-105415866D01*
X151532632Y-105404830D01*
X151552038Y-105395651D01*
X151572250Y-105388419D01*
X151593074Y-105383203D01*
X151614309Y-105380053D01*
X151635750Y-105379000D01*
X152148250Y-105379000D01*
X152169691Y-105380053D01*
G37*
G36*
X152169691Y-103805053D02*
G01*
X152190926Y-103808203D01*
X152211750Y-103813419D01*
X152231962Y-103820651D01*
X152251368Y-103829830D01*
X152269781Y-103840866D01*
X152287024Y-103853654D01*
X152302930Y-103868070D01*
X152317346Y-103883976D01*
X152330134Y-103901219D01*
X152341170Y-103919632D01*
X152350349Y-103939038D01*
X152357581Y-103959250D01*
X152362797Y-103980074D01*
X152365947Y-104001309D01*
X152367000Y-104022750D01*
X152367000Y-104460250D01*
X152365947Y-104481691D01*
X152362797Y-104502926D01*
X152357581Y-104523750D01*
X152350349Y-104543962D01*
X152341170Y-104563368D01*
X152330134Y-104581781D01*
X152317346Y-104599024D01*
X152302930Y-104614930D01*
X152287024Y-104629346D01*
X152269781Y-104642134D01*
X152251368Y-104653170D01*
X152231962Y-104662349D01*
X152211750Y-104669581D01*
X152190926Y-104674797D01*
X152169691Y-104677947D01*
X152148250Y-104679000D01*
X151635750Y-104679000D01*
X151614309Y-104677947D01*
X151593074Y-104674797D01*
X151572250Y-104669581D01*
X151552038Y-104662349D01*
X151532632Y-104653170D01*
X151514219Y-104642134D01*
X151496976Y-104629346D01*
X151481070Y-104614930D01*
X151466654Y-104599024D01*
X151453866Y-104581781D01*
X151442830Y-104563368D01*
X151433651Y-104543962D01*
X151426419Y-104523750D01*
X151421203Y-104502926D01*
X151418053Y-104481691D01*
X151417000Y-104460250D01*
X151417000Y-104022750D01*
X151418053Y-104001309D01*
X151421203Y-103980074D01*
X151426419Y-103959250D01*
X151433651Y-103939038D01*
X151442830Y-103919632D01*
X151453866Y-103901219D01*
X151466654Y-103883976D01*
X151481070Y-103868070D01*
X151496976Y-103853654D01*
X151514219Y-103840866D01*
X151532632Y-103829830D01*
X151552038Y-103820651D01*
X151572250Y-103813419D01*
X151593074Y-103808203D01*
X151614309Y-103805053D01*
X151635750Y-103804000D01*
X152148250Y-103804000D01*
X152169691Y-103805053D01*
G37*
G36*
X134707691Y-99602053D02*
G01*
X134728926Y-99605203D01*
X134749750Y-99610419D01*
X134769962Y-99617651D01*
X134789368Y-99626830D01*
X134807781Y-99637866D01*
X134825024Y-99650654D01*
X134840930Y-99665070D01*
X134855346Y-99680976D01*
X134868134Y-99698219D01*
X134879170Y-99716632D01*
X134888349Y-99736038D01*
X134895581Y-99756250D01*
X134900797Y-99777074D01*
X134903947Y-99798309D01*
X134905000Y-99819750D01*
X134905000Y-100332250D01*
X134903947Y-100353691D01*
X134900797Y-100374926D01*
X134895581Y-100395750D01*
X134888349Y-100415962D01*
X134879170Y-100435368D01*
X134868134Y-100453781D01*
X134855346Y-100471024D01*
X134840930Y-100486930D01*
X134825024Y-100501346D01*
X134807781Y-100514134D01*
X134789368Y-100525170D01*
X134769962Y-100534349D01*
X134749750Y-100541581D01*
X134728926Y-100546797D01*
X134707691Y-100549947D01*
X134686250Y-100551000D01*
X134248750Y-100551000D01*
X134227309Y-100549947D01*
X134206074Y-100546797D01*
X134185250Y-100541581D01*
X134165038Y-100534349D01*
X134145632Y-100525170D01*
X134127219Y-100514134D01*
X134109976Y-100501346D01*
X134094070Y-100486930D01*
X134079654Y-100471024D01*
X134066866Y-100453781D01*
X134055830Y-100435368D01*
X134046651Y-100415962D01*
X134039419Y-100395750D01*
X134034203Y-100374926D01*
X134031053Y-100353691D01*
X134030000Y-100332250D01*
X134030000Y-99819750D01*
X134031053Y-99798309D01*
X134034203Y-99777074D01*
X134039419Y-99756250D01*
X134046651Y-99736038D01*
X134055830Y-99716632D01*
X134066866Y-99698219D01*
X134079654Y-99680976D01*
X134094070Y-99665070D01*
X134109976Y-99650654D01*
X134127219Y-99637866D01*
X134145632Y-99626830D01*
X134165038Y-99617651D01*
X134185250Y-99610419D01*
X134206074Y-99605203D01*
X134227309Y-99602053D01*
X134248750Y-99601000D01*
X134686250Y-99601000D01*
X134707691Y-99602053D01*
G37*
G36*
X136282691Y-99602053D02*
G01*
X136303926Y-99605203D01*
X136324750Y-99610419D01*
X136344962Y-99617651D01*
X136364368Y-99626830D01*
X136382781Y-99637866D01*
X136400024Y-99650654D01*
X136415930Y-99665070D01*
X136430346Y-99680976D01*
X136443134Y-99698219D01*
X136454170Y-99716632D01*
X136463349Y-99736038D01*
X136470581Y-99756250D01*
X136475797Y-99777074D01*
X136478947Y-99798309D01*
X136480000Y-99819750D01*
X136480000Y-100332250D01*
X136478947Y-100353691D01*
X136475797Y-100374926D01*
X136470581Y-100395750D01*
X136463349Y-100415962D01*
X136454170Y-100435368D01*
X136443134Y-100453781D01*
X136430346Y-100471024D01*
X136415930Y-100486930D01*
X136400024Y-100501346D01*
X136382781Y-100514134D01*
X136364368Y-100525170D01*
X136344962Y-100534349D01*
X136324750Y-100541581D01*
X136303926Y-100546797D01*
X136282691Y-100549947D01*
X136261250Y-100551000D01*
X135823750Y-100551000D01*
X135802309Y-100549947D01*
X135781074Y-100546797D01*
X135760250Y-100541581D01*
X135740038Y-100534349D01*
X135720632Y-100525170D01*
X135702219Y-100514134D01*
X135684976Y-100501346D01*
X135669070Y-100486930D01*
X135654654Y-100471024D01*
X135641866Y-100453781D01*
X135630830Y-100435368D01*
X135621651Y-100415962D01*
X135614419Y-100395750D01*
X135609203Y-100374926D01*
X135606053Y-100353691D01*
X135605000Y-100332250D01*
X135605000Y-99819750D01*
X135606053Y-99798309D01*
X135609203Y-99777074D01*
X135614419Y-99756250D01*
X135621651Y-99736038D01*
X135630830Y-99716632D01*
X135641866Y-99698219D01*
X135654654Y-99680976D01*
X135669070Y-99665070D01*
X135684976Y-99650654D01*
X135702219Y-99637866D01*
X135720632Y-99626830D01*
X135740038Y-99617651D01*
X135760250Y-99610419D01*
X135781074Y-99605203D01*
X135802309Y-99602053D01*
X135823750Y-99601000D01*
X136261250Y-99601000D01*
X136282691Y-99602053D01*
G37*
G36*
X144029691Y-93887053D02*
G01*
X144050926Y-93890203D01*
X144071750Y-93895419D01*
X144091962Y-93902651D01*
X144111368Y-93911830D01*
X144129781Y-93922866D01*
X144147024Y-93935654D01*
X144162930Y-93950070D01*
X144177346Y-93965976D01*
X144190134Y-93983219D01*
X144201170Y-94001632D01*
X144210349Y-94021038D01*
X144217581Y-94041250D01*
X144222797Y-94062074D01*
X144225947Y-94083309D01*
X144227000Y-94104750D01*
X144227000Y-94617250D01*
X144225947Y-94638691D01*
X144222797Y-94659926D01*
X144217581Y-94680750D01*
X144210349Y-94700962D01*
X144201170Y-94720368D01*
X144190134Y-94738781D01*
X144177346Y-94756024D01*
X144162930Y-94771930D01*
X144147024Y-94786346D01*
X144129781Y-94799134D01*
X144111368Y-94810170D01*
X144091962Y-94819349D01*
X144071750Y-94826581D01*
X144050926Y-94831797D01*
X144029691Y-94834947D01*
X144008250Y-94836000D01*
X143570750Y-94836000D01*
X143549309Y-94834947D01*
X143528074Y-94831797D01*
X143507250Y-94826581D01*
X143487038Y-94819349D01*
X143467632Y-94810170D01*
X143449219Y-94799134D01*
X143431976Y-94786346D01*
X143416070Y-94771930D01*
X143401654Y-94756024D01*
X143388866Y-94738781D01*
X143377830Y-94720368D01*
X143368651Y-94700962D01*
X143361419Y-94680750D01*
X143356203Y-94659926D01*
X143353053Y-94638691D01*
X143352000Y-94617250D01*
X143352000Y-94104750D01*
X143353053Y-94083309D01*
X143356203Y-94062074D01*
X143361419Y-94041250D01*
X143368651Y-94021038D01*
X143377830Y-94001632D01*
X143388866Y-93983219D01*
X143401654Y-93965976D01*
X143416070Y-93950070D01*
X143431976Y-93935654D01*
X143449219Y-93922866D01*
X143467632Y-93911830D01*
X143487038Y-93902651D01*
X143507250Y-93895419D01*
X143528074Y-93890203D01*
X143549309Y-93887053D01*
X143570750Y-93886000D01*
X144008250Y-93886000D01*
X144029691Y-93887053D01*
G37*
G36*
X142454691Y-93887053D02*
G01*
X142475926Y-93890203D01*
X142496750Y-93895419D01*
X142516962Y-93902651D01*
X142536368Y-93911830D01*
X142554781Y-93922866D01*
X142572024Y-93935654D01*
X142587930Y-93950070D01*
X142602346Y-93965976D01*
X142615134Y-93983219D01*
X142626170Y-94001632D01*
X142635349Y-94021038D01*
X142642581Y-94041250D01*
X142647797Y-94062074D01*
X142650947Y-94083309D01*
X142652000Y-94104750D01*
X142652000Y-94617250D01*
X142650947Y-94638691D01*
X142647797Y-94659926D01*
X142642581Y-94680750D01*
X142635349Y-94700962D01*
X142626170Y-94720368D01*
X142615134Y-94738781D01*
X142602346Y-94756024D01*
X142587930Y-94771930D01*
X142572024Y-94786346D01*
X142554781Y-94799134D01*
X142536368Y-94810170D01*
X142516962Y-94819349D01*
X142496750Y-94826581D01*
X142475926Y-94831797D01*
X142454691Y-94834947D01*
X142433250Y-94836000D01*
X141995750Y-94836000D01*
X141974309Y-94834947D01*
X141953074Y-94831797D01*
X141932250Y-94826581D01*
X141912038Y-94819349D01*
X141892632Y-94810170D01*
X141874219Y-94799134D01*
X141856976Y-94786346D01*
X141841070Y-94771930D01*
X141826654Y-94756024D01*
X141813866Y-94738781D01*
X141802830Y-94720368D01*
X141793651Y-94700962D01*
X141786419Y-94680750D01*
X141781203Y-94659926D01*
X141778053Y-94638691D01*
X141777000Y-94617250D01*
X141777000Y-94104750D01*
X141778053Y-94083309D01*
X141781203Y-94062074D01*
X141786419Y-94041250D01*
X141793651Y-94021038D01*
X141802830Y-94001632D01*
X141813866Y-93983219D01*
X141826654Y-93965976D01*
X141841070Y-93950070D01*
X141856976Y-93935654D01*
X141874219Y-93922866D01*
X141892632Y-93911830D01*
X141912038Y-93902651D01*
X141932250Y-93895419D01*
X141953074Y-93890203D01*
X141974309Y-93887053D01*
X141995750Y-93886000D01*
X142433250Y-93886000D01*
X142454691Y-93887053D01*
G37*
G36*
X170203691Y-100554053D02*
G01*
X170224926Y-100557203D01*
X170245750Y-100562419D01*
X170265962Y-100569651D01*
X170285368Y-100578830D01*
X170303781Y-100589866D01*
X170321024Y-100602654D01*
X170336930Y-100617070D01*
X170351346Y-100632976D01*
X170364134Y-100650219D01*
X170375170Y-100668632D01*
X170384349Y-100688038D01*
X170391581Y-100708250D01*
X170396797Y-100729074D01*
X170399947Y-100750309D01*
X170401000Y-100771750D01*
X170401000Y-101209250D01*
X170399947Y-101230691D01*
X170396797Y-101251926D01*
X170391581Y-101272750D01*
X170384349Y-101292962D01*
X170375170Y-101312368D01*
X170364134Y-101330781D01*
X170351346Y-101348024D01*
X170336930Y-101363930D01*
X170321024Y-101378346D01*
X170303781Y-101391134D01*
X170285368Y-101402170D01*
X170265962Y-101411349D01*
X170245750Y-101418581D01*
X170224926Y-101423797D01*
X170203691Y-101426947D01*
X170182250Y-101428000D01*
X169669750Y-101428000D01*
X169648309Y-101426947D01*
X169627074Y-101423797D01*
X169606250Y-101418581D01*
X169586038Y-101411349D01*
X169566632Y-101402170D01*
X169548219Y-101391134D01*
X169530976Y-101378346D01*
X169515070Y-101363930D01*
X169500654Y-101348024D01*
X169487866Y-101330781D01*
X169476830Y-101312368D01*
X169467651Y-101292962D01*
X169460419Y-101272750D01*
X169455203Y-101251926D01*
X169452053Y-101230691D01*
X169451000Y-101209250D01*
X169451000Y-100771750D01*
X169452053Y-100750309D01*
X169455203Y-100729074D01*
X169460419Y-100708250D01*
X169467651Y-100688038D01*
X169476830Y-100668632D01*
X169487866Y-100650219D01*
X169500654Y-100632976D01*
X169515070Y-100617070D01*
X169530976Y-100602654D01*
X169548219Y-100589866D01*
X169566632Y-100578830D01*
X169586038Y-100569651D01*
X169606250Y-100562419D01*
X169627074Y-100557203D01*
X169648309Y-100554053D01*
X169669750Y-100553000D01*
X170182250Y-100553000D01*
X170203691Y-100554053D01*
G37*
G36*
X170203691Y-98979053D02*
G01*
X170224926Y-98982203D01*
X170245750Y-98987419D01*
X170265962Y-98994651D01*
X170285368Y-99003830D01*
X170303781Y-99014866D01*
X170321024Y-99027654D01*
X170336930Y-99042070D01*
X170351346Y-99057976D01*
X170364134Y-99075219D01*
X170375170Y-99093632D01*
X170384349Y-99113038D01*
X170391581Y-99133250D01*
X170396797Y-99154074D01*
X170399947Y-99175309D01*
X170401000Y-99196750D01*
X170401000Y-99634250D01*
X170399947Y-99655691D01*
X170396797Y-99676926D01*
X170391581Y-99697750D01*
X170384349Y-99717962D01*
X170375170Y-99737368D01*
X170364134Y-99755781D01*
X170351346Y-99773024D01*
X170336930Y-99788930D01*
X170321024Y-99803346D01*
X170303781Y-99816134D01*
X170285368Y-99827170D01*
X170265962Y-99836349D01*
X170245750Y-99843581D01*
X170224926Y-99848797D01*
X170203691Y-99851947D01*
X170182250Y-99853000D01*
X169669750Y-99853000D01*
X169648309Y-99851947D01*
X169627074Y-99848797D01*
X169606250Y-99843581D01*
X169586038Y-99836349D01*
X169566632Y-99827170D01*
X169548219Y-99816134D01*
X169530976Y-99803346D01*
X169515070Y-99788930D01*
X169500654Y-99773024D01*
X169487866Y-99755781D01*
X169476830Y-99737368D01*
X169467651Y-99717962D01*
X169460419Y-99697750D01*
X169455203Y-99676926D01*
X169452053Y-99655691D01*
X169451000Y-99634250D01*
X169451000Y-99196750D01*
X169452053Y-99175309D01*
X169455203Y-99154074D01*
X169460419Y-99133250D01*
X169467651Y-99113038D01*
X169476830Y-99093632D01*
X169487866Y-99075219D01*
X169500654Y-99057976D01*
X169515070Y-99042070D01*
X169530976Y-99027654D01*
X169548219Y-99014866D01*
X169566632Y-99003830D01*
X169586038Y-98994651D01*
X169606250Y-98987419D01*
X169627074Y-98982203D01*
X169648309Y-98979053D01*
X169669750Y-98978000D01*
X170182250Y-98978000D01*
X170203691Y-98979053D01*
G37*
G36*
X168171691Y-99042553D02*
G01*
X168192926Y-99045703D01*
X168213750Y-99050919D01*
X168233962Y-99058151D01*
X168253368Y-99067330D01*
X168271781Y-99078366D01*
X168289024Y-99091154D01*
X168304930Y-99105570D01*
X168319346Y-99121476D01*
X168332134Y-99138719D01*
X168343170Y-99157132D01*
X168352349Y-99176538D01*
X168359581Y-99196750D01*
X168364797Y-99217574D01*
X168367947Y-99238809D01*
X168369000Y-99260250D01*
X168369000Y-99697750D01*
X168367947Y-99719191D01*
X168364797Y-99740426D01*
X168359581Y-99761250D01*
X168352349Y-99781462D01*
X168343170Y-99800868D01*
X168332134Y-99819281D01*
X168319346Y-99836524D01*
X168304930Y-99852430D01*
X168289024Y-99866846D01*
X168271781Y-99879634D01*
X168253368Y-99890670D01*
X168233962Y-99899849D01*
X168213750Y-99907081D01*
X168192926Y-99912297D01*
X168171691Y-99915447D01*
X168150250Y-99916500D01*
X167637750Y-99916500D01*
X167616309Y-99915447D01*
X167595074Y-99912297D01*
X167574250Y-99907081D01*
X167554038Y-99899849D01*
X167534632Y-99890670D01*
X167516219Y-99879634D01*
X167498976Y-99866846D01*
X167483070Y-99852430D01*
X167468654Y-99836524D01*
X167455866Y-99819281D01*
X167444830Y-99800868D01*
X167435651Y-99781462D01*
X167428419Y-99761250D01*
X167423203Y-99740426D01*
X167420053Y-99719191D01*
X167419000Y-99697750D01*
X167419000Y-99260250D01*
X167420053Y-99238809D01*
X167423203Y-99217574D01*
X167428419Y-99196750D01*
X167435651Y-99176538D01*
X167444830Y-99157132D01*
X167455866Y-99138719D01*
X167468654Y-99121476D01*
X167483070Y-99105570D01*
X167498976Y-99091154D01*
X167516219Y-99078366D01*
X167534632Y-99067330D01*
X167554038Y-99058151D01*
X167574250Y-99050919D01*
X167595074Y-99045703D01*
X167616309Y-99042553D01*
X167637750Y-99041500D01*
X168150250Y-99041500D01*
X168171691Y-99042553D01*
G37*
G36*
X168171691Y-100617553D02*
G01*
X168192926Y-100620703D01*
X168213750Y-100625919D01*
X168233962Y-100633151D01*
X168253368Y-100642330D01*
X168271781Y-100653366D01*
X168289024Y-100666154D01*
X168304930Y-100680570D01*
X168319346Y-100696476D01*
X168332134Y-100713719D01*
X168343170Y-100732132D01*
X168352349Y-100751538D01*
X168359581Y-100771750D01*
X168364797Y-100792574D01*
X168367947Y-100813809D01*
X168369000Y-100835250D01*
X168369000Y-101272750D01*
X168367947Y-101294191D01*
X168364797Y-101315426D01*
X168359581Y-101336250D01*
X168352349Y-101356462D01*
X168343170Y-101375868D01*
X168332134Y-101394281D01*
X168319346Y-101411524D01*
X168304930Y-101427430D01*
X168289024Y-101441846D01*
X168271781Y-101454634D01*
X168253368Y-101465670D01*
X168233962Y-101474849D01*
X168213750Y-101482081D01*
X168192926Y-101487297D01*
X168171691Y-101490447D01*
X168150250Y-101491500D01*
X167637750Y-101491500D01*
X167616309Y-101490447D01*
X167595074Y-101487297D01*
X167574250Y-101482081D01*
X167554038Y-101474849D01*
X167534632Y-101465670D01*
X167516219Y-101454634D01*
X167498976Y-101441846D01*
X167483070Y-101427430D01*
X167468654Y-101411524D01*
X167455866Y-101394281D01*
X167444830Y-101375868D01*
X167435651Y-101356462D01*
X167428419Y-101336250D01*
X167423203Y-101315426D01*
X167420053Y-101294191D01*
X167419000Y-101272750D01*
X167419000Y-100835250D01*
X167420053Y-100813809D01*
X167423203Y-100792574D01*
X167428419Y-100771750D01*
X167435651Y-100751538D01*
X167444830Y-100732132D01*
X167455866Y-100713719D01*
X167468654Y-100696476D01*
X167483070Y-100680570D01*
X167498976Y-100666154D01*
X167516219Y-100653366D01*
X167534632Y-100642330D01*
X167554038Y-100633151D01*
X167574250Y-100625919D01*
X167595074Y-100620703D01*
X167616309Y-100617553D01*
X167637750Y-100616500D01*
X168150250Y-100616500D01*
X168171691Y-100617553D01*
G37*
G36*
X130198691Y-133904053D02*
G01*
X130219926Y-133907203D01*
X130240750Y-133912419D01*
X130260962Y-133919651D01*
X130280368Y-133928830D01*
X130298781Y-133939866D01*
X130316024Y-133952654D01*
X130331930Y-133967070D01*
X130346346Y-133982976D01*
X130359134Y-134000219D01*
X130370170Y-134018632D01*
X130379349Y-134038038D01*
X130386581Y-134058250D01*
X130391797Y-134079074D01*
X130394947Y-134100309D01*
X130396000Y-134121750D01*
X130396000Y-134559250D01*
X130394947Y-134580691D01*
X130391797Y-134601926D01*
X130386581Y-134622750D01*
X130379349Y-134642962D01*
X130370170Y-134662368D01*
X130359134Y-134680781D01*
X130346346Y-134698024D01*
X130331930Y-134713930D01*
X130316024Y-134728346D01*
X130298781Y-134741134D01*
X130280368Y-134752170D01*
X130260962Y-134761349D01*
X130240750Y-134768581D01*
X130219926Y-134773797D01*
X130198691Y-134776947D01*
X130177250Y-134778000D01*
X129664750Y-134778000D01*
X129643309Y-134776947D01*
X129622074Y-134773797D01*
X129601250Y-134768581D01*
X129581038Y-134761349D01*
X129561632Y-134752170D01*
X129543219Y-134741134D01*
X129525976Y-134728346D01*
X129510070Y-134713930D01*
X129495654Y-134698024D01*
X129482866Y-134680781D01*
X129471830Y-134662368D01*
X129462651Y-134642962D01*
X129455419Y-134622750D01*
X129450203Y-134601926D01*
X129447053Y-134580691D01*
X129446000Y-134559250D01*
X129446000Y-134121750D01*
X129447053Y-134100309D01*
X129450203Y-134079074D01*
X129455419Y-134058250D01*
X129462651Y-134038038D01*
X129471830Y-134018632D01*
X129482866Y-134000219D01*
X129495654Y-133982976D01*
X129510070Y-133967070D01*
X129525976Y-133952654D01*
X129543219Y-133939866D01*
X129561632Y-133928830D01*
X129581038Y-133919651D01*
X129601250Y-133912419D01*
X129622074Y-133907203D01*
X129643309Y-133904053D01*
X129664750Y-133903000D01*
X130177250Y-133903000D01*
X130198691Y-133904053D01*
G37*
G36*
X130198691Y-135479053D02*
G01*
X130219926Y-135482203D01*
X130240750Y-135487419D01*
X130260962Y-135494651D01*
X130280368Y-135503830D01*
X130298781Y-135514866D01*
X130316024Y-135527654D01*
X130331930Y-135542070D01*
X130346346Y-135557976D01*
X130359134Y-135575219D01*
X130370170Y-135593632D01*
X130379349Y-135613038D01*
X130386581Y-135633250D01*
X130391797Y-135654074D01*
X130394947Y-135675309D01*
X130396000Y-135696750D01*
X130396000Y-136134250D01*
X130394947Y-136155691D01*
X130391797Y-136176926D01*
X130386581Y-136197750D01*
X130379349Y-136217962D01*
X130370170Y-136237368D01*
X130359134Y-136255781D01*
X130346346Y-136273024D01*
X130331930Y-136288930D01*
X130316024Y-136303346D01*
X130298781Y-136316134D01*
X130280368Y-136327170D01*
X130260962Y-136336349D01*
X130240750Y-136343581D01*
X130219926Y-136348797D01*
X130198691Y-136351947D01*
X130177250Y-136353000D01*
X129664750Y-136353000D01*
X129643309Y-136351947D01*
X129622074Y-136348797D01*
X129601250Y-136343581D01*
X129581038Y-136336349D01*
X129561632Y-136327170D01*
X129543219Y-136316134D01*
X129525976Y-136303346D01*
X129510070Y-136288930D01*
X129495654Y-136273024D01*
X129482866Y-136255781D01*
X129471830Y-136237368D01*
X129462651Y-136217962D01*
X129455419Y-136197750D01*
X129450203Y-136176926D01*
X129447053Y-136155691D01*
X129446000Y-136134250D01*
X129446000Y-135696750D01*
X129447053Y-135675309D01*
X129450203Y-135654074D01*
X129455419Y-135633250D01*
X129462651Y-135613038D01*
X129471830Y-135593632D01*
X129482866Y-135575219D01*
X129495654Y-135557976D01*
X129510070Y-135542070D01*
X129525976Y-135527654D01*
X129543219Y-135514866D01*
X129561632Y-135503830D01*
X129581038Y-135494651D01*
X129601250Y-135487419D01*
X129622074Y-135482203D01*
X129643309Y-135479053D01*
X129664750Y-135478000D01*
X130177250Y-135478000D01*
X130198691Y-135479053D01*
G37*
G36*
X122105791Y-136480149D02*
G01*
X122127026Y-136483299D01*
X122147850Y-136488515D01*
X122168062Y-136495747D01*
X122187468Y-136504926D01*
X122205881Y-136515962D01*
X122223124Y-136528750D01*
X122239030Y-136543166D01*
X122253446Y-136559072D01*
X122266234Y-136576315D01*
X122277270Y-136594728D01*
X122286449Y-136614134D01*
X122293681Y-136634346D01*
X122298897Y-136655170D01*
X122302047Y-136676405D01*
X122303100Y-136697846D01*
X122303100Y-137210346D01*
X122302047Y-137231787D01*
X122298897Y-137253022D01*
X122293681Y-137273846D01*
X122286449Y-137294058D01*
X122277270Y-137313464D01*
X122266234Y-137331877D01*
X122253446Y-137349120D01*
X122239030Y-137365026D01*
X122223124Y-137379442D01*
X122205881Y-137392230D01*
X122187468Y-137403266D01*
X122168062Y-137412445D01*
X122147850Y-137419677D01*
X122127026Y-137424893D01*
X122105791Y-137428043D01*
X122084350Y-137429096D01*
X121646850Y-137429096D01*
X121625409Y-137428043D01*
X121604174Y-137424893D01*
X121583350Y-137419677D01*
X121563138Y-137412445D01*
X121543732Y-137403266D01*
X121525319Y-137392230D01*
X121508076Y-137379442D01*
X121492170Y-137365026D01*
X121477754Y-137349120D01*
X121464966Y-137331877D01*
X121453930Y-137313464D01*
X121444751Y-137294058D01*
X121437519Y-137273846D01*
X121432303Y-137253022D01*
X121429153Y-137231787D01*
X121428100Y-137210346D01*
X121428100Y-136697846D01*
X121429153Y-136676405D01*
X121432303Y-136655170D01*
X121437519Y-136634346D01*
X121444751Y-136614134D01*
X121453930Y-136594728D01*
X121464966Y-136576315D01*
X121477754Y-136559072D01*
X121492170Y-136543166D01*
X121508076Y-136528750D01*
X121525319Y-136515962D01*
X121543732Y-136504926D01*
X121563138Y-136495747D01*
X121583350Y-136488515D01*
X121604174Y-136483299D01*
X121625409Y-136480149D01*
X121646850Y-136479096D01*
X122084350Y-136479096D01*
X122105791Y-136480149D01*
G37*
G36*
X123680791Y-136480149D02*
G01*
X123702026Y-136483299D01*
X123722850Y-136488515D01*
X123743062Y-136495747D01*
X123762468Y-136504926D01*
X123780881Y-136515962D01*
X123798124Y-136528750D01*
X123814030Y-136543166D01*
X123828446Y-136559072D01*
X123841234Y-136576315D01*
X123852270Y-136594728D01*
X123861449Y-136614134D01*
X123868681Y-136634346D01*
X123873897Y-136655170D01*
X123877047Y-136676405D01*
X123878100Y-136697846D01*
X123878100Y-137210346D01*
X123877047Y-137231787D01*
X123873897Y-137253022D01*
X123868681Y-137273846D01*
X123861449Y-137294058D01*
X123852270Y-137313464D01*
X123841234Y-137331877D01*
X123828446Y-137349120D01*
X123814030Y-137365026D01*
X123798124Y-137379442D01*
X123780881Y-137392230D01*
X123762468Y-137403266D01*
X123743062Y-137412445D01*
X123722850Y-137419677D01*
X123702026Y-137424893D01*
X123680791Y-137428043D01*
X123659350Y-137429096D01*
X123221850Y-137429096D01*
X123200409Y-137428043D01*
X123179174Y-137424893D01*
X123158350Y-137419677D01*
X123138138Y-137412445D01*
X123118732Y-137403266D01*
X123100319Y-137392230D01*
X123083076Y-137379442D01*
X123067170Y-137365026D01*
X123052754Y-137349120D01*
X123039966Y-137331877D01*
X123028930Y-137313464D01*
X123019751Y-137294058D01*
X123012519Y-137273846D01*
X123007303Y-137253022D01*
X123004153Y-137231787D01*
X123003100Y-137210346D01*
X123003100Y-136697846D01*
X123004153Y-136676405D01*
X123007303Y-136655170D01*
X123012519Y-136634346D01*
X123019751Y-136614134D01*
X123028930Y-136594728D01*
X123039966Y-136576315D01*
X123052754Y-136559072D01*
X123067170Y-136543166D01*
X123083076Y-136528750D01*
X123100319Y-136515962D01*
X123118732Y-136504926D01*
X123138138Y-136495747D01*
X123158350Y-136488515D01*
X123179174Y-136483299D01*
X123200409Y-136480149D01*
X123221850Y-136479096D01*
X123659350Y-136479096D01*
X123680791Y-136480149D01*
G37*
G36*
X122105791Y-134321149D02*
G01*
X122127026Y-134324299D01*
X122147850Y-134329515D01*
X122168062Y-134336747D01*
X122187468Y-134345926D01*
X122205881Y-134356962D01*
X122223124Y-134369750D01*
X122239030Y-134384166D01*
X122253446Y-134400072D01*
X122266234Y-134417315D01*
X122277270Y-134435728D01*
X122286449Y-134455134D01*
X122293681Y-134475346D01*
X122298897Y-134496170D01*
X122302047Y-134517405D01*
X122303100Y-134538846D01*
X122303100Y-135051346D01*
X122302047Y-135072787D01*
X122298897Y-135094022D01*
X122293681Y-135114846D01*
X122286449Y-135135058D01*
X122277270Y-135154464D01*
X122266234Y-135172877D01*
X122253446Y-135190120D01*
X122239030Y-135206026D01*
X122223124Y-135220442D01*
X122205881Y-135233230D01*
X122187468Y-135244266D01*
X122168062Y-135253445D01*
X122147850Y-135260677D01*
X122127026Y-135265893D01*
X122105791Y-135269043D01*
X122084350Y-135270096D01*
X121646850Y-135270096D01*
X121625409Y-135269043D01*
X121604174Y-135265893D01*
X121583350Y-135260677D01*
X121563138Y-135253445D01*
X121543732Y-135244266D01*
X121525319Y-135233230D01*
X121508076Y-135220442D01*
X121492170Y-135206026D01*
X121477754Y-135190120D01*
X121464966Y-135172877D01*
X121453930Y-135154464D01*
X121444751Y-135135058D01*
X121437519Y-135114846D01*
X121432303Y-135094022D01*
X121429153Y-135072787D01*
X121428100Y-135051346D01*
X121428100Y-134538846D01*
X121429153Y-134517405D01*
X121432303Y-134496170D01*
X121437519Y-134475346D01*
X121444751Y-134455134D01*
X121453930Y-134435728D01*
X121464966Y-134417315D01*
X121477754Y-134400072D01*
X121492170Y-134384166D01*
X121508076Y-134369750D01*
X121525319Y-134356962D01*
X121543732Y-134345926D01*
X121563138Y-134336747D01*
X121583350Y-134329515D01*
X121604174Y-134324299D01*
X121625409Y-134321149D01*
X121646850Y-134320096D01*
X122084350Y-134320096D01*
X122105791Y-134321149D01*
G37*
G36*
X123680791Y-134321149D02*
G01*
X123702026Y-134324299D01*
X123722850Y-134329515D01*
X123743062Y-134336747D01*
X123762468Y-134345926D01*
X123780881Y-134356962D01*
X123798124Y-134369750D01*
X123814030Y-134384166D01*
X123828446Y-134400072D01*
X123841234Y-134417315D01*
X123852270Y-134435728D01*
X123861449Y-134455134D01*
X123868681Y-134475346D01*
X123873897Y-134496170D01*
X123877047Y-134517405D01*
X123878100Y-134538846D01*
X123878100Y-135051346D01*
X123877047Y-135072787D01*
X123873897Y-135094022D01*
X123868681Y-135114846D01*
X123861449Y-135135058D01*
X123852270Y-135154464D01*
X123841234Y-135172877D01*
X123828446Y-135190120D01*
X123814030Y-135206026D01*
X123798124Y-135220442D01*
X123780881Y-135233230D01*
X123762468Y-135244266D01*
X123743062Y-135253445D01*
X123722850Y-135260677D01*
X123702026Y-135265893D01*
X123680791Y-135269043D01*
X123659350Y-135270096D01*
X123221850Y-135270096D01*
X123200409Y-135269043D01*
X123179174Y-135265893D01*
X123158350Y-135260677D01*
X123138138Y-135253445D01*
X123118732Y-135244266D01*
X123100319Y-135233230D01*
X123083076Y-135220442D01*
X123067170Y-135206026D01*
X123052754Y-135190120D01*
X123039966Y-135172877D01*
X123028930Y-135154464D01*
X123019751Y-135135058D01*
X123012519Y-135114846D01*
X123007303Y-135094022D01*
X123004153Y-135072787D01*
X123003100Y-135051346D01*
X123003100Y-134538846D01*
X123004153Y-134517405D01*
X123007303Y-134496170D01*
X123012519Y-134475346D01*
X123019751Y-134455134D01*
X123028930Y-134435728D01*
X123039966Y-134417315D01*
X123052754Y-134400072D01*
X123067170Y-134384166D01*
X123083076Y-134369750D01*
X123100319Y-134356962D01*
X123118732Y-134345926D01*
X123138138Y-134336747D01*
X123158350Y-134329515D01*
X123179174Y-134324299D01*
X123200409Y-134321149D01*
X123221850Y-134320096D01*
X123659350Y-134320096D01*
X123680791Y-134321149D01*
G37*
G36*
X162710691Y-99065249D02*
G01*
X162731926Y-99068399D01*
X162752750Y-99073615D01*
X162772962Y-99080847D01*
X162792368Y-99090026D01*
X162810781Y-99101062D01*
X162828024Y-99113850D01*
X162843930Y-99128266D01*
X162858346Y-99144172D01*
X162871134Y-99161415D01*
X162882170Y-99179828D01*
X162891349Y-99199234D01*
X162898581Y-99219446D01*
X162903797Y-99240270D01*
X162906947Y-99261505D01*
X162908000Y-99282946D01*
X162908000Y-99720446D01*
X162906947Y-99741887D01*
X162903797Y-99763122D01*
X162898581Y-99783946D01*
X162891349Y-99804158D01*
X162882170Y-99823564D01*
X162871134Y-99841977D01*
X162858346Y-99859220D01*
X162843930Y-99875126D01*
X162828024Y-99889542D01*
X162810781Y-99902330D01*
X162792368Y-99913366D01*
X162772962Y-99922545D01*
X162752750Y-99929777D01*
X162731926Y-99934993D01*
X162710691Y-99938143D01*
X162689250Y-99939196D01*
X162176750Y-99939196D01*
X162155309Y-99938143D01*
X162134074Y-99934993D01*
X162113250Y-99929777D01*
X162093038Y-99922545D01*
X162073632Y-99913366D01*
X162055219Y-99902330D01*
X162037976Y-99889542D01*
X162022070Y-99875126D01*
X162007654Y-99859220D01*
X161994866Y-99841977D01*
X161983830Y-99823564D01*
X161974651Y-99804158D01*
X161967419Y-99783946D01*
X161962203Y-99763122D01*
X161959053Y-99741887D01*
X161958000Y-99720446D01*
X161958000Y-99282946D01*
X161959053Y-99261505D01*
X161962203Y-99240270D01*
X161967419Y-99219446D01*
X161974651Y-99199234D01*
X161983830Y-99179828D01*
X161994866Y-99161415D01*
X162007654Y-99144172D01*
X162022070Y-99128266D01*
X162037976Y-99113850D01*
X162055219Y-99101062D01*
X162073632Y-99090026D01*
X162093038Y-99080847D01*
X162113250Y-99073615D01*
X162134074Y-99068399D01*
X162155309Y-99065249D01*
X162176750Y-99064196D01*
X162689250Y-99064196D01*
X162710691Y-99065249D01*
G37*
G36*
X162710691Y-100640249D02*
G01*
X162731926Y-100643399D01*
X162752750Y-100648615D01*
X162772962Y-100655847D01*
X162792368Y-100665026D01*
X162810781Y-100676062D01*
X162828024Y-100688850D01*
X162843930Y-100703266D01*
X162858346Y-100719172D01*
X162871134Y-100736415D01*
X162882170Y-100754828D01*
X162891349Y-100774234D01*
X162898581Y-100794446D01*
X162903797Y-100815270D01*
X162906947Y-100836505D01*
X162908000Y-100857946D01*
X162908000Y-101295446D01*
X162906947Y-101316887D01*
X162903797Y-101338122D01*
X162898581Y-101358946D01*
X162891349Y-101379158D01*
X162882170Y-101398564D01*
X162871134Y-101416977D01*
X162858346Y-101434220D01*
X162843930Y-101450126D01*
X162828024Y-101464542D01*
X162810781Y-101477330D01*
X162792368Y-101488366D01*
X162772962Y-101497545D01*
X162752750Y-101504777D01*
X162731926Y-101509993D01*
X162710691Y-101513143D01*
X162689250Y-101514196D01*
X162176750Y-101514196D01*
X162155309Y-101513143D01*
X162134074Y-101509993D01*
X162113250Y-101504777D01*
X162093038Y-101497545D01*
X162073632Y-101488366D01*
X162055219Y-101477330D01*
X162037976Y-101464542D01*
X162022070Y-101450126D01*
X162007654Y-101434220D01*
X161994866Y-101416977D01*
X161983830Y-101398564D01*
X161974651Y-101379158D01*
X161967419Y-101358946D01*
X161962203Y-101338122D01*
X161959053Y-101316887D01*
X161958000Y-101295446D01*
X161958000Y-100857946D01*
X161959053Y-100836505D01*
X161962203Y-100815270D01*
X161967419Y-100794446D01*
X161974651Y-100774234D01*
X161983830Y-100754828D01*
X161994866Y-100736415D01*
X162007654Y-100719172D01*
X162022070Y-100703266D01*
X162037976Y-100688850D01*
X162055219Y-100676062D01*
X162073632Y-100665026D01*
X162093038Y-100655847D01*
X162113250Y-100648615D01*
X162134074Y-100643399D01*
X162155309Y-100640249D01*
X162176750Y-100639196D01*
X162689250Y-100639196D01*
X162710691Y-100640249D01*
G37*
D20*
X116708000Y-98573000D03*
X116708000Y-99673000D03*
X116708000Y-100773000D03*
X116708000Y-101873000D03*
X116708000Y-102973000D03*
X116708000Y-104073000D03*
X116708000Y-105173000D03*
X116708000Y-106273000D03*
D21*
X117338000Y-94228000D03*
D22*
X117188000Y-108618000D03*
D23*
X119338000Y-108213000D03*
D24*
X128338000Y-108213000D03*
D22*
X128668000Y-94328000D03*
D25*
X129463000Y-98633000D03*
X129463000Y-106413000D03*
M02*
