%FSLAX45Y45*%
G04 Gerber Fmt 4.5, Leading zero omitted, Abs format (unit mm)*
G04 Created by KiCad (PCBNEW (5.1.5)-3) date 2021-06-25 12:35:52*
%MOMM*%
%LPD*%
G04 APERTURE LIST*
%TA.AperFunction,Profile*%
%ADD10C,0.150000*%
%TD*%
%ADD11C,0.200000*%
%ADD12C,0.300000*%
G04 APERTURE END LIST*
D10*
X9833610Y-5448910D02*
X9833610Y-14637410D01*
X10033610Y-14837410D02*
G75*
G02X9833610Y-14637410I0J200000D01*
G01*
X10033610Y-14837410D02*
X18650610Y-14837410D01*
X18850610Y-14637410D02*
G75*
G02X18650610Y-14837410I-200000J0D01*
G01*
X18850610Y-14637410D02*
X18850610Y-5448910D01*
X18650610Y-5248910D02*
G75*
G02X18850610Y-5448910I0J-200000D01*
G01*
X18650610Y-5248910D02*
X15427610Y-5249910D01*
X15427610Y-5249910D02*
X15300610Y-5338810D01*
X15300610Y-5338810D02*
X14221110Y-5338810D01*
X14221110Y-5338810D02*
X14093110Y-5248910D01*
X14093110Y-5248910D02*
X10033610Y-5248910D01*
X9833610Y-5448910D02*
G75*
G02X10033610Y-5248910I200000J0D01*
G01*
D11*
X10188792Y-10354940D02*
X10226892Y-10393040D01*
X10226892Y-10354940D02*
X10188792Y-10393040D01*
X10314380Y-10088160D02*
X10352480Y-10126260D01*
X10352480Y-10088160D02*
X10314380Y-10126260D01*
X10661651Y-10521950D02*
X10699751Y-10560050D01*
X10699751Y-10521950D02*
X10661651Y-10560050D01*
X10770870Y-12477750D02*
X10808970Y-12515850D01*
X10808970Y-12477750D02*
X10770870Y-12515850D01*
X10777728Y-12307316D02*
X10815828Y-12345416D01*
X10815828Y-12307316D02*
X10777728Y-12345416D01*
X10798556Y-11390884D02*
X10836656Y-11428984D01*
X10836656Y-11390884D02*
X10798556Y-11428984D01*
X10816336Y-11080242D02*
X10854436Y-11118342D01*
X10854436Y-11080242D02*
X10816336Y-11118342D01*
X10826750Y-11182350D02*
X10864850Y-11220450D01*
X10864850Y-11182350D02*
X10826750Y-11220450D01*
X10831480Y-11735800D02*
X10869580Y-11773900D01*
X10869580Y-11735800D02*
X10831480Y-11773900D01*
X10831480Y-11837400D02*
X10869580Y-11875500D01*
X10869580Y-11837400D02*
X10831480Y-11875500D01*
X10831480Y-11939000D02*
X10869580Y-11977100D01*
X10869580Y-11939000D02*
X10831480Y-11977100D01*
X10850880Y-12234164D02*
X10888980Y-12272264D01*
X10888980Y-12234164D02*
X10850880Y-12272264D01*
X10871708Y-11464036D02*
X10909808Y-11502136D01*
X10909808Y-11464036D02*
X10871708Y-11502136D01*
X10877550Y-12477750D02*
X10915650Y-12515850D01*
X10915650Y-12477750D02*
X10877550Y-12515850D01*
X10916920Y-12149836D02*
X10955020Y-12187936D01*
X10955020Y-12149836D02*
X10916920Y-12187936D01*
X10928350Y-11131550D02*
X10966450Y-11169650D01*
X10966450Y-11131550D02*
X10928350Y-11169650D01*
X10928350Y-11233150D02*
X10966450Y-11271250D01*
X10966450Y-11233150D02*
X10928350Y-11271250D01*
X10937748Y-11548364D02*
X10975848Y-11586464D01*
X10975848Y-11548364D02*
X10937748Y-11586464D01*
X10953750Y-12401550D02*
X10991850Y-12439650D01*
X10991850Y-12401550D02*
X10953750Y-12439650D01*
X10979150Y-12503150D02*
X11017250Y-12541250D01*
X11017250Y-12503150D02*
X10979150Y-12541250D01*
X11004550Y-11309350D02*
X11042650Y-11347450D01*
X11042650Y-11309350D02*
X11004550Y-11347450D01*
X11029950Y-11207750D02*
X11068050Y-11245850D01*
X11068050Y-11207750D02*
X11029950Y-11245850D01*
X11029950Y-12325350D02*
X11068050Y-12363450D01*
X11068050Y-12325350D02*
X11029950Y-12363450D01*
X11055350Y-12426950D02*
X11093450Y-12465050D01*
X11093450Y-12426950D02*
X11055350Y-12465050D01*
X11080748Y-6661150D02*
X11118848Y-6699250D01*
X11118848Y-6661150D02*
X11080748Y-6699250D01*
X11080750Y-6775450D02*
X11118850Y-6813550D01*
X11118850Y-6775450D02*
X11080750Y-6813550D01*
X11080750Y-11385550D02*
X11118850Y-11423650D01*
X11118850Y-11385550D02*
X11080750Y-11423650D01*
X11090560Y-11733260D02*
X11128660Y-11771360D01*
X11128660Y-11733260D02*
X11090560Y-11771360D01*
X11090560Y-11949160D02*
X11128660Y-11987260D01*
X11128660Y-11949160D02*
X11090560Y-11987260D01*
X11106150Y-11283950D02*
X11144250Y-11322050D01*
X11144250Y-11283950D02*
X11106150Y-11322050D01*
X11106150Y-12249150D02*
X11144250Y-12287250D01*
X11144250Y-12249150D02*
X11106150Y-12287250D01*
X11131550Y-12350750D02*
X11169650Y-12388850D01*
X11169650Y-12350750D02*
X11131550Y-12388850D01*
X11144250Y-11449050D02*
X11182350Y-11487150D01*
X11182350Y-11449050D02*
X11144250Y-11487150D01*
X11187080Y-12185650D02*
X11225180Y-12223750D01*
X11225180Y-12185650D02*
X11187080Y-12223750D01*
X11195050Y-11372850D02*
X11233150Y-11410950D01*
X11233150Y-11372850D02*
X11195050Y-11410950D01*
X11197138Y-11841365D02*
X11235238Y-11879465D01*
X11235238Y-11841365D02*
X11197138Y-11879465D01*
X11207750Y-12287250D02*
X11245850Y-12325350D01*
X11245850Y-12287250D02*
X11207750Y-12325350D01*
X11233150Y-11486880D02*
X11271250Y-11524980D01*
X11271250Y-11486880D02*
X11233150Y-11524980D01*
X11245850Y-9772650D02*
X11283950Y-9810750D01*
X11283950Y-9772650D02*
X11245850Y-9810750D01*
X11306460Y-11733260D02*
X11344560Y-11771360D01*
X11344560Y-11733260D02*
X11306460Y-11771360D01*
X11306460Y-11949160D02*
X11344560Y-11987260D01*
X11344560Y-11949160D02*
X11306460Y-11987260D01*
X11334496Y-6644640D02*
X11372596Y-6682740D01*
X11372596Y-6644640D02*
X11334496Y-6682740D01*
X11339480Y-11486880D02*
X11377580Y-11524980D01*
X11377580Y-11486880D02*
X11339480Y-11524980D01*
X11343986Y-9908152D02*
X11382086Y-9946252D01*
X11382086Y-9908152D02*
X11343986Y-9946252D01*
X11344560Y-10572750D02*
X11382660Y-10610850D01*
X11382660Y-10572750D02*
X11344560Y-10610850D01*
X11423650Y-10064750D02*
X11461750Y-10102850D01*
X11461750Y-10064750D02*
X11423650Y-10102850D01*
X11436097Y-6644640D02*
X11474197Y-6682740D01*
X11474197Y-6644640D02*
X11436097Y-6682740D01*
X11446160Y-11486880D02*
X11484260Y-11524980D01*
X11484260Y-11486880D02*
X11446160Y-11524980D01*
X11446510Y-12198080D02*
X11484610Y-12236180D01*
X11484610Y-12198080D02*
X11446510Y-12236180D01*
X11449050Y-10166351D02*
X11487150Y-10204451D01*
X11487150Y-10166351D02*
X11449050Y-10204451D01*
X11449050Y-12094210D02*
X11487150Y-12132310D01*
X11487150Y-12094210D02*
X11449050Y-12132310D01*
X11499850Y-13569950D02*
X11537950Y-13608050D01*
X11537950Y-13569950D02*
X11499850Y-13608050D01*
X11499850Y-13673940D02*
X11537950Y-13712040D01*
X11537950Y-13673940D02*
X11499850Y-13712040D01*
X11525250Y-10560050D02*
X11563350Y-10598150D01*
X11563350Y-10560050D02*
X11525250Y-10598150D01*
X11543653Y-9916203D02*
X11581753Y-9954303D01*
X11581753Y-9916203D02*
X11543653Y-9954303D01*
X11543982Y-10255134D02*
X11582082Y-10293234D01*
X11582082Y-10255134D02*
X11543982Y-10293234D01*
X11557920Y-11893280D02*
X11596020Y-11931380D01*
X11596020Y-11893280D02*
X11557920Y-11931380D01*
X11557920Y-11989800D02*
X11596020Y-12027900D01*
X11596020Y-11989800D02*
X11557920Y-12027900D01*
X11563000Y-11486880D02*
X11601100Y-11524980D01*
X11601100Y-11486880D02*
X11563000Y-11524980D01*
X11563000Y-11593560D02*
X11601100Y-11631660D01*
X11601100Y-11593560D02*
X11563000Y-11631660D01*
X11563000Y-11710400D02*
X11601100Y-11748500D01*
X11601100Y-11710400D02*
X11563000Y-11748500D01*
X11751071Y-9898864D02*
X11789171Y-9936964D01*
X11789171Y-9898864D02*
X11751071Y-9936964D01*
X11755664Y-10598150D02*
X11793764Y-10636250D01*
X11793764Y-10598150D02*
X11755664Y-10636250D01*
X11804650Y-10229850D02*
X11842750Y-10267950D01*
X11842750Y-10229850D02*
X11804650Y-10267950D01*
X11842495Y-6644640D02*
X11880595Y-6682740D01*
X11880595Y-6644640D02*
X11842495Y-6682740D01*
X11842750Y-12109451D02*
X11880850Y-12147551D01*
X11880850Y-12109451D02*
X11842750Y-12147551D01*
X11855100Y-11568160D02*
X11893200Y-11606260D01*
X11893200Y-11568160D02*
X11855100Y-11606260D01*
X11855100Y-11715480D02*
X11893200Y-11753580D01*
X11893200Y-11715480D02*
X11855100Y-11753580D01*
X11855100Y-11862800D02*
X11893200Y-11900900D01*
X11893200Y-11862800D02*
X11855100Y-11900900D01*
X11855450Y-11995150D02*
X11893550Y-12033250D01*
X11893550Y-11995150D02*
X11855450Y-12033250D01*
X11944096Y-6644640D02*
X11982196Y-6682740D01*
X11982196Y-6644640D02*
X11944096Y-6682740D01*
X11944350Y-10623550D02*
X11982450Y-10661650D01*
X11982450Y-10623550D02*
X11944350Y-10661650D01*
X11946890Y-13539470D02*
X11984990Y-13577570D01*
X11984990Y-13539470D02*
X11946890Y-13577570D01*
X12020550Y-9544050D02*
X12058650Y-9582150D01*
X12058650Y-9544050D02*
X12020550Y-9582150D01*
X12053217Y-9764012D02*
X12091317Y-9802112D01*
X12091317Y-9764012D02*
X12053217Y-9802112D01*
X12144826Y-9913245D02*
X12182926Y-9951345D01*
X12182926Y-9913245D02*
X12144826Y-9951345D01*
X12147550Y-6623050D02*
X12185650Y-6661150D01*
X12185650Y-6623050D02*
X12147550Y-6661150D01*
X12166725Y-13241146D02*
X12204825Y-13279246D01*
X12204825Y-13241146D02*
X12166725Y-13279246D01*
X12198350Y-8235953D02*
X12236450Y-8274053D01*
X12236450Y-8235953D02*
X12198350Y-8274053D01*
X12198350Y-8439150D02*
X12236450Y-8477250D01*
X12236450Y-8439150D02*
X12198350Y-8477250D01*
X12259310Y-9996170D02*
X12297410Y-10034270D01*
X12297410Y-9996170D02*
X12259310Y-10034270D01*
X12335160Y-13333460D02*
X12373260Y-13371560D01*
X12373260Y-13333460D02*
X12335160Y-13371560D01*
X12343320Y-14339750D02*
X12381420Y-14377850D01*
X12381420Y-14339750D02*
X12343320Y-14377850D01*
X12343320Y-14679750D02*
X12381420Y-14717850D01*
X12381420Y-14679750D02*
X12343320Y-14717850D01*
X12376150Y-6445250D02*
X12414250Y-6483350D01*
X12414250Y-6445250D02*
X12376150Y-6483350D01*
X12446000Y-14339750D02*
X12484100Y-14377850D01*
X12484100Y-14339750D02*
X12446000Y-14377850D01*
X12446000Y-14679750D02*
X12484100Y-14717850D01*
X12484100Y-14679750D02*
X12446000Y-14717850D01*
X12466653Y-6445250D02*
X12504753Y-6483350D01*
X12504753Y-6445250D02*
X12466653Y-6483350D01*
X12541249Y-9759951D02*
X12579349Y-9798051D01*
X12579349Y-9759951D02*
X12541249Y-9798051D01*
X12541250Y-6965950D02*
X12579350Y-7004050D01*
X12579350Y-6965950D02*
X12541250Y-7004050D01*
X12543860Y-10242550D02*
X12581960Y-10280650D01*
X12581960Y-10242550D02*
X12543860Y-10280650D01*
X12603353Y-6330950D02*
X12641453Y-6369050D01*
X12641453Y-6330950D02*
X12603353Y-6369050D01*
X12604750Y-6737350D02*
X12642850Y-6775450D01*
X12642850Y-6737350D02*
X12604750Y-6775450D01*
X12642850Y-7600950D02*
X12680950Y-7639050D01*
X12680950Y-7600950D02*
X12642850Y-7639050D01*
X12644882Y-7853680D02*
X12682982Y-7891780D01*
X12682982Y-7853680D02*
X12644882Y-7891780D01*
X12654153Y-6661144D02*
X12692253Y-6699244D01*
X12692253Y-6661144D02*
X12654153Y-6699244D01*
X12655550Y-7181850D02*
X12693650Y-7219950D01*
X12693650Y-7181850D02*
X12655550Y-7219950D01*
X12655550Y-7344410D02*
X12693650Y-7382510D01*
X12693650Y-7344410D02*
X12655550Y-7382510D01*
X12655550Y-7473950D02*
X12693650Y-7512050D01*
X12693650Y-7473950D02*
X12655550Y-7512050D01*
X12655550Y-8032750D02*
X12693650Y-8070850D01*
X12693650Y-8032750D02*
X12655550Y-8070850D01*
X12655550Y-8566150D02*
X12693650Y-8604250D01*
X12693650Y-8566150D02*
X12655550Y-8604250D01*
X12704953Y-6330950D02*
X12743053Y-6369050D01*
X12743053Y-6330950D02*
X12704953Y-6369050D01*
X12746990Y-11992610D02*
X12785090Y-12030710D01*
X12785090Y-11992610D02*
X12746990Y-12030710D01*
X12760961Y-6775908D02*
X12799061Y-6814008D01*
X12799061Y-6775908D02*
X12760961Y-6814008D01*
X12782550Y-12655550D02*
X12820650Y-12693650D01*
X12820650Y-12655550D02*
X12782550Y-12693650D01*
X12782550Y-12782550D02*
X12820650Y-12820650D01*
X12820650Y-12782550D02*
X12782550Y-12820650D01*
X12841653Y-6444996D02*
X12879753Y-6483096D01*
X12879753Y-6444996D02*
X12841653Y-6483096D01*
X12932156Y-6444996D02*
X12970256Y-6483096D01*
X12970256Y-6444996D02*
X12932156Y-6483096D01*
X12944760Y-11578320D02*
X12982860Y-11616420D01*
X12982860Y-11578320D02*
X12944760Y-11616420D01*
X12947650Y-14679750D02*
X12985750Y-14717850D01*
X12985750Y-14679750D02*
X12947650Y-14717850D01*
X12974720Y-13317620D02*
X13012820Y-13355720D01*
X13012820Y-13317620D02*
X12974720Y-13355720D01*
X13049250Y-14679750D02*
X13087350Y-14717850D01*
X13087350Y-14679750D02*
X13049250Y-14717850D01*
X13061950Y-12274550D02*
X13100050Y-12312650D01*
X13100050Y-12274550D02*
X13061950Y-12312650D01*
X13112242Y-6784848D02*
X13150342Y-6822948D01*
X13150342Y-6784848D02*
X13112242Y-6822948D01*
X13122910Y-6913880D02*
X13161010Y-6951980D01*
X13161010Y-6913880D02*
X13122910Y-6951980D01*
X13122910Y-7015481D02*
X13161010Y-7053581D01*
X13161010Y-7015481D02*
X13122910Y-7053581D01*
X13138150Y-8235948D02*
X13176250Y-8274048D01*
X13176250Y-8235948D02*
X13138150Y-8274048D01*
X13150850Y-7219950D02*
X13188950Y-7258050D01*
X13188950Y-7219950D02*
X13150850Y-7258050D01*
X13201650Y-8743950D02*
X13239750Y-8782050D01*
X13239750Y-8743950D02*
X13201650Y-8782050D01*
X13269421Y-9645650D02*
X13307521Y-9683750D01*
X13307521Y-9645650D02*
X13269421Y-9683750D01*
X13277850Y-13608050D02*
X13315950Y-13646150D01*
X13315950Y-13608050D02*
X13277850Y-13646150D01*
X13303250Y-5803900D02*
X13341350Y-5842000D01*
X13341350Y-5803900D02*
X13303250Y-5842000D01*
X13341350Y-10166350D02*
X13379450Y-10204450D01*
X13379450Y-10166350D02*
X13341350Y-10204450D01*
X13366496Y-6644640D02*
X13404596Y-6682740D01*
X13404596Y-6644640D02*
X13366496Y-6682740D01*
X13404850Y-13608050D02*
X13442950Y-13646150D01*
X13442950Y-13608050D02*
X13404850Y-13646150D01*
X13442950Y-6000750D02*
X13481050Y-6038850D01*
X13481050Y-6000750D02*
X13442950Y-6038850D01*
X13455653Y-8553450D02*
X13493753Y-8591550D01*
X13493753Y-8553450D02*
X13455653Y-8591550D01*
X13468097Y-6644640D02*
X13506197Y-6682740D01*
X13506197Y-6644640D02*
X13468097Y-6682740D01*
X13531850Y-13608050D02*
X13569950Y-13646150D01*
X13569950Y-13608050D02*
X13531850Y-13646150D01*
X13547090Y-11294110D02*
X13585190Y-11332210D01*
X13585190Y-11294110D02*
X13547090Y-11332210D01*
X13569950Y-10242550D02*
X13608050Y-10280650D01*
X13608050Y-10242550D02*
X13569950Y-10280650D01*
X13595350Y-9712009D02*
X13633450Y-9750109D01*
X13633450Y-9712009D02*
X13595350Y-9750109D01*
X13684250Y-11296650D02*
X13722350Y-11334750D01*
X13722350Y-11296650D02*
X13684250Y-11334750D01*
X13696950Y-11703050D02*
X13735050Y-11741150D01*
X13735050Y-11703050D02*
X13696950Y-11741150D01*
X13722350Y-10572750D02*
X13760450Y-10610850D01*
X13760450Y-10572750D02*
X13722350Y-10610850D01*
X13747750Y-9925048D02*
X13785850Y-9963148D01*
X13785850Y-9925048D02*
X13747750Y-9963148D01*
X13834150Y-10258050D02*
X13872250Y-10296150D01*
X13872250Y-10258050D02*
X13834150Y-10296150D01*
X13862050Y-10674350D02*
X13900150Y-10712450D01*
X13900150Y-10674350D02*
X13862050Y-10712450D01*
X13864590Y-9934892D02*
X13902690Y-9972992D01*
X13902690Y-9934892D02*
X13864590Y-9972992D01*
X13867183Y-10542532D02*
X13905283Y-10580632D01*
X13905283Y-10542532D02*
X13867183Y-10580632D01*
X13874495Y-6644640D02*
X13912595Y-6682740D01*
X13912595Y-6644640D02*
X13874495Y-6682740D01*
X13925550Y-6007100D02*
X13963650Y-6045200D01*
X13963650Y-6007100D02*
X13925550Y-6045200D01*
X13950950Y-5746747D02*
X13989050Y-5784847D01*
X13989050Y-5746747D02*
X13950950Y-5784847D01*
X13976096Y-6644640D02*
X14014196Y-6682740D01*
X14014196Y-6644640D02*
X13976096Y-6682740D01*
X13981430Y-11397742D02*
X14019530Y-11435842D01*
X14019530Y-11397742D02*
X13981430Y-11435842D01*
X13989050Y-7207250D02*
X14027150Y-7245350D01*
X14027150Y-7207250D02*
X13989050Y-7245350D01*
X13989050Y-7575550D02*
X14027150Y-7613650D01*
X14027150Y-7575550D02*
X13989050Y-7613650D01*
X14014450Y-9934892D02*
X14052550Y-9972992D01*
X14052550Y-9934892D02*
X14014450Y-9972992D01*
X14027150Y-10953750D02*
X14065250Y-10991850D01*
X14065250Y-10953750D02*
X14027150Y-10991850D01*
X14080149Y-6661506D02*
X14118249Y-6699606D01*
X14118249Y-6661506D02*
X14080149Y-6699606D01*
X14128750Y-9785350D02*
X14166850Y-9823450D01*
X14166850Y-9785350D02*
X14128750Y-9823450D01*
X14128750Y-10306050D02*
X14166850Y-10344150D01*
X14166850Y-10306050D02*
X14128750Y-10344150D01*
X14141450Y-10166349D02*
X14179550Y-10204449D01*
X14179550Y-10166349D02*
X14141450Y-10204449D01*
X14151209Y-10607910D02*
X14189309Y-10646010D01*
X14189309Y-10607910D02*
X14151209Y-10646010D01*
X14179550Y-10496550D02*
X14217650Y-10534650D01*
X14217650Y-10496550D02*
X14179550Y-10534650D01*
X14191488Y-6623304D02*
X14229588Y-6661404D01*
X14229588Y-6623304D02*
X14191488Y-6661404D01*
X14217650Y-10814050D02*
X14255750Y-10852150D01*
X14255750Y-10814050D02*
X14217650Y-10852150D01*
X14225950Y-10700010D02*
X14264050Y-10738110D01*
X14264050Y-10700010D02*
X14225950Y-10738110D01*
X14255750Y-9683754D02*
X14293850Y-9721854D01*
X14293850Y-9683754D02*
X14255750Y-9721854D01*
X14259676Y-9975851D02*
X14297776Y-10013951D01*
X14297776Y-9975851D02*
X14259676Y-10013951D01*
X14316325Y-10319705D02*
X14354425Y-10357805D01*
X14354425Y-10319705D02*
X14316325Y-10357805D01*
X14319250Y-9124950D02*
X14357350Y-9163050D01*
X14357350Y-9124950D02*
X14319250Y-9163050D01*
X14319250Y-9302751D02*
X14357350Y-9340851D01*
X14357350Y-9302751D02*
X14319250Y-9340851D01*
X14330806Y-9517505D02*
X14368906Y-9555605D01*
X14368906Y-9517505D02*
X14330806Y-9555605D01*
X14344650Y-10801350D02*
X14382750Y-10839450D01*
X14382750Y-10801350D02*
X14344650Y-10839450D01*
X14357350Y-9683750D02*
X14395450Y-9721850D01*
X14395450Y-9683750D02*
X14357350Y-9721850D01*
X14416278Y-6083046D02*
X14454378Y-6121146D01*
X14454378Y-6083046D02*
X14416278Y-6121146D01*
X14418229Y-10887710D02*
X14456329Y-10925810D01*
X14456329Y-10887710D02*
X14418229Y-10925810D01*
X14451612Y-11117464D02*
X14489712Y-11155564D01*
X14489712Y-11117464D02*
X14451612Y-11155564D01*
X14479270Y-6153150D02*
X14517370Y-6191250D01*
X14517370Y-6153150D02*
X14479270Y-6191250D01*
X14490252Y-11397742D02*
X14528352Y-11435842D01*
X14528352Y-11397742D02*
X14490252Y-11435842D01*
X14491890Y-10877436D02*
X14529990Y-10915536D01*
X14529990Y-10877436D02*
X14491890Y-10915536D01*
X14492208Y-10761090D02*
X14530308Y-10799190D01*
X14530308Y-10761090D02*
X14492208Y-10799190D01*
X14560550Y-9975847D02*
X14598650Y-10013947D01*
X14598650Y-9975847D02*
X14560550Y-10013947D01*
X14565630Y-8185150D02*
X14603730Y-8223250D01*
X14603730Y-8185150D02*
X14565630Y-8223250D01*
X14566900Y-5854701D02*
X14605000Y-5892801D01*
X14605000Y-5854701D02*
X14566900Y-5892801D01*
X14569001Y-6102350D02*
X14607101Y-6140450D01*
X14607101Y-6102350D02*
X14569001Y-6140450D01*
X14573250Y-7296150D02*
X14611350Y-7334250D01*
X14611350Y-7296150D02*
X14573250Y-7334250D01*
X14579600Y-11226799D02*
X14617700Y-11264899D01*
X14617700Y-11226799D02*
X14579600Y-11264899D01*
X14598650Y-7016750D02*
X14636750Y-7054850D01*
X14636750Y-7016750D02*
X14598650Y-7054850D01*
X14605001Y-8362950D02*
X14643101Y-8401050D01*
X14643101Y-8362950D02*
X14605001Y-8401050D01*
X14611350Y-9734550D02*
X14649450Y-9772650D01*
X14649450Y-9734550D02*
X14611350Y-9772650D01*
X14636750Y-9594850D02*
X14674850Y-9632950D01*
X14674850Y-9594850D02*
X14636750Y-9632950D01*
X14652659Y-11149091D02*
X14690759Y-11187191D01*
X14690759Y-11149091D02*
X14652659Y-11187191D01*
X14707869Y-5878830D02*
X14745969Y-5916930D01*
X14745969Y-5878830D02*
X14707869Y-5916930D01*
X14712950Y-10293350D02*
X14751050Y-10331450D01*
X14751050Y-10293350D02*
X14712950Y-10331450D01*
X14728184Y-9659364D02*
X14766284Y-9697464D01*
X14766284Y-9659364D02*
X14728184Y-9697464D01*
X14768830Y-11200130D02*
X14806930Y-11238230D01*
X14806930Y-11200130D02*
X14768830Y-11238230D01*
X14776450Y-10001249D02*
X14814550Y-10039349D01*
X14814550Y-10001249D02*
X14776450Y-10039349D01*
X14778736Y-8743696D02*
X14816836Y-8781796D01*
X14816836Y-8743696D02*
X14778736Y-8781796D01*
X14778956Y-10858953D02*
X14817056Y-10897053D01*
X14817056Y-10858953D02*
X14778956Y-10897053D01*
X14786610Y-6087110D02*
X14824710Y-6125210D01*
X14824710Y-6087110D02*
X14786610Y-6125210D01*
X14801852Y-10229850D02*
X14839952Y-10267950D01*
X14839952Y-10229850D02*
X14801852Y-10267950D01*
X14812010Y-5886450D02*
X14850110Y-5924550D01*
X14850110Y-5886450D02*
X14812010Y-5924550D01*
X14827254Y-7245350D02*
X14865354Y-7283450D01*
X14865354Y-7245350D02*
X14827254Y-7283450D01*
X14839950Y-6915150D02*
X14878050Y-6953250D01*
X14878050Y-6915150D02*
X14839950Y-6953250D01*
X14865351Y-9626600D02*
X14903451Y-9664700D01*
X14903451Y-9626600D02*
X14865351Y-9664700D01*
X14866450Y-9728200D02*
X14904550Y-9766300D01*
X14904550Y-9728200D02*
X14866450Y-9766300D01*
X14878732Y-9983839D02*
X14916832Y-10021939D01*
X14916832Y-9983839D02*
X14878732Y-10021939D01*
X14890750Y-11291888D02*
X14928850Y-11329988D01*
X14928850Y-11291888D02*
X14890750Y-11329988D01*
X14891258Y-10660380D02*
X14929358Y-10698480D01*
X14929358Y-10660380D02*
X14891258Y-10698480D01*
X14922502Y-5873750D02*
X14960602Y-5911850D01*
X14960602Y-5873750D02*
X14922502Y-5911850D01*
X14954250Y-10877550D02*
X14992350Y-10915650D01*
X14992350Y-10877550D02*
X14954250Y-10915650D01*
X14973300Y-7448550D02*
X15011400Y-7486650D01*
X15011400Y-7448550D02*
X14973300Y-7486650D01*
X14973300Y-8134350D02*
X15011400Y-8172450D01*
X15011400Y-8134350D02*
X14973300Y-8172450D01*
X14979650Y-7600950D02*
X15017750Y-7639050D01*
X15017750Y-7600950D02*
X14979650Y-7639050D01*
X14989810Y-10100310D02*
X15027910Y-10138410D01*
X15027910Y-10100310D02*
X14989810Y-10138410D01*
X15005050Y-9759949D02*
X15043150Y-9798049D01*
X15043150Y-9759949D02*
X15005050Y-9798049D01*
X15010130Y-6219190D02*
X15048230Y-6257290D01*
X15048230Y-6219190D02*
X15010130Y-6257290D01*
X15019707Y-10387143D02*
X15057807Y-10425243D01*
X15057807Y-10387143D02*
X15019707Y-10425243D01*
X15025370Y-10692130D02*
X15063470Y-10730230D01*
X15063470Y-10692130D02*
X15025370Y-10730230D01*
X15030450Y-10542269D02*
X15068550Y-10580369D01*
X15068550Y-10542269D02*
X15030450Y-10580369D01*
X15035515Y-10966944D02*
X15073615Y-11005044D01*
X15073615Y-10966944D02*
X15035515Y-11005044D01*
X15036800Y-8616950D02*
X15074900Y-8655050D01*
X15074900Y-8616950D02*
X15036800Y-8655050D01*
X15043150Y-6813550D02*
X15081250Y-6851650D01*
X15081250Y-6813550D02*
X15043150Y-6851650D01*
X15058390Y-6084570D02*
X15096490Y-6122670D01*
X15096490Y-6084570D02*
X15058390Y-6122670D01*
X15063433Y-7164107D02*
X15101533Y-7202207D01*
X15101533Y-7164107D02*
X15063433Y-7202207D01*
X15066010Y-6315710D02*
X15104110Y-6353810D01*
X15104110Y-6315710D02*
X15066010Y-6353810D01*
X15083790Y-7308850D02*
X15121890Y-7346950D01*
X15121890Y-7308850D02*
X15083790Y-7346950D01*
X15125700Y-8483600D02*
X15163800Y-8521700D01*
X15163800Y-8483600D02*
X15125700Y-8521700D01*
X15182850Y-7505700D02*
X15220950Y-7543800D01*
X15220950Y-7505700D02*
X15182850Y-7543800D01*
X15223490Y-9988550D02*
X15261590Y-10026650D01*
X15261590Y-9988550D02*
X15223490Y-10026650D01*
X15243810Y-6176010D02*
X15281910Y-6214110D01*
X15281910Y-6176010D02*
X15243810Y-6214110D01*
X15254354Y-6324855D02*
X15292454Y-6362955D01*
X15292454Y-6324855D02*
X15254354Y-6362955D01*
X15278100Y-10528300D02*
X15316200Y-10566400D01*
X15316200Y-10528300D02*
X15278100Y-10566400D01*
X15279370Y-10603230D02*
X15317470Y-10641330D01*
X15317470Y-10603230D02*
X15279370Y-10641330D01*
X15280894Y-10237216D02*
X15318994Y-10275316D01*
X15318994Y-10237216D02*
X15280894Y-10275316D01*
X15284450Y-10814050D02*
X15322550Y-10852150D01*
X15322550Y-10814050D02*
X15284450Y-10852150D01*
X15295070Y-10314125D02*
X15333170Y-10352225D01*
X15333170Y-10314125D02*
X15295070Y-10352225D01*
X15297150Y-5788661D02*
X15335250Y-5826761D01*
X15335250Y-5788661D02*
X15297150Y-5826761D01*
X15309850Y-9594850D02*
X15347950Y-9632950D01*
X15347950Y-9594850D02*
X15309850Y-9632950D01*
X15309850Y-9772650D02*
X15347950Y-9810750D01*
X15347950Y-9772650D02*
X15309850Y-9810750D01*
X15325090Y-7156450D02*
X15363190Y-7194550D01*
X15363190Y-7156450D02*
X15325090Y-7194550D01*
X15328946Y-10376660D02*
X15367046Y-10414760D01*
X15367046Y-10376660D02*
X15328946Y-10414760D01*
X15348204Y-6265418D02*
X15386304Y-6303518D01*
X15386304Y-6265418D02*
X15348204Y-6303518D01*
X15387065Y-5449937D02*
X15425165Y-5488037D01*
X15425165Y-5449937D02*
X15387065Y-5488037D01*
X15398750Y-7854955D02*
X15436850Y-7893055D01*
X15436850Y-7854955D02*
X15398750Y-7893055D01*
X15424150Y-5924548D02*
X15462250Y-5962648D01*
X15462250Y-5924548D02*
X15424150Y-5962648D01*
X15462250Y-7334250D02*
X15500350Y-7372350D01*
X15500350Y-7334250D02*
X15462250Y-7372350D01*
X15477490Y-6793230D02*
X15515590Y-6831330D01*
X15515590Y-6793230D02*
X15477490Y-6831330D01*
X15500350Y-6275070D02*
X15538450Y-6313170D01*
X15538450Y-6275070D02*
X15500350Y-6313170D01*
X15501369Y-6661429D02*
X15539469Y-6699529D01*
X15539469Y-6661429D02*
X15501369Y-6699529D01*
X15531592Y-9429496D02*
X15569692Y-9467596D01*
X15569692Y-9429496D02*
X15531592Y-9467596D01*
X15589250Y-10781409D02*
X15627350Y-10819509D01*
X15627350Y-10781409D02*
X15589250Y-10819509D01*
X15601950Y-5715000D02*
X15640050Y-5753100D01*
X15640050Y-5715000D02*
X15601950Y-5753100D01*
X15665450Y-9137650D02*
X15703550Y-9175750D01*
X15703550Y-9137650D02*
X15665450Y-9175750D01*
X15673578Y-10143998D02*
X15711678Y-10182098D01*
X15711678Y-10143998D02*
X15673578Y-10182098D01*
X15703550Y-10026650D02*
X15741650Y-10064750D01*
X15741650Y-10026650D02*
X15703550Y-10064750D01*
X15728949Y-7416801D02*
X15767049Y-7454901D01*
X15767049Y-7416801D02*
X15728949Y-7454901D01*
X15731744Y-9656826D02*
X15769844Y-9694926D01*
X15769844Y-9656826D02*
X15731744Y-9694926D01*
X15736817Y-10736388D02*
X15774917Y-10774488D01*
X15774917Y-10736388D02*
X15736817Y-10774488D01*
X15749778Y-9443466D02*
X15787878Y-9481566D01*
X15787878Y-9443466D02*
X15749778Y-9481566D01*
X15767050Y-10471150D02*
X15805150Y-10509250D01*
X15805150Y-10471150D02*
X15767050Y-10509250D01*
X15805150Y-5695950D02*
X15843250Y-5734050D01*
X15843250Y-5695950D02*
X15805150Y-5734050D01*
X15811500Y-10261600D02*
X15849600Y-10299700D01*
X15849600Y-10261600D02*
X15811500Y-10299700D01*
X15894050Y-10278590D02*
X15932150Y-10316690D01*
X15932150Y-10278590D02*
X15894050Y-10316690D01*
X15932150Y-10742164D02*
X15970250Y-10780264D01*
X15970250Y-10742164D02*
X15932150Y-10780264D01*
X15944850Y-7600955D02*
X15982950Y-7639055D01*
X15982950Y-7600955D02*
X15944850Y-7639055D01*
X15957550Y-10601641D02*
X15995650Y-10639741D01*
X15995650Y-10601641D02*
X15957550Y-10639741D01*
X15969004Y-10260557D02*
X16007104Y-10298657D01*
X16007104Y-10260557D02*
X15969004Y-10298657D01*
X15970250Y-10998200D02*
X16008350Y-11036300D01*
X16008350Y-10998200D02*
X15970250Y-11036300D01*
X15990062Y-9460104D02*
X16028162Y-9498204D01*
X16028162Y-9460104D02*
X15990062Y-9498204D01*
X16008350Y-8604250D02*
X16046450Y-8642350D01*
X16046450Y-8604250D02*
X16008350Y-8642350D01*
X16034894Y-10357995D02*
X16072994Y-10396095D01*
X16072994Y-10357995D02*
X16034894Y-10396095D01*
X16059150Y-9137650D02*
X16097250Y-9175750D01*
X16097250Y-9137650D02*
X16059150Y-9175750D01*
X16084550Y-9956800D02*
X16122650Y-9994900D01*
X16122650Y-9956800D02*
X16084550Y-9994900D01*
X16103600Y-10033000D02*
X16141700Y-10071100D01*
X16141700Y-10033000D02*
X16103600Y-10071100D01*
X16109394Y-10103885D02*
X16147494Y-10141985D01*
X16147494Y-10103885D02*
X16109394Y-10141985D01*
X16135350Y-9721850D02*
X16173450Y-9759950D01*
X16173450Y-9721850D02*
X16135350Y-9759950D01*
X16135350Y-13366750D02*
X16173450Y-13404850D01*
X16173450Y-13366750D02*
X16135350Y-13404850D01*
X16146526Y-9349104D02*
X16184626Y-9387204D01*
X16184626Y-9349104D02*
X16146526Y-9387204D01*
X16160750Y-7677150D02*
X16198850Y-7715250D01*
X16198850Y-7677150D02*
X16160750Y-7715250D01*
X16173450Y-10687050D02*
X16211550Y-10725150D01*
X16211550Y-10687050D02*
X16173450Y-10725150D01*
X16189222Y-14339750D02*
X16227322Y-14377850D01*
X16227322Y-14339750D02*
X16189222Y-14377850D01*
X16189222Y-14679750D02*
X16227322Y-14717850D01*
X16227322Y-14679750D02*
X16189222Y-14717850D01*
X16219424Y-9162542D02*
X16257524Y-9200642D01*
X16257524Y-9162542D02*
X16219424Y-9200642D01*
X16224250Y-13366750D02*
X16262350Y-13404850D01*
X16262350Y-13366750D02*
X16224250Y-13404850D01*
X16229550Y-6600190D02*
X16267650Y-6638290D01*
X16267650Y-6600190D02*
X16229550Y-6638290D01*
X16234410Y-10185400D02*
X16272510Y-10223500D01*
X16272510Y-10185400D02*
X16234410Y-10223500D01*
X16236950Y-11353800D02*
X16275050Y-11391900D01*
X16275050Y-11353800D02*
X16236950Y-11391900D01*
X16249650Y-8616954D02*
X16287750Y-8655054D01*
X16287750Y-8616954D02*
X16249650Y-8655054D01*
X16262350Y-12871450D02*
X16300450Y-12909550D01*
X16300450Y-12871450D02*
X16262350Y-12909550D01*
X16262350Y-12981250D02*
X16300450Y-13019350D01*
X16300450Y-12981250D02*
X16262350Y-13019350D01*
X16262350Y-13523650D02*
X16300450Y-13561750D01*
X16300450Y-13523650D02*
X16262350Y-13561750D01*
X16262350Y-13633450D02*
X16300450Y-13671550D01*
X16300450Y-13633450D02*
X16262350Y-13671550D01*
X16284891Y-10697435D02*
X16322991Y-10735535D01*
X16322991Y-10697435D02*
X16284891Y-10735535D01*
X16291902Y-14339750D02*
X16330002Y-14377850D01*
X16330002Y-14339750D02*
X16291902Y-14377850D01*
X16291902Y-14679750D02*
X16330002Y-14717850D01*
X16330002Y-14679750D02*
X16291902Y-14717850D01*
X16303752Y-9129522D02*
X16341852Y-9167622D01*
X16341852Y-9129522D02*
X16303752Y-9167622D01*
X16311880Y-9720834D02*
X16349980Y-9758934D01*
X16349980Y-9720834D02*
X16311880Y-9758934D01*
X16338547Y-11296650D02*
X16376647Y-11334750D01*
X16376647Y-11296650D02*
X16338547Y-11334750D01*
X16338550Y-7550149D02*
X16376650Y-7588249D01*
X16376650Y-7550149D02*
X16338550Y-7588249D01*
X16389350Y-12871450D02*
X16427450Y-12909550D01*
X16427450Y-12871450D02*
X16389350Y-12909550D01*
X16389350Y-12981250D02*
X16427450Y-13019350D01*
X16427450Y-12981250D02*
X16389350Y-13019350D01*
X16389350Y-13523650D02*
X16427450Y-13561750D01*
X16427450Y-13523650D02*
X16389350Y-13561750D01*
X16389350Y-13633450D02*
X16427450Y-13671550D01*
X16427450Y-13633450D02*
X16389350Y-13671550D01*
X16407638Y-9170162D02*
X16445738Y-9208262D01*
X16445738Y-9170162D02*
X16407638Y-9208262D01*
X16433799Y-11080750D02*
X16471899Y-11118850D01*
X16471899Y-11080750D02*
X16433799Y-11118850D01*
X16497300Y-9728200D02*
X16535400Y-9766300D01*
X16535400Y-9728200D02*
X16497300Y-9766300D01*
X16503185Y-10102850D02*
X16541285Y-10140950D01*
X16541285Y-10102850D02*
X16503185Y-10140950D01*
X16510000Y-8642350D02*
X16548100Y-8680450D01*
X16548100Y-8642350D02*
X16510000Y-8680450D01*
X16516308Y-9963150D02*
X16554408Y-10001250D01*
X16554408Y-9963150D02*
X16516308Y-10001250D01*
X16516350Y-12769850D02*
X16554450Y-12807950D01*
X16554450Y-12769850D02*
X16516350Y-12807950D01*
X16522700Y-9613900D02*
X16560800Y-9652000D01*
X16560800Y-9613900D02*
X16522700Y-9652000D01*
X16529370Y-9866289D02*
X16567470Y-9904389D01*
X16567470Y-9866289D02*
X16529370Y-9904389D01*
X16535908Y-9364980D02*
X16574008Y-9403080D01*
X16574008Y-9364980D02*
X16535908Y-9403080D01*
X16541750Y-11328400D02*
X16579850Y-11366500D01*
X16579850Y-11328400D02*
X16541750Y-11366500D01*
X16541750Y-13709651D02*
X16579850Y-13747751D01*
X16579850Y-13709651D02*
X16541750Y-13747751D01*
X16567150Y-10179050D02*
X16605250Y-10217150D01*
X16605250Y-10179050D02*
X16567150Y-10217150D01*
X16640808Y-9155908D02*
X16678908Y-9194008D01*
X16678908Y-9155908D02*
X16640808Y-9194008D01*
X16643350Y-10598150D02*
X16681450Y-10636250D01*
X16681450Y-10598150D02*
X16643350Y-10636250D01*
X16643350Y-11131550D02*
X16681450Y-11169650D01*
X16681450Y-11131550D02*
X16643350Y-11169650D01*
X16732249Y-10890250D02*
X16770349Y-10928350D01*
X16770349Y-10890250D02*
X16732249Y-10928350D01*
X16744950Y-12846050D02*
X16783050Y-12884150D01*
X16783050Y-12846050D02*
X16744950Y-12884150D01*
X16791940Y-9153906D02*
X16830040Y-9192006D01*
X16830040Y-9153906D02*
X16791940Y-9192006D01*
X16808450Y-10598150D02*
X16846550Y-10636250D01*
X16846550Y-10598150D02*
X16808450Y-10636250D01*
X16846550Y-7336800D02*
X16884650Y-7374900D01*
X16884650Y-7336800D02*
X16846550Y-7374900D01*
X16846550Y-7484100D02*
X16884650Y-7522200D01*
X16884650Y-7484100D02*
X16846550Y-7522200D01*
X16859250Y-9899650D02*
X16897350Y-9937750D01*
X16897350Y-9899650D02*
X16859250Y-9937750D01*
X16875003Y-9983850D02*
X16913103Y-10021950D01*
X16913103Y-9983850D02*
X16875003Y-10021950D01*
X16875643Y-10094850D02*
X16913743Y-10132950D01*
X16913743Y-10094850D02*
X16875643Y-10132950D01*
X16922562Y-10169022D02*
X16960662Y-10207122D01*
X16960662Y-10169022D02*
X16922562Y-10207122D01*
X16935450Y-11099800D02*
X16973550Y-11137900D01*
X16973550Y-11099800D02*
X16935450Y-11137900D01*
X17024350Y-10255250D02*
X17062450Y-10293350D01*
X17062450Y-10255250D02*
X17024350Y-10293350D01*
X17024350Y-13620750D02*
X17062450Y-13658850D01*
X17062450Y-13620750D02*
X17024350Y-13658850D01*
X17041401Y-13782633D02*
X17079501Y-13820733D01*
X17079501Y-13782633D02*
X17041401Y-13820733D01*
X17049750Y-9786748D02*
X17087850Y-9824848D01*
X17087850Y-9786748D02*
X17049750Y-9824848D01*
X17057560Y-9985600D02*
X17095660Y-10023700D01*
X17095660Y-9985600D02*
X17057560Y-10023700D01*
X17110545Y-9714144D02*
X17148645Y-9752244D01*
X17148645Y-9714144D02*
X17110545Y-9752244D01*
X17117074Y-10045910D02*
X17155174Y-10084010D01*
X17155174Y-10045910D02*
X17117074Y-10084010D01*
X17138650Y-10839450D02*
X17176750Y-10877550D01*
X17176750Y-10839450D02*
X17138650Y-10877550D01*
X17186560Y-9790160D02*
X17224660Y-9828260D01*
X17224660Y-9790160D02*
X17186560Y-9828260D01*
X17300860Y-9904460D02*
X17338960Y-9942560D01*
X17338960Y-9904460D02*
X17300860Y-9942560D01*
X17379950Y-10598153D02*
X17418050Y-10636253D01*
X17418050Y-10598153D02*
X17379950Y-10636253D01*
X17506950Y-9620248D02*
X17545050Y-9658348D01*
X17545050Y-9620248D02*
X17506950Y-9658348D01*
X17519650Y-9061450D02*
X17557750Y-9099550D01*
X17557750Y-9061450D02*
X17519650Y-9099550D01*
X17659350Y-9607545D02*
X17697450Y-9645645D01*
X17697450Y-9607545D02*
X17659350Y-9645645D01*
X17710149Y-10280650D02*
X17748249Y-10318750D01*
X17748249Y-10280650D02*
X17710149Y-10318750D01*
X17754601Y-9893300D02*
X17792701Y-9931400D01*
X17792701Y-9893300D02*
X17754601Y-9931400D01*
X17760950Y-10052050D02*
X17799050Y-10090150D01*
X17799050Y-10052050D02*
X17760950Y-10090150D01*
X17824450Y-9036049D02*
X17862550Y-9074149D01*
X17862550Y-9036049D02*
X17824450Y-9074149D01*
X17989546Y-8947150D02*
X18027646Y-8985250D01*
X18027646Y-8947150D02*
X17989546Y-8985250D01*
X18040350Y-9023350D02*
X18078450Y-9061450D01*
X18078450Y-9023350D02*
X18040350Y-9061450D01*
X10840400Y-13565200D02*
G75*
G03X10840400Y-13565200I-20000J0D01*
G01*
X10840908Y-13378256D02*
G75*
G03X10840908Y-13378256I-20000J0D01*
G01*
X10967400Y-13565200D02*
G75*
G03X10967400Y-13565200I-20000J0D01*
G01*
X10967400Y-13692200D02*
G75*
G03X10967400Y-13692200I-20000J0D01*
G01*
X10967400Y-13843000D02*
G75*
G03X10967400Y-13843000I-20000J0D01*
G01*
X10967400Y-13957300D02*
G75*
G03X10967400Y-13957300I-20000J0D01*
G01*
X10967400Y-14084300D02*
G75*
G03X10967400Y-14084300I-20000J0D01*
G01*
X10967908Y-13129336D02*
G75*
G03X10967908Y-13129336I-20000J0D01*
G01*
X10967908Y-13256336D02*
G75*
G03X10967908Y-13256336I-20000J0D01*
G01*
X10967908Y-13378256D02*
G75*
G03X10967908Y-13378256I-20000J0D01*
G01*
X11094400Y-13565200D02*
G75*
G03X11094400Y-13565200I-20000J0D01*
G01*
X11094400Y-13692200D02*
G75*
G03X11094400Y-13692200I-20000J0D01*
G01*
X11094400Y-13843000D02*
G75*
G03X11094400Y-13843000I-20000J0D01*
G01*
X11094400Y-13957300D02*
G75*
G03X11094400Y-13957300I-20000J0D01*
G01*
X11094400Y-14084300D02*
G75*
G03X11094400Y-14084300I-20000J0D01*
G01*
X11094908Y-13129336D02*
G75*
G03X11094908Y-13129336I-20000J0D01*
G01*
X11094908Y-13256336D02*
G75*
G03X11094908Y-13256336I-20000J0D01*
G01*
X11094908Y-13378256D02*
G75*
G03X11094908Y-13378256I-20000J0D01*
G01*
X11221400Y-13692200D02*
G75*
G03X11221400Y-13692200I-20000J0D01*
G01*
X11221400Y-13843000D02*
G75*
G03X11221400Y-13843000I-20000J0D01*
G01*
X11221400Y-13957300D02*
G75*
G03X11221400Y-13957300I-20000J0D01*
G01*
X11221400Y-14084300D02*
G75*
G03X11221400Y-14084300I-20000J0D01*
G01*
X11221908Y-13129336D02*
G75*
G03X11221908Y-13129336I-20000J0D01*
G01*
X11221908Y-13256336D02*
G75*
G03X11221908Y-13256336I-20000J0D01*
G01*
X11221908Y-13378256D02*
G75*
G03X11221908Y-13378256I-20000J0D01*
G01*
X11310300Y-13474700D02*
G75*
G03X11310300Y-13474700I-20000J0D01*
G01*
X11348400Y-14084300D02*
G75*
G03X11348400Y-14084300I-20000J0D01*
G01*
X11399200Y-13378256D02*
G75*
G03X11399200Y-13378256I-20000J0D01*
G01*
X11399200Y-13563600D02*
G75*
G03X11399200Y-13563600I-20000J0D01*
G01*
X11462700Y-14084300D02*
G75*
G03X11462700Y-14084300I-20000J0D01*
G01*
X11488100Y-13474700D02*
G75*
G03X11488100Y-13474700I-20000J0D01*
G01*
X11577000Y-14084300D02*
G75*
G03X11577000Y-14084300I-20000J0D01*
G01*
X11678600Y-13589000D02*
G75*
G03X11678600Y-13589000I-20000J0D01*
G01*
X11678600Y-13692200D02*
G75*
G03X11678600Y-13692200I-20000J0D01*
G01*
X11678600Y-14084300D02*
G75*
G03X11678600Y-14084300I-20000J0D01*
G01*
X11907910Y-12769850D02*
G75*
G03X11907910Y-12769850I-20000J0D01*
G01*
X11983400Y-12611100D02*
G75*
G03X11983400Y-12611100I-20000J0D01*
G01*
X11983400Y-12903200D02*
G75*
G03X11983400Y-12903200I-20000J0D01*
G01*
X12046900Y-12769850D02*
G75*
G03X12046900Y-12769850I-20000J0D01*
G01*
X12599350Y-13366750D02*
G75*
G03X12599350Y-13366750I-20000J0D01*
G01*
X15168560Y-6667500D02*
G75*
G03X15168560Y-6667500I-20000J0D01*
G01*
X16898300Y-12763500D02*
G75*
G03X16898300Y-12763500I-20000J0D01*
G01*
X17017400Y-13271500D02*
G75*
G03X17017400Y-13271500I-20000J0D01*
G01*
X17056752Y-12769850D02*
G75*
G03X17056752Y-12769850I-20000J0D01*
G01*
X17195742Y-12769850D02*
G75*
G03X17195742Y-12769850I-20000J0D01*
G01*
X17203100Y-13106400D02*
G75*
G03X17203100Y-13106400I-20000J0D01*
G01*
X17304703Y-9194800D02*
G75*
G03X17304703Y-9194800I-20000J0D01*
G01*
X17342800Y-13068300D02*
G75*
G03X17342800Y-13068300I-20000J0D01*
G01*
X17393600Y-13271500D02*
G75*
G03X17393600Y-13271500I-20000J0D01*
G01*
X17431700Y-13017500D02*
G75*
G03X17431700Y-13017500I-20000J0D01*
G01*
X17558700Y-13169900D02*
G75*
G03X17558700Y-13169900I-20000J0D01*
G01*
X17558700Y-13385800D02*
G75*
G03X17558700Y-13385800I-20000J0D01*
G01*
X17596800Y-13563600D02*
G75*
G03X17596800Y-13563600I-20000J0D01*
G01*
X17617400Y-13271500D02*
G75*
G03X17617400Y-13271500I-20000J0D01*
G01*
X17673000Y-13169900D02*
G75*
G03X17673000Y-13169900I-20000J0D01*
G01*
X17673000Y-13385800D02*
G75*
G03X17673000Y-13385800I-20000J0D01*
G01*
X17723800Y-13690600D02*
G75*
G03X17723800Y-13690600I-20000J0D01*
G01*
X17723800Y-13843000D02*
G75*
G03X17723800Y-13843000I-20000J0D01*
G01*
X17787300Y-13271500D02*
G75*
G03X17787300Y-13271500I-20000J0D01*
G01*
X17850800Y-13169900D02*
G75*
G03X17850800Y-13169900I-20000J0D01*
G01*
X17850800Y-13373100D02*
G75*
G03X17850800Y-13373100I-20000J0D01*
G01*
X17850800Y-13550900D02*
G75*
G03X17850800Y-13550900I-20000J0D01*
G01*
X17850800Y-13690600D02*
G75*
G03X17850800Y-13690600I-20000J0D01*
G01*
X17914300Y-13919200D02*
G75*
G03X17914300Y-13919200I-20000J0D01*
G01*
X17990500Y-13373100D02*
G75*
G03X17990500Y-13373100I-20000J0D01*
G01*
X17990500Y-13547420D02*
G75*
G03X17990500Y-13547420I-20000J0D01*
G01*
X14323660Y-5513680D02*
X14323660Y-5573680D01*
X14293660Y-5543680D02*
X14353660Y-5543680D01*
X14343660Y-5573680D02*
X14343660Y-5513680D01*
X14303660Y-5573680D02*
X14303660Y-5513680D01*
X14343660Y-5513680D02*
G75*
G03X14303660Y-5513680I-20000J0D01*
G01*
X14303660Y-5573680D02*
G75*
G03X14343660Y-5573680I20000J0D01*
G01*
X14323660Y-5928680D02*
X14323660Y-5988680D01*
X14293660Y-5958680D02*
X14353660Y-5958680D01*
X14343660Y-6013680D02*
X14343660Y-5903680D01*
X14303660Y-6013680D02*
X14303660Y-5903680D01*
X14343660Y-5903680D02*
G75*
G03X14303660Y-5903680I-20000J0D01*
G01*
X14303660Y-6013680D02*
G75*
G03X14343660Y-6013680I20000J0D01*
G01*
X15187660Y-5513680D02*
X15187660Y-5573680D01*
X15157660Y-5543680D02*
X15217660Y-5543680D01*
X15207660Y-5573680D02*
X15207660Y-5513680D01*
X15167660Y-5573680D02*
X15167660Y-5513680D01*
X15207660Y-5513680D02*
G75*
G03X15167660Y-5513680I-20000J0D01*
G01*
X15167660Y-5573680D02*
G75*
G03X15207660Y-5573680I20000J0D01*
G01*
X15187660Y-5928680D02*
X15187660Y-5988680D01*
X15157660Y-5958680D02*
X15217660Y-5958680D01*
X15207660Y-6013680D02*
X15207660Y-5903680D01*
X15167660Y-6013680D02*
X15167660Y-5903680D01*
X15207660Y-5903680D02*
G75*
G03X15167660Y-5903680I-20000J0D01*
G01*
X15167660Y-6013680D02*
G75*
G03X15207660Y-6013680I20000J0D01*
G01*
X14436291Y-5482271D02*
X14436291Y-5419409D01*
X14373429Y-5419409D01*
X14373429Y-5482271D01*
X14436291Y-5482271D01*
X15136291Y-5482271D02*
X15136291Y-5419409D01*
X15073429Y-5419409D01*
X15073429Y-5482271D01*
X15136291Y-5482271D01*
X14504860Y-5765840D02*
X14549860Y-5720840D01*
X14504860Y-5675840D01*
X14459860Y-5720840D01*
X14504860Y-5765840D01*
X15004860Y-5765840D02*
X15049860Y-5720840D01*
X15004860Y-5675840D01*
X14959860Y-5720840D01*
X15004860Y-5765840D01*
X15164600Y-6973100D02*
X15264600Y-7073100D01*
X15264600Y-6973100D02*
X15164600Y-7073100D01*
X15264600Y-7023100D02*
G75*
G03X15264600Y-7023100I-50000J0D01*
G01*
X15418600Y-6973100D02*
X15518600Y-7073100D01*
X15518600Y-6973100D02*
X15418600Y-7073100D01*
X15518600Y-7023100D02*
G75*
G03X15518600Y-7023100I-50000J0D01*
G01*
X15672600Y-6973100D02*
X15772600Y-7073100D01*
X15772600Y-6973100D02*
X15672600Y-7073100D01*
X15772600Y-7023100D02*
G75*
G03X15772600Y-7023100I-50000J0D01*
G01*
X15926600Y-6973100D02*
X16026600Y-7073100D01*
X16026600Y-6973100D02*
X15926600Y-7073100D01*
X16026600Y-7023100D02*
G75*
G03X16026600Y-7023100I-50000J0D01*
G01*
X16180600Y-6973100D02*
X16280600Y-7073100D01*
X16280600Y-6973100D02*
X16180600Y-7073100D01*
X16280600Y-7023100D02*
G75*
G03X16280600Y-7023100I-50000J0D01*
G01*
X16434600Y-6973100D02*
X16534600Y-7073100D01*
X16534600Y-6973100D02*
X16434600Y-7073100D01*
X16534600Y-7023100D02*
G75*
G03X16534600Y-7023100I-50000J0D01*
G01*
X13188480Y-10531640D02*
X13288480Y-10631640D01*
X13288480Y-10531640D02*
X13188480Y-10631640D01*
X13288480Y-10581640D02*
G75*
G03X13288480Y-10581640I-50000J0D01*
G01*
X13188480Y-10785640D02*
X13288480Y-10885640D01*
X13288480Y-10785640D02*
X13188480Y-10885640D01*
X13288480Y-10835640D02*
G75*
G03X13288480Y-10835640I-50000J0D01*
G01*
X13188480Y-11039640D02*
X13288480Y-11139640D01*
X13288480Y-11039640D02*
X13188480Y-11139640D01*
X13288480Y-11089640D02*
G75*
G03X13288480Y-11089640I-50000J0D01*
G01*
X13188480Y-11293640D02*
X13288480Y-11393640D01*
X13288480Y-11293640D02*
X13188480Y-11393640D01*
X13288480Y-11343640D02*
G75*
G03X13288480Y-11343640I-50000J0D01*
G01*
X13188480Y-11547640D02*
X13288480Y-11647640D01*
X13288480Y-11547640D02*
X13188480Y-11647640D01*
X13288480Y-11597640D02*
G75*
G03X13288480Y-11597640I-50000J0D01*
G01*
X14758200Y-11410480D02*
X14858200Y-11510480D01*
X14858200Y-11410480D02*
X14758200Y-11510480D01*
X14858200Y-11460480D02*
G75*
G03X14858200Y-11460480I-50000J0D01*
G01*
X15012200Y-11410480D02*
X15112200Y-11510480D01*
X15112200Y-11410480D02*
X15012200Y-11510480D01*
X15112200Y-11460480D02*
G75*
G03X15112200Y-11460480I-50000J0D01*
G01*
X15266200Y-11410480D02*
X15366200Y-11510480D01*
X15366200Y-11410480D02*
X15266200Y-11510480D01*
X15366200Y-11460480D02*
G75*
G03X15366200Y-11460480I-50000J0D01*
G01*
X15520200Y-11410480D02*
X15620200Y-11510480D01*
X15620200Y-11410480D02*
X15520200Y-11510480D01*
X15620200Y-11460480D02*
G75*
G03X15620200Y-11460480I-50000J0D01*
G01*
X14815350Y-9360700D02*
X14915350Y-9460700D01*
X14915350Y-9360700D02*
X14815350Y-9460700D01*
X14915350Y-9410700D02*
G75*
G03X14915350Y-9410700I-50000J0D01*
G01*
X15069350Y-9360700D02*
X15169350Y-9460700D01*
X15169350Y-9360700D02*
X15069350Y-9460700D01*
X15169350Y-9410700D02*
G75*
G03X15169350Y-9410700I-50000J0D01*
G01*
X14561350Y-9106700D02*
X14661350Y-9206700D01*
X14661350Y-9106700D02*
X14561350Y-9206700D01*
X14661350Y-9156700D02*
G75*
G03X14661350Y-9156700I-50000J0D01*
G01*
X14815350Y-9106700D02*
X14915350Y-9206700D01*
X14915350Y-9106700D02*
X14815350Y-9206700D01*
X14915350Y-9156700D02*
G75*
G03X14915350Y-9156700I-50000J0D01*
G01*
X15069350Y-9106700D02*
X15169350Y-9206700D01*
X15169350Y-9106700D02*
X15069350Y-9206700D01*
X15169350Y-9156700D02*
G75*
G03X15169350Y-9156700I-50000J0D01*
G01*
X11519700Y-9106700D02*
X11619700Y-9206700D01*
X11619700Y-9106700D02*
X11519700Y-9206700D01*
X11619700Y-9156700D02*
G75*
G03X11619700Y-9156700I-50000J0D01*
G01*
X11773700Y-9106700D02*
X11873700Y-9206700D01*
X11873700Y-9106700D02*
X11773700Y-9206700D01*
X11873700Y-9156700D02*
G75*
G03X11873700Y-9156700I-50000J0D01*
G01*
X12027700Y-9106700D02*
X12127700Y-9206700D01*
X12127700Y-9106700D02*
X12027700Y-9206700D01*
X12127700Y-9156700D02*
G75*
G03X12127700Y-9156700I-50000J0D01*
G01*
X12281700Y-9106700D02*
X12381700Y-9206700D01*
X12381700Y-9106700D02*
X12281700Y-9206700D01*
X12381700Y-9156700D02*
G75*
G03X12381700Y-9156700I-50000J0D01*
G01*
X12535700Y-9106700D02*
X12635700Y-9206700D01*
X12635700Y-9106700D02*
X12535700Y-9206700D01*
X12635700Y-9156700D02*
G75*
G03X12635700Y-9156700I-50000J0D01*
G01*
X12789700Y-9106700D02*
X12889700Y-9206700D01*
X12889700Y-9106700D02*
X12789700Y-9206700D01*
X12889700Y-9156700D02*
G75*
G03X12889700Y-9156700I-50000J0D01*
G01*
X13043700Y-9106700D02*
X13143700Y-9206700D01*
X13143700Y-9106700D02*
X13043700Y-9206700D01*
X13143700Y-9156700D02*
G75*
G03X13143700Y-9156700I-50000J0D01*
G01*
X13297700Y-9106700D02*
X13397700Y-9206700D01*
X13397700Y-9106700D02*
X13297700Y-9206700D01*
X13397700Y-9156700D02*
G75*
G03X13397700Y-9156700I-50000J0D01*
G01*
X13551700Y-9106700D02*
X13651700Y-9206700D01*
X13651700Y-9106700D02*
X13551700Y-9206700D01*
X13651700Y-9156700D02*
G75*
G03X13651700Y-9156700I-50000J0D01*
G01*
X11214100Y-14363700D02*
X11315700Y-14465300D01*
X11315700Y-14363700D02*
X11214100Y-14465300D01*
X11264900Y-14363700D02*
X11264900Y-14465300D01*
X11214100Y-14414500D02*
X11315700Y-14414500D01*
X11468100Y-14389100D02*
X11569700Y-14490700D01*
X11569700Y-14389100D02*
X11468100Y-14490700D01*
X11518900Y-14389100D02*
X11518900Y-14490700D01*
X11468100Y-14439900D02*
X11569700Y-14439900D01*
X11722100Y-14363700D02*
X11823700Y-14465300D01*
X11823700Y-14363700D02*
X11722100Y-14465300D01*
X11772900Y-14363700D02*
X11772900Y-14465300D01*
X11722100Y-14414500D02*
X11823700Y-14414500D01*
X10203810Y-8926560D02*
X10305410Y-9028160D01*
X10305410Y-8926560D02*
X10203810Y-9028160D01*
X10254610Y-8926560D02*
X10254610Y-9028160D01*
X10203810Y-8977360D02*
X10305410Y-8977360D01*
X10229210Y-8672560D02*
X10330810Y-8774160D01*
X10330810Y-8672560D02*
X10229210Y-8774160D01*
X10280010Y-8672560D02*
X10280010Y-8774160D01*
X10229210Y-8723360D02*
X10330810Y-8723360D01*
X10229210Y-9180560D02*
X10330810Y-9282160D01*
X10330810Y-9180560D02*
X10229210Y-9282160D01*
X10280010Y-9180560D02*
X10280010Y-9282160D01*
X10229210Y-9231360D02*
X10330810Y-9231360D01*
X14037310Y-14363700D02*
X14138910Y-14465300D01*
X14138910Y-14363700D02*
X14037310Y-14465300D01*
X14088110Y-14363700D02*
X14088110Y-14465300D01*
X14037310Y-14414500D02*
X14138910Y-14414500D01*
X14291310Y-14389100D02*
X14392910Y-14490700D01*
X14392910Y-14389100D02*
X14291310Y-14490700D01*
X14342110Y-14389100D02*
X14342110Y-14490700D01*
X14291310Y-14439900D02*
X14392910Y-14439900D01*
X14545310Y-14363700D02*
X14646910Y-14465300D01*
X14646910Y-14363700D02*
X14545310Y-14465300D01*
X14596110Y-14363700D02*
X14596110Y-14465300D01*
X14545310Y-14414500D02*
X14646910Y-14414500D01*
X11801760Y-5620310D02*
X11903360Y-5721910D01*
X11903360Y-5620310D02*
X11801760Y-5721910D01*
X11852560Y-5620310D02*
X11852560Y-5721910D01*
X11801760Y-5671110D02*
X11903360Y-5671110D01*
X12055760Y-5594910D02*
X12157360Y-5696510D01*
X12157360Y-5594910D02*
X12055760Y-5696510D01*
X12106560Y-5594910D02*
X12106560Y-5696510D01*
X12055760Y-5645710D02*
X12157360Y-5645710D01*
X12309760Y-5620310D02*
X12411360Y-5721910D01*
X12411360Y-5620310D02*
X12309760Y-5721910D01*
X12360560Y-5620310D02*
X12360560Y-5721910D01*
X12309760Y-5671110D02*
X12411360Y-5671110D01*
X16764000Y-14363700D02*
X16865600Y-14465300D01*
X16865600Y-14363700D02*
X16764000Y-14465300D01*
X16814800Y-14363700D02*
X16814800Y-14465300D01*
X16764000Y-14414500D02*
X16865600Y-14414500D01*
X17018000Y-14389100D02*
X17119600Y-14490700D01*
X17119600Y-14389100D02*
X17018000Y-14490700D01*
X17068800Y-14389100D02*
X17068800Y-14490700D01*
X17018000Y-14439900D02*
X17119600Y-14439900D01*
X17272000Y-14363700D02*
X17373600Y-14465300D01*
X17373600Y-14363700D02*
X17272000Y-14465300D01*
X17322800Y-14363700D02*
X17322800Y-14465300D01*
X17272000Y-14414500D02*
X17373600Y-14414500D01*
X18376110Y-9739360D02*
X18477710Y-9840960D01*
X18477710Y-9739360D02*
X18376110Y-9840960D01*
X18426910Y-9739360D02*
X18426910Y-9840960D01*
X18376110Y-9790160D02*
X18477710Y-9790160D01*
X18376110Y-10247360D02*
X18477710Y-10348960D01*
X18477710Y-10247360D02*
X18376110Y-10348960D01*
X18426910Y-10247360D02*
X18426910Y-10348960D01*
X18376110Y-10298160D02*
X18477710Y-10298160D01*
X18401510Y-9993360D02*
X18503110Y-10094960D01*
X18503110Y-9993360D02*
X18401510Y-10094960D01*
X18452310Y-9993360D02*
X18452310Y-10094960D01*
X18401510Y-10044160D02*
X18503110Y-10044160D01*
X18376900Y-12039600D02*
X18478500Y-12141200D01*
X18478500Y-12039600D02*
X18376900Y-12141200D01*
X18427700Y-12039600D02*
X18427700Y-12141200D01*
X18376900Y-12090400D02*
X18478500Y-12090400D01*
X18376900Y-12547600D02*
X18478500Y-12649200D01*
X18478500Y-12547600D02*
X18376900Y-12649200D01*
X18427700Y-12547600D02*
X18427700Y-12649200D01*
X18376900Y-12598400D02*
X18478500Y-12598400D01*
X18402300Y-12293600D02*
X18503900Y-12395200D01*
X18503900Y-12293600D02*
X18402300Y-12395200D01*
X18453100Y-12293600D02*
X18453100Y-12395200D01*
X18402300Y-12344400D02*
X18503900Y-12344400D01*
X16209610Y-5620310D02*
X16311210Y-5721910D01*
X16311210Y-5620310D02*
X16209610Y-5721910D01*
X16260410Y-5620310D02*
X16260410Y-5721910D01*
X16209610Y-5671110D02*
X16311210Y-5671110D01*
X16463610Y-5594910D02*
X16565210Y-5696510D01*
X16565210Y-5594910D02*
X16463610Y-5696510D01*
X16514410Y-5594910D02*
X16514410Y-5696510D01*
X16463610Y-5645710D02*
X16565210Y-5645710D01*
X16717610Y-5620310D02*
X16819210Y-5721910D01*
X16819210Y-5620310D02*
X16717610Y-5721910D01*
X16768410Y-5620310D02*
X16768410Y-5721910D01*
X16717610Y-5671110D02*
X16819210Y-5671110D01*
X18010810Y-8071630D02*
X18130810Y-8191630D01*
X18130810Y-8071630D02*
X18010810Y-8191630D01*
X18113237Y-8174056D02*
X18113237Y-8089203D01*
X18028383Y-8089203D01*
X18028383Y-8174056D01*
X18113237Y-8174056D01*
X18010810Y-8457190D02*
X18130810Y-8577190D01*
X18130810Y-8457190D02*
X18010810Y-8577190D01*
X18113237Y-8559616D02*
X18113237Y-8474763D01*
X18028383Y-8474763D01*
X18028383Y-8559616D01*
X18113237Y-8559616D01*
X18010810Y-7336070D02*
X18130810Y-7456070D01*
X18130810Y-7336070D02*
X18010810Y-7456070D01*
X18113237Y-7438496D02*
X18113237Y-7353643D01*
X18028383Y-7353643D01*
X18028383Y-7438496D01*
X18113237Y-7438496D01*
X18010810Y-7721630D02*
X18130810Y-7841630D01*
X18130810Y-7721630D02*
X18010810Y-7841630D01*
X18113237Y-7824056D02*
X18113237Y-7739203D01*
X18028383Y-7739203D01*
X18028383Y-7824056D01*
X18113237Y-7824056D01*
X17131710Y-7804930D02*
X17251710Y-7924930D01*
X17251710Y-7804930D02*
X17131710Y-7924930D01*
X17234137Y-7907356D02*
X17234137Y-7822503D01*
X17149283Y-7822503D01*
X17149283Y-7907356D01*
X17234137Y-7907356D01*
X17131710Y-8190490D02*
X17251710Y-8310490D01*
X17251710Y-8190490D02*
X17131710Y-8310490D01*
X17234137Y-8292916D02*
X17234137Y-8208063D01*
X17149283Y-8208063D01*
X17149283Y-8292916D01*
X17234137Y-8292916D01*
X18010810Y-6602420D02*
X18130810Y-6722420D01*
X18130810Y-6602420D02*
X18010810Y-6722420D01*
X18113237Y-6704847D02*
X18113237Y-6619993D01*
X18028383Y-6619993D01*
X18028383Y-6704847D01*
X18113237Y-6704847D01*
X18010810Y-6987980D02*
X18130810Y-7107980D01*
X18130810Y-6987980D02*
X18010810Y-7107980D01*
X18113237Y-7090407D02*
X18113237Y-7005553D01*
X18028383Y-7005553D01*
X18028383Y-7090407D01*
X18113237Y-7090407D01*
X17131710Y-7069370D02*
X17251710Y-7189370D01*
X17251710Y-7069370D02*
X17131710Y-7189370D01*
X17234137Y-7171796D02*
X17234137Y-7086943D01*
X17149283Y-7086943D01*
X17149283Y-7171796D01*
X17234137Y-7171796D01*
X17131710Y-7454930D02*
X17251710Y-7574930D01*
X17251710Y-7454930D02*
X17131710Y-7574930D01*
X17234137Y-7557356D02*
X17234137Y-7472503D01*
X17149283Y-7472503D01*
X17149283Y-7557356D01*
X17234137Y-7557356D01*
X15624460Y-5921740D02*
X15754000Y-6051280D01*
X15754000Y-5921740D02*
X15624460Y-6051280D01*
X15689230Y-6051280D02*
X15754000Y-5986510D01*
X15689230Y-5921740D01*
X15624460Y-5986510D01*
X15689230Y-6051280D01*
X15624460Y-6683740D02*
X15754000Y-6813280D01*
X15754000Y-6683740D02*
X15624460Y-6813280D01*
X15689230Y-6813280D02*
X15754000Y-6748510D01*
X15689230Y-6683740D01*
X15624460Y-6748510D01*
X15689230Y-6813280D01*
X16640460Y-6683740D02*
X16770000Y-6813280D01*
X16770000Y-6683740D02*
X16640460Y-6813280D01*
X16705230Y-6813280D02*
X16770000Y-6748510D01*
X16705230Y-6683740D01*
X16640460Y-6748510D01*
X16705230Y-6813280D01*
X17402460Y-5921740D02*
X17532000Y-6051280D01*
X17532000Y-5921740D02*
X17402460Y-6051280D01*
X17467230Y-6051280D02*
X17532000Y-5986510D01*
X17467230Y-5921740D01*
X17402460Y-5986510D01*
X17467230Y-6051280D01*
X17402460Y-6683740D02*
X17532000Y-6813280D01*
X17532000Y-6683740D02*
X17402460Y-6813280D01*
X17467230Y-6813280D02*
X17532000Y-6748510D01*
X17467230Y-6683740D01*
X17402460Y-6748510D01*
X17467230Y-6813280D01*
X10411110Y-13393410D02*
X10411110Y-13543410D01*
X10336110Y-13468410D02*
X10486110Y-13468410D01*
X10486110Y-13468410D02*
G75*
G03X10486110Y-13468410I-75000J0D01*
G01*
X18300700Y-13393410D02*
X18300700Y-13543410D01*
X18225700Y-13468410D02*
X18375700Y-13468410D01*
X18375700Y-13468410D02*
G75*
G03X18375700Y-13468410I-75000J0D01*
G01*
X10411110Y-11239871D02*
X10411110Y-11389871D01*
X10336110Y-11314871D02*
X10486110Y-11314871D01*
X10486110Y-11314871D02*
G75*
G03X10486110Y-11314871I-75000J0D01*
G01*
X10411110Y-12330890D02*
X10411110Y-12480890D01*
X10336110Y-12405890D02*
X10486110Y-12405890D01*
X10486110Y-12405890D02*
G75*
G03X10486110Y-12405890I-75000J0D01*
G01*
X10217215Y-12211994D02*
X10217215Y-12091785D01*
X10097005Y-12091785D01*
X10097005Y-12211994D01*
X10217215Y-12211994D01*
X10242110Y-12151890D02*
G75*
G03X10242110Y-12151890I-85000J0D01*
G01*
X10217215Y-12719994D02*
X10217215Y-12599785D01*
X10097005Y-12599785D01*
X10097005Y-12719994D01*
X10217215Y-12719994D01*
X10242110Y-12659890D02*
G75*
G03X10242110Y-12659890I-85000J0D01*
G01*
X10725215Y-12211994D02*
X10725215Y-12091785D01*
X10605005Y-12091785D01*
X10605005Y-12211994D01*
X10725215Y-12211994D01*
X10750110Y-12151890D02*
G75*
G03X10750110Y-12151890I-85000J0D01*
G01*
X10725215Y-12719994D02*
X10725215Y-12599785D01*
X10605005Y-12599785D01*
X10605005Y-12719994D01*
X10725215Y-12719994D01*
X10750110Y-12659890D02*
G75*
G03X10750110Y-12659890I-85000J0D01*
G01*
X10217215Y-13274514D02*
X10217215Y-13154305D01*
X10097005Y-13154305D01*
X10097005Y-13274514D01*
X10217215Y-13274514D01*
X10242110Y-13214410D02*
G75*
G03X10242110Y-13214410I-85000J0D01*
G01*
X10217215Y-13782514D02*
X10217215Y-13662305D01*
X10097005Y-13662305D01*
X10097005Y-13782514D01*
X10217215Y-13782514D01*
X10242110Y-13722410D02*
G75*
G03X10242110Y-13722410I-85000J0D01*
G01*
X10725215Y-13274514D02*
X10725215Y-13154305D01*
X10605005Y-13154305D01*
X10605005Y-13274514D01*
X10725215Y-13274514D01*
X10750110Y-13214410D02*
G75*
G03X10750110Y-13214410I-85000J0D01*
G01*
X10725215Y-13782514D02*
X10725215Y-13662305D01*
X10605005Y-13662305D01*
X10605005Y-13782514D01*
X10725215Y-13782514D01*
X10750110Y-13722410D02*
G75*
G03X10750110Y-13722410I-85000J0D01*
G01*
X18106805Y-13274514D02*
X18106805Y-13154305D01*
X17986595Y-13154305D01*
X17986595Y-13274514D01*
X18106805Y-13274514D01*
X18131700Y-13214410D02*
G75*
G03X18131700Y-13214410I-85000J0D01*
G01*
X18106805Y-13782514D02*
X18106805Y-13662305D01*
X17986595Y-13662305D01*
X17986595Y-13782514D01*
X18106805Y-13782514D01*
X18131700Y-13722410D02*
G75*
G03X18131700Y-13722410I-85000J0D01*
G01*
X18614805Y-13274514D02*
X18614805Y-13154305D01*
X18494595Y-13154305D01*
X18494595Y-13274514D01*
X18614805Y-13274514D01*
X18639700Y-13214410D02*
G75*
G03X18639700Y-13214410I-85000J0D01*
G01*
X18614805Y-13782514D02*
X18614805Y-13662305D01*
X18494595Y-13662305D01*
X18494595Y-13782514D01*
X18614805Y-13782514D01*
X18639700Y-13722410D02*
G75*
G03X18639700Y-13722410I-85000J0D01*
G01*
X10217215Y-11120976D02*
X10217215Y-11000766D01*
X10097005Y-11000766D01*
X10097005Y-11120976D01*
X10217215Y-11120976D01*
X10242110Y-11060871D02*
G75*
G03X10242110Y-11060871I-85000J0D01*
G01*
X10217215Y-11628975D02*
X10217215Y-11508766D01*
X10097005Y-11508766D01*
X10097005Y-11628975D01*
X10217215Y-11628975D01*
X10242110Y-11568871D02*
G75*
G03X10242110Y-11568871I-85000J0D01*
G01*
X10725215Y-11120976D02*
X10725215Y-11000766D01*
X10605005Y-11000766D01*
X10605005Y-11120976D01*
X10725215Y-11120976D01*
X10750110Y-11060871D02*
G75*
G03X10750110Y-11060871I-85000J0D01*
G01*
X10725215Y-11628975D02*
X10725215Y-11508766D01*
X10605005Y-11508766D01*
X10605005Y-11628975D01*
X10725215Y-11628975D01*
X10750110Y-11568871D02*
G75*
G03X10750110Y-11568871I-85000J0D01*
G01*
X10596610Y-5916910D02*
X10756610Y-5756910D01*
X10596610Y-5596910D01*
X10436610Y-5756910D01*
X10596610Y-5916910D01*
X10756610Y-5756910D02*
G75*
G03X10756610Y-5756910I-160000J0D01*
G01*
X17962610Y-5916910D02*
X18122610Y-5756910D01*
X17962610Y-5596910D01*
X17802610Y-5756910D01*
X17962610Y-5916910D01*
X18122610Y-5756910D02*
G75*
G03X18122610Y-5756910I-160000J0D01*
G01*
X18342610Y-14489410D02*
X18502610Y-14329410D01*
X18342610Y-14169410D01*
X18182610Y-14329410D01*
X18342610Y-14489410D01*
X18502610Y-14329410D02*
G75*
G03X18502610Y-14329410I-160000J0D01*
G01*
X10342610Y-14489410D02*
X10502610Y-14329410D01*
X10342610Y-14169410D01*
X10182610Y-14329410D01*
X10342610Y-14489410D01*
X10502610Y-14329410D02*
G75*
G03X10502610Y-14329410I-160000J0D01*
G01*
D12*
X10112538Y-15310624D02*
X10112538Y-15010624D01*
X10183967Y-15010624D01*
X10226824Y-15024910D01*
X10255396Y-15053481D01*
X10269681Y-15082053D01*
X10283967Y-15139196D01*
X10283967Y-15182053D01*
X10269681Y-15239196D01*
X10255396Y-15267767D01*
X10226824Y-15296339D01*
X10183967Y-15310624D01*
X10112538Y-15310624D01*
X10412538Y-15310624D02*
X10412538Y-15110624D01*
X10412538Y-15167767D02*
X10426824Y-15139196D01*
X10441110Y-15124910D01*
X10469681Y-15110624D01*
X10498253Y-15110624D01*
X10598253Y-15310624D02*
X10598253Y-15110624D01*
X10598253Y-15010624D02*
X10583967Y-15024910D01*
X10598253Y-15039196D01*
X10612538Y-15024910D01*
X10598253Y-15010624D01*
X10598253Y-15039196D01*
X10783967Y-15310624D02*
X10755396Y-15296339D01*
X10741110Y-15267767D01*
X10741110Y-15010624D01*
X10941110Y-15310624D02*
X10912538Y-15296339D01*
X10898253Y-15267767D01*
X10898253Y-15010624D01*
X11283967Y-15310624D02*
X11283967Y-15010624D01*
X11383967Y-15224910D01*
X11483967Y-15010624D01*
X11483967Y-15310624D01*
X11755396Y-15310624D02*
X11755396Y-15153481D01*
X11741110Y-15124910D01*
X11712538Y-15110624D01*
X11655396Y-15110624D01*
X11626824Y-15124910D01*
X11755396Y-15296339D02*
X11726824Y-15310624D01*
X11655396Y-15310624D01*
X11626824Y-15296339D01*
X11612538Y-15267767D01*
X11612538Y-15239196D01*
X11626824Y-15210624D01*
X11655396Y-15196339D01*
X11726824Y-15196339D01*
X11755396Y-15182053D01*
X11898253Y-15110624D02*
X11898253Y-15410624D01*
X11898253Y-15124910D02*
X11926824Y-15110624D01*
X11983967Y-15110624D01*
X12012538Y-15124910D01*
X12026824Y-15139196D01*
X12041110Y-15167767D01*
X12041110Y-15253481D01*
X12026824Y-15282053D01*
X12012538Y-15296339D01*
X11983967Y-15310624D01*
X11926824Y-15310624D01*
X11898253Y-15296339D01*
X12169681Y-15282053D02*
X12183967Y-15296339D01*
X12169681Y-15310624D01*
X12155396Y-15296339D01*
X12169681Y-15282053D01*
X12169681Y-15310624D01*
X12169681Y-15124910D02*
X12183967Y-15139196D01*
X12169681Y-15153481D01*
X12155396Y-15139196D01*
X12169681Y-15124910D01*
X12169681Y-15153481D01*
X9788010Y-15785860D02*
X9826110Y-15823960D01*
X9826110Y-15785860D02*
X9788010Y-15823960D01*
X10169681Y-15640624D02*
X10198253Y-15640624D01*
X10226824Y-15654910D01*
X10241110Y-15669196D01*
X10255396Y-15697767D01*
X10269681Y-15754910D01*
X10269681Y-15826339D01*
X10255396Y-15883481D01*
X10241110Y-15912053D01*
X10226824Y-15926339D01*
X10198253Y-15940624D01*
X10169681Y-15940624D01*
X10141110Y-15926339D01*
X10126824Y-15912053D01*
X10112538Y-15883481D01*
X10098253Y-15826339D01*
X10098253Y-15754910D01*
X10112538Y-15697767D01*
X10126824Y-15669196D01*
X10141110Y-15654910D01*
X10169681Y-15640624D01*
X10398253Y-15912053D02*
X10412538Y-15926339D01*
X10398253Y-15940624D01*
X10383967Y-15926339D01*
X10398253Y-15912053D01*
X10398253Y-15940624D01*
X10512538Y-15640624D02*
X10698253Y-15640624D01*
X10598253Y-15754910D01*
X10641110Y-15754910D01*
X10669681Y-15769196D01*
X10683967Y-15783481D01*
X10698253Y-15812053D01*
X10698253Y-15883481D01*
X10683967Y-15912053D01*
X10669681Y-15926339D01*
X10641110Y-15940624D01*
X10555396Y-15940624D01*
X10526824Y-15926339D01*
X10512538Y-15912053D01*
X10869681Y-15769196D02*
X10841110Y-15754910D01*
X10826824Y-15740624D01*
X10812538Y-15712053D01*
X10812538Y-15697767D01*
X10826824Y-15669196D01*
X10841110Y-15654910D01*
X10869681Y-15640624D01*
X10926824Y-15640624D01*
X10955396Y-15654910D01*
X10969681Y-15669196D01*
X10983967Y-15697767D01*
X10983967Y-15712053D01*
X10969681Y-15740624D01*
X10955396Y-15754910D01*
X10926824Y-15769196D01*
X10869681Y-15769196D01*
X10841110Y-15783481D01*
X10826824Y-15797767D01*
X10812538Y-15826339D01*
X10812538Y-15883481D01*
X10826824Y-15912053D01*
X10841110Y-15926339D01*
X10869681Y-15940624D01*
X10926824Y-15940624D01*
X10955396Y-15926339D01*
X10969681Y-15912053D01*
X10983967Y-15883481D01*
X10983967Y-15826339D01*
X10969681Y-15797767D01*
X10955396Y-15783481D01*
X10926824Y-15769196D01*
X11112538Y-15940624D02*
X11112538Y-15740624D01*
X11112538Y-15769196D02*
X11126824Y-15754910D01*
X11155396Y-15740624D01*
X11198253Y-15740624D01*
X11226824Y-15754910D01*
X11241110Y-15783481D01*
X11241110Y-15940624D01*
X11241110Y-15783481D02*
X11255396Y-15754910D01*
X11283967Y-15740624D01*
X11326824Y-15740624D01*
X11355396Y-15754910D01*
X11369681Y-15783481D01*
X11369681Y-15940624D01*
X11512538Y-15940624D02*
X11512538Y-15740624D01*
X11512538Y-15769196D02*
X11526824Y-15754910D01*
X11555396Y-15740624D01*
X11598253Y-15740624D01*
X11626824Y-15754910D01*
X11641110Y-15783481D01*
X11641110Y-15940624D01*
X11641110Y-15783481D02*
X11655396Y-15754910D01*
X11683967Y-15740624D01*
X11726824Y-15740624D01*
X11755396Y-15754910D01*
X11769681Y-15783481D01*
X11769681Y-15940624D01*
X12355396Y-15626339D02*
X12098253Y-16012053D01*
X12741110Y-15640624D02*
X12769681Y-15640624D01*
X12798253Y-15654910D01*
X12812538Y-15669196D01*
X12826824Y-15697767D01*
X12841110Y-15754910D01*
X12841110Y-15826339D01*
X12826824Y-15883481D01*
X12812538Y-15912053D01*
X12798253Y-15926339D01*
X12769681Y-15940624D01*
X12741110Y-15940624D01*
X12712538Y-15926339D01*
X12698253Y-15912053D01*
X12683967Y-15883481D01*
X12669681Y-15826339D01*
X12669681Y-15754910D01*
X12683967Y-15697767D01*
X12698253Y-15669196D01*
X12712538Y-15654910D01*
X12741110Y-15640624D01*
X12969681Y-15912053D02*
X12983967Y-15926339D01*
X12969681Y-15940624D01*
X12955396Y-15926339D01*
X12969681Y-15912053D01*
X12969681Y-15940624D01*
X13169681Y-15640624D02*
X13198253Y-15640624D01*
X13226824Y-15654910D01*
X13241110Y-15669196D01*
X13255396Y-15697767D01*
X13269681Y-15754910D01*
X13269681Y-15826339D01*
X13255396Y-15883481D01*
X13241110Y-15912053D01*
X13226824Y-15926339D01*
X13198253Y-15940624D01*
X13169681Y-15940624D01*
X13141110Y-15926339D01*
X13126824Y-15912053D01*
X13112538Y-15883481D01*
X13098253Y-15826339D01*
X13098253Y-15754910D01*
X13112538Y-15697767D01*
X13126824Y-15669196D01*
X13141110Y-15654910D01*
X13169681Y-15640624D01*
X13555396Y-15940624D02*
X13383967Y-15940624D01*
X13469681Y-15940624D02*
X13469681Y-15640624D01*
X13441110Y-15683481D01*
X13412538Y-15712053D01*
X13383967Y-15726339D01*
X13826824Y-15640624D02*
X13683967Y-15640624D01*
X13669681Y-15783481D01*
X13683967Y-15769196D01*
X13712538Y-15754910D01*
X13783967Y-15754910D01*
X13812538Y-15769196D01*
X13826824Y-15783481D01*
X13841110Y-15812053D01*
X13841110Y-15883481D01*
X13826824Y-15912053D01*
X13812538Y-15926339D01*
X13783967Y-15940624D01*
X13712538Y-15940624D01*
X13683967Y-15926339D01*
X13669681Y-15912053D01*
X13955396Y-15640624D02*
X13955396Y-15697767D01*
X14069681Y-15640624D02*
X14069681Y-15697767D01*
X14512538Y-16054910D02*
X14498253Y-16040624D01*
X14469681Y-15997767D01*
X14455396Y-15969196D01*
X14441110Y-15926339D01*
X14426824Y-15854910D01*
X14426824Y-15797767D01*
X14441110Y-15726339D01*
X14455396Y-15683481D01*
X14469681Y-15654910D01*
X14498253Y-15612053D01*
X14512538Y-15597767D01*
X14598253Y-15640624D02*
X14783967Y-15640624D01*
X14683967Y-15754910D01*
X14726824Y-15754910D01*
X14755396Y-15769196D01*
X14769681Y-15783481D01*
X14783967Y-15812053D01*
X14783967Y-15883481D01*
X14769681Y-15912053D01*
X14755396Y-15926339D01*
X14726824Y-15940624D01*
X14641110Y-15940624D01*
X14612538Y-15926339D01*
X14598253Y-15912053D01*
X15041110Y-15740624D02*
X15041110Y-15940624D01*
X14969681Y-15626339D02*
X14898253Y-15840624D01*
X15083967Y-15840624D01*
X15169681Y-15640624D02*
X15355396Y-15640624D01*
X15255396Y-15754910D01*
X15298253Y-15754910D01*
X15326824Y-15769196D01*
X15341110Y-15783481D01*
X15355396Y-15812053D01*
X15355396Y-15883481D01*
X15341110Y-15912053D01*
X15326824Y-15926339D01*
X15298253Y-15940624D01*
X15212538Y-15940624D01*
X15183967Y-15926339D01*
X15169681Y-15912053D01*
X15712538Y-15940624D02*
X15712538Y-15640624D01*
X15841110Y-15940624D02*
X15841110Y-15783481D01*
X15826824Y-15754910D01*
X15798253Y-15740624D01*
X15755396Y-15740624D01*
X15726824Y-15754910D01*
X15712538Y-15769196D01*
X16026824Y-15940624D02*
X15998253Y-15926339D01*
X15983967Y-15912053D01*
X15969681Y-15883481D01*
X15969681Y-15797767D01*
X15983967Y-15769196D01*
X15998253Y-15754910D01*
X16026824Y-15740624D01*
X16069681Y-15740624D01*
X16098253Y-15754910D01*
X16112538Y-15769196D01*
X16126824Y-15797767D01*
X16126824Y-15883481D01*
X16112538Y-15912053D01*
X16098253Y-15926339D01*
X16069681Y-15940624D01*
X16026824Y-15940624D01*
X16298253Y-15940624D02*
X16269681Y-15926339D01*
X16255396Y-15897767D01*
X16255396Y-15640624D01*
X16526824Y-15926339D02*
X16498253Y-15940624D01*
X16441110Y-15940624D01*
X16412538Y-15926339D01*
X16398253Y-15897767D01*
X16398253Y-15783481D01*
X16412538Y-15754910D01*
X16441110Y-15740624D01*
X16498253Y-15740624D01*
X16526824Y-15754910D01*
X16541110Y-15783481D01*
X16541110Y-15812053D01*
X16398253Y-15840624D01*
X16655396Y-15926339D02*
X16683967Y-15940624D01*
X16741110Y-15940624D01*
X16769681Y-15926339D01*
X16783967Y-15897767D01*
X16783967Y-15883481D01*
X16769681Y-15854910D01*
X16741110Y-15840624D01*
X16698253Y-15840624D01*
X16669681Y-15826339D01*
X16655396Y-15797767D01*
X16655396Y-15783481D01*
X16669681Y-15754910D01*
X16698253Y-15740624D01*
X16741110Y-15740624D01*
X16769681Y-15754910D01*
X16883967Y-16054910D02*
X16898253Y-16040624D01*
X16926824Y-15997767D01*
X16941110Y-15969196D01*
X16955396Y-15926339D01*
X16969681Y-15854910D01*
X16969681Y-15797767D01*
X16955396Y-15726339D01*
X16941110Y-15683481D01*
X16926824Y-15654910D01*
X16898253Y-15612053D01*
X16883967Y-15597767D01*
X9826110Y-16200910D02*
G75*
G03X9826110Y-16200910I-20000J0D01*
G01*
X10169681Y-16036624D02*
X10198253Y-16036624D01*
X10226824Y-16050910D01*
X10241110Y-16065196D01*
X10255396Y-16093767D01*
X10269681Y-16150910D01*
X10269681Y-16222339D01*
X10255396Y-16279481D01*
X10241110Y-16308053D01*
X10226824Y-16322339D01*
X10198253Y-16336624D01*
X10169681Y-16336624D01*
X10141110Y-16322339D01*
X10126824Y-16308053D01*
X10112538Y-16279481D01*
X10098253Y-16222339D01*
X10098253Y-16150910D01*
X10112538Y-16093767D01*
X10126824Y-16065196D01*
X10141110Y-16050910D01*
X10169681Y-16036624D01*
X10398253Y-16308053D02*
X10412538Y-16322339D01*
X10398253Y-16336624D01*
X10383967Y-16322339D01*
X10398253Y-16308053D01*
X10398253Y-16336624D01*
X10669681Y-16136624D02*
X10669681Y-16336624D01*
X10598253Y-16022339D02*
X10526824Y-16236624D01*
X10712538Y-16236624D01*
X10883967Y-16036624D02*
X10912538Y-16036624D01*
X10941110Y-16050910D01*
X10955396Y-16065196D01*
X10969681Y-16093767D01*
X10983967Y-16150910D01*
X10983967Y-16222339D01*
X10969681Y-16279481D01*
X10955396Y-16308053D01*
X10941110Y-16322339D01*
X10912538Y-16336624D01*
X10883967Y-16336624D01*
X10855396Y-16322339D01*
X10841110Y-16308053D01*
X10826824Y-16279481D01*
X10812538Y-16222339D01*
X10812538Y-16150910D01*
X10826824Y-16093767D01*
X10841110Y-16065196D01*
X10855396Y-16050910D01*
X10883967Y-16036624D01*
X11112538Y-16336624D02*
X11112538Y-16136624D01*
X11112538Y-16165196D02*
X11126824Y-16150910D01*
X11155396Y-16136624D01*
X11198253Y-16136624D01*
X11226824Y-16150910D01*
X11241110Y-16179481D01*
X11241110Y-16336624D01*
X11241110Y-16179481D02*
X11255396Y-16150910D01*
X11283967Y-16136624D01*
X11326824Y-16136624D01*
X11355396Y-16150910D01*
X11369681Y-16179481D01*
X11369681Y-16336624D01*
X11512538Y-16336624D02*
X11512538Y-16136624D01*
X11512538Y-16165196D02*
X11526824Y-16150910D01*
X11555396Y-16136624D01*
X11598253Y-16136624D01*
X11626824Y-16150910D01*
X11641110Y-16179481D01*
X11641110Y-16336624D01*
X11641110Y-16179481D02*
X11655396Y-16150910D01*
X11683967Y-16136624D01*
X11726824Y-16136624D01*
X11755396Y-16150910D01*
X11769681Y-16179481D01*
X11769681Y-16336624D01*
X12355396Y-16022339D02*
X12098253Y-16408053D01*
X12741110Y-16036624D02*
X12769681Y-16036624D01*
X12798253Y-16050910D01*
X12812538Y-16065196D01*
X12826824Y-16093767D01*
X12841110Y-16150910D01*
X12841110Y-16222339D01*
X12826824Y-16279481D01*
X12812538Y-16308053D01*
X12798253Y-16322339D01*
X12769681Y-16336624D01*
X12741110Y-16336624D01*
X12712538Y-16322339D01*
X12698253Y-16308053D01*
X12683967Y-16279481D01*
X12669681Y-16222339D01*
X12669681Y-16150910D01*
X12683967Y-16093767D01*
X12698253Y-16065196D01*
X12712538Y-16050910D01*
X12741110Y-16036624D01*
X12969681Y-16308053D02*
X12983967Y-16322339D01*
X12969681Y-16336624D01*
X12955396Y-16322339D01*
X12969681Y-16308053D01*
X12969681Y-16336624D01*
X13169681Y-16036624D02*
X13198253Y-16036624D01*
X13226824Y-16050910D01*
X13241110Y-16065196D01*
X13255396Y-16093767D01*
X13269681Y-16150910D01*
X13269681Y-16222339D01*
X13255396Y-16279481D01*
X13241110Y-16308053D01*
X13226824Y-16322339D01*
X13198253Y-16336624D01*
X13169681Y-16336624D01*
X13141110Y-16322339D01*
X13126824Y-16308053D01*
X13112538Y-16279481D01*
X13098253Y-16222339D01*
X13098253Y-16150910D01*
X13112538Y-16093767D01*
X13126824Y-16065196D01*
X13141110Y-16050910D01*
X13169681Y-16036624D01*
X13555396Y-16336624D02*
X13383967Y-16336624D01*
X13469681Y-16336624D02*
X13469681Y-16036624D01*
X13441110Y-16079481D01*
X13412538Y-16108053D01*
X13383967Y-16122339D01*
X13812538Y-16036624D02*
X13755396Y-16036624D01*
X13726824Y-16050910D01*
X13712538Y-16065196D01*
X13683967Y-16108053D01*
X13669681Y-16165196D01*
X13669681Y-16279481D01*
X13683967Y-16308053D01*
X13698253Y-16322339D01*
X13726824Y-16336624D01*
X13783967Y-16336624D01*
X13812538Y-16322339D01*
X13826824Y-16308053D01*
X13841110Y-16279481D01*
X13841110Y-16208053D01*
X13826824Y-16179481D01*
X13812538Y-16165196D01*
X13783967Y-16150910D01*
X13726824Y-16150910D01*
X13698253Y-16165196D01*
X13683967Y-16179481D01*
X13669681Y-16208053D01*
X13955396Y-16036624D02*
X13955396Y-16093767D01*
X14069681Y-16036624D02*
X14069681Y-16093767D01*
X14512538Y-16450910D02*
X14498253Y-16436624D01*
X14469681Y-16393767D01*
X14455396Y-16365196D01*
X14441110Y-16322339D01*
X14426824Y-16250910D01*
X14426824Y-16193767D01*
X14441110Y-16122339D01*
X14455396Y-16079481D01*
X14469681Y-16050910D01*
X14498253Y-16008053D01*
X14512538Y-15993767D01*
X14755396Y-16036624D02*
X14698253Y-16036624D01*
X14669681Y-16050910D01*
X14655396Y-16065196D01*
X14626824Y-16108053D01*
X14612538Y-16165196D01*
X14612538Y-16279481D01*
X14626824Y-16308053D01*
X14641110Y-16322339D01*
X14669681Y-16336624D01*
X14726824Y-16336624D01*
X14755396Y-16322339D01*
X14769681Y-16308053D01*
X14783967Y-16279481D01*
X14783967Y-16208053D01*
X14769681Y-16179481D01*
X14755396Y-16165196D01*
X14726824Y-16150910D01*
X14669681Y-16150910D01*
X14641110Y-16165196D01*
X14626824Y-16179481D01*
X14612538Y-16208053D01*
X15041110Y-16036624D02*
X14983967Y-16036624D01*
X14955396Y-16050910D01*
X14941110Y-16065196D01*
X14912538Y-16108053D01*
X14898253Y-16165196D01*
X14898253Y-16279481D01*
X14912538Y-16308053D01*
X14926824Y-16322339D01*
X14955396Y-16336624D01*
X15012538Y-16336624D01*
X15041110Y-16322339D01*
X15055396Y-16308053D01*
X15069681Y-16279481D01*
X15069681Y-16208053D01*
X15055396Y-16179481D01*
X15041110Y-16165196D01*
X15012538Y-16150910D01*
X14955396Y-16150910D01*
X14926824Y-16165196D01*
X14912538Y-16179481D01*
X14898253Y-16208053D01*
X15426824Y-16336624D02*
X15426824Y-16036624D01*
X15555396Y-16336624D02*
X15555396Y-16179481D01*
X15541110Y-16150910D01*
X15512538Y-16136624D01*
X15469681Y-16136624D01*
X15441110Y-16150910D01*
X15426824Y-16165196D01*
X15741110Y-16336624D02*
X15712538Y-16322339D01*
X15698253Y-16308053D01*
X15683967Y-16279481D01*
X15683967Y-16193767D01*
X15698253Y-16165196D01*
X15712538Y-16150910D01*
X15741110Y-16136624D01*
X15783967Y-16136624D01*
X15812538Y-16150910D01*
X15826824Y-16165196D01*
X15841110Y-16193767D01*
X15841110Y-16279481D01*
X15826824Y-16308053D01*
X15812538Y-16322339D01*
X15783967Y-16336624D01*
X15741110Y-16336624D01*
X16012538Y-16336624D02*
X15983967Y-16322339D01*
X15969681Y-16293767D01*
X15969681Y-16036624D01*
X16241110Y-16322339D02*
X16212538Y-16336624D01*
X16155396Y-16336624D01*
X16126824Y-16322339D01*
X16112538Y-16293767D01*
X16112538Y-16179481D01*
X16126824Y-16150910D01*
X16155396Y-16136624D01*
X16212538Y-16136624D01*
X16241110Y-16150910D01*
X16255396Y-16179481D01*
X16255396Y-16208053D01*
X16112538Y-16236624D01*
X16369681Y-16322339D02*
X16398253Y-16336624D01*
X16455396Y-16336624D01*
X16483967Y-16322339D01*
X16498253Y-16293767D01*
X16498253Y-16279481D01*
X16483967Y-16250910D01*
X16455396Y-16236624D01*
X16412538Y-16236624D01*
X16383967Y-16222339D01*
X16369681Y-16193767D01*
X16369681Y-16179481D01*
X16383967Y-16150910D01*
X16412538Y-16136624D01*
X16455396Y-16136624D01*
X16483967Y-16150910D01*
X16598253Y-16450910D02*
X16612538Y-16436624D01*
X16641110Y-16393767D01*
X16655396Y-16365196D01*
X16669681Y-16322339D01*
X16683967Y-16250910D01*
X16683967Y-16193767D01*
X16669681Y-16122339D01*
X16655396Y-16079481D01*
X16641110Y-16050910D01*
X16612538Y-16008053D01*
X16598253Y-15993767D01*
X9796110Y-16566910D02*
X9796110Y-16626910D01*
X9766110Y-16596910D02*
X9826110Y-16596910D01*
X10169681Y-16432624D02*
X10198253Y-16432624D01*
X10226824Y-16446910D01*
X10241110Y-16461196D01*
X10255396Y-16489767D01*
X10269681Y-16546910D01*
X10269681Y-16618339D01*
X10255396Y-16675481D01*
X10241110Y-16704053D01*
X10226824Y-16718339D01*
X10198253Y-16732624D01*
X10169681Y-16732624D01*
X10141110Y-16718339D01*
X10126824Y-16704053D01*
X10112538Y-16675481D01*
X10098253Y-16618339D01*
X10098253Y-16546910D01*
X10112538Y-16489767D01*
X10126824Y-16461196D01*
X10141110Y-16446910D01*
X10169681Y-16432624D01*
X10398253Y-16704053D02*
X10412538Y-16718339D01*
X10398253Y-16732624D01*
X10383967Y-16718339D01*
X10398253Y-16704053D01*
X10398253Y-16732624D01*
X10669681Y-16432624D02*
X10612538Y-16432624D01*
X10583967Y-16446910D01*
X10569681Y-16461196D01*
X10541110Y-16504053D01*
X10526824Y-16561196D01*
X10526824Y-16675481D01*
X10541110Y-16704053D01*
X10555396Y-16718339D01*
X10583967Y-16732624D01*
X10641110Y-16732624D01*
X10669681Y-16718339D01*
X10683967Y-16704053D01*
X10698253Y-16675481D01*
X10698253Y-16604053D01*
X10683967Y-16575481D01*
X10669681Y-16561196D01*
X10641110Y-16546910D01*
X10583967Y-16546910D01*
X10555396Y-16561196D01*
X10541110Y-16575481D01*
X10526824Y-16604053D01*
X10883967Y-16432624D02*
X10912538Y-16432624D01*
X10941110Y-16446910D01*
X10955396Y-16461196D01*
X10969681Y-16489767D01*
X10983967Y-16546910D01*
X10983967Y-16618339D01*
X10969681Y-16675481D01*
X10955396Y-16704053D01*
X10941110Y-16718339D01*
X10912538Y-16732624D01*
X10883967Y-16732624D01*
X10855396Y-16718339D01*
X10841110Y-16704053D01*
X10826824Y-16675481D01*
X10812538Y-16618339D01*
X10812538Y-16546910D01*
X10826824Y-16489767D01*
X10841110Y-16461196D01*
X10855396Y-16446910D01*
X10883967Y-16432624D01*
X11112538Y-16732624D02*
X11112538Y-16532624D01*
X11112538Y-16561196D02*
X11126824Y-16546910D01*
X11155396Y-16532624D01*
X11198253Y-16532624D01*
X11226824Y-16546910D01*
X11241110Y-16575481D01*
X11241110Y-16732624D01*
X11241110Y-16575481D02*
X11255396Y-16546910D01*
X11283967Y-16532624D01*
X11326824Y-16532624D01*
X11355396Y-16546910D01*
X11369681Y-16575481D01*
X11369681Y-16732624D01*
X11512538Y-16732624D02*
X11512538Y-16532624D01*
X11512538Y-16561196D02*
X11526824Y-16546910D01*
X11555396Y-16532624D01*
X11598253Y-16532624D01*
X11626824Y-16546910D01*
X11641110Y-16575481D01*
X11641110Y-16732624D01*
X11641110Y-16575481D02*
X11655396Y-16546910D01*
X11683967Y-16532624D01*
X11726824Y-16532624D01*
X11755396Y-16546910D01*
X11769681Y-16575481D01*
X11769681Y-16732624D01*
X12355396Y-16418339D02*
X12098253Y-16804053D01*
X12741110Y-16432624D02*
X12769681Y-16432624D01*
X12798253Y-16446910D01*
X12812538Y-16461196D01*
X12826824Y-16489767D01*
X12841110Y-16546910D01*
X12841110Y-16618339D01*
X12826824Y-16675481D01*
X12812538Y-16704053D01*
X12798253Y-16718339D01*
X12769681Y-16732624D01*
X12741110Y-16732624D01*
X12712538Y-16718339D01*
X12698253Y-16704053D01*
X12683967Y-16675481D01*
X12669681Y-16618339D01*
X12669681Y-16546910D01*
X12683967Y-16489767D01*
X12698253Y-16461196D01*
X12712538Y-16446910D01*
X12741110Y-16432624D01*
X12969681Y-16704053D02*
X12983967Y-16718339D01*
X12969681Y-16732624D01*
X12955396Y-16718339D01*
X12969681Y-16704053D01*
X12969681Y-16732624D01*
X13169681Y-16432624D02*
X13198253Y-16432624D01*
X13226824Y-16446910D01*
X13241110Y-16461196D01*
X13255396Y-16489767D01*
X13269681Y-16546910D01*
X13269681Y-16618339D01*
X13255396Y-16675481D01*
X13241110Y-16704053D01*
X13226824Y-16718339D01*
X13198253Y-16732624D01*
X13169681Y-16732624D01*
X13141110Y-16718339D01*
X13126824Y-16704053D01*
X13112538Y-16675481D01*
X13098253Y-16618339D01*
X13098253Y-16546910D01*
X13112538Y-16489767D01*
X13126824Y-16461196D01*
X13141110Y-16446910D01*
X13169681Y-16432624D01*
X13383967Y-16461196D02*
X13398253Y-16446910D01*
X13426824Y-16432624D01*
X13498253Y-16432624D01*
X13526824Y-16446910D01*
X13541110Y-16461196D01*
X13555396Y-16489767D01*
X13555396Y-16518339D01*
X13541110Y-16561196D01*
X13369681Y-16732624D01*
X13555396Y-16732624D01*
X13812538Y-16532624D02*
X13812538Y-16732624D01*
X13741110Y-16418339D02*
X13669681Y-16632624D01*
X13855396Y-16632624D01*
X13955396Y-16432624D02*
X13955396Y-16489767D01*
X14069681Y-16432624D02*
X14069681Y-16489767D01*
X14512538Y-16846910D02*
X14498253Y-16832624D01*
X14469681Y-16789767D01*
X14455396Y-16761196D01*
X14441110Y-16718339D01*
X14426824Y-16646910D01*
X14426824Y-16589767D01*
X14441110Y-16518339D01*
X14455396Y-16475481D01*
X14469681Y-16446910D01*
X14498253Y-16404053D01*
X14512538Y-16389767D01*
X14683967Y-16432624D02*
X14712538Y-16432624D01*
X14741110Y-16446910D01*
X14755396Y-16461196D01*
X14769681Y-16489767D01*
X14783967Y-16546910D01*
X14783967Y-16618339D01*
X14769681Y-16675481D01*
X14755396Y-16704053D01*
X14741110Y-16718339D01*
X14712538Y-16732624D01*
X14683967Y-16732624D01*
X14655396Y-16718339D01*
X14641110Y-16704053D01*
X14626824Y-16675481D01*
X14612538Y-16618339D01*
X14612538Y-16546910D01*
X14626824Y-16489767D01*
X14641110Y-16461196D01*
X14655396Y-16446910D01*
X14683967Y-16432624D01*
X15141110Y-16732624D02*
X15141110Y-16432624D01*
X15269681Y-16732624D02*
X15269681Y-16575481D01*
X15255396Y-16546910D01*
X15226824Y-16532624D01*
X15183967Y-16532624D01*
X15155396Y-16546910D01*
X15141110Y-16561196D01*
X15455396Y-16732624D02*
X15426824Y-16718339D01*
X15412538Y-16704053D01*
X15398253Y-16675481D01*
X15398253Y-16589767D01*
X15412538Y-16561196D01*
X15426824Y-16546910D01*
X15455396Y-16532624D01*
X15498253Y-16532624D01*
X15526824Y-16546910D01*
X15541110Y-16561196D01*
X15555396Y-16589767D01*
X15555396Y-16675481D01*
X15541110Y-16704053D01*
X15526824Y-16718339D01*
X15498253Y-16732624D01*
X15455396Y-16732624D01*
X15726824Y-16732624D02*
X15698253Y-16718339D01*
X15683967Y-16689767D01*
X15683967Y-16432624D01*
X15955396Y-16718339D02*
X15926824Y-16732624D01*
X15869681Y-16732624D01*
X15841110Y-16718339D01*
X15826824Y-16689767D01*
X15826824Y-16575481D01*
X15841110Y-16546910D01*
X15869681Y-16532624D01*
X15926824Y-16532624D01*
X15955396Y-16546910D01*
X15969681Y-16575481D01*
X15969681Y-16604053D01*
X15826824Y-16632624D01*
X16083967Y-16718339D02*
X16112538Y-16732624D01*
X16169681Y-16732624D01*
X16198253Y-16718339D01*
X16212538Y-16689767D01*
X16212538Y-16675481D01*
X16198253Y-16646910D01*
X16169681Y-16632624D01*
X16126824Y-16632624D01*
X16098253Y-16618339D01*
X16083967Y-16589767D01*
X16083967Y-16575481D01*
X16098253Y-16546910D01*
X16126824Y-16532624D01*
X16169681Y-16532624D01*
X16198253Y-16546910D01*
X16569681Y-16618339D02*
X16798253Y-16618339D01*
X16683967Y-16732624D02*
X16683967Y-16504053D01*
X17298253Y-16532624D02*
X17298253Y-16732624D01*
X17226824Y-16418339D02*
X17155396Y-16632624D01*
X17341110Y-16632624D01*
X17669681Y-16718339D02*
X17698253Y-16732624D01*
X17755396Y-16732624D01*
X17783967Y-16718339D01*
X17798253Y-16689767D01*
X17798253Y-16675481D01*
X17783967Y-16646910D01*
X17755396Y-16632624D01*
X17712538Y-16632624D01*
X17683967Y-16618339D01*
X17669681Y-16589767D01*
X17669681Y-16575481D01*
X17683967Y-16546910D01*
X17712538Y-16532624D01*
X17755396Y-16532624D01*
X17783967Y-16546910D01*
X17969681Y-16732624D02*
X17941110Y-16718339D01*
X17926824Y-16689767D01*
X17926824Y-16432624D01*
X18126824Y-16732624D02*
X18098253Y-16718339D01*
X18083967Y-16704053D01*
X18069681Y-16675481D01*
X18069681Y-16589767D01*
X18083967Y-16561196D01*
X18098253Y-16546910D01*
X18126824Y-16532624D01*
X18169681Y-16532624D01*
X18198253Y-16546910D01*
X18212538Y-16561196D01*
X18226824Y-16589767D01*
X18226824Y-16675481D01*
X18212538Y-16704053D01*
X18198253Y-16718339D01*
X18169681Y-16732624D01*
X18126824Y-16732624D01*
X18312538Y-16532624D02*
X18426824Y-16532624D01*
X18355396Y-16432624D02*
X18355396Y-16689767D01*
X18369681Y-16718339D01*
X18398253Y-16732624D01*
X18426824Y-16732624D01*
X18512538Y-16718339D02*
X18541110Y-16732624D01*
X18598253Y-16732624D01*
X18626824Y-16718339D01*
X18641110Y-16689767D01*
X18641110Y-16675481D01*
X18626824Y-16646910D01*
X18598253Y-16632624D01*
X18555396Y-16632624D01*
X18526824Y-16618339D01*
X18512538Y-16589767D01*
X18512538Y-16575481D01*
X18526824Y-16546910D01*
X18555396Y-16532624D01*
X18598253Y-16532624D01*
X18626824Y-16546910D01*
X18741110Y-16846910D02*
X18755396Y-16832624D01*
X18783967Y-16789767D01*
X18798253Y-16761196D01*
X18812538Y-16718339D01*
X18826824Y-16646910D01*
X18826824Y-16589767D01*
X18812538Y-16518339D01*
X18798253Y-16475481D01*
X18783967Y-16446910D01*
X18755396Y-16404053D01*
X18741110Y-16389767D01*
X9813091Y-17024341D02*
X9813091Y-16961479D01*
X9750229Y-16961479D01*
X9750229Y-17024341D01*
X9813091Y-17024341D01*
X10169681Y-16828624D02*
X10198253Y-16828624D01*
X10226824Y-16842910D01*
X10241110Y-16857196D01*
X10255396Y-16885767D01*
X10269681Y-16942910D01*
X10269681Y-17014339D01*
X10255396Y-17071482D01*
X10241110Y-17100053D01*
X10226824Y-17114339D01*
X10198253Y-17128624D01*
X10169681Y-17128624D01*
X10141110Y-17114339D01*
X10126824Y-17100053D01*
X10112538Y-17071482D01*
X10098253Y-17014339D01*
X10098253Y-16942910D01*
X10112538Y-16885767D01*
X10126824Y-16857196D01*
X10141110Y-16842910D01*
X10169681Y-16828624D01*
X10398253Y-17100053D02*
X10412538Y-17114339D01*
X10398253Y-17128624D01*
X10383967Y-17114339D01*
X10398253Y-17100053D01*
X10398253Y-17128624D01*
X10583967Y-16957196D02*
X10555396Y-16942910D01*
X10541110Y-16928624D01*
X10526824Y-16900053D01*
X10526824Y-16885767D01*
X10541110Y-16857196D01*
X10555396Y-16842910D01*
X10583967Y-16828624D01*
X10641110Y-16828624D01*
X10669681Y-16842910D01*
X10683967Y-16857196D01*
X10698253Y-16885767D01*
X10698253Y-16900053D01*
X10683967Y-16928624D01*
X10669681Y-16942910D01*
X10641110Y-16957196D01*
X10583967Y-16957196D01*
X10555396Y-16971482D01*
X10541110Y-16985767D01*
X10526824Y-17014339D01*
X10526824Y-17071482D01*
X10541110Y-17100053D01*
X10555396Y-17114339D01*
X10583967Y-17128624D01*
X10641110Y-17128624D01*
X10669681Y-17114339D01*
X10683967Y-17100053D01*
X10698253Y-17071482D01*
X10698253Y-17014339D01*
X10683967Y-16985767D01*
X10669681Y-16971482D01*
X10641110Y-16957196D01*
X10841110Y-17128624D02*
X10898253Y-17128624D01*
X10926824Y-17114339D01*
X10941110Y-17100053D01*
X10969681Y-17057196D01*
X10983967Y-17000053D01*
X10983967Y-16885767D01*
X10969681Y-16857196D01*
X10955396Y-16842910D01*
X10926824Y-16828624D01*
X10869681Y-16828624D01*
X10841110Y-16842910D01*
X10826824Y-16857196D01*
X10812538Y-16885767D01*
X10812538Y-16957196D01*
X10826824Y-16985767D01*
X10841110Y-17000053D01*
X10869681Y-17014339D01*
X10926824Y-17014339D01*
X10955396Y-17000053D01*
X10969681Y-16985767D01*
X10983967Y-16957196D01*
X11112538Y-17128624D02*
X11112538Y-16928624D01*
X11112538Y-16957196D02*
X11126824Y-16942910D01*
X11155396Y-16928624D01*
X11198253Y-16928624D01*
X11226824Y-16942910D01*
X11241110Y-16971482D01*
X11241110Y-17128624D01*
X11241110Y-16971482D02*
X11255396Y-16942910D01*
X11283967Y-16928624D01*
X11326824Y-16928624D01*
X11355396Y-16942910D01*
X11369681Y-16971482D01*
X11369681Y-17128624D01*
X11512538Y-17128624D02*
X11512538Y-16928624D01*
X11512538Y-16957196D02*
X11526824Y-16942910D01*
X11555396Y-16928624D01*
X11598253Y-16928624D01*
X11626824Y-16942910D01*
X11641110Y-16971482D01*
X11641110Y-17128624D01*
X11641110Y-16971482D02*
X11655396Y-16942910D01*
X11683967Y-16928624D01*
X11726824Y-16928624D01*
X11755396Y-16942910D01*
X11769681Y-16971482D01*
X11769681Y-17128624D01*
X12355396Y-16814339D02*
X12098253Y-17200053D01*
X12741110Y-16828624D02*
X12769681Y-16828624D01*
X12798253Y-16842910D01*
X12812538Y-16857196D01*
X12826824Y-16885767D01*
X12841110Y-16942910D01*
X12841110Y-17014339D01*
X12826824Y-17071482D01*
X12812538Y-17100053D01*
X12798253Y-17114339D01*
X12769681Y-17128624D01*
X12741110Y-17128624D01*
X12712538Y-17114339D01*
X12698253Y-17100053D01*
X12683967Y-17071482D01*
X12669681Y-17014339D01*
X12669681Y-16942910D01*
X12683967Y-16885767D01*
X12698253Y-16857196D01*
X12712538Y-16842910D01*
X12741110Y-16828624D01*
X12969681Y-17100053D02*
X12983967Y-17114339D01*
X12969681Y-17128624D01*
X12955396Y-17114339D01*
X12969681Y-17100053D01*
X12969681Y-17128624D01*
X13169681Y-16828624D02*
X13198253Y-16828624D01*
X13226824Y-16842910D01*
X13241110Y-16857196D01*
X13255396Y-16885767D01*
X13269681Y-16942910D01*
X13269681Y-17014339D01*
X13255396Y-17071482D01*
X13241110Y-17100053D01*
X13226824Y-17114339D01*
X13198253Y-17128624D01*
X13169681Y-17128624D01*
X13141110Y-17114339D01*
X13126824Y-17100053D01*
X13112538Y-17071482D01*
X13098253Y-17014339D01*
X13098253Y-16942910D01*
X13112538Y-16885767D01*
X13126824Y-16857196D01*
X13141110Y-16842910D01*
X13169681Y-16828624D01*
X13369681Y-16828624D02*
X13555396Y-16828624D01*
X13455396Y-16942910D01*
X13498253Y-16942910D01*
X13526824Y-16957196D01*
X13541110Y-16971482D01*
X13555396Y-17000053D01*
X13555396Y-17071482D01*
X13541110Y-17100053D01*
X13526824Y-17114339D01*
X13498253Y-17128624D01*
X13412538Y-17128624D01*
X13383967Y-17114339D01*
X13369681Y-17100053D01*
X13826824Y-16828624D02*
X13683967Y-16828624D01*
X13669681Y-16971482D01*
X13683967Y-16957196D01*
X13712538Y-16942910D01*
X13783967Y-16942910D01*
X13812538Y-16957196D01*
X13826824Y-16971482D01*
X13841110Y-17000053D01*
X13841110Y-17071482D01*
X13826824Y-17100053D01*
X13812538Y-17114339D01*
X13783967Y-17128624D01*
X13712538Y-17128624D01*
X13683967Y-17114339D01*
X13669681Y-17100053D01*
X13955396Y-16828624D02*
X13955396Y-16885767D01*
X14069681Y-16828624D02*
X14069681Y-16885767D01*
X14512538Y-17242910D02*
X14498253Y-17228624D01*
X14469681Y-17185767D01*
X14455396Y-17157196D01*
X14441110Y-17114339D01*
X14426824Y-17042910D01*
X14426824Y-16985767D01*
X14441110Y-16914339D01*
X14455396Y-16871482D01*
X14469681Y-16842910D01*
X14498253Y-16800053D01*
X14512538Y-16785767D01*
X14612538Y-16857196D02*
X14626824Y-16842910D01*
X14655396Y-16828624D01*
X14726824Y-16828624D01*
X14755396Y-16842910D01*
X14769681Y-16857196D01*
X14783967Y-16885767D01*
X14783967Y-16914339D01*
X14769681Y-16957196D01*
X14598253Y-17128624D01*
X14783967Y-17128624D01*
X15141110Y-17128624D02*
X15141110Y-16828624D01*
X15269681Y-17128624D02*
X15269681Y-16971482D01*
X15255396Y-16942910D01*
X15226824Y-16928624D01*
X15183967Y-16928624D01*
X15155396Y-16942910D01*
X15141110Y-16957196D01*
X15455396Y-17128624D02*
X15426824Y-17114339D01*
X15412538Y-17100053D01*
X15398253Y-17071482D01*
X15398253Y-16985767D01*
X15412538Y-16957196D01*
X15426824Y-16942910D01*
X15455396Y-16928624D01*
X15498253Y-16928624D01*
X15526824Y-16942910D01*
X15541110Y-16957196D01*
X15555396Y-16985767D01*
X15555396Y-17071482D01*
X15541110Y-17100053D01*
X15526824Y-17114339D01*
X15498253Y-17128624D01*
X15455396Y-17128624D01*
X15726824Y-17128624D02*
X15698253Y-17114339D01*
X15683967Y-17085767D01*
X15683967Y-16828624D01*
X15955396Y-17114339D02*
X15926824Y-17128624D01*
X15869681Y-17128624D01*
X15841110Y-17114339D01*
X15826824Y-17085767D01*
X15826824Y-16971482D01*
X15841110Y-16942910D01*
X15869681Y-16928624D01*
X15926824Y-16928624D01*
X15955396Y-16942910D01*
X15969681Y-16971482D01*
X15969681Y-17000053D01*
X15826824Y-17028624D01*
X16083967Y-17114339D02*
X16112538Y-17128624D01*
X16169681Y-17128624D01*
X16198253Y-17114339D01*
X16212538Y-17085767D01*
X16212538Y-17071482D01*
X16198253Y-17042910D01*
X16169681Y-17028624D01*
X16126824Y-17028624D01*
X16098253Y-17014339D01*
X16083967Y-16985767D01*
X16083967Y-16971482D01*
X16098253Y-16942910D01*
X16126824Y-16928624D01*
X16169681Y-16928624D01*
X16198253Y-16942910D01*
X16312538Y-17242910D02*
X16326824Y-17228624D01*
X16355396Y-17185767D01*
X16369681Y-17157196D01*
X16383967Y-17114339D01*
X16398253Y-17042910D01*
X16398253Y-16985767D01*
X16383967Y-16914339D01*
X16369681Y-16871482D01*
X16355396Y-16842910D01*
X16326824Y-16800053D01*
X16312538Y-16785767D01*
X9781110Y-17433910D02*
X9826110Y-17388910D01*
X9781110Y-17343910D01*
X9736110Y-17388910D01*
X9781110Y-17433910D01*
X10169681Y-17224624D02*
X10198253Y-17224624D01*
X10226824Y-17238910D01*
X10241110Y-17253196D01*
X10255396Y-17281767D01*
X10269681Y-17338910D01*
X10269681Y-17410339D01*
X10255396Y-17467482D01*
X10241110Y-17496053D01*
X10226824Y-17510339D01*
X10198253Y-17524624D01*
X10169681Y-17524624D01*
X10141110Y-17510339D01*
X10126824Y-17496053D01*
X10112538Y-17467482D01*
X10098253Y-17410339D01*
X10098253Y-17338910D01*
X10112538Y-17281767D01*
X10126824Y-17253196D01*
X10141110Y-17238910D01*
X10169681Y-17224624D01*
X10398253Y-17496053D02*
X10412538Y-17510339D01*
X10398253Y-17524624D01*
X10383967Y-17510339D01*
X10398253Y-17496053D01*
X10398253Y-17524624D01*
X10555396Y-17524624D02*
X10612538Y-17524624D01*
X10641110Y-17510339D01*
X10655396Y-17496053D01*
X10683967Y-17453196D01*
X10698253Y-17396053D01*
X10698253Y-17281767D01*
X10683967Y-17253196D01*
X10669681Y-17238910D01*
X10641110Y-17224624D01*
X10583967Y-17224624D01*
X10555396Y-17238910D01*
X10541110Y-17253196D01*
X10526824Y-17281767D01*
X10526824Y-17353196D01*
X10541110Y-17381767D01*
X10555396Y-17396053D01*
X10583967Y-17410339D01*
X10641110Y-17410339D01*
X10669681Y-17396053D01*
X10683967Y-17381767D01*
X10698253Y-17353196D01*
X10883967Y-17224624D02*
X10912538Y-17224624D01*
X10941110Y-17238910D01*
X10955396Y-17253196D01*
X10969681Y-17281767D01*
X10983967Y-17338910D01*
X10983967Y-17410339D01*
X10969681Y-17467482D01*
X10955396Y-17496053D01*
X10941110Y-17510339D01*
X10912538Y-17524624D01*
X10883967Y-17524624D01*
X10855396Y-17510339D01*
X10841110Y-17496053D01*
X10826824Y-17467482D01*
X10812538Y-17410339D01*
X10812538Y-17338910D01*
X10826824Y-17281767D01*
X10841110Y-17253196D01*
X10855396Y-17238910D01*
X10883967Y-17224624D01*
X11112538Y-17524624D02*
X11112538Y-17324624D01*
X11112538Y-17353196D02*
X11126824Y-17338910D01*
X11155396Y-17324624D01*
X11198253Y-17324624D01*
X11226824Y-17338910D01*
X11241110Y-17367482D01*
X11241110Y-17524624D01*
X11241110Y-17367482D02*
X11255396Y-17338910D01*
X11283967Y-17324624D01*
X11326824Y-17324624D01*
X11355396Y-17338910D01*
X11369681Y-17367482D01*
X11369681Y-17524624D01*
X11512538Y-17524624D02*
X11512538Y-17324624D01*
X11512538Y-17353196D02*
X11526824Y-17338910D01*
X11555396Y-17324624D01*
X11598253Y-17324624D01*
X11626824Y-17338910D01*
X11641110Y-17367482D01*
X11641110Y-17524624D01*
X11641110Y-17367482D02*
X11655396Y-17338910D01*
X11683967Y-17324624D01*
X11726824Y-17324624D01*
X11755396Y-17338910D01*
X11769681Y-17367482D01*
X11769681Y-17524624D01*
X12355396Y-17210339D02*
X12098253Y-17596053D01*
X12741110Y-17224624D02*
X12769681Y-17224624D01*
X12798253Y-17238910D01*
X12812538Y-17253196D01*
X12826824Y-17281767D01*
X12841110Y-17338910D01*
X12841110Y-17410339D01*
X12826824Y-17467482D01*
X12812538Y-17496053D01*
X12798253Y-17510339D01*
X12769681Y-17524624D01*
X12741110Y-17524624D01*
X12712538Y-17510339D01*
X12698253Y-17496053D01*
X12683967Y-17467482D01*
X12669681Y-17410339D01*
X12669681Y-17338910D01*
X12683967Y-17281767D01*
X12698253Y-17253196D01*
X12712538Y-17238910D01*
X12741110Y-17224624D01*
X12969681Y-17496053D02*
X12983967Y-17510339D01*
X12969681Y-17524624D01*
X12955396Y-17510339D01*
X12969681Y-17496053D01*
X12969681Y-17524624D01*
X13169681Y-17224624D02*
X13198253Y-17224624D01*
X13226824Y-17238910D01*
X13241110Y-17253196D01*
X13255396Y-17281767D01*
X13269681Y-17338910D01*
X13269681Y-17410339D01*
X13255396Y-17467482D01*
X13241110Y-17496053D01*
X13226824Y-17510339D01*
X13198253Y-17524624D01*
X13169681Y-17524624D01*
X13141110Y-17510339D01*
X13126824Y-17496053D01*
X13112538Y-17467482D01*
X13098253Y-17410339D01*
X13098253Y-17338910D01*
X13112538Y-17281767D01*
X13126824Y-17253196D01*
X13141110Y-17238910D01*
X13169681Y-17224624D01*
X13369681Y-17224624D02*
X13555396Y-17224624D01*
X13455396Y-17338910D01*
X13498253Y-17338910D01*
X13526824Y-17353196D01*
X13541110Y-17367482D01*
X13555396Y-17396053D01*
X13555396Y-17467482D01*
X13541110Y-17496053D01*
X13526824Y-17510339D01*
X13498253Y-17524624D01*
X13412538Y-17524624D01*
X13383967Y-17510339D01*
X13369681Y-17496053D01*
X13826824Y-17224624D02*
X13683967Y-17224624D01*
X13669681Y-17367482D01*
X13683967Y-17353196D01*
X13712538Y-17338910D01*
X13783967Y-17338910D01*
X13812538Y-17353196D01*
X13826824Y-17367482D01*
X13841110Y-17396053D01*
X13841110Y-17467482D01*
X13826824Y-17496053D01*
X13812538Y-17510339D01*
X13783967Y-17524624D01*
X13712538Y-17524624D01*
X13683967Y-17510339D01*
X13669681Y-17496053D01*
X13955396Y-17224624D02*
X13955396Y-17281767D01*
X14069681Y-17224624D02*
X14069681Y-17281767D01*
X14512538Y-17638910D02*
X14498253Y-17624624D01*
X14469681Y-17581767D01*
X14455396Y-17553196D01*
X14441110Y-17510339D01*
X14426824Y-17438910D01*
X14426824Y-17381767D01*
X14441110Y-17310339D01*
X14455396Y-17267482D01*
X14469681Y-17238910D01*
X14498253Y-17196053D01*
X14512538Y-17181767D01*
X14612538Y-17253196D02*
X14626824Y-17238910D01*
X14655396Y-17224624D01*
X14726824Y-17224624D01*
X14755396Y-17238910D01*
X14769681Y-17253196D01*
X14783967Y-17281767D01*
X14783967Y-17310339D01*
X14769681Y-17353196D01*
X14598253Y-17524624D01*
X14783967Y-17524624D01*
X15141110Y-17524624D02*
X15141110Y-17224624D01*
X15269681Y-17524624D02*
X15269681Y-17367482D01*
X15255396Y-17338910D01*
X15226824Y-17324624D01*
X15183967Y-17324624D01*
X15155396Y-17338910D01*
X15141110Y-17353196D01*
X15455396Y-17524624D02*
X15426824Y-17510339D01*
X15412538Y-17496053D01*
X15398253Y-17467482D01*
X15398253Y-17381767D01*
X15412538Y-17353196D01*
X15426824Y-17338910D01*
X15455396Y-17324624D01*
X15498253Y-17324624D01*
X15526824Y-17338910D01*
X15541110Y-17353196D01*
X15555396Y-17381767D01*
X15555396Y-17467482D01*
X15541110Y-17496053D01*
X15526824Y-17510339D01*
X15498253Y-17524624D01*
X15455396Y-17524624D01*
X15726824Y-17524624D02*
X15698253Y-17510339D01*
X15683967Y-17481767D01*
X15683967Y-17224624D01*
X15955396Y-17510339D02*
X15926824Y-17524624D01*
X15869681Y-17524624D01*
X15841110Y-17510339D01*
X15826824Y-17481767D01*
X15826824Y-17367482D01*
X15841110Y-17338910D01*
X15869681Y-17324624D01*
X15926824Y-17324624D01*
X15955396Y-17338910D01*
X15969681Y-17367482D01*
X15969681Y-17396053D01*
X15826824Y-17424624D01*
X16083967Y-17510339D02*
X16112538Y-17524624D01*
X16169681Y-17524624D01*
X16198253Y-17510339D01*
X16212538Y-17481767D01*
X16212538Y-17467482D01*
X16198253Y-17438910D01*
X16169681Y-17424624D01*
X16126824Y-17424624D01*
X16098253Y-17410339D01*
X16083967Y-17381767D01*
X16083967Y-17367482D01*
X16098253Y-17338910D01*
X16126824Y-17324624D01*
X16169681Y-17324624D01*
X16198253Y-17338910D01*
X16312538Y-17638910D02*
X16326824Y-17624624D01*
X16355396Y-17581767D01*
X16369681Y-17553196D01*
X16383967Y-17510339D01*
X16398253Y-17438910D01*
X16398253Y-17381767D01*
X16383967Y-17310339D01*
X16369681Y-17267482D01*
X16355396Y-17238910D01*
X16326824Y-17196053D01*
X16312538Y-17181767D01*
X9726110Y-17734910D02*
X9826110Y-17834910D01*
X9826110Y-17734910D02*
X9726110Y-17834910D01*
X9826110Y-17784910D02*
G75*
G03X9826110Y-17784910I-50000J0D01*
G01*
X10269681Y-17920624D02*
X10098253Y-17920624D01*
X10183967Y-17920624D02*
X10183967Y-17620624D01*
X10155396Y-17663482D01*
X10126824Y-17692053D01*
X10098253Y-17706339D01*
X10398253Y-17892053D02*
X10412538Y-17906339D01*
X10398253Y-17920624D01*
X10383967Y-17906339D01*
X10398253Y-17892053D01*
X10398253Y-17920624D01*
X10598253Y-17620624D02*
X10626824Y-17620624D01*
X10655396Y-17634910D01*
X10669681Y-17649196D01*
X10683967Y-17677767D01*
X10698253Y-17734910D01*
X10698253Y-17806339D01*
X10683967Y-17863482D01*
X10669681Y-17892053D01*
X10655396Y-17906339D01*
X10626824Y-17920624D01*
X10598253Y-17920624D01*
X10569681Y-17906339D01*
X10555396Y-17892053D01*
X10541110Y-17863482D01*
X10526824Y-17806339D01*
X10526824Y-17734910D01*
X10541110Y-17677767D01*
X10555396Y-17649196D01*
X10569681Y-17634910D01*
X10598253Y-17620624D01*
X10883967Y-17620624D02*
X10912538Y-17620624D01*
X10941110Y-17634910D01*
X10955396Y-17649196D01*
X10969681Y-17677767D01*
X10983967Y-17734910D01*
X10983967Y-17806339D01*
X10969681Y-17863482D01*
X10955396Y-17892053D01*
X10941110Y-17906339D01*
X10912538Y-17920624D01*
X10883967Y-17920624D01*
X10855396Y-17906339D01*
X10841110Y-17892053D01*
X10826824Y-17863482D01*
X10812538Y-17806339D01*
X10812538Y-17734910D01*
X10826824Y-17677767D01*
X10841110Y-17649196D01*
X10855396Y-17634910D01*
X10883967Y-17620624D01*
X11112538Y-17920624D02*
X11112538Y-17720624D01*
X11112538Y-17749196D02*
X11126824Y-17734910D01*
X11155396Y-17720624D01*
X11198253Y-17720624D01*
X11226824Y-17734910D01*
X11241110Y-17763482D01*
X11241110Y-17920624D01*
X11241110Y-17763482D02*
X11255396Y-17734910D01*
X11283967Y-17720624D01*
X11326824Y-17720624D01*
X11355396Y-17734910D01*
X11369681Y-17763482D01*
X11369681Y-17920624D01*
X11512538Y-17920624D02*
X11512538Y-17720624D01*
X11512538Y-17749196D02*
X11526824Y-17734910D01*
X11555396Y-17720624D01*
X11598253Y-17720624D01*
X11626824Y-17734910D01*
X11641110Y-17763482D01*
X11641110Y-17920624D01*
X11641110Y-17763482D02*
X11655396Y-17734910D01*
X11683967Y-17720624D01*
X11726824Y-17720624D01*
X11755396Y-17734910D01*
X11769681Y-17763482D01*
X11769681Y-17920624D01*
X12355396Y-17606339D02*
X12098253Y-17992053D01*
X12741110Y-17620624D02*
X12769681Y-17620624D01*
X12798253Y-17634910D01*
X12812538Y-17649196D01*
X12826824Y-17677767D01*
X12841110Y-17734910D01*
X12841110Y-17806339D01*
X12826824Y-17863482D01*
X12812538Y-17892053D01*
X12798253Y-17906339D01*
X12769681Y-17920624D01*
X12741110Y-17920624D01*
X12712538Y-17906339D01*
X12698253Y-17892053D01*
X12683967Y-17863482D01*
X12669681Y-17806339D01*
X12669681Y-17734910D01*
X12683967Y-17677767D01*
X12698253Y-17649196D01*
X12712538Y-17634910D01*
X12741110Y-17620624D01*
X12969681Y-17892053D02*
X12983967Y-17906339D01*
X12969681Y-17920624D01*
X12955396Y-17906339D01*
X12969681Y-17892053D01*
X12969681Y-17920624D01*
X13169681Y-17620624D02*
X13198253Y-17620624D01*
X13226824Y-17634910D01*
X13241110Y-17649196D01*
X13255396Y-17677767D01*
X13269681Y-17734910D01*
X13269681Y-17806339D01*
X13255396Y-17863482D01*
X13241110Y-17892053D01*
X13226824Y-17906339D01*
X13198253Y-17920624D01*
X13169681Y-17920624D01*
X13141110Y-17906339D01*
X13126824Y-17892053D01*
X13112538Y-17863482D01*
X13098253Y-17806339D01*
X13098253Y-17734910D01*
X13112538Y-17677767D01*
X13126824Y-17649196D01*
X13141110Y-17634910D01*
X13169681Y-17620624D01*
X13369681Y-17620624D02*
X13555396Y-17620624D01*
X13455396Y-17734910D01*
X13498253Y-17734910D01*
X13526824Y-17749196D01*
X13541110Y-17763482D01*
X13555396Y-17792053D01*
X13555396Y-17863482D01*
X13541110Y-17892053D01*
X13526824Y-17906339D01*
X13498253Y-17920624D01*
X13412538Y-17920624D01*
X13383967Y-17906339D01*
X13369681Y-17892053D01*
X13698253Y-17920624D02*
X13755396Y-17920624D01*
X13783967Y-17906339D01*
X13798253Y-17892053D01*
X13826824Y-17849196D01*
X13841110Y-17792053D01*
X13841110Y-17677767D01*
X13826824Y-17649196D01*
X13812538Y-17634910D01*
X13783967Y-17620624D01*
X13726824Y-17620624D01*
X13698253Y-17634910D01*
X13683967Y-17649196D01*
X13669681Y-17677767D01*
X13669681Y-17749196D01*
X13683967Y-17777767D01*
X13698253Y-17792053D01*
X13726824Y-17806339D01*
X13783967Y-17806339D01*
X13812538Y-17792053D01*
X13826824Y-17777767D01*
X13841110Y-17749196D01*
X13955396Y-17620624D02*
X13955396Y-17677767D01*
X14069681Y-17620624D02*
X14069681Y-17677767D01*
X14512538Y-18034910D02*
X14498253Y-18020624D01*
X14469681Y-17977767D01*
X14455396Y-17949196D01*
X14441110Y-17906339D01*
X14426824Y-17834910D01*
X14426824Y-17777767D01*
X14441110Y-17706339D01*
X14455396Y-17663482D01*
X14469681Y-17634910D01*
X14498253Y-17592053D01*
X14512538Y-17577767D01*
X14612538Y-17649196D02*
X14626824Y-17634910D01*
X14655396Y-17620624D01*
X14726824Y-17620624D01*
X14755396Y-17634910D01*
X14769681Y-17649196D01*
X14783967Y-17677767D01*
X14783967Y-17706339D01*
X14769681Y-17749196D01*
X14598253Y-17920624D01*
X14783967Y-17920624D01*
X14926824Y-17920624D02*
X14983967Y-17920624D01*
X15012538Y-17906339D01*
X15026824Y-17892053D01*
X15055396Y-17849196D01*
X15069681Y-17792053D01*
X15069681Y-17677767D01*
X15055396Y-17649196D01*
X15041110Y-17634910D01*
X15012538Y-17620624D01*
X14955396Y-17620624D01*
X14926824Y-17634910D01*
X14912538Y-17649196D01*
X14898253Y-17677767D01*
X14898253Y-17749196D01*
X14912538Y-17777767D01*
X14926824Y-17792053D01*
X14955396Y-17806339D01*
X15012538Y-17806339D01*
X15041110Y-17792053D01*
X15055396Y-17777767D01*
X15069681Y-17749196D01*
X15426824Y-17920624D02*
X15426824Y-17620624D01*
X15555396Y-17920624D02*
X15555396Y-17763482D01*
X15541110Y-17734910D01*
X15512538Y-17720624D01*
X15469681Y-17720624D01*
X15441110Y-17734910D01*
X15426824Y-17749196D01*
X15741110Y-17920624D02*
X15712538Y-17906339D01*
X15698253Y-17892053D01*
X15683967Y-17863482D01*
X15683967Y-17777767D01*
X15698253Y-17749196D01*
X15712538Y-17734910D01*
X15741110Y-17720624D01*
X15783967Y-17720624D01*
X15812538Y-17734910D01*
X15826824Y-17749196D01*
X15841110Y-17777767D01*
X15841110Y-17863482D01*
X15826824Y-17892053D01*
X15812538Y-17906339D01*
X15783967Y-17920624D01*
X15741110Y-17920624D01*
X16012538Y-17920624D02*
X15983967Y-17906339D01*
X15969681Y-17877767D01*
X15969681Y-17620624D01*
X16241110Y-17906339D02*
X16212538Y-17920624D01*
X16155396Y-17920624D01*
X16126824Y-17906339D01*
X16112538Y-17877767D01*
X16112538Y-17763482D01*
X16126824Y-17734910D01*
X16155396Y-17720624D01*
X16212538Y-17720624D01*
X16241110Y-17734910D01*
X16255396Y-17763482D01*
X16255396Y-17792053D01*
X16112538Y-17820624D01*
X16369681Y-17906339D02*
X16398253Y-17920624D01*
X16455396Y-17920624D01*
X16483967Y-17906339D01*
X16498253Y-17877767D01*
X16498253Y-17863482D01*
X16483967Y-17834910D01*
X16455396Y-17820624D01*
X16412538Y-17820624D01*
X16383967Y-17806339D01*
X16369681Y-17777767D01*
X16369681Y-17763482D01*
X16383967Y-17734910D01*
X16412538Y-17720624D01*
X16455396Y-17720624D01*
X16483967Y-17734910D01*
X16598253Y-18034910D02*
X16612538Y-18020624D01*
X16641110Y-17977767D01*
X16655396Y-17949196D01*
X16669681Y-17906339D01*
X16683967Y-17834910D01*
X16683967Y-17777767D01*
X16669681Y-17706339D01*
X16655396Y-17663482D01*
X16641110Y-17634910D01*
X16612538Y-17592053D01*
X16598253Y-17577767D01*
X9724510Y-18130110D02*
X9826110Y-18231710D01*
X9826110Y-18130110D02*
X9724510Y-18231710D01*
X9775310Y-18130110D02*
X9775310Y-18231710D01*
X9724510Y-18180910D02*
X9826110Y-18180910D01*
X10269681Y-18316624D02*
X10098253Y-18316624D01*
X10183967Y-18316624D02*
X10183967Y-18016624D01*
X10155396Y-18059482D01*
X10126824Y-18088053D01*
X10098253Y-18102339D01*
X10398253Y-18288053D02*
X10412538Y-18302339D01*
X10398253Y-18316624D01*
X10383967Y-18302339D01*
X10398253Y-18288053D01*
X10398253Y-18316624D01*
X10598253Y-18016624D02*
X10626824Y-18016624D01*
X10655396Y-18030910D01*
X10669681Y-18045196D01*
X10683967Y-18073767D01*
X10698253Y-18130910D01*
X10698253Y-18202339D01*
X10683967Y-18259482D01*
X10669681Y-18288053D01*
X10655396Y-18302339D01*
X10626824Y-18316624D01*
X10598253Y-18316624D01*
X10569681Y-18302339D01*
X10555396Y-18288053D01*
X10541110Y-18259482D01*
X10526824Y-18202339D01*
X10526824Y-18130910D01*
X10541110Y-18073767D01*
X10555396Y-18045196D01*
X10569681Y-18030910D01*
X10598253Y-18016624D01*
X10812538Y-18045196D02*
X10826824Y-18030910D01*
X10855396Y-18016624D01*
X10926824Y-18016624D01*
X10955396Y-18030910D01*
X10969681Y-18045196D01*
X10983967Y-18073767D01*
X10983967Y-18102339D01*
X10969681Y-18145196D01*
X10798253Y-18316624D01*
X10983967Y-18316624D01*
X11112538Y-18316624D02*
X11112538Y-18116624D01*
X11112538Y-18145196D02*
X11126824Y-18130910D01*
X11155396Y-18116624D01*
X11198253Y-18116624D01*
X11226824Y-18130910D01*
X11241110Y-18159482D01*
X11241110Y-18316624D01*
X11241110Y-18159482D02*
X11255396Y-18130910D01*
X11283967Y-18116624D01*
X11326824Y-18116624D01*
X11355396Y-18130910D01*
X11369681Y-18159482D01*
X11369681Y-18316624D01*
X11512538Y-18316624D02*
X11512538Y-18116624D01*
X11512538Y-18145196D02*
X11526824Y-18130910D01*
X11555396Y-18116624D01*
X11598253Y-18116624D01*
X11626824Y-18130910D01*
X11641110Y-18159482D01*
X11641110Y-18316624D01*
X11641110Y-18159482D02*
X11655396Y-18130910D01*
X11683967Y-18116624D01*
X11726824Y-18116624D01*
X11755396Y-18130910D01*
X11769681Y-18159482D01*
X11769681Y-18316624D01*
X12355396Y-18002339D02*
X12098253Y-18388053D01*
X12741110Y-18016624D02*
X12769681Y-18016624D01*
X12798253Y-18030910D01*
X12812538Y-18045196D01*
X12826824Y-18073767D01*
X12841110Y-18130910D01*
X12841110Y-18202339D01*
X12826824Y-18259482D01*
X12812538Y-18288053D01*
X12798253Y-18302339D01*
X12769681Y-18316624D01*
X12741110Y-18316624D01*
X12712538Y-18302339D01*
X12698253Y-18288053D01*
X12683967Y-18259482D01*
X12669681Y-18202339D01*
X12669681Y-18130910D01*
X12683967Y-18073767D01*
X12698253Y-18045196D01*
X12712538Y-18030910D01*
X12741110Y-18016624D01*
X12969681Y-18288053D02*
X12983967Y-18302339D01*
X12969681Y-18316624D01*
X12955396Y-18302339D01*
X12969681Y-18288053D01*
X12969681Y-18316624D01*
X13169681Y-18016624D02*
X13198253Y-18016624D01*
X13226824Y-18030910D01*
X13241110Y-18045196D01*
X13255396Y-18073767D01*
X13269681Y-18130910D01*
X13269681Y-18202339D01*
X13255396Y-18259482D01*
X13241110Y-18288053D01*
X13226824Y-18302339D01*
X13198253Y-18316624D01*
X13169681Y-18316624D01*
X13141110Y-18302339D01*
X13126824Y-18288053D01*
X13112538Y-18259482D01*
X13098253Y-18202339D01*
X13098253Y-18130910D01*
X13112538Y-18073767D01*
X13126824Y-18045196D01*
X13141110Y-18030910D01*
X13169681Y-18016624D01*
X13526824Y-18116624D02*
X13526824Y-18316624D01*
X13455396Y-18002339D02*
X13383967Y-18216624D01*
X13569681Y-18216624D01*
X13741110Y-18016624D02*
X13769681Y-18016624D01*
X13798253Y-18030910D01*
X13812538Y-18045196D01*
X13826824Y-18073767D01*
X13841110Y-18130910D01*
X13841110Y-18202339D01*
X13826824Y-18259482D01*
X13812538Y-18288053D01*
X13798253Y-18302339D01*
X13769681Y-18316624D01*
X13741110Y-18316624D01*
X13712538Y-18302339D01*
X13698253Y-18288053D01*
X13683967Y-18259482D01*
X13669681Y-18202339D01*
X13669681Y-18130910D01*
X13683967Y-18073767D01*
X13698253Y-18045196D01*
X13712538Y-18030910D01*
X13741110Y-18016624D01*
X13955396Y-18016624D02*
X13955396Y-18073767D01*
X14069681Y-18016624D02*
X14069681Y-18073767D01*
X14512538Y-18430910D02*
X14498253Y-18416624D01*
X14469681Y-18373767D01*
X14455396Y-18345196D01*
X14441110Y-18302339D01*
X14426824Y-18230910D01*
X14426824Y-18173767D01*
X14441110Y-18102339D01*
X14455396Y-18059482D01*
X14469681Y-18030910D01*
X14498253Y-17988053D01*
X14512538Y-17973767D01*
X14612538Y-18045196D02*
X14626824Y-18030910D01*
X14655396Y-18016624D01*
X14726824Y-18016624D01*
X14755396Y-18030910D01*
X14769681Y-18045196D01*
X14783967Y-18073767D01*
X14783967Y-18102339D01*
X14769681Y-18145196D01*
X14598253Y-18316624D01*
X14783967Y-18316624D01*
X15041110Y-18116624D02*
X15041110Y-18316624D01*
X14969681Y-18002339D02*
X14898253Y-18216624D01*
X15083967Y-18216624D01*
X15426824Y-18316624D02*
X15426824Y-18016624D01*
X15555396Y-18316624D02*
X15555396Y-18159482D01*
X15541110Y-18130910D01*
X15512538Y-18116624D01*
X15469681Y-18116624D01*
X15441110Y-18130910D01*
X15426824Y-18145196D01*
X15741110Y-18316624D02*
X15712538Y-18302339D01*
X15698253Y-18288053D01*
X15683967Y-18259482D01*
X15683967Y-18173767D01*
X15698253Y-18145196D01*
X15712538Y-18130910D01*
X15741110Y-18116624D01*
X15783967Y-18116624D01*
X15812538Y-18130910D01*
X15826824Y-18145196D01*
X15841110Y-18173767D01*
X15841110Y-18259482D01*
X15826824Y-18288053D01*
X15812538Y-18302339D01*
X15783967Y-18316624D01*
X15741110Y-18316624D01*
X16012538Y-18316624D02*
X15983967Y-18302339D01*
X15969681Y-18273767D01*
X15969681Y-18016624D01*
X16241110Y-18302339D02*
X16212538Y-18316624D01*
X16155396Y-18316624D01*
X16126824Y-18302339D01*
X16112538Y-18273767D01*
X16112538Y-18159482D01*
X16126824Y-18130910D01*
X16155396Y-18116624D01*
X16212538Y-18116624D01*
X16241110Y-18130910D01*
X16255396Y-18159482D01*
X16255396Y-18188053D01*
X16112538Y-18216624D01*
X16369681Y-18302339D02*
X16398253Y-18316624D01*
X16455396Y-18316624D01*
X16483967Y-18302339D01*
X16498253Y-18273767D01*
X16498253Y-18259482D01*
X16483967Y-18230910D01*
X16455396Y-18216624D01*
X16412538Y-18216624D01*
X16383967Y-18202339D01*
X16369681Y-18173767D01*
X16369681Y-18159482D01*
X16383967Y-18130910D01*
X16412538Y-18116624D01*
X16455396Y-18116624D01*
X16483967Y-18130910D01*
X16598253Y-18430910D02*
X16612538Y-18416624D01*
X16641110Y-18373767D01*
X16655396Y-18345196D01*
X16669681Y-18302339D01*
X16683967Y-18230910D01*
X16683967Y-18173767D01*
X16669681Y-18102339D01*
X16655396Y-18059482D01*
X16641110Y-18030910D01*
X16612538Y-17988053D01*
X16598253Y-17973767D01*
X9706110Y-18516910D02*
X9826110Y-18636910D01*
X9826110Y-18516910D02*
X9706110Y-18636910D01*
X9808537Y-18619337D02*
X9808537Y-18534483D01*
X9723683Y-18534483D01*
X9723683Y-18619337D01*
X9808537Y-18619337D01*
X10269681Y-18712624D02*
X10098253Y-18712624D01*
X10183967Y-18712624D02*
X10183967Y-18412624D01*
X10155396Y-18455482D01*
X10126824Y-18484053D01*
X10098253Y-18498339D01*
X10398253Y-18684053D02*
X10412538Y-18698339D01*
X10398253Y-18712624D01*
X10383967Y-18698339D01*
X10398253Y-18684053D01*
X10398253Y-18712624D01*
X10526824Y-18441196D02*
X10541110Y-18426910D01*
X10569681Y-18412624D01*
X10641110Y-18412624D01*
X10669681Y-18426910D01*
X10683967Y-18441196D01*
X10698253Y-18469767D01*
X10698253Y-18498339D01*
X10683967Y-18541196D01*
X10512538Y-18712624D01*
X10698253Y-18712624D01*
X10883967Y-18412624D02*
X10912538Y-18412624D01*
X10941110Y-18426910D01*
X10955396Y-18441196D01*
X10969681Y-18469767D01*
X10983967Y-18526910D01*
X10983967Y-18598339D01*
X10969681Y-18655482D01*
X10955396Y-18684053D01*
X10941110Y-18698339D01*
X10912538Y-18712624D01*
X10883967Y-18712624D01*
X10855396Y-18698339D01*
X10841110Y-18684053D01*
X10826824Y-18655482D01*
X10812538Y-18598339D01*
X10812538Y-18526910D01*
X10826824Y-18469767D01*
X10841110Y-18441196D01*
X10855396Y-18426910D01*
X10883967Y-18412624D01*
X11112538Y-18712624D02*
X11112538Y-18512624D01*
X11112538Y-18541196D02*
X11126824Y-18526910D01*
X11155396Y-18512624D01*
X11198253Y-18512624D01*
X11226824Y-18526910D01*
X11241110Y-18555482D01*
X11241110Y-18712624D01*
X11241110Y-18555482D02*
X11255396Y-18526910D01*
X11283967Y-18512624D01*
X11326824Y-18512624D01*
X11355396Y-18526910D01*
X11369681Y-18555482D01*
X11369681Y-18712624D01*
X11512538Y-18712624D02*
X11512538Y-18512624D01*
X11512538Y-18541196D02*
X11526824Y-18526910D01*
X11555396Y-18512624D01*
X11598253Y-18512624D01*
X11626824Y-18526910D01*
X11641110Y-18555482D01*
X11641110Y-18712624D01*
X11641110Y-18555482D02*
X11655396Y-18526910D01*
X11683967Y-18512624D01*
X11726824Y-18512624D01*
X11755396Y-18526910D01*
X11769681Y-18555482D01*
X11769681Y-18712624D01*
X12355396Y-18398339D02*
X12098253Y-18784053D01*
X12741110Y-18412624D02*
X12769681Y-18412624D01*
X12798253Y-18426910D01*
X12812538Y-18441196D01*
X12826824Y-18469767D01*
X12841110Y-18526910D01*
X12841110Y-18598339D01*
X12826824Y-18655482D01*
X12812538Y-18684053D01*
X12798253Y-18698339D01*
X12769681Y-18712624D01*
X12741110Y-18712624D01*
X12712538Y-18698339D01*
X12698253Y-18684053D01*
X12683967Y-18655482D01*
X12669681Y-18598339D01*
X12669681Y-18526910D01*
X12683967Y-18469767D01*
X12698253Y-18441196D01*
X12712538Y-18426910D01*
X12741110Y-18412624D01*
X12969681Y-18684053D02*
X12983967Y-18698339D01*
X12969681Y-18712624D01*
X12955396Y-18698339D01*
X12969681Y-18684053D01*
X12969681Y-18712624D01*
X13169681Y-18412624D02*
X13198253Y-18412624D01*
X13226824Y-18426910D01*
X13241110Y-18441196D01*
X13255396Y-18469767D01*
X13269681Y-18526910D01*
X13269681Y-18598339D01*
X13255396Y-18655482D01*
X13241110Y-18684053D01*
X13226824Y-18698339D01*
X13198253Y-18712624D01*
X13169681Y-18712624D01*
X13141110Y-18698339D01*
X13126824Y-18684053D01*
X13112538Y-18655482D01*
X13098253Y-18598339D01*
X13098253Y-18526910D01*
X13112538Y-18469767D01*
X13126824Y-18441196D01*
X13141110Y-18426910D01*
X13169681Y-18412624D01*
X13526824Y-18512624D02*
X13526824Y-18712624D01*
X13455396Y-18398339D02*
X13383967Y-18612624D01*
X13569681Y-18612624D01*
X13655396Y-18412624D02*
X13855396Y-18412624D01*
X13726824Y-18712624D01*
X13955396Y-18412624D02*
X13955396Y-18469767D01*
X14069681Y-18412624D02*
X14069681Y-18469767D01*
X14512538Y-18826910D02*
X14498253Y-18812624D01*
X14469681Y-18769767D01*
X14455396Y-18741196D01*
X14441110Y-18698339D01*
X14426824Y-18626910D01*
X14426824Y-18569767D01*
X14441110Y-18498339D01*
X14455396Y-18455482D01*
X14469681Y-18426910D01*
X14498253Y-18384053D01*
X14512538Y-18369767D01*
X14783967Y-18712624D02*
X14612538Y-18712624D01*
X14698253Y-18712624D02*
X14698253Y-18412624D01*
X14669681Y-18455482D01*
X14641110Y-18484053D01*
X14612538Y-18498339D01*
X14969681Y-18412624D02*
X14998253Y-18412624D01*
X15026824Y-18426910D01*
X15041110Y-18441196D01*
X15055396Y-18469767D01*
X15069681Y-18526910D01*
X15069681Y-18598339D01*
X15055396Y-18655482D01*
X15041110Y-18684053D01*
X15026824Y-18698339D01*
X14998253Y-18712624D01*
X14969681Y-18712624D01*
X14941110Y-18698339D01*
X14926824Y-18684053D01*
X14912538Y-18655482D01*
X14898253Y-18598339D01*
X14898253Y-18526910D01*
X14912538Y-18469767D01*
X14926824Y-18441196D01*
X14941110Y-18426910D01*
X14969681Y-18412624D01*
X15426824Y-18712624D02*
X15426824Y-18412624D01*
X15555396Y-18712624D02*
X15555396Y-18555482D01*
X15541110Y-18526910D01*
X15512538Y-18512624D01*
X15469681Y-18512624D01*
X15441110Y-18526910D01*
X15426824Y-18541196D01*
X15741110Y-18712624D02*
X15712538Y-18698339D01*
X15698253Y-18684053D01*
X15683967Y-18655482D01*
X15683967Y-18569767D01*
X15698253Y-18541196D01*
X15712538Y-18526910D01*
X15741110Y-18512624D01*
X15783967Y-18512624D01*
X15812538Y-18526910D01*
X15826824Y-18541196D01*
X15841110Y-18569767D01*
X15841110Y-18655482D01*
X15826824Y-18684053D01*
X15812538Y-18698339D01*
X15783967Y-18712624D01*
X15741110Y-18712624D01*
X16012538Y-18712624D02*
X15983967Y-18698339D01*
X15969681Y-18669767D01*
X15969681Y-18412624D01*
X16241110Y-18698339D02*
X16212538Y-18712624D01*
X16155396Y-18712624D01*
X16126824Y-18698339D01*
X16112538Y-18669767D01*
X16112538Y-18555482D01*
X16126824Y-18526910D01*
X16155396Y-18512624D01*
X16212538Y-18512624D01*
X16241110Y-18526910D01*
X16255396Y-18555482D01*
X16255396Y-18584053D01*
X16112538Y-18612624D01*
X16369681Y-18698339D02*
X16398253Y-18712624D01*
X16455396Y-18712624D01*
X16483967Y-18698339D01*
X16498253Y-18669767D01*
X16498253Y-18655482D01*
X16483967Y-18626910D01*
X16455396Y-18612624D01*
X16412538Y-18612624D01*
X16383967Y-18598339D01*
X16369681Y-18569767D01*
X16369681Y-18555482D01*
X16383967Y-18526910D01*
X16412538Y-18512624D01*
X16455396Y-18512624D01*
X16483967Y-18526910D01*
X16598253Y-18826910D02*
X16612538Y-18812624D01*
X16641110Y-18769767D01*
X16655396Y-18741196D01*
X16669681Y-18698339D01*
X16683967Y-18626910D01*
X16683967Y-18569767D01*
X16669681Y-18498339D01*
X16655396Y-18455482D01*
X16641110Y-18426910D01*
X16612538Y-18384053D01*
X16598253Y-18369767D01*
X9696570Y-18908140D02*
X9826110Y-19037680D01*
X9826110Y-18908140D02*
X9696570Y-19037680D01*
X9761340Y-19037680D02*
X9826110Y-18972910D01*
X9761340Y-18908140D01*
X9696570Y-18972910D01*
X9761340Y-19037680D01*
X10269681Y-19108624D02*
X10098253Y-19108624D01*
X10183967Y-19108624D02*
X10183967Y-18808624D01*
X10155396Y-18851482D01*
X10126824Y-18880053D01*
X10098253Y-18894339D01*
X10398253Y-19080053D02*
X10412538Y-19094339D01*
X10398253Y-19108624D01*
X10383967Y-19094339D01*
X10398253Y-19080053D01*
X10398253Y-19108624D01*
X10512538Y-18808624D02*
X10698253Y-18808624D01*
X10598253Y-18922910D01*
X10641110Y-18922910D01*
X10669681Y-18937196D01*
X10683967Y-18951482D01*
X10698253Y-18980053D01*
X10698253Y-19051482D01*
X10683967Y-19080053D01*
X10669681Y-19094339D01*
X10641110Y-19108624D01*
X10555396Y-19108624D01*
X10526824Y-19094339D01*
X10512538Y-19080053D01*
X10883967Y-18808624D02*
X10912538Y-18808624D01*
X10941110Y-18822910D01*
X10955396Y-18837196D01*
X10969681Y-18865767D01*
X10983967Y-18922910D01*
X10983967Y-18994339D01*
X10969681Y-19051482D01*
X10955396Y-19080053D01*
X10941110Y-19094339D01*
X10912538Y-19108624D01*
X10883967Y-19108624D01*
X10855396Y-19094339D01*
X10841110Y-19080053D01*
X10826824Y-19051482D01*
X10812538Y-18994339D01*
X10812538Y-18922910D01*
X10826824Y-18865767D01*
X10841110Y-18837196D01*
X10855396Y-18822910D01*
X10883967Y-18808624D01*
X11112538Y-19108624D02*
X11112538Y-18908624D01*
X11112538Y-18937196D02*
X11126824Y-18922910D01*
X11155396Y-18908624D01*
X11198253Y-18908624D01*
X11226824Y-18922910D01*
X11241110Y-18951482D01*
X11241110Y-19108624D01*
X11241110Y-18951482D02*
X11255396Y-18922910D01*
X11283967Y-18908624D01*
X11326824Y-18908624D01*
X11355396Y-18922910D01*
X11369681Y-18951482D01*
X11369681Y-19108624D01*
X11512538Y-19108624D02*
X11512538Y-18908624D01*
X11512538Y-18937196D02*
X11526824Y-18922910D01*
X11555396Y-18908624D01*
X11598253Y-18908624D01*
X11626824Y-18922910D01*
X11641110Y-18951482D01*
X11641110Y-19108624D01*
X11641110Y-18951482D02*
X11655396Y-18922910D01*
X11683967Y-18908624D01*
X11726824Y-18908624D01*
X11755396Y-18922910D01*
X11769681Y-18951482D01*
X11769681Y-19108624D01*
X12355396Y-18794339D02*
X12098253Y-19180053D01*
X12741110Y-18808624D02*
X12769681Y-18808624D01*
X12798253Y-18822910D01*
X12812538Y-18837196D01*
X12826824Y-18865767D01*
X12841110Y-18922910D01*
X12841110Y-18994339D01*
X12826824Y-19051482D01*
X12812538Y-19080053D01*
X12798253Y-19094339D01*
X12769681Y-19108624D01*
X12741110Y-19108624D01*
X12712538Y-19094339D01*
X12698253Y-19080053D01*
X12683967Y-19051482D01*
X12669681Y-18994339D01*
X12669681Y-18922910D01*
X12683967Y-18865767D01*
X12698253Y-18837196D01*
X12712538Y-18822910D01*
X12741110Y-18808624D01*
X12969681Y-19080053D02*
X12983967Y-19094339D01*
X12969681Y-19108624D01*
X12955396Y-19094339D01*
X12969681Y-19080053D01*
X12969681Y-19108624D01*
X13169681Y-18808624D02*
X13198253Y-18808624D01*
X13226824Y-18822910D01*
X13241110Y-18837196D01*
X13255396Y-18865767D01*
X13269681Y-18922910D01*
X13269681Y-18994339D01*
X13255396Y-19051482D01*
X13241110Y-19080053D01*
X13226824Y-19094339D01*
X13198253Y-19108624D01*
X13169681Y-19108624D01*
X13141110Y-19094339D01*
X13126824Y-19080053D01*
X13112538Y-19051482D01*
X13098253Y-18994339D01*
X13098253Y-18922910D01*
X13112538Y-18865767D01*
X13126824Y-18837196D01*
X13141110Y-18822910D01*
X13169681Y-18808624D01*
X13541110Y-18808624D02*
X13398253Y-18808624D01*
X13383967Y-18951482D01*
X13398253Y-18937196D01*
X13426824Y-18922910D01*
X13498253Y-18922910D01*
X13526824Y-18937196D01*
X13541110Y-18951482D01*
X13555396Y-18980053D01*
X13555396Y-19051482D01*
X13541110Y-19080053D01*
X13526824Y-19094339D01*
X13498253Y-19108624D01*
X13426824Y-19108624D01*
X13398253Y-19094339D01*
X13383967Y-19080053D01*
X13841110Y-19108624D02*
X13669681Y-19108624D01*
X13755396Y-19108624D02*
X13755396Y-18808624D01*
X13726824Y-18851482D01*
X13698253Y-18880053D01*
X13669681Y-18894339D01*
X13955396Y-18808624D02*
X13955396Y-18865767D01*
X14069681Y-18808624D02*
X14069681Y-18865767D01*
X14512538Y-19222910D02*
X14498253Y-19208624D01*
X14469681Y-19165767D01*
X14455396Y-19137196D01*
X14441110Y-19094339D01*
X14426824Y-19022910D01*
X14426824Y-18965767D01*
X14441110Y-18894339D01*
X14455396Y-18851482D01*
X14469681Y-18822910D01*
X14498253Y-18780053D01*
X14512538Y-18765767D01*
X14769681Y-18808624D02*
X14626824Y-18808624D01*
X14612538Y-18951482D01*
X14626824Y-18937196D01*
X14655396Y-18922910D01*
X14726824Y-18922910D01*
X14755396Y-18937196D01*
X14769681Y-18951482D01*
X14783967Y-18980053D01*
X14783967Y-19051482D01*
X14769681Y-19080053D01*
X14755396Y-19094339D01*
X14726824Y-19108624D01*
X14655396Y-19108624D01*
X14626824Y-19094339D01*
X14612538Y-19080053D01*
X15141110Y-19108624D02*
X15141110Y-18808624D01*
X15269681Y-19108624D02*
X15269681Y-18951482D01*
X15255396Y-18922910D01*
X15226824Y-18908624D01*
X15183967Y-18908624D01*
X15155396Y-18922910D01*
X15141110Y-18937196D01*
X15455396Y-19108624D02*
X15426824Y-19094339D01*
X15412538Y-19080053D01*
X15398253Y-19051482D01*
X15398253Y-18965767D01*
X15412538Y-18937196D01*
X15426824Y-18922910D01*
X15455396Y-18908624D01*
X15498253Y-18908624D01*
X15526824Y-18922910D01*
X15541110Y-18937196D01*
X15555396Y-18965767D01*
X15555396Y-19051482D01*
X15541110Y-19080053D01*
X15526824Y-19094339D01*
X15498253Y-19108624D01*
X15455396Y-19108624D01*
X15726824Y-19108624D02*
X15698253Y-19094339D01*
X15683967Y-19065767D01*
X15683967Y-18808624D01*
X15955396Y-19094339D02*
X15926824Y-19108624D01*
X15869681Y-19108624D01*
X15841110Y-19094339D01*
X15826824Y-19065767D01*
X15826824Y-18951482D01*
X15841110Y-18922910D01*
X15869681Y-18908624D01*
X15926824Y-18908624D01*
X15955396Y-18922910D01*
X15969681Y-18951482D01*
X15969681Y-18980053D01*
X15826824Y-19008624D01*
X16083967Y-19094339D02*
X16112538Y-19108624D01*
X16169681Y-19108624D01*
X16198253Y-19094339D01*
X16212538Y-19065767D01*
X16212538Y-19051482D01*
X16198253Y-19022910D01*
X16169681Y-19008624D01*
X16126824Y-19008624D01*
X16098253Y-18994339D01*
X16083967Y-18965767D01*
X16083967Y-18951482D01*
X16098253Y-18922910D01*
X16126824Y-18908624D01*
X16169681Y-18908624D01*
X16198253Y-18922910D01*
X16312538Y-19222910D02*
X16326824Y-19208624D01*
X16355396Y-19165767D01*
X16369681Y-19137196D01*
X16383967Y-19094339D01*
X16398253Y-19022910D01*
X16398253Y-18965767D01*
X16383967Y-18894339D01*
X16369681Y-18851482D01*
X16355396Y-18822910D01*
X16326824Y-18780053D01*
X16312538Y-18765767D01*
X9751110Y-19293910D02*
X9751110Y-19443910D01*
X9676110Y-19368910D02*
X9826110Y-19368910D01*
X9826110Y-19368910D02*
G75*
G03X9826110Y-19368910I-75000J0D01*
G01*
X10269681Y-19504624D02*
X10098253Y-19504624D01*
X10183967Y-19504624D02*
X10183967Y-19204624D01*
X10155396Y-19247482D01*
X10126824Y-19276053D01*
X10098253Y-19290339D01*
X10398253Y-19476053D02*
X10412538Y-19490339D01*
X10398253Y-19504624D01*
X10383967Y-19490339D01*
X10398253Y-19476053D01*
X10398253Y-19504624D01*
X10683967Y-19204624D02*
X10541110Y-19204624D01*
X10526824Y-19347482D01*
X10541110Y-19333196D01*
X10569681Y-19318910D01*
X10641110Y-19318910D01*
X10669681Y-19333196D01*
X10683967Y-19347482D01*
X10698253Y-19376053D01*
X10698253Y-19447482D01*
X10683967Y-19476053D01*
X10669681Y-19490339D01*
X10641110Y-19504624D01*
X10569681Y-19504624D01*
X10541110Y-19490339D01*
X10526824Y-19476053D01*
X10883967Y-19204624D02*
X10912538Y-19204624D01*
X10941110Y-19218910D01*
X10955396Y-19233196D01*
X10969681Y-19261767D01*
X10983967Y-19318910D01*
X10983967Y-19390339D01*
X10969681Y-19447482D01*
X10955396Y-19476053D01*
X10941110Y-19490339D01*
X10912538Y-19504624D01*
X10883967Y-19504624D01*
X10855396Y-19490339D01*
X10841110Y-19476053D01*
X10826824Y-19447482D01*
X10812538Y-19390339D01*
X10812538Y-19318910D01*
X10826824Y-19261767D01*
X10841110Y-19233196D01*
X10855396Y-19218910D01*
X10883967Y-19204624D01*
X11112538Y-19504624D02*
X11112538Y-19304624D01*
X11112538Y-19333196D02*
X11126824Y-19318910D01*
X11155396Y-19304624D01*
X11198253Y-19304624D01*
X11226824Y-19318910D01*
X11241110Y-19347482D01*
X11241110Y-19504624D01*
X11241110Y-19347482D02*
X11255396Y-19318910D01*
X11283967Y-19304624D01*
X11326824Y-19304624D01*
X11355396Y-19318910D01*
X11369681Y-19347482D01*
X11369681Y-19504624D01*
X11512538Y-19504624D02*
X11512538Y-19304624D01*
X11512538Y-19333196D02*
X11526824Y-19318910D01*
X11555396Y-19304624D01*
X11598253Y-19304624D01*
X11626824Y-19318910D01*
X11641110Y-19347482D01*
X11641110Y-19504624D01*
X11641110Y-19347482D02*
X11655396Y-19318910D01*
X11683967Y-19304624D01*
X11726824Y-19304624D01*
X11755396Y-19318910D01*
X11769681Y-19347482D01*
X11769681Y-19504624D01*
X12355396Y-19190339D02*
X12098253Y-19576053D01*
X12741110Y-19204624D02*
X12769681Y-19204624D01*
X12798253Y-19218910D01*
X12812538Y-19233196D01*
X12826824Y-19261767D01*
X12841110Y-19318910D01*
X12841110Y-19390339D01*
X12826824Y-19447482D01*
X12812538Y-19476053D01*
X12798253Y-19490339D01*
X12769681Y-19504624D01*
X12741110Y-19504624D01*
X12712538Y-19490339D01*
X12698253Y-19476053D01*
X12683967Y-19447482D01*
X12669681Y-19390339D01*
X12669681Y-19318910D01*
X12683967Y-19261767D01*
X12698253Y-19233196D01*
X12712538Y-19218910D01*
X12741110Y-19204624D01*
X12969681Y-19476053D02*
X12983967Y-19490339D01*
X12969681Y-19504624D01*
X12955396Y-19490339D01*
X12969681Y-19476053D01*
X12969681Y-19504624D01*
X13169681Y-19204624D02*
X13198253Y-19204624D01*
X13226824Y-19218910D01*
X13241110Y-19233196D01*
X13255396Y-19261767D01*
X13269681Y-19318910D01*
X13269681Y-19390339D01*
X13255396Y-19447482D01*
X13241110Y-19476053D01*
X13226824Y-19490339D01*
X13198253Y-19504624D01*
X13169681Y-19504624D01*
X13141110Y-19490339D01*
X13126824Y-19476053D01*
X13112538Y-19447482D01*
X13098253Y-19390339D01*
X13098253Y-19318910D01*
X13112538Y-19261767D01*
X13126824Y-19233196D01*
X13141110Y-19218910D01*
X13169681Y-19204624D01*
X13541110Y-19204624D02*
X13398253Y-19204624D01*
X13383967Y-19347482D01*
X13398253Y-19333196D01*
X13426824Y-19318910D01*
X13498253Y-19318910D01*
X13526824Y-19333196D01*
X13541110Y-19347482D01*
X13555396Y-19376053D01*
X13555396Y-19447482D01*
X13541110Y-19476053D01*
X13526824Y-19490339D01*
X13498253Y-19504624D01*
X13426824Y-19504624D01*
X13398253Y-19490339D01*
X13383967Y-19476053D01*
X13698253Y-19504624D02*
X13755396Y-19504624D01*
X13783967Y-19490339D01*
X13798253Y-19476053D01*
X13826824Y-19433196D01*
X13841110Y-19376053D01*
X13841110Y-19261767D01*
X13826824Y-19233196D01*
X13812538Y-19218910D01*
X13783967Y-19204624D01*
X13726824Y-19204624D01*
X13698253Y-19218910D01*
X13683967Y-19233196D01*
X13669681Y-19261767D01*
X13669681Y-19333196D01*
X13683967Y-19361767D01*
X13698253Y-19376053D01*
X13726824Y-19390339D01*
X13783967Y-19390339D01*
X13812538Y-19376053D01*
X13826824Y-19361767D01*
X13841110Y-19333196D01*
X13955396Y-19204624D02*
X13955396Y-19261767D01*
X14069681Y-19204624D02*
X14069681Y-19261767D01*
X14512538Y-19618910D02*
X14498253Y-19604624D01*
X14469681Y-19561767D01*
X14455396Y-19533196D01*
X14441110Y-19490339D01*
X14426824Y-19418910D01*
X14426824Y-19361767D01*
X14441110Y-19290339D01*
X14455396Y-19247482D01*
X14469681Y-19218910D01*
X14498253Y-19176053D01*
X14512538Y-19161767D01*
X14755396Y-19304624D02*
X14755396Y-19504624D01*
X14683967Y-19190339D02*
X14612538Y-19404624D01*
X14798253Y-19404624D01*
X15141110Y-19504624D02*
X15141110Y-19204624D01*
X15269681Y-19504624D02*
X15269681Y-19347482D01*
X15255396Y-19318910D01*
X15226824Y-19304624D01*
X15183967Y-19304624D01*
X15155396Y-19318910D01*
X15141110Y-19333196D01*
X15455396Y-19504624D02*
X15426824Y-19490339D01*
X15412538Y-19476053D01*
X15398253Y-19447482D01*
X15398253Y-19361767D01*
X15412538Y-19333196D01*
X15426824Y-19318910D01*
X15455396Y-19304624D01*
X15498253Y-19304624D01*
X15526824Y-19318910D01*
X15541110Y-19333196D01*
X15555396Y-19361767D01*
X15555396Y-19447482D01*
X15541110Y-19476053D01*
X15526824Y-19490339D01*
X15498253Y-19504624D01*
X15455396Y-19504624D01*
X15726824Y-19504624D02*
X15698253Y-19490339D01*
X15683967Y-19461767D01*
X15683967Y-19204624D01*
X15955396Y-19490339D02*
X15926824Y-19504624D01*
X15869681Y-19504624D01*
X15841110Y-19490339D01*
X15826824Y-19461767D01*
X15826824Y-19347482D01*
X15841110Y-19318910D01*
X15869681Y-19304624D01*
X15926824Y-19304624D01*
X15955396Y-19318910D01*
X15969681Y-19347482D01*
X15969681Y-19376053D01*
X15826824Y-19404624D01*
X16083967Y-19490339D02*
X16112538Y-19504624D01*
X16169681Y-19504624D01*
X16198253Y-19490339D01*
X16212538Y-19461767D01*
X16212538Y-19447482D01*
X16198253Y-19418910D01*
X16169681Y-19404624D01*
X16126824Y-19404624D01*
X16098253Y-19390339D01*
X16083967Y-19361767D01*
X16083967Y-19347482D01*
X16098253Y-19318910D01*
X16126824Y-19304624D01*
X16169681Y-19304624D01*
X16198253Y-19318910D01*
X16312538Y-19618910D02*
X16326824Y-19604624D01*
X16355396Y-19561767D01*
X16369681Y-19533196D01*
X16383967Y-19490339D01*
X16398253Y-19418910D01*
X16398253Y-19361767D01*
X16383967Y-19290339D01*
X16369681Y-19247482D01*
X16355396Y-19218910D01*
X16326824Y-19176053D01*
X16312538Y-19161767D01*
X9801215Y-19825015D02*
X9801215Y-19704805D01*
X9681005Y-19704805D01*
X9681005Y-19825015D01*
X9801215Y-19825015D01*
X9826110Y-19764910D02*
G75*
G03X9826110Y-19764910I-85000J0D01*
G01*
X10269681Y-19900624D02*
X10098253Y-19900624D01*
X10183967Y-19900624D02*
X10183967Y-19600624D01*
X10155396Y-19643482D01*
X10126824Y-19672053D01*
X10098253Y-19686339D01*
X10398253Y-19872053D02*
X10412538Y-19886339D01*
X10398253Y-19900624D01*
X10383967Y-19886339D01*
X10398253Y-19872053D01*
X10398253Y-19900624D01*
X10512538Y-19600624D02*
X10712538Y-19600624D01*
X10583967Y-19900624D01*
X10883967Y-19600624D02*
X10912538Y-19600624D01*
X10941110Y-19614910D01*
X10955396Y-19629196D01*
X10969681Y-19657767D01*
X10983967Y-19714910D01*
X10983967Y-19786339D01*
X10969681Y-19843482D01*
X10955396Y-19872053D01*
X10941110Y-19886339D01*
X10912538Y-19900624D01*
X10883967Y-19900624D01*
X10855396Y-19886339D01*
X10841110Y-19872053D01*
X10826824Y-19843482D01*
X10812538Y-19786339D01*
X10812538Y-19714910D01*
X10826824Y-19657767D01*
X10841110Y-19629196D01*
X10855396Y-19614910D01*
X10883967Y-19600624D01*
X11112538Y-19900624D02*
X11112538Y-19700624D01*
X11112538Y-19729196D02*
X11126824Y-19714910D01*
X11155396Y-19700624D01*
X11198253Y-19700624D01*
X11226824Y-19714910D01*
X11241110Y-19743482D01*
X11241110Y-19900624D01*
X11241110Y-19743482D02*
X11255396Y-19714910D01*
X11283967Y-19700624D01*
X11326824Y-19700624D01*
X11355396Y-19714910D01*
X11369681Y-19743482D01*
X11369681Y-19900624D01*
X11512538Y-19900624D02*
X11512538Y-19700624D01*
X11512538Y-19729196D02*
X11526824Y-19714910D01*
X11555396Y-19700624D01*
X11598253Y-19700624D01*
X11626824Y-19714910D01*
X11641110Y-19743482D01*
X11641110Y-19900624D01*
X11641110Y-19743482D02*
X11655396Y-19714910D01*
X11683967Y-19700624D01*
X11726824Y-19700624D01*
X11755396Y-19714910D01*
X11769681Y-19743482D01*
X11769681Y-19900624D01*
X12355396Y-19586339D02*
X12098253Y-19972053D01*
X12741110Y-19600624D02*
X12769681Y-19600624D01*
X12798253Y-19614910D01*
X12812538Y-19629196D01*
X12826824Y-19657767D01*
X12841110Y-19714910D01*
X12841110Y-19786339D01*
X12826824Y-19843482D01*
X12812538Y-19872053D01*
X12798253Y-19886339D01*
X12769681Y-19900624D01*
X12741110Y-19900624D01*
X12712538Y-19886339D01*
X12698253Y-19872053D01*
X12683967Y-19843482D01*
X12669681Y-19786339D01*
X12669681Y-19714910D01*
X12683967Y-19657767D01*
X12698253Y-19629196D01*
X12712538Y-19614910D01*
X12741110Y-19600624D01*
X12969681Y-19872053D02*
X12983967Y-19886339D01*
X12969681Y-19900624D01*
X12955396Y-19886339D01*
X12969681Y-19872053D01*
X12969681Y-19900624D01*
X13169681Y-19600624D02*
X13198253Y-19600624D01*
X13226824Y-19614910D01*
X13241110Y-19629196D01*
X13255396Y-19657767D01*
X13269681Y-19714910D01*
X13269681Y-19786339D01*
X13255396Y-19843482D01*
X13241110Y-19872053D01*
X13226824Y-19886339D01*
X13198253Y-19900624D01*
X13169681Y-19900624D01*
X13141110Y-19886339D01*
X13126824Y-19872053D01*
X13112538Y-19843482D01*
X13098253Y-19786339D01*
X13098253Y-19714910D01*
X13112538Y-19657767D01*
X13126824Y-19629196D01*
X13141110Y-19614910D01*
X13169681Y-19600624D01*
X13526824Y-19600624D02*
X13469681Y-19600624D01*
X13441110Y-19614910D01*
X13426824Y-19629196D01*
X13398253Y-19672053D01*
X13383967Y-19729196D01*
X13383967Y-19843482D01*
X13398253Y-19872053D01*
X13412538Y-19886339D01*
X13441110Y-19900624D01*
X13498253Y-19900624D01*
X13526824Y-19886339D01*
X13541110Y-19872053D01*
X13555396Y-19843482D01*
X13555396Y-19772053D01*
X13541110Y-19743482D01*
X13526824Y-19729196D01*
X13498253Y-19714910D01*
X13441110Y-19714910D01*
X13412538Y-19729196D01*
X13398253Y-19743482D01*
X13383967Y-19772053D01*
X13655396Y-19600624D02*
X13855396Y-19600624D01*
X13726824Y-19900624D01*
X13955396Y-19600624D02*
X13955396Y-19657767D01*
X14069681Y-19600624D02*
X14069681Y-19657767D01*
X14512538Y-20014910D02*
X14498253Y-20000624D01*
X14469681Y-19957767D01*
X14455396Y-19929196D01*
X14441110Y-19886339D01*
X14426824Y-19814910D01*
X14426824Y-19757767D01*
X14441110Y-19686339D01*
X14455396Y-19643482D01*
X14469681Y-19614910D01*
X14498253Y-19572053D01*
X14512538Y-19557767D01*
X14783967Y-19900624D02*
X14612538Y-19900624D01*
X14698253Y-19900624D02*
X14698253Y-19600624D01*
X14669681Y-19643482D01*
X14641110Y-19672053D01*
X14612538Y-19686339D01*
X15041110Y-19600624D02*
X14983967Y-19600624D01*
X14955396Y-19614910D01*
X14941110Y-19629196D01*
X14912538Y-19672053D01*
X14898253Y-19729196D01*
X14898253Y-19843482D01*
X14912538Y-19872053D01*
X14926824Y-19886339D01*
X14955396Y-19900624D01*
X15012538Y-19900624D01*
X15041110Y-19886339D01*
X15055396Y-19872053D01*
X15069681Y-19843482D01*
X15069681Y-19772053D01*
X15055396Y-19743482D01*
X15041110Y-19729196D01*
X15012538Y-19714910D01*
X14955396Y-19714910D01*
X14926824Y-19729196D01*
X14912538Y-19743482D01*
X14898253Y-19772053D01*
X15426824Y-19900624D02*
X15426824Y-19600624D01*
X15555396Y-19900624D02*
X15555396Y-19743482D01*
X15541110Y-19714910D01*
X15512538Y-19700624D01*
X15469681Y-19700624D01*
X15441110Y-19714910D01*
X15426824Y-19729196D01*
X15741110Y-19900624D02*
X15712538Y-19886339D01*
X15698253Y-19872053D01*
X15683967Y-19843482D01*
X15683967Y-19757767D01*
X15698253Y-19729196D01*
X15712538Y-19714910D01*
X15741110Y-19700624D01*
X15783967Y-19700624D01*
X15812538Y-19714910D01*
X15826824Y-19729196D01*
X15841110Y-19757767D01*
X15841110Y-19843482D01*
X15826824Y-19872053D01*
X15812538Y-19886339D01*
X15783967Y-19900624D01*
X15741110Y-19900624D01*
X16012538Y-19900624D02*
X15983967Y-19886339D01*
X15969681Y-19857767D01*
X15969681Y-19600624D01*
X16241110Y-19886339D02*
X16212538Y-19900624D01*
X16155396Y-19900624D01*
X16126824Y-19886339D01*
X16112538Y-19857767D01*
X16112538Y-19743482D01*
X16126824Y-19714910D01*
X16155396Y-19700624D01*
X16212538Y-19700624D01*
X16241110Y-19714910D01*
X16255396Y-19743482D01*
X16255396Y-19772053D01*
X16112538Y-19800624D01*
X16369681Y-19886339D02*
X16398253Y-19900624D01*
X16455396Y-19900624D01*
X16483967Y-19886339D01*
X16498253Y-19857767D01*
X16498253Y-19843482D01*
X16483967Y-19814910D01*
X16455396Y-19800624D01*
X16412538Y-19800624D01*
X16383967Y-19786339D01*
X16369681Y-19757767D01*
X16369681Y-19743482D01*
X16383967Y-19714910D01*
X16412538Y-19700624D01*
X16455396Y-19700624D01*
X16483967Y-19714910D01*
X16598253Y-20014910D02*
X16612538Y-20000624D01*
X16641110Y-19957767D01*
X16655396Y-19929196D01*
X16669681Y-19886339D01*
X16683967Y-19814910D01*
X16683967Y-19757767D01*
X16669681Y-19686339D01*
X16655396Y-19643482D01*
X16641110Y-19614910D01*
X16612538Y-19572053D01*
X16598253Y-19557767D01*
X9666110Y-20320910D02*
X9826110Y-20160910D01*
X9666110Y-20000910D01*
X9506110Y-20160910D01*
X9666110Y-20320910D01*
X9826110Y-20160910D02*
G75*
G03X9826110Y-20160910I-160000J0D01*
G01*
X10083967Y-19996624D02*
X10269681Y-19996624D01*
X10169681Y-20110910D01*
X10212538Y-20110910D01*
X10241110Y-20125196D01*
X10255396Y-20139482D01*
X10269681Y-20168053D01*
X10269681Y-20239482D01*
X10255396Y-20268053D01*
X10241110Y-20282339D01*
X10212538Y-20296624D01*
X10126824Y-20296624D01*
X10098253Y-20282339D01*
X10083967Y-20268053D01*
X10398253Y-20268053D02*
X10412538Y-20282339D01*
X10398253Y-20296624D01*
X10383967Y-20282339D01*
X10398253Y-20268053D01*
X10398253Y-20296624D01*
X10526824Y-20025196D02*
X10541110Y-20010910D01*
X10569681Y-19996624D01*
X10641110Y-19996624D01*
X10669681Y-20010910D01*
X10683967Y-20025196D01*
X10698253Y-20053767D01*
X10698253Y-20082339D01*
X10683967Y-20125196D01*
X10512538Y-20296624D01*
X10698253Y-20296624D01*
X10883967Y-19996624D02*
X10912538Y-19996624D01*
X10941110Y-20010910D01*
X10955396Y-20025196D01*
X10969681Y-20053767D01*
X10983967Y-20110910D01*
X10983967Y-20182339D01*
X10969681Y-20239482D01*
X10955396Y-20268053D01*
X10941110Y-20282339D01*
X10912538Y-20296624D01*
X10883967Y-20296624D01*
X10855396Y-20282339D01*
X10841110Y-20268053D01*
X10826824Y-20239482D01*
X10812538Y-20182339D01*
X10812538Y-20110910D01*
X10826824Y-20053767D01*
X10841110Y-20025196D01*
X10855396Y-20010910D01*
X10883967Y-19996624D01*
X11112538Y-20296624D02*
X11112538Y-20096624D01*
X11112538Y-20125196D02*
X11126824Y-20110910D01*
X11155396Y-20096624D01*
X11198253Y-20096624D01*
X11226824Y-20110910D01*
X11241110Y-20139482D01*
X11241110Y-20296624D01*
X11241110Y-20139482D02*
X11255396Y-20110910D01*
X11283967Y-20096624D01*
X11326824Y-20096624D01*
X11355396Y-20110910D01*
X11369681Y-20139482D01*
X11369681Y-20296624D01*
X11512538Y-20296624D02*
X11512538Y-20096624D01*
X11512538Y-20125196D02*
X11526824Y-20110910D01*
X11555396Y-20096624D01*
X11598253Y-20096624D01*
X11626824Y-20110910D01*
X11641110Y-20139482D01*
X11641110Y-20296624D01*
X11641110Y-20139482D02*
X11655396Y-20110910D01*
X11683967Y-20096624D01*
X11726824Y-20096624D01*
X11755396Y-20110910D01*
X11769681Y-20139482D01*
X11769681Y-20296624D01*
X12355396Y-19982339D02*
X12098253Y-20368053D01*
X12741110Y-19996624D02*
X12769681Y-19996624D01*
X12798253Y-20010910D01*
X12812538Y-20025196D01*
X12826824Y-20053767D01*
X12841110Y-20110910D01*
X12841110Y-20182339D01*
X12826824Y-20239482D01*
X12812538Y-20268053D01*
X12798253Y-20282339D01*
X12769681Y-20296624D01*
X12741110Y-20296624D01*
X12712538Y-20282339D01*
X12698253Y-20268053D01*
X12683967Y-20239482D01*
X12669681Y-20182339D01*
X12669681Y-20110910D01*
X12683967Y-20053767D01*
X12698253Y-20025196D01*
X12712538Y-20010910D01*
X12741110Y-19996624D01*
X12969681Y-20268053D02*
X12983967Y-20282339D01*
X12969681Y-20296624D01*
X12955396Y-20282339D01*
X12969681Y-20268053D01*
X12969681Y-20296624D01*
X13269681Y-20296624D02*
X13098253Y-20296624D01*
X13183967Y-20296624D02*
X13183967Y-19996624D01*
X13155396Y-20039482D01*
X13126824Y-20068053D01*
X13098253Y-20082339D01*
X13383967Y-20025196D02*
X13398253Y-20010910D01*
X13426824Y-19996624D01*
X13498253Y-19996624D01*
X13526824Y-20010910D01*
X13541110Y-20025196D01*
X13555396Y-20053767D01*
X13555396Y-20082339D01*
X13541110Y-20125196D01*
X13369681Y-20296624D01*
X13555396Y-20296624D01*
X13812538Y-19996624D02*
X13755396Y-19996624D01*
X13726824Y-20010910D01*
X13712538Y-20025196D01*
X13683967Y-20068053D01*
X13669681Y-20125196D01*
X13669681Y-20239482D01*
X13683967Y-20268053D01*
X13698253Y-20282339D01*
X13726824Y-20296624D01*
X13783967Y-20296624D01*
X13812538Y-20282339D01*
X13826824Y-20268053D01*
X13841110Y-20239482D01*
X13841110Y-20168053D01*
X13826824Y-20139482D01*
X13812538Y-20125196D01*
X13783967Y-20110910D01*
X13726824Y-20110910D01*
X13698253Y-20125196D01*
X13683967Y-20139482D01*
X13669681Y-20168053D01*
X13955396Y-19996624D02*
X13955396Y-20053767D01*
X14069681Y-19996624D02*
X14069681Y-20053767D01*
X14512538Y-20410910D02*
X14498253Y-20396624D01*
X14469681Y-20353767D01*
X14455396Y-20325196D01*
X14441110Y-20282339D01*
X14426824Y-20210910D01*
X14426824Y-20153767D01*
X14441110Y-20082339D01*
X14455396Y-20039482D01*
X14469681Y-20010910D01*
X14498253Y-19968053D01*
X14512538Y-19953767D01*
X14755396Y-20096624D02*
X14755396Y-20296624D01*
X14683967Y-19982339D02*
X14612538Y-20196624D01*
X14798253Y-20196624D01*
X15141110Y-20296624D02*
X15141110Y-19996624D01*
X15269681Y-20296624D02*
X15269681Y-20139482D01*
X15255396Y-20110910D01*
X15226824Y-20096624D01*
X15183967Y-20096624D01*
X15155396Y-20110910D01*
X15141110Y-20125196D01*
X15455396Y-20296624D02*
X15426824Y-20282339D01*
X15412538Y-20268053D01*
X15398253Y-20239482D01*
X15398253Y-20153767D01*
X15412538Y-20125196D01*
X15426824Y-20110910D01*
X15455396Y-20096624D01*
X15498253Y-20096624D01*
X15526824Y-20110910D01*
X15541110Y-20125196D01*
X15555396Y-20153767D01*
X15555396Y-20239482D01*
X15541110Y-20268053D01*
X15526824Y-20282339D01*
X15498253Y-20296624D01*
X15455396Y-20296624D01*
X15726824Y-20296624D02*
X15698253Y-20282339D01*
X15683967Y-20253767D01*
X15683967Y-19996624D01*
X15955396Y-20282339D02*
X15926824Y-20296624D01*
X15869681Y-20296624D01*
X15841110Y-20282339D01*
X15826824Y-20253767D01*
X15826824Y-20139482D01*
X15841110Y-20110910D01*
X15869681Y-20096624D01*
X15926824Y-20096624D01*
X15955396Y-20110910D01*
X15969681Y-20139482D01*
X15969681Y-20168053D01*
X15826824Y-20196624D01*
X16083967Y-20282339D02*
X16112538Y-20296624D01*
X16169681Y-20296624D01*
X16198253Y-20282339D01*
X16212538Y-20253767D01*
X16212538Y-20239482D01*
X16198253Y-20210910D01*
X16169681Y-20196624D01*
X16126824Y-20196624D01*
X16098253Y-20182339D01*
X16083967Y-20153767D01*
X16083967Y-20139482D01*
X16098253Y-20110910D01*
X16126824Y-20096624D01*
X16169681Y-20096624D01*
X16198253Y-20110910D01*
X16312538Y-20410910D02*
X16326824Y-20396624D01*
X16355396Y-20353767D01*
X16369681Y-20325196D01*
X16383967Y-20282339D01*
X16398253Y-20210910D01*
X16398253Y-20153767D01*
X16383967Y-20082339D01*
X16369681Y-20039482D01*
X16355396Y-20010910D01*
X16326824Y-19968053D01*
X16312538Y-19953767D01*
M02*
